<?xml version="1.0" encoding="UTF-8" standalone="no"?>
<svg
   version="1.1"
   width="24"
   height="24"
   viewBox="0 0 24 24"
   id="svg4"
   sodipodi:docname="CPUAffinity.svg"
   inkscape:version="1.3.2 (091e20e, 2023-11-25, custom)"
   xmlns:inkscape="http://www.inkscape.org/namespaces/inkscape"
   xmlns:sodipodi="http://sodipodi.sourceforge.net/DTD/sodipodi-0.dtd"
   xmlns="http://www.w3.org/2000/svg"
   xmlns:svg="http://www.w3.org/2000/svg"
   xmlns:rdf="http://www.w3.org/1999/02/22-rdf-syntax-ns#"
   xmlns:cc="http://creativecommons.org/ns#"
   xmlns:dc="http://purl.org/dc/elements/1.1/">
  <metadata
     id="metadata10">
    <rdf:RDF>
      <cc:Work
         rdf:about="">
        <dc:format>image/svg+xml</dc:format>
        <dc:type
           rdf:resource="http://purl.org/dc/dcmitype/StillImage" />
      </cc:Work>
    </rdf:RDF>
  </metadata>
  <defs
     id="defs8" />
  <sodipodi:namedview
     pagecolor="#ffffff"
     bordercolor="#666666"
     borderopacity="1"
     objecttolerance="10"
     gridtolerance="10"
     guidetolerance="10"
     inkscape:pageopacity="0"
     inkscape:pageshadow="2"
     inkscape:window-width="1885"
     inkscape:window-height="1123"
     id="namedview6"
     showgrid="true"
     inkscape:zoom="27.812867"
     inkscape:cx="11.595353"
     inkscape:cy="12.566126"
     inkscape:window-x="0"
     inkscape:window-y="0"
     inkscape:window-maximized="0"
     inkscape:current-layer="svg4"
     inkscape:showpageshadow="0"
     inkscape:pagecheckerboard="0"
     inkscape:deskcolor="#d1d1d1">
    <inkscape:grid
       type="xygrid"
       id="grid817"
       originx="0"
       originy="0"
       spacingy="1"
       spacingx="1"
       units="px"
       visible="true" />
  </sodipodi:namedview>
  <path
     id="path1"
     style="fill:#000000;stroke-width:0.025"
     d="M 9,3 V 5 H 7 C 6.450002,5 5.979557,5.1962253 5.587891,5.5878905 5.196225,5.9795565 5,6.4500015 5,7 V 9 H 3 v 2 h 2 v 2 H 3 v 2 h 2 v 2 c 0,0.549998 0.196225,1.020443 0.587891,1.412109 C 5.979557,18.803775 6.450002,19 7,19 h 2 v 2 h 2 v -2 h 1.933594 L 12.466797,18.533203 C 12.150512,18.216919 11.898685,17.835908 11.722656,17.429688 11.66221,17.290197 11.613362,17.14649 11.572265,17 H 7 V 7 h 10 v 6.263672 c 0.11991,-0.08667 0.241977,-0.169691 0.367187,-0.244141 C 17.850191,12.73234 18.419124,12.551092 19,12.541016 V 11 h 2 V 9 H 19 V 7 C 19,6.4500015 18.803775,5.9795565 18.412109,5.5878905 18.020443,5.1962253 17.549998,5 17,5 H 15 V 3 H 13 V 5 H 11 V 3 Z m 0,6 v 6 h 2.607422 c 0.170937,-0.537384 0.465657,-1.037923 0.859375,-1.43164 0.643743,-0.643744 1.572243,-1.029297 2.482422,-1.029297 0.01685,0 0.03394,0.0017 0.05078,0.002 V 9 Z m 2,2 h 2 v 2 h -2 z m 3.949219,3 c -0.566666,0 -1.04922,0.19961 -1.449219,0.59961 -0.15,0.149999 -0.271553,0.312684 -0.365235,0.486328 -0.03125,0.05781 -0.05898,0.115364 -0.08398,0.175781 -0.100351,0.242409 -0.150391,0.505093 -0.150391,0.789062 0,0.2125 0.03097,0.414002 0.0918,0.607422 2e-4,6e-4 -2e-4,0.0014 0,0.002 0.02015,0.06387 0.04347,0.127515 0.07031,0.189453 0.108333,0.249999 0.254167,0.467058 0.4375,0.65039 l 3.5,3.5 3.5,-3.5 c 0.183332,-0.183332 0.329167,-0.400391 0.4375,-0.65039 0.108333,-0.25 0.162109,-0.515496 0.162109,-0.798828 0,-0.566666 -0.19961,-1.051173 -0.599609,-1.451172 -0.300476,-0.300477 -0.64671,-0.487849 -1.041016,-0.5625 -0.065,-0.01238 -0.131664,-0.02109 -0.199219,-0.02734 -6.34e-4,-5e-5 -0.0013,5e-5 -0.002,0 -0.06823,-0.0062 -0.136198,-0.0098 -0.207031,-0.0098 -0.07853,0 -0.158315,0.0063 -0.236328,0.01758 -6.35e-4,1e-4 -0.0013,-10e-5 -0.002,0 -0.07865,0.01146 -0.15625,0.02787 -0.234375,0.05078 -0.07756,0.02275 -0.155371,0.05189 -0.232422,0.08594 -5.57e-4,2.5e-4 -0.0014,-2.5e-4 -0.002,0 -0.0776,0.03437 -0.153386,0.07526 -0.230469,0.121094 -0.07667,0.04559 -0.157783,0.09911 -0.242188,0.160156 -4.5e-4,3.25e-4 -0.0015,-3.25e-4 -0.002,0 -0.0849,0.06146 -0.172917,0.131901 -0.265625,0.208985 -0.185612,0.153873 -0.386849,0.338021 -0.603516,0.554687 -0.249163,-0.232553 -0.472415,-0.428078 -0.667968,-0.585937 -7.78e-4,-6.28e-4 -0.0012,-0.0013 -0.002,-0.002 -0.09757,-0.07871 -0.187356,-0.148829 -0.271484,-0.208984 -4.63e-4,-3.33e-4 -0.0015,3.32e-4 -0.002,0 -0.08384,-0.05998 -0.161977,-0.110906 -0.232421,-0.152344 -0.07083,-0.04167 -0.141016,-0.07813 -0.212891,-0.109375 -5.55e-4,-2.5e-4 -0.0014,2.5e-4 -0.002,0 -0.07133,-0.03093 -0.142491,-0.05745 -0.214843,-0.07813 -6.03e-4,-1.75e-4 -0.0013,1.75e-4 -0.002,0 -0.07232,-0.02057 -0.145403,-0.03654 -0.21875,-0.04687 -6.42e-4,-1e-4 -0.0013,10e-5 -0.002,0 C 15.098555,14.005388 15.023574,14 14.949224,14 Z M 13,19.066406 V 21 h 1.933594 z" />
</svg>
