<?xml version="1.0" encoding="UTF-8" standalone="no"?>
<svg
   xmlns:dc="http://purl.org/dc/elements/1.1/"
   xmlns:cc="http://creativecommons.org/ns#"
   xmlns:rdf="http://www.w3.org/1999/02/22-rdf-syntax-ns#"
   xmlns:svg="http://www.w3.org/2000/svg"
   xmlns="http://www.w3.org/2000/svg"
   xmlns:sodipodi="http://sodipodi.sourceforge.net/DTD/sodipodi-0.dtd"
   xmlns:inkscape="http://www.inkscape.org/namespaces/inkscape"
   version="1.1"
   width="24"
   height="24"
   viewBox="0 0 24 24"
   id="svg865"
   sodipodi:docname="Filesystemtype.svg"
   inkscape:version="0.92.5 (2060ec1f9f, 2020-04-08)">
  <metadata
     id="metadata871">
    <rdf:RDF>
      <cc:Work
         rdf:about="">
        <dc:format>image/svg+xml</dc:format>
        <dc:type
           rdf:resource="http://purl.org/dc/dcmitype/StillImage" />
        <dc:title />
      </cc:Work>
    </rdf:RDF>
  </metadata>
  <defs
     id="defs869" />
  <sodipodi:namedview
     pagecolor="#ffffff"
     bordercolor="#666666"
     borderopacity="1"
     objecttolerance="10"
     gridtolerance="10"
     guidetolerance="10"
     inkscape:pageopacity="0"
     inkscape:pageshadow="2"
     inkscape:window-width="2560"
     inkscape:window-height="1351"
     id="namedview867"
     showgrid="true"
     inkscape:pagecheckerboard="false"
     inkscape:zoom="33.558109"
     inkscape:cx="3.2971203"
     inkscape:cy="16.439989"
     inkscape:window-x="0"
     inkscape:window-y="0"
     inkscape:window-maximized="1"
     inkscape:current-layer="svg865">
    <inkscape:grid
       type="xygrid"
       id="grid873" />
  </sodipodi:namedview>
  <path
     style="color:#000000;overflow:visible;opacity:1;vector-effect:none;fill:#000000;fill-opacity:1;stroke:none;stroke-width:2;stroke-linecap:butt;stroke-linejoin:miter;stroke-miterlimit:4;stroke-dasharray:none;stroke-dashoffset:0;stroke-opacity:1"
     d="M 4 3 C 3.446 3 3 3.446 3 4 L 3 20 C 3 20.554 3.446 21 4 21 L 20 21 C 20.554 21 21 20.554 21 20 L 21 4 C 21 3.446 20.554 3 20 3 L 4 3 z M 12 5 C 13.769446 5 15.374472 5.2867267 16.626953 5.8085938 C 17.253194 6.0695271 17.797101 6.3875382 18.230469 6.8144531 C 18.663836 7.2413681 19 7.830558 19 8.5 C 19 8.5221822 18.992916 8.5424501 18.992188 8.5644531 L 18.994141 8.5644531 L 18.994141 15.457031 L 18.988281 15.457031 C 18.988681 15.471831 18.994141 15.48513 18.994141 15.5 C 18.994141 16.169442 18.657976 16.758632 18.224609 17.185547 C 17.791241 17.612462 17.247335 17.930473 16.621094 18.191406 C 15.368613 18.713274 13.763587 19 11.994141 19 C 10.224695 19 8.6196683 18.713274 7.3671875 18.191406 C 6.740947 17.930473 6.1970396 17.612462 5.7636719 17.185547 C 5.3303045 16.758632 4.9941406 16.169442 4.9941406 15.5 C 4.9941406 15.48512 4.9996707 15.471821 5 15.457031 L 5 8.5644531 L 5.0078125 8.5644531 C 5.007083 8.5424501 5 8.5221822 5 8.5 C 5 7.830558 5.3361637 7.2413681 5.7695312 6.8144531 C 6.202899 6.3875382 6.7468064 6.0695273 7.3730469 5.8085938 C 8.6255277 5.2867267 10.230554 5 12 5 z M 12 7 C 10.455737 7 9.0616701 7.273295 8.1425781 7.65625 C 7.6830321 7.8477275 7.3476936 8.0689576 7.1738281 8.2402344 C 6.9999626 8.4115111 7 8.4790861 7 8.5 C 7 8.5209139 6.9999626 8.5884889 7.1738281 8.7597656 C 7.3476936 8.9310424 7.6830321 9.1522725 8.1425781 9.34375 C 9.0616701 9.726705 10.455737 10 12 10 C 13.544263 10 14.93833 9.726705 15.857422 9.34375 C 16.316968 9.1522725 16.652306 8.9310424 16.826172 8.7597656 C 16.920048 8.6672872 16.960609 8.609352 16.980469 8.5683594 L 16.980469 8.5644531 C 16.99485 8.5328961 17 8.509114 17 8.5 C 17 8.4790861 17.000037 8.4115111 16.826172 8.2402344 C 16.652306 8.0689576 16.316968 7.8477275 15.857422 7.65625 C 14.93833 7.273295 13.544263 7 12 7 z M 7.0136719 11.009766 L 7.0136719 15.457031 L 7.0078125 15.457031 C 7.0031705 15.473151 6.9941406 15.4937 6.9941406 15.5 C 6.9941406 15.520914 6.9941031 15.58849 7.1679688 15.759766 C 7.3418342 15.931043 7.6771744 16.152271 8.1367188 16.34375 C 9.0558107 16.726705 10.449878 17 11.994141 17 C 13.538404 17 14.932474 16.726705 15.851562 16.34375 C 16.31111 16.152272 16.646446 15.931043 16.820312 15.759766 C 16.994177 15.588491 16.994141 15.52091 16.994141 15.5 C 16.994141 15.49375 16.985069 15.473151 16.980469 15.457031 L 16.980469 11.013672 C 16.860992 11.071425 16.753373 11.138732 16.626953 11.191406 C 15.374472 11.713273 13.769446 12 12 12 C 10.230554 12 8.6255277 11.713273 7.3730469 11.191406 C 7.2443937 11.137801 7.1351308 11.068638 7.0136719 11.009766 z "
     id="rect816" />
</svg>
