<?xml version="1.0" encoding="UTF-8" standalone="no"?>
<svg
   xmlns:dc="http://purl.org/dc/elements/1.1/"
   xmlns:cc="http://creativecommons.org/ns#"
   xmlns:rdf="http://www.w3.org/1999/02/22-rdf-syntax-ns#"
   xmlns:svg="http://www.w3.org/2000/svg"
   xmlns="http://www.w3.org/2000/svg"
   xmlns:sodipodi="http://sodipodi.sourceforge.net/DTD/sodipodi-0.dtd"
   xmlns:inkscape="http://www.inkscape.org/namespaces/inkscape"
   enable-background="new 0 0 24 24"
   height="24"
   viewBox="0 0 24 24"
   width="24"
   version="1.1"
   id="svg8"
   sodipodi:docname="Mountpointchildren.svg"
   inkscape:version="0.92.5 (2060ec1f9f, 2020-04-08)">
  <metadata
     id="metadata14">
    <rdf:RDF>
      <cc:Work
         rdf:about="">
        <dc:format>image/svg+xml</dc:format>
        <dc:type
           rdf:resource="http://purl.org/dc/dcmitype/StillImage" />
        <dc:title />
      </cc:Work>
    </rdf:RDF>
  </metadata>
  <defs
     id="defs12" />
  <sodipodi:namedview
     pagecolor="#ffffff"
     bordercolor="#666666"
     borderopacity="1"
     objecttolerance="10"
     gridtolerance="10"
     guidetolerance="10"
     inkscape:pageopacity="0"
     inkscape:pageshadow="2"
     inkscape:window-width="1966"
     inkscape:window-height="1254"
     id="namedview10"
     showgrid="true"
     inkscape:zoom="27.812867"
     inkscape:cx="8.9306265"
     inkscape:cy="13.004349"
     inkscape:window-x="103"
     inkscape:window-y="0"
     inkscape:window-maximized="0"
     inkscape:current-layer="svg8"
     inkscape:snap-bbox="true"
     inkscape:snap-smooth-nodes="true"
     inkscape:snap-bbox-midpoints="true"
     inkscape:bbox-paths="true"
     inkscape:bbox-nodes="true"
     inkscape:snap-bbox-edge-midpoints="true"
     inkscape:object-paths="true"
     inkscape:snap-intersection-paths="true"
     inkscape:snap-object-midpoints="true"
     inkscape:snap-global="true">
    <inkscape:grid
       type="xygrid"
       id="grid911" />
  </sodipodi:namedview>
  <path
     style="color:#000000;overflow:visible;opacity:1;vector-effect:none;fill:#000000;fill-opacity:0.50196081;stroke:none;stroke-width:2;stroke-linecap:butt;stroke-linejoin:miter;stroke-miterlimit:4;stroke-dasharray:none;stroke-dashoffset:0;stroke-opacity:1"
     d="M 8 3 A 2 2 0 0 0 6 5 A 2 2 0 0 0 8 7 A 2 2 0 0 0 8.4453125 6.9472656 L 9.6445312 9.5351562 A 3.5 3.5 0 0 1 10.558594 9.1289062 L 9.3339844 6.4882812 A 2 2 0 0 0 10 5 A 2 2 0 0 0 8 3 z M 8 4 A 1 1 0 0 1 9 5 A 1 1 0 0 1 8 6 A 1 1 0 0 1 7 5 A 1 1 0 0 1 8 4 z "
     id="path969" />
  <path
     style="color:#000000;overflow:visible;opacity:1;vector-effect:none;fill:#000000;fill-opacity:0.50196081;stroke:none;stroke-width:2;stroke-linecap:butt;stroke-linejoin:miter;stroke-miterlimit:4;stroke-dasharray:none;stroke-dashoffset:0;stroke-opacity:1"
     d="M 9.0839844 15.027344 L 7.5683594 17.083984 A 2 2 0 0 1 8.4296875 17.601562 L 9.8984375 15.609375 A 3.5 3.5 0 0 1 9.0839844 15.027344 z M 6.84375 17.007812 A 2 2 0 0 0 6.703125 17.023438 A 2 2 0 0 1 6.84375 17.007812 z M 6.640625 17.033203 A 2 2 0 0 0 6.5351562 17.056641 A 2 2 0 0 1 6.640625 17.033203 z M 6.4296875 17.083984 A 2 2 0 0 0 6.3378906 17.115234 A 2 2 0 0 1 6.4296875 17.083984 z M 6.2558594 17.146484 A 2 2 0 0 0 6.1503906 17.191406 A 2 2 0 0 1 6.2558594 17.146484 z M 6.0722656 17.230469 A 2 2 0 0 0 5.9804688 17.28125 A 2 2 0 0 1 6.0722656 17.230469 z M 5.7304688 17.455078 A 2 2 0 0 0 5.6621094 17.515625 A 2 2 0 0 1 5.7304688 17.455078 z M 5.5859375 17.585938 A 2 2 0 0 0 5.515625 17.662109 A 2 2 0 0 1 5.5859375 17.585938 z M 5.4550781 17.730469 A 2 2 0 0 0 5.3789062 17.832031 A 2 2 0 0 1 5.4550781 17.730469 z M 5.3378906 17.888672 A 2 2 0 0 0 5.28125 17.980469 A 2 2 0 0 1 5.3378906 17.888672 z M 5.2304688 18.072266 A 2 2 0 0 0 5.1914062 18.150391 A 2 2 0 0 1 5.2304688 18.072266 z M 5.1464844 18.255859 A 2 2 0 0 0 5.1152344 18.337891 A 2 2 0 0 1 5.1464844 18.255859 z M 8.8925781 18.359375 A 2 2 0 0 1 8.9140625 18.427734 A 2 2 0 0 0 8.8925781 18.359375 z M 5.0839844 18.429688 A 2 2 0 0 0 5.0566406 18.535156 A 2 2 0 0 1 5.0839844 18.429688 z M 5.0332031 18.640625 A 2 2 0 0 0 5.0234375 18.703125 A 2 2 0 0 1 5.0332031 18.640625 z M 8.9785156 18.726562 A 2 2 0 0 1 8.9921875 18.84375 A 2 2 0 0 0 8.9785156 18.726562 z M 5.0078125 18.84375 A 2 2 0 0 0 5 19 A 2 2 0 0 1 5.0078125 18.84375 z M 9 19 A 2 2 0 0 1 8.9921875 19.15625 A 2 2 0 0 0 9 19 z M 5.0078125 19.15625 A 2 2 0 0 0 5.0234375 19.296875 A 2 2 0 0 1 5.0078125 19.15625 z M 8.9765625 19.296875 A 2 2 0 0 1 8.9667969 19.359375 A 2 2 0 0 0 8.9765625 19.296875 z M 5.0332031 19.359375 A 2 2 0 0 0 5.0566406 19.464844 A 2 2 0 0 1 5.0332031 19.359375 z M 8.9433594 19.464844 A 2 2 0 0 1 8.9160156 19.570312 A 2 2 0 0 0 8.9433594 19.464844 z M 5.0839844 19.570312 A 2 2 0 0 0 5.1152344 19.662109 A 2 2 0 0 1 5.0839844 19.570312 z M 8.8847656 19.662109 A 2 2 0 0 1 8.8535156 19.744141 A 2 2 0 0 0 8.8847656 19.662109 z M 5.1464844 19.744141 A 2 2 0 0 0 5.1914062 19.849609 A 2 2 0 0 1 5.1464844 19.744141 z M 8.8085938 19.849609 A 2 2 0 0 1 8.7695312 19.927734 A 2 2 0 0 0 8.8085938 19.849609 z M 5.2304688 19.927734 A 2 2 0 0 0 5.28125 20.019531 A 2 2 0 0 1 5.2304688 19.927734 z M 8.71875 20.019531 A 2 2 0 0 1 8.6621094 20.111328 A 2 2 0 0 0 8.71875 20.019531 z M 8.6210938 20.167969 A 2 2 0 0 1 8.5449219 20.269531 A 2 2 0 0 0 8.6210938 20.167969 z M 5.4550781 20.269531 A 2 2 0 0 0 5.515625 20.337891 A 2 2 0 0 1 5.4550781 20.269531 z M 8.484375 20.337891 A 2 2 0 0 1 8.4140625 20.414062 A 2 2 0 0 0 8.484375 20.337891 z M 5.5859375 20.414062 A 2 2 0 0 0 5.6621094 20.484375 A 2 2 0 0 1 5.5859375 20.414062 z M 8.3378906 20.484375 A 2 2 0 0 1 8.2695312 20.544922 A 2 2 0 0 0 8.3378906 20.484375 z M 5.7304688 20.544922 A 2 2 0 0 0 5.8320312 20.621094 A 2 2 0 0 1 5.7304688 20.544922 z M 5.8886719 20.662109 A 2 2 0 0 0 5.9804688 20.71875 A 2 2 0 0 1 5.8886719 20.662109 z M 8.0195312 20.71875 A 2 2 0 0 1 7.9277344 20.769531 A 2 2 0 0 0 8.0195312 20.71875 z M 6.0722656 20.769531 A 2 2 0 0 0 6.1503906 20.808594 A 2 2 0 0 1 6.0722656 20.769531 z M 7.8496094 20.808594 A 2 2 0 0 1 7.7441406 20.853516 A 2 2 0 0 0 7.8496094 20.808594 z M 6.2558594 20.853516 A 2 2 0 0 0 6.3378906 20.884766 A 2 2 0 0 1 6.2558594 20.853516 z M 7.6621094 20.884766 A 2 2 0 0 1 7.5703125 20.916016 A 2 2 0 0 0 7.6621094 20.884766 z M 6.4296875 20.916016 A 2 2 0 0 0 6.5351562 20.943359 A 2 2 0 0 1 6.4296875 20.916016 z M 7.4648438 20.943359 A 2 2 0 0 1 7.359375 20.966797 A 2 2 0 0 0 7.4648438 20.943359 z M 6.640625 20.966797 A 2 2 0 0 0 6.703125 20.976562 A 2 2 0 0 1 6.640625 20.966797 z M 7.296875 20.976562 A 2 2 0 0 1 7.15625 20.992188 A 2 2 0 0 0 7.296875 20.976562 z M 6.84375 20.992188 A 2 2 0 0 0 7 21 A 2 2 0 0 1 6.84375 20.992188 z "
     id="path965" />
  <path
     style="color:#000000;overflow:visible;opacity:1;vector-effect:none;fill:#000000;fill-opacity:0.50196081;stroke:none;stroke-width:2;stroke-linecap:butt;stroke-linejoin:miter;stroke-miterlimit:4;stroke-dasharray:none;stroke-dashoffset:0;stroke-opacity:1"
     d="M 13.777344 15.152344 A 3.5 3.5 0 0 1 12.927734 15.691406 L 14.498047 17.681641 A 2 2 0 0 1 15.328125 17.119141 L 13.777344 15.152344 z M 16 17 A 2 2 0 0 1 16.15625 17.007812 A 2 2 0 0 0 16 17 z M 16.296875 17.023438 A 2 2 0 0 1 16.359375 17.033203 A 2 2 0 0 0 16.296875 17.023438 z M 16.464844 17.056641 A 2 2 0 0 1 16.570312 17.083984 A 2 2 0 0 0 16.464844 17.056641 z M 16.662109 17.115234 A 2 2 0 0 1 16.744141 17.146484 A 2 2 0 0 0 16.662109 17.115234 z M 16.849609 17.191406 A 2 2 0 0 1 16.927734 17.230469 A 2 2 0 0 0 16.849609 17.191406 z M 17.019531 17.28125 A 2 2 0 0 1 17.111328 17.337891 A 2 2 0 0 0 17.019531 17.28125 z M 17.167969 17.378906 A 2 2 0 0 1 17.269531 17.455078 A 2 2 0 0 0 17.167969 17.378906 z M 17.337891 17.515625 A 2 2 0 0 1 17.414062 17.585938 A 2 2 0 0 0 17.337891 17.515625 z M 17.484375 17.662109 A 2 2 0 0 1 17.544922 17.730469 A 2 2 0 0 0 17.484375 17.662109 z M 17.71875 17.980469 A 2 2 0 0 1 17.769531 18.072266 A 2 2 0 0 0 17.71875 17.980469 z M 17.808594 18.150391 A 2 2 0 0 1 17.853516 18.255859 A 2 2 0 0 0 17.808594 18.150391 z M 14.125 18.3125 A 2 2 0 0 0 14.095703 18.390625 A 2 2 0 0 1 14.125 18.3125 z M 17.884766 18.337891 A 2 2 0 0 1 17.916016 18.429688 A 2 2 0 0 0 17.884766 18.337891 z M 17.943359 18.535156 A 2 2 0 0 1 17.966797 18.640625 A 2 2 0 0 0 17.943359 18.535156 z M 17.976562 18.703125 A 2 2 0 0 1 17.992188 18.84375 A 2 2 0 0 0 17.976562 18.703125 z M 14.005859 18.890625 A 2 2 0 0 0 14 19 A 2 2 0 0 1 14.005859 18.890625 z M 18 19 A 2 2 0 0 1 17.992188 19.15625 A 2 2 0 0 0 18 19 z M 14.007812 19.15625 A 2 2 0 0 0 14.023438 19.296875 A 2 2 0 0 1 14.007812 19.15625 z M 17.976562 19.296875 A 2 2 0 0 1 17.966797 19.359375 A 2 2 0 0 0 17.976562 19.296875 z M 14.033203 19.359375 A 2 2 0 0 0 14.056641 19.464844 A 2 2 0 0 1 14.033203 19.359375 z M 17.943359 19.464844 A 2 2 0 0 1 17.916016 19.570312 A 2 2 0 0 0 17.943359 19.464844 z M 14.083984 19.570312 A 2 2 0 0 0 14.115234 19.662109 A 2 2 0 0 1 14.083984 19.570312 z M 17.884766 19.662109 A 2 2 0 0 1 17.853516 19.744141 A 2 2 0 0 0 17.884766 19.662109 z M 14.146484 19.744141 A 2 2 0 0 0 14.191406 19.849609 A 2 2 0 0 1 14.146484 19.744141 z M 17.808594 19.849609 A 2 2 0 0 1 17.769531 19.927734 A 2 2 0 0 0 17.808594 19.849609 z M 14.230469 19.927734 A 2 2 0 0 0 14.28125 20.019531 A 2 2 0 0 1 14.230469 19.927734 z M 17.71875 20.019531 A 2 2 0 0 1 17.662109 20.111328 A 2 2 0 0 0 17.71875 20.019531 z M 17.621094 20.167969 A 2 2 0 0 1 17.544922 20.269531 A 2 2 0 0 0 17.621094 20.167969 z M 14.455078 20.269531 A 2 2 0 0 0 14.515625 20.337891 A 2 2 0 0 1 14.455078 20.269531 z M 17.484375 20.337891 A 2 2 0 0 1 17.414062 20.414062 A 2 2 0 0 0 17.484375 20.337891 z M 14.585938 20.414062 A 2 2 0 0 0 14.662109 20.484375 A 2 2 0 0 1 14.585938 20.414062 z M 17.337891 20.484375 A 2 2 0 0 1 17.269531 20.544922 A 2 2 0 0 0 17.337891 20.484375 z M 14.730469 20.544922 A 2 2 0 0 0 14.832031 20.621094 A 2 2 0 0 1 14.730469 20.544922 z M 14.888672 20.662109 A 2 2 0 0 0 14.980469 20.71875 A 2 2 0 0 1 14.888672 20.662109 z M 17.019531 20.71875 A 2 2 0 0 1 16.927734 20.769531 A 2 2 0 0 0 17.019531 20.71875 z M 15.072266 20.769531 A 2 2 0 0 0 15.150391 20.808594 A 2 2 0 0 1 15.072266 20.769531 z M 16.849609 20.808594 A 2 2 0 0 1 16.744141 20.853516 A 2 2 0 0 0 16.849609 20.808594 z M 15.255859 20.853516 A 2 2 0 0 0 15.337891 20.884766 A 2 2 0 0 1 15.255859 20.853516 z M 16.662109 20.884766 A 2 2 0 0 1 16.570312 20.916016 A 2 2 0 0 0 16.662109 20.884766 z M 15.429688 20.916016 A 2 2 0 0 0 15.535156 20.943359 A 2 2 0 0 1 15.429688 20.916016 z M 16.464844 20.943359 A 2 2 0 0 1 16.359375 20.966797 A 2 2 0 0 0 16.464844 20.943359 z M 15.640625 20.966797 A 2 2 0 0 0 15.703125 20.976562 A 2 2 0 0 1 15.640625 20.966797 z M 16.296875 20.976562 A 2 2 0 0 1 16.15625 20.992188 A 2 2 0 0 0 16.296875 20.976562 z M 15.84375 20.992188 A 2 2 0 0 0 16 21 A 2 2 0 0 1 15.84375 20.992188 z "
     id="path963" />
  <path
     style="fill:none"
     inkscape:connector-curvature="0"
     id="path2"
     d="M 0,0 H 24 V 24 H 0 Z" />
  <path
     style="color:#000000;overflow:visible;opacity:1;vector-effect:none;fill:#000000;fill-opacity:0.50196081;stroke:none;stroke-width:2;stroke-linecap:butt;stroke-linejoin:miter;stroke-miterlimit:4;stroke-dasharray:none;stroke-dashoffset:0;stroke-opacity:1"
     d="M 11.5 9 A 3.5 3.5 0 0 0 8 12.5 A 3.5 3.5 0 0 0 11.5 16 A 3.5 3.5 0 0 0 15 12.5 A 3.5 3.5 0 0 0 11.5 9 z M 11.5 10 A 2.5 2.5 0 0 1 14 12.5 A 2.5 2.5 0 0 1 11.5 15 A 2.5 2.5 0 0 1 9 12.5 A 2.5 2.5 0 0 1 11.5 10 z "
     id="path849" />
  <circle
     style="color:#000000;overflow:visible;opacity:1;vector-effect:none;fill:#000000;fill-opacity:1;stroke:none;stroke-width:2;stroke-linecap:butt;stroke-linejoin:miter;stroke-miterlimit:4;stroke-dasharray:none;stroke-dashoffset:0;stroke-opacity:1"
     id="path979"
     cx="7"
     cy="19"
     r="2" />
  <circle
     style="color:#000000;overflow:visible;opacity:1;vector-effect:none;fill:#000000;fill-opacity:1;stroke:none;stroke-width:2;stroke-linecap:butt;stroke-linejoin:miter;stroke-miterlimit:4;stroke-dasharray:none;stroke-dashoffset:0;stroke-opacity:1"
     id="path979-5"
     cx="16"
     cy="19"
     r="2" />
</svg>
