<?xml version="1.0" encoding="UTF-8" standalone="no"?>
<svg
   version="1.1"
   width="24"
   height="24"
   viewBox="0 0 24 24"
   id="svg1341"
   sodipodi:docname="OffCPU.svg"
   inkscape:version="1.4.2 (ebf0e940d0, 2025-05-08)"
   xml:space="preserve"
   xmlns:inkscape="http://www.inkscape.org/namespaces/inkscape"
   xmlns:sodipodi="http://sodipodi.sourceforge.net/DTD/sodipodi-0.dtd"
   xmlns="http://www.w3.org/2000/svg"
   xmlns:svg="http://www.w3.org/2000/svg"
   xmlns:rdf="http://www.w3.org/1999/02/22-rdf-syntax-ns#"
   xmlns:cc="http://creativecommons.org/ns#"
   xmlns:dc="http://purl.org/dc/elements/1.1/"><metadata
     id="metadata1347"><rdf:RDF><cc:Work
         rdf:about=""><dc:format>image/svg+xml</dc:format><dc:type
           rdf:resource="http://purl.org/dc/dcmitype/StillImage" /><dc:title /></cc:Work></rdf:RDF></metadata><defs
     id="defs1345"><inkscape:path-effect
       effect="fillet_chamfer"
       id="path-effect5"
       is_visible="true"
       lpeversion="1"
       nodesatellites_param="F,0,0,1,0,0,0,1 @ F,0,0,1,0,0,0,1 @ F,0,0,1,0,0,0,1 @ F,0,0,1,0,0,0,1"
       radius="0"
       unit="px"
       method="auto"
       mode="F"
       chamfer_steps="1"
       flexible="false"
       use_knot_distance="true"
       apply_no_radius="true"
       apply_with_radius="true"
       only_selected="false"
       hide_knots="false" /><inkscape:path-effect
       effect="fillet_chamfer"
       id="path-effect4"
       is_visible="true"
       lpeversion="1"
       nodesatellites_param="F,0,0,1,0,0,0,1 @ F,0,0,1,0,0,0,1 @ F,0,1,1,0,0.90079777,0,1 @ F,0,1,1,0,0.90079777,0,1 @ F,0,0,1,0,0.90079777,0,1 @ F,0,0,1,0,0,0,1"
       radius="0"
       unit="px"
       method="auto"
       mode="F"
       chamfer_steps="1"
       flexible="false"
       use_knot_distance="true"
       apply_no_radius="true"
       apply_with_radius="true"
       only_selected="false"
       hide_knots="false" /><inkscape:path-effect
       effect="fillet_chamfer"
       id="path-effect2"
       is_visible="true"
       lpeversion="1"
       nodesatellites_param="F,0,0,1,0,0,0,1 @ F,0,1,1,0,0.60859368,0,1 @ F,0,1,1,0,0.60859368,0,1 @ F,0,0,1,0,0.60859368,0,1"
       radius="0"
       unit="px"
       method="auto"
       mode="F"
       chamfer_steps="1"
       flexible="false"
       use_knot_distance="true"
       apply_no_radius="true"
       apply_with_radius="true"
       only_selected="false"
       hide_knots="false" /></defs><sodipodi:namedview
     pagecolor="#ffffff"
     bordercolor="#666666"
     borderopacity="1"
     objecttolerance="10"
     gridtolerance="10"
     guidetolerance="10"
     inkscape:pageopacity="0"
     inkscape:pageshadow="2"
     inkscape:window-width="1486"
     inkscape:window-height="1041"
     id="namedview1343"
     showgrid="true"
     inkscape:snap-nodes="true"
     inkscape:zoom="14.660122"
     inkscape:cx="-0.30695516"
     inkscape:cy="3.0695516"
     inkscape:window-x="0"
     inkscape:window-y="0"
     inkscape:window-maximized="0"
     inkscape:current-layer="svg1341"
     inkscape:showpageshadow="2"
     inkscape:pagecheckerboard="0"
     inkscape:deskcolor="#d1d1d1"><inkscape:grid
       type="xygrid"
       id="grid1892"
       originx="0"
       originy="0"
       spacingy="1"
       spacingx="1"
       units="px" /></sodipodi:namedview><path
     id="path1"
     style="stroke-width:0.025"
     d="M 2.0996094 2.0996094 L 0.68554688 3.5136719 L 5 7.828125 L 5 9 L 3 9 L 3 11 L 5 11 L 5 13 L 3 13 L 3 15 L 5 15 L 5 17 C 5 17.55 5.196224 18.020443 5.5878906 18.412109 C 5.9795573 18.803776 6.45 19 7 19 L 9 19 L 9 21 L 11 21 L 11 19 L 13 19 L 13 21 L 15 21 L 15 19 L 16.171875 19 L 20.484375 23.3125 L 21.900391 21.898438 L 2.0996094 2.0996094 z M 9 3 L 9 5 L 7.8203125 5 L 9.8203125 7 L 17 7 L 17 14.179688 L 19 16.179688 L 19 15 L 21 15 L 21 13 L 19 13 L 19 11 L 21 11 L 21 9 L 19 9 L 19 7 C 19 6.45 18.803776 5.9795573 18.412109 5.5878906 C 18.020443 5.196224 17.55 5 17 5 L 15 5 L 15 3 L 13 3 L 13 5 L 11 5 L 11 3 L 9 3 z M 11.820312 9 L 15 12.179688 L 15 9 L 11.820312 9 z M 7 9.828125 L 9 11.828125 L 9 15 L 12.171875 15 L 14.171875 17 L 7 17 L 7 9.828125 z " /></svg>
