<?xml version="1.0" encoding="UTF-8" standalone="no"?>
<svg
   version="1.1"
   width="24"
   height="24"
   viewBox="0 0 24 24"
   id="svg1341"
   sodipodi:docname="PinnedBelow.svg"
   inkscape:version="1.4.2 (ebf0e940d0, 2025-05-08)"
   xml:space="preserve"
   xmlns:inkscape="http://www.inkscape.org/namespaces/inkscape"
   xmlns:sodipodi="http://sodipodi.sourceforge.net/DTD/sodipodi-0.dtd"
   xmlns="http://www.w3.org/2000/svg"
   xmlns:svg="http://www.w3.org/2000/svg"
   xmlns:rdf="http://www.w3.org/1999/02/22-rdf-syntax-ns#"
   xmlns:cc="http://creativecommons.org/ns#"
   xmlns:dc="http://purl.org/dc/elements/1.1/"><metadata
     id="metadata1347"><rdf:RDF><cc:Work
         rdf:about=""><dc:format>image/svg+xml</dc:format><dc:type
           rdf:resource="http://purl.org/dc/dcmitype/StillImage" /></cc:Work></rdf:RDF></metadata><defs
     id="defs1345"><inkscape:path-effect
       effect="fillet_chamfer"
       id="path-effect5"
       is_visible="true"
       lpeversion="1"
       nodesatellites_param="F,0,0,1,0,0,0,1 @ F,0,0,1,0,0,0,1 @ F,0,0,1,0,0,0,1 @ F,0,0,1,0,0,0,1"
       radius="0"
       unit="px"
       method="auto"
       mode="F"
       chamfer_steps="1"
       flexible="false"
       use_knot_distance="true"
       apply_no_radius="true"
       apply_with_radius="true"
       only_selected="false"
       hide_knots="false" /><inkscape:path-effect
       effect="fillet_chamfer"
       id="path-effect4"
       is_visible="true"
       lpeversion="1"
       nodesatellites_param="F,0,0,1,0,0,0,1 @ F,0,0,1,0,0,0,1 @ F,0,1,1,0,0.90079777,0,1 @ F,0,1,1,0,0.90079777,0,1 @ F,0,0,1,0,0.90079777,0,1 @ F,0,0,1,0,0,0,1"
       radius="0"
       unit="px"
       method="auto"
       mode="F"
       chamfer_steps="1"
       flexible="false"
       use_knot_distance="true"
       apply_no_radius="true"
       apply_with_radius="true"
       only_selected="false"
       hide_knots="false" /><inkscape:path-effect
       effect="fillet_chamfer"
       id="path-effect2"
       is_visible="true"
       lpeversion="1"
       nodesatellites_param="F,0,0,1,0,0,0,1 @ F,0,1,1,0,0.60859368,0,1 @ F,0,1,1,0,0.60859368,0,1 @ F,0,0,1,0,0.60859368,0,1"
       radius="0"
       unit="px"
       method="auto"
       mode="F"
       chamfer_steps="1"
       flexible="false"
       use_knot_distance="true"
       apply_no_radius="true"
       apply_with_radius="true"
       only_selected="false"
       hide_knots="false" /></defs><sodipodi:namedview
     pagecolor="#ffffff"
     bordercolor="#666666"
     borderopacity="1"
     objecttolerance="10"
     gridtolerance="10"
     guidetolerance="10"
     inkscape:pageopacity="0"
     inkscape:pageshadow="2"
     inkscape:window-width="2560"
     inkscape:window-height="1362"
     id="namedview1343"
     showgrid="true"
     inkscape:snap-nodes="true"
     inkscape:zoom="22.627417"
     inkscape:cx="23.66598"
     inkscape:cy="19.776893"
     inkscape:window-x="0"
     inkscape:window-y="0"
     inkscape:window-maximized="1"
     inkscape:current-layer="svg1341"
     inkscape:showpageshadow="2"
     inkscape:pagecheckerboard="0"
     inkscape:deskcolor="#d1d1d1"><inkscape:grid
       type="xygrid"
       id="grid1892"
       originx="0"
       originy="0"
       spacingy="1"
       spacingx="1"
       units="px" /></sodipodi:namedview><path
     id="rect7"
     style="fill:#000000;fill-opacity:1;stroke-width:0.934381px;-inkscape-stroke:none"
     d="M 3.5 3 A 1.5 1.5 0 0 0 2 4.5 A 1.5 1.5 0 0 0 3.5 6 A 1.5 1.5 0 0 0 5 4.5 A 1.5 1.5 0 0 0 3.5 3 z M 5.5 8 A 1.5 1.5 0 0 0 4 9.5 A 1.5 1.5 0 0 0 5.5 11 A 1.5 1.5 0 0 0 7 9.5 A 1.5 1.5 0 0 0 5.5 8 z M 16.300781 10.496094 C 16.141024 10.506324 15.98792 10.593503 15.900391 10.742188 C 15.760343 10.98008 15.839171 11.286108 16.076172 11.425781 L 16.507812 11.679688 L 14.732422 14.695312 A 1.5 1.5 0 0 1 12.679688 15.228516 L 12.171875 16.089844 L 15.193359 17.869141 L 13.164062 21.314453 L 13.167969 21.316406 L 13.162109 21.318359 L 13.335938 21.990234 L 14.013672 21.814453 L 14.015625 21.816406 L 14.017578 21.8125 L 16.044922 18.369141 L 19.066406 20.148438 L 19.574219 19.287109 A 1.5 1.5 0 0 1 19.044922 17.234375 L 19.041016 17.232422 L 20.816406 14.214844 L 21.248047 14.470703 C 21.485214 14.610157 21.791593 14.530864 21.931641 14.292969 C 22.071688 14.055078 21.99287 13.749046 21.755859 13.609375 L 21.324219 13.353516 L 20.460938 12.847656 L 16.583984 10.564453 C 16.495064 10.512153 16.396634 10.489954 16.300781 10.496094 z M 7.5 13 A 1.5 1.5 0 0 0 6 14.5 A 1.5 1.5 0 0 0 7.5 16 A 1.5 1.5 0 0 0 9 14.5 A 1.5 1.5 0 0 0 7.5 13 z " /></svg>
