<?xml version="1.0" encoding="UTF-8" standalone="no"?>
<svg
   xmlns:dc="http://purl.org/dc/elements/1.1/"
   xmlns:cc="http://creativecommons.org/ns#"
   xmlns:rdf="http://www.w3.org/1999/02/22-rdf-syntax-ns#"
   xmlns:svg="http://www.w3.org/2000/svg"
   xmlns="http://www.w3.org/2000/svg"
   xmlns:sodipodi="http://sodipodi.sourceforge.net/DTD/sodipodi-0.dtd"
   xmlns:inkscape="http://www.inkscape.org/namespaces/inkscape"
   style="width:24px;height:24px"
   viewBox="0 0 24 24"
   version="1.1"
   id="svg4"
   sodipodi:docname="Readonly.svg"
   inkscape:version="1.0.1 (3bc2e813f5, 2020-09-07)">
  <metadata
     id="metadata10">
    <rdf:RDF>
      <cc:Work
         rdf:about="">
        <dc:format>image/svg+xml</dc:format>
        <dc:type
           rdf:resource="http://purl.org/dc/dcmitype/StillImage" />
        <dc:title></dc:title>
      </cc:Work>
    </rdf:RDF>
  </metadata>
  <defs
     id="defs8" />
  <sodipodi:namedview
     pagecolor="#ffffff"
     bordercolor="#666666"
     borderopacity="1"
     objecttolerance="10"
     gridtolerance="10"
     guidetolerance="10"
     inkscape:pageopacity="0"
     inkscape:pageshadow="2"
     inkscape:window-width="2160"
     inkscape:window-height="1350"
     id="namedview6"
     showgrid="true"
     inkscape:zoom="34.524272"
     inkscape:cx="8.6710544"
     inkscape:cy="13.528067"
     inkscape:window-x="-11"
     inkscape:window-y="-11"
     inkscape:window-maximized="1"
     inkscape:current-layer="svg4">
    <inkscape:grid
       type="xygrid"
       id="grid835" />
  </sodipodi:namedview>
  <path
     fill="currentColor"
     d="M18.66,2C18.4,2 18.16,2.09 17.97,2.28L16.13,4.13L19.88,7.88L21.72,6.03C22.11,5.64 22.11,5 21.72,4.63L19.38,2.28C19.18,2.09 18.91,2 18.66,2M3.28,4L2,5.28L8.5,11.75L4,16.25V20H7.75L12.25,15.5L18.72,22L20,20.72L13.5,14.25L9.75,10.5L3.28,4M15.06,5.19L11.03,9.22L14.78,12.97L18.81,8.94L15.06,5.19Z"
     id="path2" />
</svg>
