<?xml version="1.0" encoding="UTF-8" standalone="no"?>
<svg
   version="1.1"
   width="24"
   height="24"
   viewBox="0 0 24 24"
   id="svg1341"
   sodipodi:docname="Realtime.svg"
   inkscape:version="1.4.2 (ebf0e940d0, 2025-05-08)"
   xmlns:inkscape="http://www.inkscape.org/namespaces/inkscape"
   xmlns:sodipodi="http://sodipodi.sourceforge.net/DTD/sodipodi-0.dtd"
   xmlns="http://www.w3.org/2000/svg"
   xmlns:svg="http://www.w3.org/2000/svg"
   xmlns:rdf="http://www.w3.org/1999/02/22-rdf-syntax-ns#"
   xmlns:cc="http://creativecommons.org/ns#"
   xmlns:dc="http://purl.org/dc/elements/1.1/">
  <metadata
     id="metadata1347">
    <rdf:RDF>
      <cc:Work
         rdf:about="">
        <dc:format>image/svg+xml</dc:format>
        <dc:type
           rdf:resource="http://purl.org/dc/dcmitype/StillImage" />
        <dc:title />
      </cc:Work>
    </rdf:RDF>
  </metadata>
  <defs
     id="defs1345" />
  <sodipodi:namedview
     pagecolor="#ffffff"
     bordercolor="#666666"
     borderopacity="1"
     objecttolerance="10"
     gridtolerance="10"
     guidetolerance="10"
     inkscape:pageopacity="0"
     inkscape:pageshadow="2"
     inkscape:window-width="1843"
     inkscape:window-height="1162"
     id="namedview1343"
     showgrid="true"
     inkscape:snap-nodes="true"
     inkscape:zoom="27.812866"
     inkscape:cx="8.0178719"
     inkscape:cy="12.062762"
     inkscape:window-x="0"
     inkscape:window-y="0"
     inkscape:window-maximized="0"
     inkscape:current-layer="svg1341"
     inkscape:showpageshadow="2"
     inkscape:pagecheckerboard="0"
     inkscape:deskcolor="#d1d1d1"
     showguides="true">
    <inkscape:grid
       type="xygrid"
       id="grid1892"
       originx="0"
       originy="0"
       spacingy="1"
       spacingx="1"
       units="px" />
  </sodipodi:namedview>
  <path
     id="path1"
     style="stroke-width:0.025"
     d="M 7 1.0097656 L 7 2.9902344 L 13 2.9902344 L 13 1.0097656 L 7 1.0097656 z M 10 4 C 8.75 4 7.5799479 4.2378906 6.4882812 4.7128906 C 5.3966147 5.1878906 4.445052 5.8283854 3.6367188 6.6367188 C 2.8283854 7.4450521 2.1878906 8.3966146 1.7128906 9.4882812 C 1.2378906 10.579948 1 11.75 1 13 C 1 14.25 1.2378906 15.420052 1.7128906 16.511719 C 2.1878906 17.603385 2.8283854 18.554948 3.6367188 19.363281 C 4.4450519 20.171615 5.3966147 20.812109 6.4882812 21.287109 C 7.5799479 21.762109 8.75 22 10 22 C 11.25 22 12.420052 21.762109 13.511719 21.287109 C 14.603385 20.812109 15.554948 20.171615 16.363281 19.363281 C 17.171615 18.554948 17.812109 17.603385 18.287109 16.511719 C 18.762109 15.420052 19 14.25 19 13 C 19 11.75 18.762109 10.579948 18.287109 9.4882812 C 17.949833 8.7131365 17.528431 8.0077508 17.023438 7.375 L 18.699219 5.6992188 L 17.300781 4.3007812 L 15.625 5.9765625 C 14.992249 5.471568 14.286863 5.0501675 13.511719 4.7128906 C 12.420052 4.2378906 11.25 4 10 4 z M 10 6 C 11.95 6 13.604557 6.678776 14.962891 8.0371094 C 16.321224 9.3954427 17 11.05 17 13 C 17 14.95 16.321224 16.604557 14.962891 17.962891 C 13.604557 19.321224 11.95 20 10 20 C 8.05 20 6.3954427 19.321224 5.0371094 17.962891 C 3.678776 16.604557 3 14.95 3 13 C 3 11.05 3.678776 9.3954427 5.0371094 8.0371094 C 6.3954427 6.678776 8.05 6 10 6 z M 21.019531 6.9941406 L 21.019531 13.005859 L 23 13.005859 L 23 6.9941406 L 21.019531 6.9941406 z M 9.0097656 7.9589844 L 9.0097656 13.96875 L 10.990234 13.96875 L 10.990234 7.9589844 L 9.0097656 7.9589844 z M 21.019531 14.962891 L 21.019531 16.962891 L 23 16.962891 L 23 14.962891 L 21.019531 14.962891 z " />
  <path
     style="stroke-width:0.025"
     d="M 10,13 Z"
     id="path2" />
</svg>
