<?xml version="1.0" encoding="UTF-8" standalone="no"?>
<svg
   xmlns:dc="http://purl.org/dc/elements/1.1/"
   xmlns:cc="http://creativecommons.org/ns#"
   xmlns:rdf="http://www.w3.org/1999/02/22-rdf-syntax-ns#"
   xmlns:svg="http://www.w3.org/2000/svg"
   xmlns="http://www.w3.org/2000/svg"
   xmlns:sodipodi="http://sodipodi.sourceforge.net/DTD/sodipodi-0.dtd"
   xmlns:inkscape="http://www.inkscape.org/namespaces/inkscape"
   version="1.1"
   width="24"
   height="24"
   viewBox="0 0 24 24"
   id="svg1341"
   sodipodi:docname="Root.svg"
   inkscape:version="0.92.5 (2060ec1f9f, 2020-04-08)">
  <metadata
     id="metadata1347">
    <rdf:RDF>
      <cc:Work
         rdf:about="">
        <dc:format>image/svg+xml</dc:format>
        <dc:type
           rdf:resource="http://purl.org/dc/dcmitype/StillImage" />
        <dc:title></dc:title>
      </cc:Work>
    </rdf:RDF>
  </metadata>
  <defs
     id="defs1345" />
  <sodipodi:namedview
     pagecolor="#ffffff"
     bordercolor="#666666"
     borderopacity="1"
     objecttolerance="10"
     gridtolerance="10"
     guidetolerance="10"
     inkscape:pageopacity="0"
     inkscape:pageshadow="2"
     inkscape:window-width="1843"
     inkscape:window-height="1162"
     id="namedview1343"
     showgrid="true"
     inkscape:snap-nodes="true"
     inkscape:zoom="39.333333"
     inkscape:cx="11.539971"
     inkscape:cy="10.638075"
     inkscape:window-x="0"
     inkscape:window-y="0"
     inkscape:window-maximized="0"
     inkscape:current-layer="svg1341">
    <inkscape:grid
       type="xygrid"
       id="grid1892" />
  </sodipodi:namedview>
  <path
     d="m 12,5 a 4,4 0 0 1 4,4 4,4 0 0 1 -4,4 4,4 0 0 1 -4,-4 4,4 0 0 1 4,-4 m 0,10 c 4.42,0 8,1.79 8,4 v 2 H 4 v -2 c 0,-2.21 3.58,-4 8,-4 z"
     id="path1339"
     inkscape:connector-curvature="0"
     style="fill:#000000" />
  <path
     sodipodi:nodetypes="cccc"
     inkscape:connector-curvature="0"
     id="path1911"
     d="M 10,5.5847458 C 8.9237288,5.2542373 6.7457627,4 6,3 6,5 7.0367231,7.2711865 8.4915254,8.2711865 Z"
     style="fill:#000000;fill-rule:evenodd;stroke:none;stroke-width:1px;stroke-linecap:butt;stroke-linejoin:miter;stroke-opacity:1" />
  <path
     style="fill:#000000;fill-rule:evenodd;stroke:none;stroke-width:1px;stroke-linecap:butt;stroke-linejoin:miter;stroke-opacity:1"
     d="M 14,5.5847458 C 15.076271,5.2542373 17.254237,4 18,3 18,5 16.963277,7.2711865 15.508475,8.2711865 Z"
     id="path1917"
     inkscape:connector-curvature="0"
     sodipodi:nodetypes="cccc" />
</svg>
