<?xml version="1.0" encoding="UTF-8" standalone="no"?>
<svg
   enable-background="new 0 0 24 24"
   height="24"
   viewBox="0 0 24 24"
   width="24"
   version="1.1"
   id="svg8"
   sodipodi:docname="Thread.svg"
   inkscape:version="1.1.2 (0a00cf5339, 2022-02-04)"
   xmlns:inkscape="http://www.inkscape.org/namespaces/inkscape"
   xmlns:sodipodi="http://sodipodi.sourceforge.net/DTD/sodipodi-0.dtd"
   xmlns="http://www.w3.org/2000/svg"
   xmlns:svg="http://www.w3.org/2000/svg"
   xmlns:rdf="http://www.w3.org/1999/02/22-rdf-syntax-ns#"
   xmlns:cc="http://creativecommons.org/ns#"
   xmlns:dc="http://purl.org/dc/elements/1.1/">
  <metadata
     id="metadata14">
    <rdf:RDF>
      <cc:Work
         rdf:about="">
        <dc:format>image/svg+xml</dc:format>
        <dc:type
           rdf:resource="http://purl.org/dc/dcmitype/StillImage" />
      </cc:Work>
    </rdf:RDF>
  </metadata>
  <defs
     id="defs12">
    <inkscape:path-effect
       effect="fillet_chamfer"
       id="path-effect1692"
       is_visible="true"
       lpeversion="1"
       satellites_param="F,0,0,1,0,0,0,1 @ F,0,0,1,0,0,0,1 @ F,0,0,1,0,1,0,1 @ F,0,1,1,0,1,0,1"
       unit="px"
       method="auto"
       mode="F"
       radius="1"
       chamfer_steps="1"
       flexible="false"
       use_knot_distance="true"
       apply_no_radius="true"
       apply_with_radius="true"
       only_selected="true"
       hide_knots="false" />
    <inkscape:path-effect
       effect="fillet_chamfer"
       id="path-effect1692-3"
       is_visible="true"
       lpeversion="1"
       satellites_param="F,0,0,1,0,0,0,1 @ F,0,0,1,0,0,0,1 @ F,0,0,1,0,1,0,1 @ F,0,1,1,0,1,0,1"
       unit="px"
       method="auto"
       mode="F"
       radius="1"
       chamfer_steps="1"
       flexible="false"
       use_knot_distance="true"
       apply_no_radius="true"
       apply_with_radius="true"
       only_selected="true"
       hide_knots="false" />
  </defs>
  <sodipodi:namedview
     pagecolor="#ffffff"
     bordercolor="#666666"
     borderopacity="1"
     objecttolerance="10"
     gridtolerance="10"
     guidetolerance="10"
     inkscape:pageopacity="0"
     inkscape:pageshadow="2"
     inkscape:window-width="2560"
     inkscape:window-height="1361"
     id="namedview10"
     showgrid="true"
     inkscape:zoom="22.627417"
     inkscape:cx="16.83798"
     inkscape:cy="15.202796"
     inkscape:window-x="0"
     inkscape:window-y="0"
     inkscape:window-maximized="1"
     inkscape:current-layer="svg8"
     inkscape:pagecheckerboard="0"
     inkscape:snap-bbox="true"
     inkscape:snap-center="true"
     inkscape:snap-object-midpoints="true"
     inkscape:snap-smooth-nodes="true"
     inkscape:snap-midpoints="true"
     inkscape:snap-grids="true">
    <inkscape:grid
       type="xygrid"
       id="grid911" />
  </sodipodi:namedview>
  <path
     style="fill:none"
     inkscape:connector-curvature="0"
     id="path2"
     d="M 0,0 H 24 V 24 H 0 Z" />
  <path
     id="rect926"
     style="fill:#000000;stroke:none;stroke-width:0.1;stroke-miterlimit:4;stroke-dasharray:none"
     d="M 3 3 L 3 6 A 1 1 0 0 0 4 7 L 14 7 A 1 1 0 0 0 15 6 L 15 3 L 3 3 z M 4 4 L 14 4 L 14 6 L 4 6 L 4 4 z M 5 8 L 5 10 L 13 10 L 13 9.5 C 13.999999 9.5 15.72304 9.510758 16.994141 9.8574219 C 17.629691 10.030754 18.130548 10.291414 18.384766 10.589844 C 18.638984 10.888274 18.735862 11.210383 18.525391 11.841797 C 18.329777 12.428638 18.387694 12.999941 18.585938 13.464844 C 18.784178 13.929747 19.105018 14.296671 19.431641 14.585938 C 20.084887 15.164471 20.806641 15.460938 20.806641 15.460938 L 21.193359 14.539062 C 21.193359 14.539062 20.598617 14.285015 20.09375 13.837891 C 19.841317 13.614329 19.623325 13.34774 19.505859 13.072266 C 19.388393 12.796791 19.353996 12.520045 19.474609 12.158203 C 19.764138 11.289619 19.611016 10.486726 19.146484 9.9414062 C 18.681949 9.3960869 17.995307 9.0942458 17.255859 8.8925781 C 15.776963 8.4892428 13.999999 8.5 13 8.5 L 13 8 L 5 8 z M 5 11 L 5 13 L 13 13 L 13 11 L 5 11 z M 5 14 L 5 16 L 13 16 L 13 14 L 5 14 z M 4 17 A 1 1 0 0 0 3 18 L 3 21 L 15 21 L 15 18 A 1 1 0 0 0 14 17 L 4 17 z M 4 18 L 14 18 L 14 20 L 4 20 L 4 18 z " />
</svg>
