<?xml version="1.0" encoding="UTF-8" standalone="no"?>
<svg
   enable-background="new 0 0 24 24"
   height="24"
   viewBox="0 0 24 24"
   width="24"
   version="1.1"
   id="svg8"
   sodipodi:docname="Thread.svg"
   inkscape:version="1.4.2 (ebf0e940d0, 2025-05-08)"
   xmlns:inkscape="http://www.inkscape.org/namespaces/inkscape"
   xmlns:sodipodi="http://sodipodi.sourceforge.net/DTD/sodipodi-0.dtd"
   xmlns="http://www.w3.org/2000/svg"
   xmlns:svg="http://www.w3.org/2000/svg"
   xmlns:rdf="http://www.w3.org/1999/02/22-rdf-syntax-ns#"
   xmlns:cc="http://creativecommons.org/ns#"
   xmlns:dc="http://purl.org/dc/elements/1.1/">
  <metadata
     id="metadata14">
    <rdf:RDF>
      <cc:Work
         rdf:about="">
        <dc:format>image/svg+xml</dc:format>
        <dc:type
           rdf:resource="http://purl.org/dc/dcmitype/StillImage" />
      </cc:Work>
    </rdf:RDF>
  </metadata>
  <defs
     id="defs12">
    <inkscape:path-effect
       effect="fillet_chamfer"
       id="path-effect1692"
       is_visible="true"
       lpeversion="1"
       satellites_param="F,0,0,1,0,0,0,1 @ F,0,0,1,0,0,0,1 @ F,0,0,1,0,1,0,1 @ F,0,1,1,0,1,0,1"
       unit="px"
       method="auto"
       mode="F"
       radius="1"
       chamfer_steps="1"
       flexible="false"
       use_knot_distance="true"
       apply_no_radius="true"
       apply_with_radius="true"
       only_selected="true"
       hide_knots="false"
       nodesatellites_param="F,0,0,1,0,0,0,1 @ F,0,0,1,0,0,0,1 @ F,0,0,1,0,1,0,1 @ F,0,1,1,0,1,0,1" />
    <inkscape:path-effect
       effect="fillet_chamfer"
       id="path-effect1692-3"
       is_visible="true"
       lpeversion="1"
       satellites_param="F,0,0,1,0,0,0,1 @ F,0,0,1,0,0,0,1 @ F,0,0,1,0,1,0,1 @ F,0,1,1,0,1,0,1"
       unit="px"
       method="auto"
       mode="F"
       radius="1"
       chamfer_steps="1"
       flexible="false"
       use_knot_distance="true"
       apply_no_radius="true"
       apply_with_radius="true"
       only_selected="true"
       hide_knots="false"
       nodesatellites_param="F,0,0,1,0,0,0,1 @ F,0,0,1,0,0,0,1 @ F,0,0,1,0,1,0,1 @ F,0,1,1,0,1,0,1" />
  </defs>
  <sodipodi:namedview
     pagecolor="#ffffff"
     bordercolor="#666666"
     borderopacity="1"
     objecttolerance="10"
     gridtolerance="10"
     guidetolerance="10"
     inkscape:pageopacity="0"
     inkscape:pageshadow="2"
     inkscape:window-width="2560"
     inkscape:window-height="1362"
     id="namedview10"
     showgrid="true"
     inkscape:zoom="45.254834"
     inkscape:cx="6.4633979"
     inkscape:cy="10.728136"
     inkscape:window-x="0"
     inkscape:window-y="0"
     inkscape:window-maximized="1"
     inkscape:current-layer="svg8"
     inkscape:pagecheckerboard="0"
     inkscape:snap-bbox="true"
     inkscape:snap-center="true"
     inkscape:snap-object-midpoints="true"
     inkscape:snap-smooth-nodes="true"
     inkscape:snap-midpoints="true"
     inkscape:snap-grids="true"
     inkscape:showpageshadow="2"
     inkscape:deskcolor="#d1d1d1">
    <inkscape:grid
       type="xygrid"
       id="grid911"
       originx="0"
       originy="0"
       spacingy="1"
       spacingx="1"
       units="px" />
  </sodipodi:namedview>
  <path
     id="path6"
     style="fill:#000000;stroke:none;stroke-width:0.1;stroke-miterlimit:4;stroke-dasharray:none"
     d="m 3,3 v 3 a 1,1 0 0 0 1,1 h 1 v 2 l 8,-2 h 1 A 1,1 0 0 0 15,6 V 3 Z M 4,4 H 14 V 6 H 4 Z m 9,6 -8,2 v 2 l 8,-2 v -0.5 c 0.999999,0 2.72304,0.01076 3.994141,0.357422 0.63555,0.173332 1.136407,0.433992 1.390625,0.732422 0.254218,0.29843 0.351096,0.620539 0.140625,1.251953 -0.195614,0.586841 -0.137701,1.158144 0.06055,1.623047 0.198239,0.464903 0.51908,0.831827 0.845703,1.121094 0.653246,0.578533 1.375,0.875 1.375,0.875 l 0.386718,-0.921876 c 0,0 -0.594742,-0.254047 -1.099609,-0.701171 -0.252433,-0.223562 -0.470425,-0.490151 -0.587891,-0.765625 -0.117466,-0.275475 -0.151863,-0.552221 -0.03125,-0.914063 0.289529,-0.868584 0.136407,-1.671477 -0.328125,-2.216797 -0.464541,-0.545319 -1.15118,-0.84716 -1.890628,-1.048828 C 15.776963,10.489243 13.999999,10.5 13,10.5 Z m 0,6 -4,1 H 4 a 1,1 0 0 0 -1,1 v 3 h 12 v -3 a 1,1 0 0 0 -1,-1 h -1 z m -9,2 h 1 8 1 v 2 H 4 Z" />
</svg>
