<?xml version="1.0" encoding="UTF-8" standalone="no"?>
<svg
   version="1.1"
   width="24"
   height="24"
   viewBox="0 0 24 24"
   id="svg1341"
   sodipodi:docname="Tux.svg"
   inkscape:version="1.4.2 (ebf0e940d0, 2025-05-08)"
   xml:space="preserve"
   xmlns:inkscape="http://www.inkscape.org/namespaces/inkscape"
   xmlns:sodipodi="http://sodipodi.sourceforge.net/DTD/sodipodi-0.dtd"
   xmlns="http://www.w3.org/2000/svg"
   xmlns:svg="http://www.w3.org/2000/svg"
   xmlns:rdf="http://www.w3.org/1999/02/22-rdf-syntax-ns#"
   xmlns:cc="http://creativecommons.org/ns#"
   xmlns:dc="http://purl.org/dc/elements/1.1/"><metadata
     id="metadata1347"><rdf:RDF><cc:Work
         rdf:about=""><dc:format>image/svg+xml</dc:format><dc:type
           rdf:resource="http://purl.org/dc/dcmitype/StillImage" /><dc:title /></cc:Work></rdf:RDF></metadata><defs
     id="defs1345"><inkscape:path-effect
       effect="fillet_chamfer"
       id="path-effect5"
       is_visible="true"
       lpeversion="1"
       nodesatellites_param="F,0,0,1,0,0,0,1 @ F,0,0,1,0,0,0,1 @ F,0,0,1,0,0,0,1 @ F,0,0,1,0,0,0,1"
       radius="0"
       unit="px"
       method="auto"
       mode="F"
       chamfer_steps="1"
       flexible="false"
       use_knot_distance="true"
       apply_no_radius="true"
       apply_with_radius="true"
       only_selected="false"
       hide_knots="false" /><inkscape:path-effect
       effect="fillet_chamfer"
       id="path-effect4"
       is_visible="true"
       lpeversion="1"
       nodesatellites_param="F,0,0,1,0,0,0,1 @ F,0,0,1,0,0,0,1 @ F,0,1,1,0,0.90079777,0,1 @ F,0,1,1,0,0.90079777,0,1 @ F,0,0,1,0,0.90079777,0,1 @ F,0,0,1,0,0,0,1"
       radius="0"
       unit="px"
       method="auto"
       mode="F"
       chamfer_steps="1"
       flexible="false"
       use_knot_distance="true"
       apply_no_radius="true"
       apply_with_radius="true"
       only_selected="false"
       hide_knots="false" /><inkscape:path-effect
       effect="fillet_chamfer"
       id="path-effect2"
       is_visible="true"
       lpeversion="1"
       nodesatellites_param="F,0,0,1,0,0,0,1 @ F,0,1,1,0,0.60859368,0,1 @ F,0,1,1,0,0.60859368,0,1 @ F,0,0,1,0,0.60859368,0,1"
       radius="0"
       unit="px"
       method="auto"
       mode="F"
       chamfer_steps="1"
       flexible="false"
       use_knot_distance="true"
       apply_no_radius="true"
       apply_with_radius="true"
       only_selected="false"
       hide_knots="false" /></defs><sodipodi:namedview
     pagecolor="#ffffff"
     bordercolor="#666666"
     borderopacity="1"
     objecttolerance="10"
     gridtolerance="10"
     guidetolerance="10"
     inkscape:pageopacity="0"
     inkscape:pageshadow="2"
     inkscape:window-width="2560"
     inkscape:window-height="1362"
     id="namedview1343"
     showgrid="true"
     inkscape:snap-nodes="true"
     inkscape:zoom="16"
     inkscape:cx="-24.65625"
     inkscape:cy="14.59375"
     inkscape:window-x="0"
     inkscape:window-y="0"
     inkscape:window-maximized="1"
     inkscape:current-layer="svg1341"
     inkscape:showpageshadow="2"
     inkscape:pagecheckerboard="0"
     inkscape:deskcolor="#d1d1d1"><inkscape:grid
       type="xygrid"
       id="grid1892"
       originx="0"
       originy="0"
       spacingy="1"
       spacingx="1"
       units="px" /></sodipodi:namedview><path
     id="path3"
     style="fill:#1a1a1a;stroke:none;stroke-width:0.859879px;stroke-linecap:butt;stroke-linejoin:miter;stroke-opacity:1"
     d="M 12.000038,2.9313168 C 8.1738059,3.0093399 6.5308796,6.1027513 6.3041433,8.7185686 v -0.035425 c -0.019505,0.9774477 -2.1678721,3.0922124 -3.7102546,3.6729674 -0.5698253,0.214557 -1.2526564,0.773674 -1.060872,1.383421 0.1269522,0.40362 2.1618654,-0.340793 3.5238098,-0.891207 -0.060528,0.258424 -0.097244,0.56829 -0.1006799,0.958327 -0.011213,1.267074 0.7870116,2.926655 2.1888639,4.193147 C 5.5710946,18.258063 5.019538,19.18701 5.019538,19.985438 v 0.376618 c 1.274e-4,0.389702 0.3062016,0.705784 0.6842531,0.706627 h 3.0465105 1.6724114 c 0.378779,2.17e-4 0.685989,-0.316176 0.686117,-0.706627 v -0.376618 c 0,-0.04801 -0.0015,-0.09664 -0.0056,-0.145426 0.291143,0.03659 0.589913,0.05593 0.896802,0.05593 0.306888,0 0.605658,-0.01934 0.896799,-0.05593 -0.0041,0.04878 -0.0056,0.0974 -0.0056,0.145426 v 0.376618 c 1.28e-4,0.390457 0.307346,0.706852 0.686131,0.706627 h 1.672339 3.046511 c 0.378052,-8.42e-4 0.684127,-0.316925 0.684254,-0.706627 v -0.376618 c 0,-0.798428 -0.551557,-1.727375 -2.125474,-1.985639 1.401854,-1.266492 2.200076,-2.926073 2.188865,-4.193147 -0.0035,-0.390037 -0.04015,-0.699903 -0.100684,-0.958327 1.361943,0.550414 3.396858,1.294827 3.52381,0.891207 0.191785,-0.609747 -0.491045,-1.168864 -1.060871,-1.383421 -1.542384,-0.580755 -3.69075,-2.6955207 -3.710256,-3.6729674 v 0.035425 C 17.469195,6.1027514 15.82627,3.00934 12.000038,2.9313168 Z M 12,8.97388 c 1.109396,0 1.900366,0.2710669 2.365987,0.4959437 0.28849,0.1393295 0.266261,0.4154946 -0.01864,0.5630633 l -1.84767,0.958327 c -0.323663,0.167213 -0.708587,0.165832 -1.031041,-0.0037 L 9.650793,10.034752 C 9.3665599,9.8858863 9.3448571,9.6087753 9.632148,9.4698237 10.097498,9.2447524 10.888982,8.97388 12,8.97388 Z"
     sodipodi:nodetypes="cccsscccscccccscscscccccscccsscccssccccss" /></svg>
