<?xml version="1.0" encoding="UTF-8" standalone="no"?>
<svg
   xmlns:dc="http://purl.org/dc/elements/1.1/"
   xmlns:cc="http://creativecommons.org/ns#"
   xmlns:rdf="http://www.w3.org/1999/02/22-rdf-syntax-ns#"
   xmlns:svg="http://www.w3.org/2000/svg"
   xmlns="http://www.w3.org/2000/svg"
   xmlns:sodipodi="http://sodipodi.sourceforge.net/DTD/sodipodi-0.dtd"
   xmlns:inkscape="http://www.inkscape.org/namespaces/inkscape"
   height="24px"
   viewBox="0 0 24 24"
   width="24px"
   fill="#000000"
   version="1.1"
   id="svg8"
   sodipodi:docname="Unbindable.svg"
   inkscape:version="0.92.5 (2060ec1f9f, 2020-04-08)">
  <metadata
     id="metadata14">
    <rdf:RDF>
      <cc:Work
         rdf:about="">
        <dc:format>image/svg+xml</dc:format>
        <dc:type
           rdf:resource="http://purl.org/dc/dcmitype/StillImage" />
        <dc:title></dc:title>
      </cc:Work>
    </rdf:RDF>
  </metadata>
  <defs
     id="defs12" />
  <sodipodi:namedview
     pagecolor="#ffffff"
     bordercolor="#666666"
     borderopacity="1"
     objecttolerance="10"
     gridtolerance="10"
     guidetolerance="10"
     inkscape:pageopacity="0"
     inkscape:pageshadow="2"
     inkscape:window-width="1874"
     inkscape:window-height="1128"
     id="namedview10"
     showgrid="true"
     inkscape:zoom="27.812867"
     inkscape:cx="14.057046"
     inkscape:cy="10.359228"
     inkscape:window-x="272"
     inkscape:window-y="176"
     inkscape:window-maximized="0"
     inkscape:current-layer="svg8">
    <inkscape:grid
       type="xygrid"
       id="grid821" />
  </sodipodi:namedview>
  <path
     style="color:#000000;overflow:visible;opacity:1;vector-effect:none;fill:#000000;fill-opacity:1;stroke:none;stroke-width:1.5;stroke-linecap:butt;stroke-linejoin:round;stroke-miterlimit:4;stroke-dasharray:none;stroke-dashoffset:0;stroke-opacity:1"
     d="M 11.957031 4 A 8 8 0 0 0 3.9570312 12 A 8 8 0 0 0 11.957031 20 A 8 8 0 0 0 19.957031 12 A 8 8 0 0 0 11.957031 4 z M 12 6 A 6 6 0 0 1 18 12 A 6 6 0 0 1 12 18 A 6 6 0 0 1 6 12 A 6 6 0 0 1 12 6 z M 12 9 A 3 3 0 0 0 9 12 A 3 3 0 0 0 12 15 A 3 3 0 0 0 15 12 A 3 3 0 0 0 12 9 z "
     id="path917" />
  <path
     d="M0 0h24v24H0V0z"
     fill="none"
     id="path2" />
</svg>
