<svg xmlns="http://www.w3.org/2000/svg" width="200" height="200"><path d="M32.6 97.4l-1.1-31.1 2-10.1-9-3.6-4-9.8 3.3-9.5 7.8-4L48 32.5l14.3-9.3L89 16.7l19-.7 29.5 5.1 16.7 12.5 7.3-4.8 10.2.2 10.3 11.4-.5 11.4-5.4 4.4-8 3 3.2 16.2.4 24-66-1.6-1.6 5-9.4-.1-8.4 1.6-2-1.4.5-5.5L83 95l-4.2 2z" fill="#fff" fill-rule="evenodd"/><path d="M31 85.9L14 98.6l3 24 46.6-1.6 53 .6 48.8-2 17.3 1.4 7.4-24.2-8.7-14.4-10.5.2-1.8 17-64-.2-2.2 4.2-8.3-1-3.3 1.8-5.1-.1-2-1.4-1.2-7.8-4.2 2-48.3 1.2z" fill="#b1b6d8" fill-rule="evenodd"/><path d="M14 113.5L5.8 123l5.6 51-1 8.7 10.5.4 34.4-1.7 67.8-.5 53.3 2 5.3-24.3 11.5-36.3-4.2-10.6-6.9 9.8-22.7-.9-51.7 1.2-72.6.1-19.4 1.3z" fill="#ace2af" fill-rule="evenodd"/><path d="M174.8 186c-1-.8-2-1.1-5-1.5-6.6-.7-33.6-1-76.9-1a871.3 871.3 0 00-78.4 2c-3.6 0-4.8-.1-5.7-.7-1.4-1-1.8-2.8-1.2-6.1.6-3.1.6-7.7 0-11.4-.9-6-1.6-12-1.8-15.2l-1.4-13.6c-1-8.6-1.3-13.2-1.5-16.8 0-.5.8-2 1.7-3.3l4-5.7 2.2-3.3v-3c-.1-1.6 0-3.4.3-4 .3-1 .3-1.5-.2-2.2C10 99 10 96 10.8 95c.3-.4 3-2.6 6.1-4.9a133.6 133.6 0 0011.2-9c.7-.5.8-1 .9-5.4 0-2.7.4-7.5.7-10.7.4-3.1.6-5.9.5-6a31 31 0 01-8.5-5 14.4 14.4 0 01-3.5-7c-.7-2.4-.7-3-.3-6 .7-4 2.6-8.3 4.7-10.5.9-1 2.9-2.3 4.4-3 2.1-1 3.4-1.3 5.2-1.3 2.3 0 11 1.9 13.7 3l1.5.6 3.2-1.8a69.5 69.5 0 007.6-5c2.3-1.8 5.9-3.3 11.1-4.7l6.2-1.8c6.7-2 11.9-3 18-3.3 9-.5 11.1-.5 14-.1l8.6.8a93 93 0 0124 5.7l2.8 1.2c.2 0 1.5 1 3 2 1.3 1.2 3.8 3 5.3 4.1l3 2 3-1.6 3.1-1.6 4.7-.1c4-.2 5 0 7.2.8 1.8.7 3.1 1.5 4.6 3l4 4.4c1.2 1.2 2.5 3.1 3 4.5.8 2 1 3.2 1 7.2-.1 2.6-.3 5.2-.6 6-.3.6-1 1.7-1.6 2.3a31 31 0 00-2.3 2.5c-1.2 1.5-2.9 2.3-6.5 3-1.4.4-2.6.7-2.7 1 0 .1.3 1.6 1 3.2.8 2.5 1 4 1.2 9l.3 6.2.9.2c.5.1 3 0 5.5-.4l4.7-.7.8.7c.4.4 1 1.4 1 2.1.4 1.6 2 4.4 4.2 7.4l2.5 3.8c2.5 4.4 2.6 4.8 2.2 6-.2.6-.7 1.2-1 1.4-.4.2-1 1.1-1.2 2l-1.1 4.4-.8 2.6.8 2.8 1.1 4.5c.3 1 .9 2.2 1.3 2.6 3 2.8 3 2.9 2 4.8a108.5 108.5 0 01-4.3 13.4c-2.6 6.8-4 11.1-5.6 18l-2.4 8.2c-1.5 4.7-2.4 9-3 15.2-.3 2.6-.7 5.4-1 6.1-.4 1.6-2.1 3.2-3.3 3.2-.5 0-1.4-.5-2-1zm-153.2-6.7c10.8-1.1 34.5-1.7 73.5-1.8a971.9 971.9 0 0179.1 2l1-4.7c1.1-6.6 2.3-11.5 3.6-15.2l2.1-7.3a154 154 0 017.7-22.4c.9-2 1.6-4.1 1.7-4.7l.1-1-11-1a417.5 417.5 0 00-44.5-.5c-2.5.2-26.6.5-53.6.8a1033.6 1033.6 0 00-69.9 1.5l-3.3-.3.2 1.5.7 3.3c.2 1 1 7.4 1.7 14.1l1.7 15.1c1.4 9.4 2.2 16.3 2 18.6l-.4 2.5H16c1 0 3.6-.2 5.7-.5zM12 119.4c0-.4-.2-.5-.5-.4-.2.1-.4.4-.4.7 0 .2.2.4.4.4.3 0 .5-.3.5-.7zm15.6-.4c4.6-.3 18.8-.5 48.1-.6 32 0 44.6-.2 54-.7 9-.6 17-.7 31.5-.5 10.6 0 19.6.3 20 .5.6.2 1-.5 2.2-3.3a64.4 64.4 0 003.2-8.4c.6-1.5 1-2.9.9-3l-12.2-.6-26.3-1c-9-.5-19.6-.7-28-.6l-13.7.2-.6 1.5c-.4.9-1 1.9-1.5 2.2-1 .7-5.5.7-6.8 0-1-.5-1.5-.5-3.3.3-.7.3-3 .7-5.2.8l-3.8.2-1.7-1.4-1.6-1.3V101c0-1.9 0-2-.7-1.7-.4.2-9.8.5-20.7.7-25.2.3-44.3.9-45.3 1.3-.6.3-.7.6-.4 2.5l.6 4.1a85 85 0 011.3 9.8l.1 1.8h1.8l8.1-.6zm161.7-1.2c0-.3 0-1-.2-1.5l-.3-1-.6 1.3-.6 1.6s.4.2.9.2.8-.3.8-.6zm-96.2-16.5c.8-.7 1-1.2 1-4.6 0-2 0-3.8-.2-4a50.2 50.2 0 01-5.8 2.2l-2.2.8.6 1.6c.3 1 .5 2 .3 2.5-.4 1.8.1 2.2 2.8 2.2 1.8 0 2.9-.2 3.5-.7zm10-.7c.6-.8 2-5.7 2-6.7 0-.1-.6-.3-1.3-.4-.8 0-2-.2-2.7-.5a44 44 0 00-2.5-.6l-1.2-.3.3 4 .4 4.1c.2.3 3.4 1.4 4 1.4.2 0 .7-.4 1-1zm79.8-4.4l5.5-.3-1-1.6c-.4-.9-1.8-3-2.9-4.7a39.7 39.7 0 01-2.3-3.7c-.3-.6-.8-.7-4-.4l-3.8.4-.3 5-.3 5 1.2.2 1.9.3 6-.2zm-13.7-4c.4-2.8.4-4.8 0-8.4l-.7-9.7c-.3-4.3-.5-5.6-2.2-10.5l-3-8.8a49.3 49.3 0 00-7-13.3 35.6 35.6 0 00-9-10.2l-4.2-3.3c-3.3-2.7-6.6-4-15.5-6.3a119 119 0 00-27.8-3.3c-1.2.2-4.5.4-7.3.5-5.6.4-7.4.6-12.2 2l-7.6 2a34 34 0 00-11.3 4 61.6 61.6 0 01-8.4 5.6c-1.4.8-4.4 3.3-6.7 5.5a23.5 23.5 0 00-6.1 8.4c-2.7 5.5-3.4 7.4-3.4 9.3 0 1-.3 2-.8 2.7C34.7 60 34 67 34.2 80l.2 13v1.6l2.9-.2c1.5-.1 11.4-.3 22-.3 10.4 0 19.3-.3 19.5-.5.4-.2.4-.8-.3-2.5a8.7 8.7 0 01-.6-5c.3-3.5 1.6-6 5-9.8l1.3-1.3-.5-1.8a7.3 7.3 0 011.2-6.5 7.8 7.8 0 015-2.6c.5 0 1.2-.2 1.5-.6.6-.8 3.8-1.5 6.4-1.5 5 0 8.4 1.7 9.8 5 .3.8.6 2.7.6 4.2v2.6l1.7 2 2.8 3.7c1 1.6 1.2 2.3 1.2 4.8 0 2.3-.2 3.3-1 4.5a9 9 0 01-1.7 2c-.8.6-2.2 3-2.2 3.9 0 .3.5.4 1.5.2a523.4 523.4 0 0156 1h2.1zm-107-32.7c-3.7-.5-5.6-1.3-7.5-3-1-1-2-2.4-2.4-3.1-.2-.8-.9-2.4-1.4-3.5-.4-1.2-.9-3-1-4-.2-3.3 2.6-9 6.1-12.2.7-.7 2.5-1.8 4-2.6 2.3-1.1 3.4-1.4 6.3-1.5 1.9-.1 3.9-.4 4.4-.7.8-.4 1.2-.3 2 0 .4.4 2.1 1 3.7 1.6 3.4 1.2 5.5 2.6 7.5 5 2.2 2.5 2.5 4.1 2.2 9.4-.2 3.7-.5 4.8-1.3 6.3-.6 1-1.9 2.5-2.9 3.3-2.4 2-7.4 4.4-10.2 4.8-3.4.5-7.3.5-9.5.2zm-.8-5.6a8 8 0 01.1-3.5c.7-2.7.8-3 3-5.6 1.7-2 2.2-2.2 5.7-2.7 2.8-.4 8.4 1.6 9.4 3.3l.9 2.7.5 2.2.6-1.6c.7-1.4 1-4.9.9-7.8-.1-1.3-2.6-4.3-4.5-5.3L73.5 34c-2.4-.8-4.1-1.1-6-1-1.6 0-3.2 0-3.7.2-1.5.5-5.1 3-6.6 4.7-2 2-3.6 5.4-3.6 7.4 0 .9.4 2.4.9 3.4l.8 2c0 .3.6 1.1 1.2 2 1 1.4 3 2.6 4.5 2.6.6 0 .7-.2.4-1.3zm7.3-2.3c1.4-.8 2.1-1.9 2.1-3.4 0-1.4-.9-2.4-2.5-2.7-1.2-.2-1.6 0-2.9 1.3-1.6 1.6-1.9 3-.8 4.5.8 1 2.3 1.2 4 .3zm42.1 4.4c-2.8-1-4.4-3.2-5.6-7.1-1.2-3.8-1.1-6.7.2-10.3 2-5.5 3.5-7.4 7-9 1.7-.8 3-1 5.6-1 2.4 0 3.8-.2 4.7-.7 1.1-.7 1.6-.7 4-.2 3.6.7 6.8 2.3 9.1 4.5 2.6 2.5 3.1 4.4 2.4 9-.5 3.6-1.5 6.3-3 8.5-.6.7-2.2 2.2-3.6 3.2-3.5 2.6-7 3.6-13.5 3.9-4.4.1-5.3 0-7.3-.8zm16.4-5.1c3-1.6 5-3.3 6.1-5.8.7-1.5 1.2-3.5 1.4-5.3l.2-2.9-1.1-1.3c-1.2-1.4-5.9-4-7.2-4-.5 0-.8.3-.8.7 0 .6-.3.6-2 .4-3-.5-8.3-.3-9.8.4-2.4 1-4 3.5-5.6 8.7l-.3 1 1.6-1.1c1.4-1 2-1.1 3.6-1 4 .5 8 1.7 9.5 2.8a6 6 0 012.3 7.5c-.1.4-.1.8 0 .8.2 0 1.1-.4 2-1zM114.7 49c.6-.2 1.1-.7 1.3-1 .6-.8.3-2.5-.6-3.5-1.1-1.2-3.2-1.3-4.3-.3-1.6 1.5-.4 5.3 1.7 5.3a5 5 0 002-.5zM29.1 93c0-1-.2-2.3-.3-2.8l-.3-1-3.5 2.6-3.7 3c-.2.1 1.6.2 3.8.1l4-.1v-1.8zm62-3.7c2-1 4-1.8 4.5-1.8a9 9 0 012 .4c5.6 1.7 6.5 1.9 8.2 1.4 1-.3 2.2-.8 2.7-1.3 1-.8 1.8-3.2 1.4-4.6-.1-.5-1.2-2-2.5-3.4l-2.2-2.5-1.9 1.3a19 19 0 01-8.7 3.6c-2.4 0-5.2-1-7.1-2.6l-1.6-1.3-.8 1.1a59 59 0 01-1.7 2.3 7.7 7.7 0 00-1.2 8l.6 1.6 2.3-.2a18 18 0 006-2zM174 53.4c1.5-.3 2.3-.7 2.8-1.5l1.5-2c.6-.6.7-1.4.7-4.3 0-1.9-.3-4-.5-4.8-.3-.7-2.1-3-4-5-3-3.1-3.8-3.8-5.4-4.2-1-.2-2.8-.4-3.9-.4-2 0-7.6 1.5-7.6 2 0 .3.3.8.8 1.2.5.4 1 1 1.1 1.5.2.7.6.7 2.8.5h3.6c1.9.6 4 2.8 4.7 5 .7 2.4.8 2.8.2 6.5-.3 2.2-.6 3-1.4 3.7-.8.6-1 1.1-.8 1.8.3 1.1.3 1.1 5.4 0zM32.6 52c.5-1.4 0-2.7-1.7-4.2-1-1-1.3-1.6-1.3-2.8 0-2.4 1.6-6.8 3-8.2a8.3 8.3 0 015.1-2.2c.4 0 1.4.3 2.3.6 1.4.5 1.6.5 2.3-.2l.7-.8-1-.2c-.6 0-3-.6-5.4-1.1-3.7-.9-4.5-1-6-.5-2 .7-4.3 2.7-5.3 4.8-.5.8-1 2.7-1.3 4-.4 2-.4 3 0 4.5.2 1 1 2.5 1.8 3.4 1.5 1.6 4.9 4 5.8 4 .3 0 .8-.5 1-1.1z"/></svg>
