<?xml version="1.0" encoding="UTF-8" standalone="no"?>
<!-- Created with Inkscape (http://www.inkscape.org/) -->

<svg
   xmlns:dc="http://purl.org/dc/elements/1.1/"
   xmlns:cc="http://creativecommons.org/ns#"
   xmlns:rdf="http://www.w3.org/1999/02/22-rdf-syntax-ns#"
   xmlns:svg="http://www.w3.org/2000/svg"
   xmlns="http://www.w3.org/2000/svg"
   xmlns:sodipodi="http://sodipodi.sourceforge.net/DTD/sodipodi-0.dtd"
   xmlns:inkscape="http://www.inkscape.org/namespaces/inkscape"
   version="1.1"
   id="svg2"
   xml:space="preserve"
   width="200"
   height="200"
   viewBox="0 0 200 200"
   sodipodi:docname="lxkns-logo.svg"
   inkscape:version="0.92.5 (2060ec1f9f, 2020-04-08)"><metadata
     id="metadata8"><rdf:RDF><cc:Work
         rdf:about=""><dc:format>image/svg+xml</dc:format><dc:type
           rdf:resource="http://purl.org/dc/dcmitype/StillImage" /><dc:title></dc:title></cc:Work></rdf:RDF></metadata><defs
     id="defs6" /><sodipodi:namedview
     pagecolor="#ffffff"
     bordercolor="#666666"
     borderopacity="1"
     objecttolerance="10"
     gridtolerance="10"
     guidetolerance="10"
     inkscape:pageopacity="0"
     inkscape:pageshadow="2"
     inkscape:window-width="2560"
     inkscape:window-height="1351"
     id="namedview4"
     showgrid="false"
     inkscape:pagecheckerboard="true"
     inkscape:zoom="4.0675303"
     inkscape:cx="23.539704"
     inkscape:cy="125.3316"
     inkscape:window-x="0"
     inkscape:window-y="0"
     inkscape:window-maximized="1"
     inkscape:current-layer="g10" /><g
     id="g10"
     inkscape:groupmode="layer"
     inkscape:label="Linux Namespaces - Seite 9"
     transform="matrix(1.3333333,0,0,-1.3333333,0,200.00001)"><path
       style="fill:#ffffff;fill-rule:evenodd;stroke:none;stroke-width:0.75px;stroke-linecap:butt;stroke-linejoin:miter;stroke-opacity:1"
       d="m 24.431288,76.981612 -0.829742,23.324968 1.56729,7.55987 -6.730128,2.67361 -3.13458,7.37548 2.581419,7.0989 5.808193,3.04239 12.353934,-2.39703 10.786644,6.91452 19.821611,4.88625 14.289998,0.55316 22.126453,-3.87212 12.53832,-9.31155 5.43942,3.59555 7.65206,-0.18439 7.74426,-8.574 -0.36878,-8.48181 -4.05651,-3.31896 -6.08478,-2.21265 2.48923,-12.169545 0.27658,-18.069934 -49.50793,1.198516 -1.198515,-3.779932 -7.077827,0.149408 -6.305003,-1.202565 -1.48353,1.011495 0.391973,4.190369 -1.246127,1.698794 -3.209607,-1.552896 z"
       id="path10681"
       inkscape:connector-curvature="0" /><path
       style="fill:#b1b6d8;fill-opacity:1;fill-rule:evenodd;stroke:none;stroke-width:0.75px;stroke-linecap:butt;stroke-linejoin:miter;stroke-opacity:1"
       d="m 23.310082,85.581085 -12.879739,-9.553035 2.326445,-17.937226 34.927245,1.139351 39.788185,-0.414461 36.576122,1.554226 12.98781,-1.087798 5.54076,18.10581 -6.56349,10.800549 -7.85597,-0.134866 -1.3115,-12.763122 -48.072074,0.130639 -1.58468,-3.135641 -6.271288,0.696804 -2.413237,-1.286617 -3.891766,0.08405 -1.48353,1.011497 -0.854154,5.889162 -3.209607,-1.552896 -36.187239,-0.878414 z"
       id="path10521"
       inkscape:connector-curvature="0" /><path
       style="fill:#ace2af;fill-opacity:1;fill-rule:evenodd;stroke:none;stroke-width:0.75px;stroke-linecap:butt;stroke-linejoin:miter;stroke-opacity:1"
       d="M 10.551461,64.90234 4.266658,57.698041 8.5061418,19.486158 7.7939085,12.917782 l 7.7691535,-0.342406 25.868685,1.326602 50.852961,0.368496 39.969142,-1.533574 3.91163,18.212821 8.63724,27.223142 -3.13157,7.958919 -5.1439,-7.348433 -17.04726,0.665201 -38.766173,-0.884407 -54.46426,-0.07368 -14.577934,-0.995898 z"
       id="path10489"
       inkscape:connector-curvature="0" /><path
       style="fill:#000000;stroke-width:1"
       d="m 131.12137,10.495018 c -0.75547,0.63568 -1.52831,0.862979 -3.81517,1.122037 -4.91567,0.556851 -25.14083,0.821267 -57.614373,0.753199 -30.66506,-0.0642 -44.810438,-0.373793 -51.859062,-1.13476 -1.948741,-0.210371 -5.075149,-0.386364 -6.947577,-0.391079 -2.6921072,-0.0075 -3.5819301,0.10776 -4.2528524,0.547362 -1.0764264,0.705305 -1.3585393,2.13805 -0.9045596,4.593874 0.4292824,2.322185 0.4372103,5.758146 0.019665,8.529062 -0.6881555,4.566949 -1.2411134,8.98245 -1.4319896,11.434755 -0.1103037,1.417271 -0.5647923,5.983126 -1.0099508,10.146349 -0.6917811,6.469603 -0.9972795,9.95639 -1.1089301,12.656709 -0.01317,0.317743 0.5551087,1.404847 1.2627797,2.415787 0.7076667,1.01094 2.0441611,2.953705 2.9699853,4.31726 l 1.6833166,2.479201 -0.071357,2.200162 c -0.039256,1.210101 0.082824,2.60573 0.2712911,3.101411 0.2673783,0.703255 0.2362364,1.053175 -0.141765,1.592844 -0.5876316,0.838957 -0.6364073,3.129234 -0.081781,3.840286 0.2214453,0.283917 2.2869528,1.924925 4.5900098,3.646707 2.303058,1.721767 4.989869,3.872576 5.970694,4.779573 0.98082,0.906996 2.067929,1.80992 2.415795,2.006507 0.56624,0.319989 0.637013,0.741644 0.675817,4.026323 0.02384,2.017898 0.273009,5.610571 0.553713,7.983703 0.280706,2.37314 0.433834,4.43865 0.340282,4.59002 -0.09355,0.15136 -0.376396,0.27521 -0.628557,0.27521 -0.612286,0 -4.588195,2.43551 -5.714858,3.50072 -1.125773,1.06438 -1.884722,2.53736 -2.648737,5.14071 -0.534716,1.82203 -0.555449,2.30041 -0.195389,4.50947 0.492672,3.02269 1.926597,6.24214 3.517028,7.8964 0.65451,0.68078 2.132178,1.6902 3.283706,2.24315 1.57348,0.75559 2.533867,1.00372 3.865273,0.99866 1.795771,-0.007 8.241154,-1.42816 10.309301,-2.27341 l 1.129284,-0.46155 2.414949,1.38242 c 1.328218,0.76034 2.776837,1.64551 3.219147,1.96706 0.442311,0.32154 1.559959,1.14014 2.483666,1.81909 1.731383,1.27264 4.378992,2.38855 8.30582,3.50073 1.240108,0.35122 3.341849,0.95885 4.670538,1.35027 4.986529,1.46903 8.902326,2.17076 13.52845,2.42437 6.695888,0.36706 8.294889,0.3831 10.468444,0.10508 1.06295,-0.1359 3.961904,-0.40875 6.44212,-0.60617 4.166444,-0.33167 7.522377,-1.00183 14.172664,-2.83024 1.06295,-0.29225 2.76839,-0.93411 3.78987,-1.42638 1.02148,-0.49227 1.98721,-0.89504 2.14604,-0.89504 0.15885,0 1.14125,-0.71228 2.18311,-1.58283 1.04187,-0.87057 2.86423,-2.23324 4.04969,-3.02818 l 2.15538,-1.44535 2.34008,1.17607 2.34008,1.17608 3.48954,0.10971 c 2.99052,0.094 3.7635,0.007 5.40526,-0.60671 1.37854,-0.51552 2.34195,-1.1716 3.43574,-2.33968 0.83601,-0.89278 2.20596,-2.34393 3.04436,-3.22476 0.89577,-0.94112 1.81502,-2.34598 2.22927,-3.40691 0.58413,-1.49597 0.69906,-2.41349 0.67068,-5.35342 -0.0189,-1.95142 -0.19146,-3.96145 -0.38357,-4.46676 -0.19212,-0.50529 -0.74503,-1.30835 -1.22869,-1.78455 -0.48366,-0.47622 -1.23787,-1.32609 -1.67599,-1.88862 -0.88704,-1.13892 -2.17028,-1.74149 -4.91517,-2.308 -1.01557,-0.20961 -1.91333,-0.48922 -1.99501,-0.6214 -0.0817,-0.13215 0.22259,-1.24577 0.67616,-2.47465 0.6927,-1.87678 0.8514,-2.964722 0.99168,-6.798182 l 0.16702,-4.563824 0.67203,-0.175739 c 0.36963,-0.09669 2.25046,0.04445 4.17963,0.313478 l 3.50756,0.489231 0.5902,-0.534132 c 0.32461,-0.29375 0.6851,-0.990165 0.80109,-1.547554 0.25108,-1.206584 1.41946,-3.307847 3.07097,-5.522923 0.66042,-0.885789 1.52448,-2.190314 1.92015,-2.898957 1.84443,-3.303326 1.94889,-3.588501 1.6257,-4.438564 -0.17236,-0.453296 -0.53016,-0.945505 -0.79512,-1.09378 -0.26497,-0.14832 -0.6307,-0.848491 -0.81276,-1.556011 -0.18203,-0.707519 -0.57946,-2.166443 -0.88316,-3.242053 l -0.55217,-1.955666 0.55226,-2.070656 c 0.30373,-1.138874 0.70067,-2.669936 0.88204,-3.402376 0.18139,-0.732424 0.61332,-1.602123 0.95986,-1.932633 2.18945,-2.088241 2.21789,-2.158045 1.47121,-3.611236 -0.24161,-0.470238 -0.6807,-1.869608 -0.97574,-3.109716 -0.29505,-1.24011 -1.31789,-4.356473 -2.27297,-6.925279 -1.88647,-5.073811 -2.90122,-8.331997 -4.19192,-13.459343 -0.45868,-1.822163 -1.25594,-4.614872 -1.77168,-6.206025 -1.13397,-3.498462 -1.76944,-6.705493 -2.26248,-11.417858 -0.20391,-1.948737 -0.51608,-4.011968 -0.69375,-4.584968 -0.35644,-1.149501 -1.65387,-2.3403061 -2.54987,-2.3403061 -0.31684,0 -1.00239,0.3587321 -1.52345,0.7971821 z M 16.222235,15.493531 c 8.081982,0.859955 25.818425,1.293046 55.080123,1.344981 27.859895,0.04939 47.996972,-0.380155 55.235882,-1.178372 2.21156,-0.243867 4.0645,-0.399925 4.11764,-0.346793 0.0531,0.05313 0.37758,1.674099 0.72099,3.602151 0.88508,4.969343 1.74422,8.604615 2.6935,11.397114 0.45167,1.328697 1.17935,3.792811 1.61709,5.475815 1.46648,5.638533 3.07269,10.290702 5.79079,16.772308 0.63675,1.518399 1.19685,3.107337 1.24467,3.530969 l 0.087,0.770261 -8.2137,0.717622 c -6.63649,0.579824 -10.28571,0.710544 -19.00425,0.680775 -5.9348,-0.02021 -12.38498,-0.156042 -14.33372,-0.301744 C 99.309473,57.812993 81.191011,57.566731 60.994965,57.411511 31.453775,57.184466 22.983944,57.02395 17.671711,56.590394 13.815969,56.27572 10.030748,56.137069 8.5743051,56.257161 L 6.080074,56.462849 6.2586549,55.386175 C 6.3568859,54.794019 6.5794809,53.677459 6.7533323,52.904939 6.9271868,52.132433 7.4969716,47.349157 8.0195297,42.275451 8.5420814,37.201731 9.1154975,32.10836 9.2937855,30.956838 10.38317,23.920656 10.920095,18.713762 10.730337,17.025744 l -0.208209,-1.852111 1.400575,0.006 c 0.770319,0.003 2.705107,0.144578 4.299532,0.314166 z M 8.9748487,60.448535 c 0,0.276196 -0.1449517,0.412587 -0.3221048,0.303106 -0.1771583,-0.109556 -0.3221058,-0.335478 -0.3221058,-0.502177 0,-0.166699 0.1449528,-0.30309 0.3221058,-0.30309 0.1771574,0 0.3221048,0.225966 0.3221048,0.502161 z m 11.7568703,0.275343 c 3.399339,0.286642 14.093468,0.42402 36.075869,0.463398 23.926852,0.0428 33.394248,0.176113 40.424297,0.568869 6.857965,0.383132 12.846435,0.475103 23.674795,0.363585 7.97211,-0.08216 14.72794,-0.249988 15.01292,-0.373059 0.41236,-0.178074 0.75032,0.322352 1.65501,2.450615 0.62526,1.470895 1.23865,3.036724 1.36312,3.479634 0.12451,0.442894 0.58572,1.725149 1.02502,2.849446 0.43931,1.124312 0.7312,2.111754 0.64863,2.194326 -0.0826,0.08261 -4.18753,0.284426 -9.12215,0.448565 -4.93461,0.164155 -13.82777,0.530315 -19.76258,0.813679 -6.68473,0.31918 -14.680303,0.473726 -21.01329,0.406181 l -10.222745,-0.108958 -0.4735,-1.179988 c -0.260426,-0.648985 -0.757683,-1.37903 -1.105021,-1.622312 -0.731426,-0.512311 -4.132165,-0.50384 -5.097316,0.01198 -0.700025,0.374646 -1.117461,0.331841 -2.51242,-0.257636 -0.531477,-0.224591 -2.270848,-0.47645 -3.865273,-0.559695 l -2.898953,-0.151358 -1.207897,1.016807 -1.207899,1.016821 v 1.598412 c 0,1.420652 -0.06268,1.565395 -0.563685,1.301563 -0.310024,-0.163272 -7.303754,-0.39322 -15.541613,-0.510979 -18.895291,-0.270132 -33.17022,-0.686027 -33.90786,-0.98792 -0.481751,-0.197171 -0.538055,-0.489096 -0.364041,-1.887448 0.113208,-0.909824 0.343499,-2.306486 0.511736,-3.103701 0.376478,-1.784013 0.859349,-5.490333 0.954697,-7.327912 l 0.07103,-1.368943 1.308764,0.02395 c 0.719817,0.01347 3.482975,0.207333 6.140349,0.431414 z m 121.268511,0.913551 c -0.003,0.221447 -0.0959,0.744428 -0.20773,1.162178 l -0.20332,0.759544 -0.4365,-1.038119 c -0.24007,-0.570949 -0.43649,-1.09393 -0.43649,-1.162163 0,-0.06825 0.2899,-0.124074 0.6442,-0.124074 0.35433,0 0.64225,0.181188 0.63984,0.402634 z M 69.830341,74.038508 c 0.610494,0.496534 0.695706,0.901577 0.715368,3.400325 0.01228,1.560157 -0.04096,2.899915 -0.118298,2.977263 -0.07735,0.07737 -0.709329,-0.127068 -1.40442,-0.454374 -0.695093,-0.327246 -2.010105,-0.856918 -2.922257,-1.177055 l -1.658456,-0.582069 0.427155,-1.210685 c 0.234936,-0.665883 0.348875,-1.510048 0.253198,-1.875924 -0.343657,-1.314135 0.07632,-1.641171 2.107604,-1.641171 1.337495,0 2.114045,0.168345 2.600104,0.56369 z m 7.555405,0.483154 c 0.390925,0.614068 1.486101,4.32139 1.486101,5.030676 0,0.125121 -0.471078,0.261408 -1.046845,0.302746 -0.575762,0.04131 -1.481686,0.204101 -2.01316,0.361686 -0.531477,0.157583 -1.363515,0.374421 -1.848975,0.481852 l -0.882661,0.19533 0.202802,-2.98482 c 0.111547,-1.641666 0.244299,-3.03445 0.295007,-3.095081 0.151596,-0.181261 2.524511,-0.987725 2.95114,-1.002992 0.217365,-0.0075 0.602826,0.311996 0.856591,0.710603 z m 59.825164,3.341043 4.06421,0.181546 -0.68209,1.21037 c -0.37516,0.665704 -1.37445,2.244838 -2.22067,3.509178 -0.84622,1.264341 -1.6286,2.533388 -1.73862,2.820105 -0.17262,0.449838 -0.57993,0.490068 -2.97091,0.293436 -1.52398,-0.12527 -2.80427,-0.258639 -2.8451,-0.29625 -0.0409,-0.03756 -0.16532,-1.751124 -0.27667,-3.807801 l -0.20243,-3.739426 0.92087,-0.124373 c 0.50649,-0.0684 1.1383,-0.147721 1.40405,-0.176337 0.26573,-0.02859 2.31204,0.02978 4.54736,0.129611 z M 126.8755,80.79164 c 0.30604,2.155981 0.31468,3.632024 0.0373,6.361595 -0.19868,1.954843 -0.45183,5.221143 -0.56257,7.258467 -0.17666,3.250046 -0.37786,4.217626 -1.64098,7.891598 -0.7918,2.30306 -1.77202,5.27449 -2.17827,6.60317 -0.88714,2.90147 -2.45173,5.87149 -5.26021,9.98529 -2.89975,4.24746 -4.6457,6.23168 -6.72719,7.64527 -0.9821,0.66694 -2.43756,1.76187 -3.23437,2.43315 -2.44924,2.06337 -4.90408,3.06088 -11.623197,4.72299 -5.513225,1.36381 -7.190814,1.63671 -12.787813,2.08021 -3.543166,0.28077 -7.166858,0.45132 -8.052649,0.37898 -0.885792,-0.0723 -3.349902,-0.23053 -5.475801,-0.3516 -4.207638,-0.23962 -5.520471,-0.44938 -9.180022,-1.46679 -1.328686,-0.36941 -3.865271,-1.03427 -5.636853,-1.47746 -4.59648,-1.14993 -7.532165,-2.2194 -8.501137,-3.097 -0.952107,-0.86231 -3.478844,-2.52485 -6.288056,-4.13741 -1.047729,-0.60142 -3.298845,-2.47049 -5.002488,-4.1535 -2.712954,-2.68007 -3.289696,-3.4546 -4.645269,-6.2382 -2.016168,-4.1401 -2.531051,-5.58637 -2.495642,-7.01011 0.01787,-0.71741 -0.219568,-1.48542 -0.614329,-1.98727 -1.014762,-1.29007 -1.452775,-6.487382 -1.376307,-16.330809 0.03646,-4.694689 0.105652,-9.0773 0.153731,-9.739142 l 0.08742,-1.203337 2.101007,0.172611 c 1.155556,0.09489 8.551182,0.203397 16.434727,0.241009 7.883545,0.03756 14.510487,0.181142 14.726544,0.31894 0.298918,0.190645 0.233531,0.651724 -0.273524,1.928651 -0.538678,1.35658 -0.626836,2.071794 -0.460122,3.732848 0.266262,2.652905 1.260117,4.564913 3.80795,7.325861 l 0.928205,1.005852 -0.367742,1.365694 c -0.479194,1.7796 -0.142856,3.6523 0.872745,4.85926 0.870404,1.034422 2.610411,1.909672 3.796419,1.909672 0.39957,0 0.893569,0.20132 1.097772,0.44738 0.496763,0.59856 2.839793,1.16316 4.827019,1.16316 3.808735,0 6.285207,-1.2697 7.323551,-3.754792 0.263256,-0.63007 0.48642,-2.03603 0.495906,-3.12436 l 0.01726,-1.978759 1.198785,-1.449479 c 0.659329,-0.797215 1.615001,-2.081267 2.123717,-2.853457 0.794322,-1.205717 0.923024,-1.711455 0.911371,-3.581392 -0.01043,-1.677975 -0.179412,-2.445744 -0.736612,-3.347322 -0.397677,-0.643448 -0.979469,-1.350983 -1.292874,-1.572295 -0.605533,-0.427613 -1.632077,-2.212674 -1.632077,-2.838042 0,-0.252308 0.363602,-0.305739 1.117785,-0.164259 1.882285,0.353124 21.4611,0.279817 29.48229,-0.110454 4.16321,-0.202515 8.29422,-0.410402 9.18001,-0.461962 0.8858,-0.05149 2.35654,-0.119883 3.26833,-0.151807 l 1.65777,-0.05807 z m -80.214251,24.56963 c -2.764291,0.40853 -4.247495,1.0105 -5.630322,2.28514 -0.761504,0.70194 -1.560849,1.74369 -1.776315,2.315 -0.215463,0.57131 -0.686885,1.76349 -1.047592,2.64929 -0.360712,0.88579 -0.699898,2.19031 -0.753741,2.89896 -0.190391,2.5056 1.921889,6.76285 4.580617,9.23209 0.507726,0.47154 1.861631,1.33085 3.00869,1.90957 1.716373,0.86596 2.543134,1.07425 4.670536,1.17672 1.421737,0.0685 2.920058,0.28932 3.329597,0.49076 0.573679,0.28218 0.901231,0.26847 1.426827,-0.0597 0.375219,-0.23432 1.634566,-0.75028 2.79855,-1.14657 2.554782,-0.86979 4.164014,-1.92123 5.634789,-3.68162 1.63672,-1.95904 1.920019,-3.15079 1.680303,-7.06862 -0.170081,-2.77975 -0.347661,-3.61436 -1.009248,-4.74326 -0.441569,-0.75349 -1.394281,-1.87622 -2.117143,-2.49496 -1.808049,-1.54763 -5.577531,-3.30566 -7.709216,-3.59547 -2.549575,-0.34662 -5.414877,-0.41424 -7.086332,-0.16725 z m -0.640582,4.17677 c -0.171709,0.59869 -0.124359,1.5953 0.127216,2.67752 0.46762,2.01164 0.549043,2.16411 2.228991,4.17378 1.252584,1.49842 1.648293,1.68716 4.243333,2.02382 2.116942,0.27466 6.314389,-1.17133 7.102665,-2.44678 0.127351,-0.20605 0.404011,-1.11785 0.614823,-2.02621 l 0.38328,-1.65158 0.503838,1.16157 c 0.464065,1.06989 0.744654,3.69413 0.624771,5.84331 -0.05663,1.01548 -1.94136,3.25943 -3.349002,3.98736 -0.512749,0.26516 -2.045591,0.85918 -3.406321,1.32005 -1.764132,0.59752 -3.066161,0.82456 -4.537524,0.79123 -1.134908,-0.0258 -2.366965,-0.13815 -2.737902,-0.24993 -1.07336,-0.32335 -3.800924,-2.23204 -4.940959,-3.45759 -1.461864,-1.57153 -2.660849,-4.09715 -2.647819,-5.57751 0.006,-0.6829 0.290986,-1.82143 0.633282,-2.53008 0.342295,-0.70862 0.627273,-1.41967 0.633283,-1.58011 0.006,-0.16044 0.392014,-0.79134 0.857785,-1.40199 0.832287,-1.09118 2.332446,-1.97309 3.398561,-1.99792 0.447598,-0.0106 0.4939,0.15233 0.267696,0.94106 z m 5.478624,1.78755 c 1.071483,0.5541 1.604078,1.3811 1.604078,2.49078 0,1.09521 -0.647695,1.8147 -1.845401,2.04997 -0.895601,0.17592 -1.197718,0.0467 -2.174215,-0.92978 -1.239439,-1.23944 -1.427814,-2.24632 -0.632655,-3.38156 0.587533,-0.83883 1.706789,-0.92306 3.048193,-0.22941 z m 31.620885,-3.36281 c -2.086397,0.83086 -3.334788,2.41026 -4.251786,5.37915 -0.865447,2.802 -0.817196,4.99126 0.169398,7.6857 1.522281,4.15741 2.635278,5.59445 5.238516,6.76367 1.325381,0.59526 2.260597,0.76364 4.241802,0.76364 1.813674,0 2.817722,0.15848 3.505839,0.55341 0.857811,0.49233 1.184255,0.50799 2.956744,0.14188 2.731064,-0.56409 5.121941,-1.75849 6.866911,-3.43047 1.94701,-1.86556 2.33312,-3.27337 1.83397,-6.68708 -0.39909,-2.72938 -1.14976,-4.78678 -2.3289,-6.38291 -0.40627,-0.54996 -1.603747,-1.64295 -2.661068,-2.42889 -2.590725,-1.92578 -5.27329,-2.69382 -10.085111,-2.88742 -3.31198,-0.13319 -3.985773,-0.0682 -5.486315,0.52932 z m 12.272435,3.88551 c 2.326755,1.17884 3.699942,2.48073 4.580992,4.34313 0.523587,1.10678 0.911477,2.59933 1.023847,3.93971 l 0.1809,2.15786 -0.85877,1.0206 c -0.896357,1.06527 -4.368913,2.99061 -5.393881,2.99061 -0.330704,0 -0.592765,-0.22977 -0.592765,-0.51973 0,-0.43842 -0.239354,-0.48282 -1.530004,-0.28369 -2.240963,0.34574 -6.157196,0.18596 -7.316697,-0.2985 -1.754803,-0.73322 -2.972811,-2.64256 -4.181261,-6.5545 l -0.225857,-0.73114 1.231635,0.84119 c 1.024203,0.69951 1.475752,0.81194 2.681111,0.66755 2.913939,-0.34907 5.987378,-1.21752 7.143001,-2.01837 1.964326,-1.36127 2.591024,-3.44486 1.707857,-5.67811 -0.122608,-0.31003 -0.129163,-0.56368 -0.01452,-0.56368 0.114585,0 0.818601,0.30918 1.564465,0.68707 z m -9.332728,1.29379 c 0.386956,0.20368 0.810053,0.5298 0.940209,0.72473 0.453853,0.6797 0.241447,1.92881 -0.453846,2.66891 -0.831644,0.88525 -2.364859,0.9864 -3.220076,0.21243 -1.224807,-1.10844 -0.329916,-3.97642 1.240752,-3.97642 0.434168,0 1.106,0.16666 1.492961,0.37035 z M 21.826982,80.341667 c -0.01764,0.740775 -0.128788,1.691758 -0.246935,2.113295 l -0.214828,0.766443 -2.64422,-1.992469 c -1.45432,-1.095875 -2.706819,-2.09303 -2.78333,-2.215922 -0.07652,-0.122876 1.224505,-0.177265 2.89115,-0.120781 l 3.03027,0.102671 -0.03212,1.346837 z m 46.495126,2.738169 c 1.515952,0.740626 3.0387,1.346582 3.383882,1.346582 0.345183,0 1.047841,-0.128564 1.561468,-0.285594 4.142295,-1.266855 4.833689,-1.383744 6.10063,-1.031429 0.701435,0.195045 1.610191,0.614607 2.01945,0.93235 0.806669,0.626295 1.34136,2.396233 1.048975,3.472337 -0.100392,0.369527 -0.942964,1.521169 -1.872352,2.559198 l -1.689806,1.887359 -1.382018,-0.974137 c -2.166091,-1.526811 -4.987931,-2.694811 -6.510514,-2.694811 -1.797703,0 -3.901709,0.761505 -5.380356,1.94733 l -1.191408,0.955473 -0.580173,-0.827299 C 63.51079,89.912164 62.927649,89.13424 62.534026,88.63847 61.086015,86.814674 60.770225,84.684848 61.6394,82.604628 l 0.483384,-1.156894 1.721523,0.142782 c 1.149253,0.09533 2.637773,0.590391 4.477801,1.489335 z M 130.50103,109.9272 c 1.11378,0.23557 1.69041,0.56387 2.07739,1.18268 0.29462,0.47114 0.79667,1.1159 1.11567,1.43283 0.46948,0.46646 0.57532,1.08013 0.55547,3.22106 -0.0134,1.45466 -0.19465,3.09519 -0.40263,3.64565 -0.20796,0.55044 -1.54784,2.24699 -2.97749,3.77009 -2.18165,2.32425 -2.82867,2.82212 -4.02632,3.09815 -0.78483,0.1809 -2.10019,0.33243 -2.92304,0.33676 -1.58266,0.009 -5.7513,-1.1265 -5.7513,-1.56568 0,-0.14263 0.28618,-0.51823 0.63599,-0.83479 0.34979,-0.31656 0.71741,-0.83212 0.81693,-1.14569 0.15474,-0.48753 0.45514,-0.54527 2.07318,-0.39855 1.04072,0.0944 2.26487,0.0779 2.72032,-0.0362 1.39781,-0.35083 3.01278,-2.0335 3.52826,-3.67618 0.55697,-1.77494 0.56919,-2.12372 0.17158,-4.89711 -0.23029,-1.60632 -0.48326,-2.24458 -1.08675,-2.74191 -0.57951,-0.47757 -0.73507,-0.84516 -0.59091,-1.3964 0.21188,-0.81027 0.20756,-0.81028 4.06365,0.006 z m -106.065094,1.07296 c 0.392536,1.03245 0.0077,1.99815 -1.262964,3.16783 -0.766354,0.70556 -0.991776,1.18553 -0.991776,2.11168 0,1.79723 1.226634,5.07759 2.300068,6.15102 0.876794,0.8768 2.67195,1.62816 3.819944,1.59883 0.265738,-0.007 1.021369,-0.20448 1.679183,-0.43933 1.072861,-0.38301 1.250715,-0.36653 1.727213,0.15999 l 0.531192,0.58695 -0.760895,0.14488 c -0.418495,0.0797 -2.22029,0.46885 -4.003997,0.86476 -2.793046,0.61996 -3.411498,0.66428 -4.456586,0.31937 -1.54072,-0.50848 -3.278811,-2.02762 -4.050487,-3.54022 -0.329759,-0.64639 -0.774536,-2.03713 -0.988394,-3.09053 -0.298926,-1.47242 -0.301731,-2.23274 -0.01213,-3.28843 0.207191,-0.75525 0.841694,-1.904 1.410004,-2.55279 1.100298,-1.25612 3.614201,-2.99931 4.325381,-2.99931 0.235443,0 0.565846,0.36238 0.734235,0.80527 z"
       id="path10679"
       inkscape:connector-curvature="0"
       sodipodi:nodetypes="ccscccsccscsscccccscccscscssssssccsscssssscsccccccccccccccscsccsccccsccccccscccsscsscscccsscscccccsscsccccccccccccssssscsssccsccsscccccsccccscsccccccccccccssccccscccssccscccccccccccscscsccccscsccsscssssssssscccccccsccsscccscsccccccccssscccscccccsccccccscsccscsscccccccccccscscscscsscccssscscsccscccsccsscsccccccsccccccsccccccscccsscsccsccssccsscssccscccscssccsccccccccscccccsscssccscc" /></g></svg>