<?xml version="1.0" encoding="UTF-8" standalone="no"?>
<svg
   height="24"
   viewBox="0 0 24 24"
   width="24"
   version="1.1"
   id="svg6"
   sodipodi:docname="Codespace.svg"
   inkscape:version="1.4.2 (ebf0e940d0, 2025-05-08)"
   xml:space="preserve"
   xmlns:inkscape="http://www.inkscape.org/namespaces/inkscape"
   xmlns:sodipodi="http://sodipodi.sourceforge.net/DTD/sodipodi-0.dtd"
   xmlns="http://www.w3.org/2000/svg"
   xmlns:svg="http://www.w3.org/2000/svg"
   xmlns:rdf="http://www.w3.org/1999/02/22-rdf-syntax-ns#"
   xmlns:cc="http://creativecommons.org/ns#"
   xmlns:dc="http://purl.org/dc/elements/1.1/"><metadata
     id="metadata12"><rdf:RDF><cc:Work
         rdf:about=""><dc:format>image/svg+xml</dc:format><dc:type
           rdf:resource="http://purl.org/dc/dcmitype/StillImage" /><dc:title /></cc:Work></rdf:RDF></metadata><defs
     id="defs10" /><sodipodi:namedview
     pagecolor="#ffffff"
     bordercolor="#666666"
     borderopacity="1"
     objecttolerance="10"
     gridtolerance="10"
     guidetolerance="10"
     inkscape:pageopacity="0"
     inkscape:pageshadow="2"
     inkscape:window-width="2560"
     inkscape:window-height="1362"
     id="namedview8"
     showgrid="true"
     inkscape:pagecheckerboard="false"
     showguides="true"
     inkscape:zoom="39.333334"
     inkscape:cx="17.25"
     inkscape:cy="12.775424"
     inkscape:window-x="0"
     inkscape:window-y="0"
     inkscape:window-maximized="1"
     inkscape:current-layer="svg6"
     inkscape:showpageshadow="2"
     inkscape:deskcolor="#d1d1d1"><inkscape:grid
       type="xygrid"
       id="grid4526"
       originx="0"
       originy="0"
       spacingy="1"
       spacingx="1"
       units="px" /></sodipodi:namedview><path
     id="path1"
     d="m 12,2.2533251 c -5.5208469,0 -9.9933055,4.4724586 -9.9933055,9.9933059 0,4.421584 2.8608109,8.157263 6.8326958,9.480922 0.4996652,0.08722 0.6868126,-0.211676 0.6868126,-0.474228 0,-0.238023 -0.01181,-1.024768 -0.01181,-1.86148 C 7.0033474,19.854262 6.3537825,18.779527 6.1539164,18.218086 6.0412646,17.930097 5.5543181,17.043418 5.1300568,16.806303 4.7802911,16.618248 4.2797173,16.156739 5.1173381,16.14402 c 0.7867456,-0.01272 1.3490962,0.72406 1.5362436,1.024768 0.8993976,1.510807 2.3357081,1.086545 2.9107775,0.823993 0.087214,-0.649564 0.3497656,-1.086544 0.6368458,-1.336377 -2.2239645,-0.249833 -4.5469539,-1.111982 -4.5469539,-4.934876 0,-1.086545 0.3870135,-1.9859422 1.0247682,-2.6854737 -0.1008416,-0.2498326 -0.4506073,-1.2736922 0.099933,-2.648226 0,0 0.8367123,-0.2616429 2.7472506,1.0247681 a 9.2601606,9.2601606 0 0 1 2.4983261,-0.337047 c 0.850339,0 1.699771,0.1117433 2.498326,0.337047 1.911447,-1.2991298 2.748159,-1.0247681 2.748159,-1.0247681 0.549632,1.3745338 0.200775,2.3983934 0.100842,2.648226 0.636846,0.6995315 1.023859,1.5871187 1.023859,2.6854737 0,3.835613 -2.335708,4.685043 -4.559672,4.934876 0.362484,0.312518 0.675002,0.912117 0.675002,1.848762 0,1.336377 -0.01272,2.411112 -0.01272,2.748159 0,0.262552 0.187148,0.574161 0.686812,0.474228 3.947356,-1.323659 6.808168,-5.071149 6.808168,-9.480922 C 21.993306,6.7257837 17.521756,2.2533251 12,2.2533251 Z"
     style="stroke-width:0.908482" /></svg>
