<?xml version="1.0" encoding="UTF-8" standalone="no"?>
<svg
   xmlns:dc="http://purl.org/dc/elements/1.1/"
   xmlns:cc="http://creativecommons.org/ns#"
   xmlns:rdf="http://www.w3.org/1999/02/22-rdf-syntax-ns#"
   xmlns:svg="http://www.w3.org/2000/svg"
   xmlns="http://www.w3.org/2000/svg"
   xmlns:sodipodi="http://sodipodi.sourceforge.net/DTD/sodipodi-0.dtd"
   xmlns:inkscape="http://www.inkscape.org/namespaces/inkscape"
   height="24"
   viewBox="0 0 24 24"
   width="24"
   version="1.1"
   id="svg6"
   sodipodi:docname="ComposerProject.svg"
   inkscape:version="0.92.5 (2060ec1f9f, 2020-04-08)">
  <metadata
     id="metadata12">
    <rdf:RDF>
      <cc:Work
         rdf:about="">
        <dc:format>image/svg+xml</dc:format>
        <dc:type
           rdf:resource="http://purl.org/dc/dcmitype/StillImage" />
        <dc:title />
      </cc:Work>
    </rdf:RDF>
  </metadata>
  <defs
     id="defs10" />
  <sodipodi:namedview
     pagecolor="#ffffff"
     bordercolor="#666666"
     borderopacity="1"
     objecttolerance="10"
     gridtolerance="10"
     guidetolerance="10"
     inkscape:pageopacity="0"
     inkscape:pageshadow="2"
     inkscape:window-width="1709"
     inkscape:window-height="1083"
     id="namedview8"
     showgrid="true"
     inkscape:pagecheckerboard="false"
     showguides="true"
     inkscape:zoom="27.812867"
     inkscape:cx="11.351485"
     inkscape:cy="9.830298"
     inkscape:window-x="-4"
     inkscape:window-y="220"
     inkscape:window-maximized="0"
     inkscape:current-layer="svg6"
     inkscape:snap-bbox="true"
     inkscape:bbox-paths="true"
     inkscape:bbox-nodes="true"
     inkscape:snap-bbox-edge-midpoints="true"
     inkscape:snap-bbox-midpoints="true">
    <inkscape:grid
       type="xygrid"
       id="grid4526" />
  </sodipodi:namedview>
  <path
     style="color:#000000;font-style:normal;font-variant:normal;font-weight:normal;font-stretch:normal;font-size:medium;line-height:normal;font-family:sans-serif;font-variant-ligatures:normal;font-variant-position:normal;font-variant-caps:normal;font-variant-numeric:normal;font-variant-alternates:normal;font-feature-settings:normal;text-indent:0;text-align:start;text-decoration:none;text-decoration-line:none;text-decoration-style:solid;text-decoration-color:#000000;letter-spacing:normal;word-spacing:normal;text-transform:none;writing-mode:lr-tb;direction:ltr;text-orientation:mixed;dominant-baseline:auto;baseline-shift:baseline;text-anchor:start;white-space:normal;shape-padding:0;clip-rule:nonzero;display:inline;overflow:visible;visibility:visible;opacity:1;isolation:auto;mix-blend-mode:normal;color-interpolation:sRGB;color-interpolation-filters:linearRGB;solid-color:#000000;solid-opacity:1;vector-effect:none;fill:#000000;fill-opacity:1;fill-rule:evenodd;stroke:none;stroke-width:2;stroke-linecap:round;stroke-linejoin:round;stroke-miterlimit:4;stroke-dasharray:none;stroke-dashoffset:0;stroke-opacity:1;color-rendering:auto;image-rendering:auto;shape-rendering:auto;text-rendering:auto;enable-background:accumulate"
     d="M 11.972656 11.986328 A 1.0001 1.0001 0 0 0 11.003906 12.914062 C 10.824579 14.997027 11.336505 16.722173 12.220703 18.033203 L 14.927734 18.033203 C 14.890589 18.005439 14.850828 17.98207 14.814453 17.953125 C 13.632351 17.012467 12.786693 15.518201 12.996094 13.085938 A 1.0001 1.0001 0 0 0 11.972656 11.986328 z M 20 15 A 1.0001 1.0001 0 1 0 20 17 L 20.484375 17 C 20.404535 17.171109 20.430115 17.175613 20.330078 17.357422 C 19.868113 18.196999 19.190704 18.898193 18.75 18.984375 C 17.956245 19.139597 16.948911 19.031246 16.011719 18.644531 L 16.011719 20.773438 C 17.06396 21.080571 18.145169 21.140403 19.132812 20.947266 C 20.65493 20.649608 21.507534 19.369908 22.083984 18.322266 C 22.660435 17.274623 22.957031 16.292969 22.957031 16.292969 A 1.0001 1.0001 0 0 0 22 15 L 20 15 z "
     id="path835-0" />
  <path
     style="color:#000000;font-style:normal;font-variant:normal;font-weight:normal;font-stretch:normal;font-size:medium;line-height:normal;font-family:sans-serif;font-variant-ligatures:normal;font-variant-position:normal;font-variant-caps:normal;font-variant-numeric:normal;font-variant-alternates:normal;font-feature-settings:normal;text-indent:0;text-align:start;text-decoration:none;text-decoration-line:none;text-decoration-style:solid;text-decoration-color:#000000;letter-spacing:normal;word-spacing:normal;text-transform:none;writing-mode:lr-tb;direction:ltr;text-orientation:mixed;dominant-baseline:auto;baseline-shift:baseline;text-anchor:start;white-space:normal;shape-padding:0;clip-rule:nonzero;display:inline;overflow:visible;visibility:visible;opacity:1;isolation:auto;mix-blend-mode:normal;color-interpolation:sRGB;color-interpolation-filters:linearRGB;solid-color:#000000;solid-opacity:1;vector-effect:none;fill:#000000;fill-opacity:1;fill-rule:evenodd;stroke:none;stroke-width:2;stroke-linecap:round;stroke-linejoin:round;stroke-miterlimit:4;stroke-dasharray:none;stroke-dashoffset:0;stroke-opacity:1;color-rendering:auto;image-rendering:auto;shape-rendering:auto;text-rendering:auto;enable-background:accumulate"
     d="M 20.951172 1.9863281 A 1.0001 1.0001 0 0 0 20.275391 2.2929688 L 21 5 L 17.8125 5.8535156 C 17.562863 6.310588 17.433665 6.8160876 17.427734 7.2832031 C 17.408657 8.7859752 18 10.195875 18 12 C 18 12.926584 17.867579 13.492866 17.710938 13.740234 C 17.554295 13.987603 17.376746 14.130678 16.658203 14.214844 C 16.383977 14.246964 16.253963 14.219644 15.789062 13.917969 C 15.324163 13.616261 14.638657 13.039522 13.628906 12.222656 A 1.0001 1.0001 0 1 0 12.371094 13.777344 C 13.361343 14.578434 14.04019 15.166742 14.701172 15.595703 C 15.362154 16.024664 16.117916 16.293636 16.890625 16.203125 C 17.956355 16.078291 18.892669 15.615428 19.402344 14.810547 C 19.912019 14.005665 20 13.073416 20 12 C 20 9.8041247 19.417585 8.1080715 19.427734 7.3085938 C 19.432809 6.9088548 19.459681 6.82422 19.689453 6.6328125 C 19.919225 6.441405 20.510683 6.1699171 21.628906 5.9863281 A 1.0001 1.0001 0 0 0 22.441406 4.7714844 L 21.974609 2.7714844 A 1.0001 1.0001 0 0 0 20.951172 1.9863281 z "
     id="path837" />
  <path
     style="color:#000000;font-style:normal;font-variant:normal;font-weight:normal;font-stretch:normal;font-size:medium;line-height:normal;font-family:sans-serif;font-variant-ligatures:normal;font-variant-position:normal;font-variant-caps:normal;font-variant-numeric:normal;font-variant-alternates:normal;font-feature-settings:normal;text-indent:0;text-align:start;text-decoration:none;text-decoration-line:none;text-decoration-style:solid;text-decoration-color:#000000;letter-spacing:normal;word-spacing:normal;text-transform:none;writing-mode:lr-tb;direction:ltr;text-orientation:mixed;dominant-baseline:auto;baseline-shift:baseline;text-anchor:start;white-space:normal;shape-padding:0;clip-rule:nonzero;display:inline;overflow:visible;visibility:visible;opacity:1;isolation:auto;mix-blend-mode:normal;color-interpolation:sRGB;color-interpolation-filters:linearRGB;solid-color:#000000;solid-opacity:1;vector-effect:none;fill:#000000;fill-opacity:1;fill-rule:evenodd;stroke:none;stroke-width:2;stroke-linecap:round;stroke-linejoin:round;stroke-miterlimit:4;stroke-dasharray:none;stroke-dashoffset:0;stroke-opacity:1;color-rendering:auto;image-rendering:auto;shape-rendering:auto;text-rendering:auto;enable-background:accumulate"
     d="M 1.5566406 10.091797 A 1.0001 1.0001 0 0 0 1.2929688 11.707031 L 2.0585938 12.472656 C 2.0665438 12.799363 2.0519638 13.33287 2.2792969 14.242188 C 2.4233193 14.818276 2.6337187 15.428943 3.0429688 15.974609 C 3.4522188 16.520276 4.1666667 17 5 17 C 6.6666667 17 7.8196727 15.732414 8.7636719 14.662109 C 9.7076711 13.591805 10.373047 12.535156 10.373047 12.535156 A 1.0001 1.0001 0 1 0 8.6835938 11.464844 C 8.6835938 11.464844 8.0836548 12.408195 7.2636719 13.337891 C 6.443689 14.267586 5.3333333 15 5 15 C 4.8333333 15 4.7977813 14.979724 4.6445312 14.775391 C 4.4912813 14.571057 4.3266807 14.181724 4.2207031 13.757812 C 4.1047454 13.293982 4.053502 12.849673 4.0273438 12.507812 L 4 12.535156 L 1.5566406 10.091797 z "
     id="path835" />
  <path
     style="color:#000000;overflow:visible;opacity:1;vector-effect:none;fill:#000000;fill-opacity:1;stroke:none;stroke-width:1.5;stroke-linecap:butt;stroke-linejoin:round;stroke-miterlimit:4;stroke-dasharray:none;stroke-dashoffset:0;stroke-opacity:1"
     d="M 12.042969 3.8027344 A 5.2203792 4.7889242 78.014332 0 0 7.9765625 6 A 5.2203792 4.7889242 78.014332 0 0 9.3671875 13.25 A 5.2203792 4.7889242 78.014332 0 0 16.023438 12 A 5.2203792 4.7889242 78.014332 0 0 14.632812 4.75 A 5.2203792 4.7889242 78.014332 0 0 12.042969 3.8027344 z M 10 8.9785156 A 1.0213414 1.0213414 0 0 1 11.021484 10 A 1.0213414 1.0213414 0 0 1 10 11.021484 A 1.0213414 1.0213414 0 0 1 8.9785156 10 A 1.0213414 1.0213414 0 0 1 10 8.9785156 z M 13 8.9785156 A 1.0213414 1.0213414 0 0 1 14.021484 10 A 1.0213414 1.0213414 0 0 1 13 11.021484 A 1.0213414 1.0213414 0 0 1 11.978516 10 A 1.0213414 1.0213414 0 0 1 13 8.9785156 z "
     id="path816" />
  <rect
     style="color:#000000;overflow:visible;opacity:1;vector-effect:none;fill:#000000;fill-opacity:1;stroke:none;stroke-width:2;stroke-linecap:round;stroke-linejoin:round;stroke-miterlimit:4;stroke-dasharray:none;stroke-dashoffset:0;stroke-opacity:1"
     id="rect877"
     width="3"
     height="3"
     x="7.6923881"
     y="2.0355339"
     transform="rotate(45)" />
  <rect
     style="color:#000000;overflow:visible;opacity:1;vector-effect:none;fill:#000000;fill-opacity:1;stroke:none;stroke-width:2;stroke-linecap:round;stroke-linejoin:round;stroke-miterlimit:4;stroke-dasharray:none;stroke-dashoffset:0;stroke-opacity:1"
     id="rect877-3-2"
     width="3"
     height="3"
     x="6.2648296"
     y="-17.990347"
     transform="rotate(75)" />
  <path
     style="color:#000000;font-style:normal;font-variant:normal;font-weight:normal;font-stretch:normal;font-size:medium;line-height:normal;font-family:sans-serif;font-variant-ligatures:normal;font-variant-position:normal;font-variant-caps:normal;font-variant-numeric:normal;font-variant-alternates:normal;font-feature-settings:normal;text-indent:0;text-align:start;text-decoration:none;text-decoration-line:none;text-decoration-style:solid;text-decoration-color:#000000;letter-spacing:normal;word-spacing:normal;text-transform:none;writing-mode:lr-tb;direction:ltr;text-orientation:mixed;dominant-baseline:auto;baseline-shift:baseline;text-anchor:start;white-space:normal;shape-padding:0;clip-rule:nonzero;display:inline;overflow:visible;visibility:visible;opacity:1;isolation:auto;mix-blend-mode:normal;color-interpolation:sRGB;color-interpolation-filters:linearRGB;solid-color:#000000;solid-opacity:1;vector-effect:none;fill:#000000;fill-opacity:1;fill-rule:evenodd;stroke:none;stroke-width:2;stroke-linecap:round;stroke-linejoin:round;stroke-miterlimit:4;stroke-dasharray:none;stroke-dashoffset:0;stroke-opacity:1;color-rendering:auto;image-rendering:auto;shape-rendering:auto;text-rendering:auto;enable-background:accumulate"
     d="m 11.025391,11.990234 a 1.0001,1.0001 0 0 0 -0.701172,0.271485 c -1.2174861,1.11387 -1.219104,2.68852 -1.2832034,3.847656 -0.03205,0.579568 -0.075091,1.08924 -0.171875,1.431641 -0.096784,0.3424 -0.1900274,0.481031 -0.3945312,0.607422 -0.2044402,0.12635 -0.5524424,0.176906 -1.0976563,0.08594 -0.5452138,-0.09097 -1.2204392,-0.315749 -1.9101562,-0.539063 -0.6897171,-0.223313 -1.3848181,-0.45813 -2.1425781,-0.480468 -0.7577601,-0.02234 -1.7291904,0.366584 -2.1464844,1.201172 -0.24412954,0.488259 -0.23606821,1.024468 -0.1269532,1.435546 0.1091151,0.411079 0.2992868,0.73536 0.4882813,1.00586 0.3779889,0.540999 0.8125,0.902344 0.8125,0.902344 a 1.0001,1.0001 0 1 0 1.296875,-1.519532 c 0,0 -0.2648424,-0.235499 -0.46875,-0.527343 -0.1019538,-0.145922 -0.1746047,-0.296986 -0.1953125,-0.375 -0.020708,-0.07802 -0.00915,-0.0442 -0.017578,-0.02734 0.082706,-0.165412 -0.022897,-0.105188 0.2988281,-0.0957 0.3217252,0.0095 0.9192572,0.166958 1.5859375,0.382812 0.6666803,0.215855 1.4097903,0.478311 2.1953125,0.609375 0.7855222,0.131065 1.6804542,0.137761 2.4785156,-0.355469 0.6921604,-0.427779 1.0852784,-1.122641 1.2675784,-1.767578 0.182299,-0.644936 0.211589,-1.2766 0.24414,-1.865234 0.0651,-1.177267 0.166293,-2.048292 0.638672,-2.480469 a 1.0001,1.0001 0 0 0 -0.65039,-1.748047 z"
     id="path991"
     inkscape:connector-curvature="0" />
  <rect
     style="color:#000000;overflow:visible;opacity:1;vector-effect:none;fill:#000000;fill-opacity:1;stroke:none;stroke-width:2;stroke-linecap:round;stroke-linejoin:round;stroke-miterlimit:4;stroke-dasharray:none;stroke-dashoffset:0;stroke-opacity:1"
     id="rect877-3-7"
     width="3"
     height="3"
     x="12.012074"
     y="19.032461" />
</svg>
