<?xml version="1.0" encoding="UTF-8" standalone="no"?>
<svg
   xmlns:dc="http://purl.org/dc/elements/1.1/"
   xmlns:cc="http://creativecommons.org/ns#"
   xmlns:rdf="http://www.w3.org/1999/02/22-rdf-syntax-ns#"
   xmlns:svg="http://www.w3.org/2000/svg"
   xmlns="http://www.w3.org/2000/svg"
   xmlns:sodipodi="http://sodipodi.sourceforge.net/DTD/sodipodi-0.dtd"
   xmlns:inkscape="http://www.inkscape.org/namespaces/inkscape"
   height="24"
   viewBox="0 0 24 24"
   width="24"
   version="1.1"
   id="svg6"
   sodipodi:docname="genericcontainer.svg"
   inkscape:version="0.92.5 (2060ec1f9f, 2020-04-08)">
  <metadata
     id="metadata12">
    <rdf:RDF>
      <cc:Work
         rdf:about="">
        <dc:format>image/svg+xml</dc:format>
        <dc:type
           rdf:resource="http://purl.org/dc/dcmitype/StillImage" />
        <dc:title></dc:title>
      </cc:Work>
    </rdf:RDF>
  </metadata>
  <defs
     id="defs10" />
  <sodipodi:namedview
     pagecolor="#ffffff"
     bordercolor="#666666"
     borderopacity="1"
     objecttolerance="10"
     gridtolerance="10"
     guidetolerance="10"
     inkscape:pageopacity="0"
     inkscape:pageshadow="2"
     inkscape:window-width="1709"
     inkscape:window-height="1083"
     id="namedview8"
     showgrid="true"
     inkscape:pagecheckerboard="false"
     showguides="true"
     inkscape:zoom="27.812867"
     inkscape:cx="5.4153848"
     inkscape:cy="13.2063"
     inkscape:window-x="42"
     inkscape:window-y="133"
     inkscape:window-maximized="0"
     inkscape:current-layer="svg6">
    <inkscape:grid
       type="xygrid"
       id="grid4526" />
  </sodipodi:namedview>
  <path
     style="color:#000000;overflow:visible;opacity:1;vector-effect:none;fill:#000000;fill-opacity:1;stroke:none;stroke-width:0;stroke-linecap:butt;stroke-linejoin:miter;stroke-miterlimit:4;stroke-dasharray:none;stroke-dashoffset:0;stroke-opacity:1"
     d="M 9.9824219 2 A 2.0002 2.0002 0 0 0 8.890625 2.3359375 L 2.890625 6.3359375 A 2.0002 2.0002 0 0 0 2 8 L 2 17 A 2.0002 2.0002 0 0 0 3.3671875 18.896484 L 9.3671875 20.896484 A 2.0002 2.0002 0 0 0 10.392578 20.960938 L 20.392578 18.960938 A 2.0002 2.0002 0 0 0 22 17 L 22 7 A 2.0002 2.0002 0 0 0 20.574219 5.0839844 L 10.574219 2.0839844 A 2.0002 2.0002 0 0 0 9.9824219 2 z M 11 4.3007812 L 20 7 L 20 17 L 11 18.800781 L 11 4.3007812 z M 9 4.6660156 L 9 18.666016 L 4 17 L 4 8 L 9 4.6660156 z M 6 8 L 6 16 L 7 16 L 7 8 L 6 8 z "
     id="rect872" />
</svg>
