<?xml version="1.0" encoding="UTF-8" standalone="no"?>
<svg
   height="24"
   viewBox="0 0 24 24"
   width="24"
   version="1.1"
   id="svg6"
   sodipodi:docname="DevContainer.svg"
   inkscape:version="1.4.2 (ebf0e940d0, 2025-05-08)"
   xml:space="preserve"
   xmlns:inkscape="http://www.inkscape.org/namespaces/inkscape"
   xmlns:sodipodi="http://sodipodi.sourceforge.net/DTD/sodipodi-0.dtd"
   xmlns="http://www.w3.org/2000/svg"
   xmlns:svg="http://www.w3.org/2000/svg"
   xmlns:rdf="http://www.w3.org/1999/02/22-rdf-syntax-ns#"
   xmlns:cc="http://creativecommons.org/ns#"
   xmlns:dc="http://purl.org/dc/elements/1.1/"><metadata
     id="metadata12"><rdf:RDF><cc:Work
         rdf:about=""><dc:format>image/svg+xml</dc:format><dc:type
           rdf:resource="http://purl.org/dc/dcmitype/StillImage" /><dc:title /></cc:Work></rdf:RDF></metadata><defs
     id="defs10" /><sodipodi:namedview
     pagecolor="#ffffff"
     bordercolor="#666666"
     borderopacity="1"
     objecttolerance="10"
     gridtolerance="10"
     guidetolerance="10"
     inkscape:pageopacity="0"
     inkscape:pageshadow="2"
     inkscape:window-width="2560"
     inkscape:window-height="1362"
     id="namedview8"
     showgrid="true"
     inkscape:pagecheckerboard="false"
     showguides="true"
     inkscape:zoom="39.333334"
     inkscape:cx="17.224576"
     inkscape:cy="12.775424"
     inkscape:window-x="0"
     inkscape:window-y="0"
     inkscape:window-maximized="1"
     inkscape:current-layer="svg6"
     inkscape:showpageshadow="2"
     inkscape:deskcolor="#d1d1d1"><inkscape:grid
       type="xygrid"
       id="grid4526"
       originx="0"
       originy="0"
       spacingy="1"
       spacingx="1"
       units="px" /></sodipodi:namedview><path
     style="stroke-width:0.0249999"
     d="M 12,11.999999 Z"
     id="path8" /><path
     id="path7"
     style="stroke-width:0.0249999"
     d="M 12 2 C 11.649999 2 11.316667 2.0920573 11 2.2753906 L 4 6.3007812 C 3.6833333 6.4841146 3.4367193 6.72539 3.2617188 7.0253906 C 3.0867187 7.32539 3 7.6587246 3 8.0253906 L 3 15.974609 C 3 16.341278 3.0867187 16.674611 3.2617188 16.974609 C 3.4367193 17.274609 3.6833333 17.515886 4 17.699219 L 11 21.724609 C 11.316667 21.907942 11.649999 22 12 22 C 12.35 22 12.683333 21.907942 13 21.724609 L 20 17.699219 C 20.316667 17.515886 20.56328 17.274609 20.738281 16.974609 C 20.913281 16.674611 21 16.341278 21 15.974609 L 21 8.0253906 C 21 7.6587246 20.913281 7.32539 20.738281 7.0253906 C 20.56328 6.72539 20.316667 6.4841146 20 6.3007812 L 13 2.2753906 C 12.683333 2.0920573 12.35 2 12 2 z M 12 4.0351562 L 18.957031 8.0097656 L 19 8 L 19 8.0351562 L 19 15.949219 L 12 20 L 5 15.949219 L 5 8 L 12 4.0351562 z M 7.1425781 8.0429688 A 2 2.0762711 0 0 0 6.0058594 9.6816406 L 11 12.574219 L 11 17.740234 A 2 2.0762711 0 0 0 12 18.017578 A 2 2.0762711 0 0 0 13 17.740234 L 13 12.574219 L 17.986328 9.6875 A 2 2.0762711 0 0 0 16.853516 8.0449219 L 16.851562 8.0449219 L 12 10.849609 L 7.1445312 8.0429688 L 7.1425781 8.0429688 z " /></svg>
