<?xml version="1.0" encoding="UTF-8" standalone="no"?>
<svg
   xmlns:dc="http://purl.org/dc/elements/1.1/"
   xmlns:cc="http://creativecommons.org/ns#"
   xmlns:rdf="http://www.w3.org/1999/02/22-rdf-syntax-ns#"
   xmlns:svg="http://www.w3.org/2000/svg"
   xmlns="http://www.w3.org/2000/svg"
   xmlns:sodipodi="http://sodipodi.sourceforge.net/DTD/sodipodi-0.dtd"
   xmlns:inkscape="http://www.inkscape.org/namespaces/inkscape"
   height="24"
   viewBox="0 0 24 24"
   width="24"
   version="1.1"
   id="svg6"
   sodipodi:docname="Docker.svg"
   inkscape:version="1.0.1 (3bc2e813f5, 2020-09-07)">
  <metadata
     id="metadata12">
    <rdf:RDF>
      <cc:Work
         rdf:about="">
        <dc:format>image/svg+xml</dc:format>
        <dc:type
           rdf:resource="http://purl.org/dc/dcmitype/StillImage" />
        <dc:title />
      </cc:Work>
    </rdf:RDF>
  </metadata>
  <defs
     id="defs10" />
  <sodipodi:namedview
     pagecolor="#ffffff"
     bordercolor="#666666"
     borderopacity="1"
     objecttolerance="10"
     gridtolerance="10"
     guidetolerance="10"
     inkscape:pageopacity="0"
     inkscape:pageshadow="2"
     inkscape:window-width="1709"
     inkscape:window-height="1083"
     id="namedview8"
     showgrid="true"
     inkscape:pagecheckerboard="false"
     showguides="true"
     inkscape:zoom="19.666667"
     inkscape:cx="-0.20469429"
     inkscape:cy="10.437356"
     inkscape:window-x="114"
     inkscape:window-y="181"
     inkscape:window-maximized="0"
     inkscape:current-layer="svg6"
     inkscape:document-rotation="0">
    <inkscape:grid
       type="xygrid"
       id="grid4526" />
  </sodipodi:namedview>
  <path
     id="rect5268"
     style="color:#000000;clip-rule:nonzero;display:inline;overflow:visible;visibility:visible;opacity:1;isolation:auto;mix-blend-mode:normal;color-interpolation:sRGB;color-interpolation-filters:linearRGB;solid-color:#000000;solid-opacity:1;vector-effect:none;fill:#000000;fill-opacity:1;fill-rule:nonzero;stroke:#ffffff;stroke-width:0;stroke-linecap:butt;stroke-linejoin:miter;stroke-miterlimit:4;stroke-dasharray:none;stroke-dashoffset:0;stroke-opacity:1;marker:none;marker-start:none;marker-mid:none;marker-end:none;color-rendering:auto;image-rendering:auto;shape-rendering:auto;text-rendering:auto;enable-background:accumulate"
     d="M 7 1 C 5.892 1 5 1.892 5 3 L 5 5 C 5 6.108 5.892 7 7 7 L 9 7 C 10.108 7 11 6.108 11 5 L 11 3 C 11 1.892 10.108 1 9 1 L 7 1 z M 7 3 L 9 3 L 9 5 L 7 5 L 7 3 z M 4 8 C 2.892 8 2 8.892 2 10 L 2 12 C 2 13.108 2.892 14 4 14 L 6 14 C 7.108 14 8 13.108 8 12 L 8 10 C 8 8.892 7.108 8 6 8 L 4 8 z M 11 8 C 9.892 8 9 8.892 9 10 L 9 12 C 9 13.108 9.892 14 11 14 L 13 14 C 14.108 14 15 13.108 15 12 L 15 10 C 15 8.892 14.108 8 13 8 L 11 8 z M 4 10 L 6 10 L 6 12 L 4 12 L 4 10 z M 11 10 L 13 10 L 13 12 L 11 12 L 11 10 z M 16.875 13.011719 A 1.8748123 1.2498748 44.999678 0 0 16.142578 13.279297 A 1.8748123 1.2498748 44.999678 0 0 16.585938 15.490234 A 1.8748123 1.2498748 44.999678 0 0 16.597656 15.501953 L 1.9902344 15.501953 C 1.9925244 17.068257 2.5257212 18.595036 3.515625 19.867188 C 6.4164998 19.847787 8.1796812 19.554685 9.1640625 19.273438 C 9.6730913 19.128003 9.9821598 18.988241 10.150391 18.896484 C 10.31861 18.804704 10.298828 18.8125 10.298828 18.8125 L 11.183594 19.689453 C 11.183594 19.689453 11.001648 19.851549 10.740234 19.994141 C 10.478821 20.136732 10.090474 20.307577 9.5058594 20.474609 C 8.5367034 20.75151 6.9961195 21.006258 4.7109375 21.089844 C 6.1965935 22.317324 8.7444231 22.998322 10.738281 23.001953 C 14.615883 23.001953 18.319837 20.492923 19.255859 17.138672 A 1.8748158 1.2498724 14.999839 0 0 19.853516 17.376953 A 1.8748158 1.2498724 14.999839 0 0 21.988281 16.652344 A 1.8748158 1.2498724 14.999839 0 0 20.498047 14.958984 A 1.8748158 1.2498724 14.999839 0 0 19.044922 15.001953 A 1.8748123 1.2498748 44.999678 0 0 18.355469 13.720703 A 1.8748123 1.2498748 44.999678 0 0 17.8125 13.300781 A 1.8748123 1.2498748 44.999678 0 0 16.875 13.011719 z M 6.3632812 16.751953 C 6.7084256 16.751953 6.9882812 17.031811 6.9882812 17.376953 C 6.9882812 17.722098 6.7084256 18.001953 6.3632812 18.001953 C 6.0181369 18.001953 5.7382811 17.722095 5.7382812 17.376953 C 5.7382814 17.031811 6.0181372 16.751953 6.3632812 16.751953 z " />
</svg>
