<?xml version="1.0" encoding="UTF-8" standalone="no"?>
<svg
   xmlns:dc="http://purl.org/dc/elements/1.1/"
   xmlns:cc="http://creativecommons.org/ns#"
   xmlns:rdf="http://www.w3.org/1999/02/22-rdf-syntax-ns#"
   xmlns:svg="http://www.w3.org/2000/svg"
   xmlns="http://www.w3.org/2000/svg"
   xmlns:sodipodi="http://sodipodi.sourceforge.net/DTD/sodipodi-0.dtd"
   xmlns:inkscape="http://www.inkscape.org/namespaces/inkscape"
   height="24"
   viewBox="0 0 24 24"
   width="24"
   version="1.1"
   id="svg6"
   sodipodi:docname="IERuntime.svg"
   inkscape:version="0.92.5 (2060ec1f9f, 2020-04-08)">
  <metadata
     id="metadata12">
    <rdf:RDF>
      <cc:Work
         rdf:about="">
        <dc:format>image/svg+xml</dc:format>
        <dc:type
           rdf:resource="http://purl.org/dc/dcmitype/StillImage" />
        <dc:title></dc:title>
      </cc:Work>
    </rdf:RDF>
  </metadata>
  <defs
     id="defs10" />
  <sodipodi:namedview
     pagecolor="#ffffff"
     bordercolor="#666666"
     borderopacity="1"
     objecttolerance="10"
     gridtolerance="10"
     guidetolerance="10"
     inkscape:pageopacity="0"
     inkscape:pageshadow="2"
     inkscape:window-width="1709"
     inkscape:window-height="1083"
     id="namedview8"
     showgrid="true"
     inkscape:pagecheckerboard="false"
     showguides="true"
     inkscape:zoom="27.812867"
     inkscape:cx="11.685047"
     inkscape:cy="10.170323"
     inkscape:window-x="114"
     inkscape:window-y="181"
     inkscape:window-maximized="0"
     inkscape:current-layer="svg6">
    <inkscape:grid
       type="xygrid"
       id="grid4526" />
  </sodipodi:namedview>
  <path
     style="color:#000000;overflow:visible;opacity:1;vector-effect:none;fill:#000000;fill-opacity:1;stroke:none;stroke-width:0;stroke-linecap:butt;stroke-linejoin:miter;stroke-miterlimit:4;stroke-dasharray:none;stroke-dashoffset:0;stroke-opacity:1"
     d="M 20 5 L 17 8 L 20 11 L 23 8 L 20 5 z M 2 8 L 2 18 L 4 18 L 4 8 L 2 8 z M 5 8 L 5 18 L 8 18 L 8 8 L 5 8 z M 9 8 L 9 18 L 10 18 L 10 17 L 11 17 L 11 18 L 12 18 L 12 17 L 13 17 L 13 18 L 14 18 L 14 17 L 15 17 L 15 18 L 20 18 L 20 13.21875 L 14.78125 8 L 9 8 z "
     id="path837" />
</svg>
