<?xml version="1.0" encoding="UTF-8" standalone="no"?>
<svg
   height="24"
   viewBox="0 0 24 24"
   width="24"
   version="1.1"
   id="svg6"
   sodipodi:docname="PodmanPod.svg"
   inkscape:version="1.1.2 (0a00cf5339, 2022-02-04)"
   xmlns:inkscape="http://www.inkscape.org/namespaces/inkscape"
   xmlns:sodipodi="http://sodipodi.sourceforge.net/DTD/sodipodi-0.dtd"
   xmlns="http://www.w3.org/2000/svg"
   xmlns:svg="http://www.w3.org/2000/svg"
   xmlns:rdf="http://www.w3.org/1999/02/22-rdf-syntax-ns#"
   xmlns:cc="http://creativecommons.org/ns#"
   xmlns:dc="http://purl.org/dc/elements/1.1/">
  <metadata
     id="metadata12">
    <rdf:RDF>
      <cc:Work
         rdf:about="">
        <dc:format>image/svg+xml</dc:format>
        <dc:type
           rdf:resource="http://purl.org/dc/dcmitype/StillImage" />
        <dc:title />
      </cc:Work>
    </rdf:RDF>
  </metadata>
  <defs
     id="defs10" />
  <sodipodi:namedview
     pagecolor="#ffffff"
     bordercolor="#666666"
     borderopacity="1"
     objecttolerance="10"
     gridtolerance="10"
     guidetolerance="10"
     inkscape:pageopacity="0"
     inkscape:pageshadow="2"
     inkscape:window-width="2560"
     inkscape:window-height="1361"
     id="namedview8"
     showgrid="true"
     inkscape:pagecheckerboard="false"
     showguides="true"
     inkscape:zoom="39.333334"
     inkscape:cx="16.182203"
     inkscape:cy="12.584746"
     inkscape:window-x="0"
     inkscape:window-y="0"
     inkscape:window-maximized="1"
     inkscape:current-layer="svg6">
    <inkscape:grid
       type="xygrid"
       id="grid4526" />
  </sodipodi:namedview>
  <path
     id="path1856"
     style="color:#000000;fill:#000000;stroke-width:0.923562;-inkscape-stroke:none"
     d="M 12.035156 1.9765625 L 3.7910156 5.9179688 L 1.734375 14.820312 L 7.4121094 21.980469 L 16.548828 22.005859 L 16.699219 21.818359 L 22.267578 14.876953 L 20.255859 5.9628906 L 12.035156 1.9765625 z M 12.03125 3.0859375 L 19.386719 6.6523438 L 21.183594 14.626953 L 16.070312 21.003906 L 7.8945312 20.982422 L 2.8164062 14.578125 L 4.6582031 6.6132812 L 12.03125 3.0859375 z M 12 6.1757812 C 11.189782 6.1757812 9.9426073 6.3559649 8.7910156 7.1191406 C 7.6394245 7.8823162 6.6482017 9.2555814 6.4472656 11.392578 C 6.0779995 15.31981 5.7578125 17.289062 5.7578125 17.289062 L 7.1601562 17.289062 C 7.2314526 16.824116 7.5076133 14.9412 7.8300781 11.511719 C 8.0012256 9.6915244 8.7471325 8.7570597 9.5859375 8.2011719 C 10.424744 7.6452842 11.421273 7.4941406 12 7.4941406 C 12.578728 7.4941406 13.575255 7.6452842 14.414062 8.2011719 C 15.252868 8.7570597 15.998774 9.6915243 16.169922 11.511719 C 16.492386 14.9412 16.768548 16.824116 16.839844 17.289062 L 18.242188 17.289062 C 18.242188 17.289062 17.922001 15.31981 17.552734 11.392578 C 17.351799 9.2555813 16.360575 7.8823162 15.208984 7.1191406 C 14.057392 6.3559649 12.810217 6.1757812 12 6.1757812 z M 10.263672 10.34375 A 1.0417101 1.0417101 0 0 0 9.2226562 11.384766 A 1.0417101 1.0417101 0 0 0 10.263672 12.427734 A 1.0417101 1.0417101 0 0 0 11.304688 11.384766 A 1.0417101 1.0417101 0 0 0 10.263672 10.34375 z M 13.736328 10.34375 A 1.0417101 1.0417101 0 0 0 12.695312 11.384766 A 1.0417101 1.0417101 0 0 0 13.736328 12.427734 A 1.0417101 1.0417101 0 0 0 14.777344 11.384766 A 1.0417101 1.0417101 0 0 0 13.736328 10.34375 z M 12 13.816406 A 1.3889468 0.69447339 0 0 0 11.076172 13.994141 L 8.4589844 14.541016 L 8.7421875 15.898438 L 10.201172 15.59375 L 8.8339844 16.738281 L 9.7246094 17.804688 L 12 15.900391 L 14.275391 17.804688 L 15.166016 16.738281 L 13.798828 15.59375 L 15.257812 15.898438 L 15.541016 14.541016 L 12.929688 13.994141 A 1.3889468 0.69447339 0 0 0 12 13.816406 z " />
</svg>
