<?xml version="1.0" encoding="UTF-8" standalone="no"?><svg xmlns="http://www.w3.org/2000/svg" xmlns:xlink="http://www.w3.org/1999/xlink" contentScriptType="application/ecmascript" contentStyleType="text/css" height="358px" preserveAspectRatio="none" style="width:1006px;height:358px;background:#FFFFFF;" version="1.1" viewBox="0 0 1006 358" width="1006px" zoomAndPan="magnify"><defs><filter height="300%" id="fdsgyq7j08na0" width="300%" x="-1" y="-1"><feGaussianBlur result="blurOut" stdDeviation="2.0"/><feColorMatrix in="blurOut" result="blurOut2" type="matrix" values="0 0 0 0 0 0 0 0 0 0 0 0 0 0 0 0 0 0 .4 0"/><feOffset dx="4.0" dy="4.0" in="blurOut2" result="blurOut3"/><feBlend in="SourceGraphic" in2="blurOut3" mode="normal"/></filter></defs><g><!--MD5=[3e6979ab6e7ec1bc9ddc94e51817476e]
class ns--><rect codeLine="4" fill="#FEFECE" filter="url(#fdsgyq7j08na0)" height="32" id="ns" style="stroke:#A80036;stroke-width:1.5;" width="193" x="385.5" y="7"/><ellipse cx="400.5" cy="23" fill="#ADD8E6" rx="11" ry="11" style="stroke:#A80036;stroke-width:1.0;"/><path d="M396.5313,29.5 L396.5313,17.3594 L399,17.3594 L399,27.3281 L404.0156,27.3281 L404.0156,29.5 L396.5313,29.5 Z " fill="#000000"/><text fill="#000000" font-family="sans-serif" font-size="12" lengthAdjust="spacing" textLength="161" x="414.5" y="27.656">Flat Linux Kernel Namespace</text><!--MD5=[9dec782459f05054385b710490417628]
class cgroup--><rect codeLine="6" fill="#FEFECE" filter="url(#fdsgyq7j08na0)" height="32" id="cgroup" style="stroke:#A80036;stroke-width:1.5;" width="71" x="108.5" y="193"/><ellipse cx="123.5" cy="209" fill="#ADD8E6" rx="11" ry="11" style="stroke:#A80036;stroke-width:1.0;"/><path d="M119.5313,215.5 L119.5313,203.3594 L122,203.3594 L122,213.3281 L127.0156,213.3281 L127.0156,215.5 L119.5313,215.5 Z " fill="#000000"/><text fill="#000000" font-family="sans-serif" font-size="12" lengthAdjust="spacing" textLength="39" x="137.5" y="213.656">cgroup</text><path d="M6,303.5 L6,331.206 A0,0 0 0 0 6,331.206 L110,331.206 A0,0 0 0 0 110,331.206 L110,313.5 L100,303.5 L72.67,303.5 L131.68,225.26 L64.67,303.5 L6,303.5 A0,0 0 0 0 6,303.5 " fill="#FBFB77" filter="url(#fdsgyq7j08na0)" style="stroke:#A80036;stroke-width:1.0;"/><path d="M100,303.5 L100,313.5 L110,313.5 L100,303.5 " fill="#FBFB77" style="stroke:#A80036;stroke-width:1.0;"/><text fill="#000000" font-family="sans-serif" font-size="13" lengthAdjust="spacing" textLength="83" x="12" y="322.397">control group</text><!--MD5=[62ccc922cf6556cdfd610c23f9a4f364]
class ipc--><rect codeLine="9" fill="#FEFECE" filter="url(#fdsgyq7j08na0)" height="32" id="ipc" style="stroke:#A80036;stroke-width:1.5;" width="48" x="215" y="193"/><ellipse cx="230" cy="209" fill="#ADD8E6" rx="11" ry="11" style="stroke:#A80036;stroke-width:1.0;"/><path d="M226.0313,215.5 L226.0313,203.3594 L228.5,203.3594 L228.5,213.3281 L233.5156,213.3281 L233.5156,215.5 L226.0313,215.5 Z " fill="#000000"/><text fill="#000000" font-family="sans-serif" font-size="12" lengthAdjust="spacing" textLength="16" x="244" y="213.656">ipc</text><path d="M145.5,286 L145.5,349.118 A0,0 0 0 0 145.5,349.118 L260.5,349.118 A0,0 0 0 0 260.5,349.118 L260.5,296 L250.5,286 L217.34,286 L233.84,225.26 L209.34,286 L145.5,286 A0,0 0 0 0 145.5,286 " fill="#FBFB77" filter="url(#fdsgyq7j08na0)" style="stroke:#A80036;stroke-width:1.0;"/><path d="M250.5,286 L250.5,296 L260.5,296 L250.5,286 " fill="#FBFB77" style="stroke:#A80036;stroke-width:1.0;"/><text fill="#000000" font-family="sans-serif" font-size="13" lengthAdjust="spacing" textLength="29" x="151.5" y="304.897">SYSV</text><text fill="#000000" font-family="sans-serif" font-size="13" lengthAdjust="spacing" textLength="78" x="151.5" y="322.603">inter-process</text><text fill="#000000" font-family="sans-serif" font-size="13" lengthAdjust="spacing" textLength="94" x="151.5" y="340.309">communication</text><!--MD5=[d53a380bd36c0943f85d99ca6eb1116a]
class mnt--><rect codeLine="12" fill="#FEFECE" filter="url(#fdsgyq7j08na0)" height="32" id="mnt" style="stroke:#A80036;stroke-width:1.5;" width="54" x="321" y="193"/><ellipse cx="336" cy="209" fill="#ADD8E6" rx="11" ry="11" style="stroke:#A80036;stroke-width:1.0;"/><path d="M332.0313,215.5 L332.0313,203.3594 L334.5,203.3594 L334.5,213.3281 L339.5156,213.3281 L339.5156,215.5 L332.0313,215.5 Z " fill="#000000"/><text fill="#000000" font-family="sans-serif" font-size="12" lengthAdjust="spacing" textLength="22" x="350" y="213.656">mnt</text><path d="M295.5,295 L295.5,340.412 A0,0 0 0 0 295.5,340.412 L376.5,340.412 A0,0 0 0 0 376.5,340.412 L376.5,305 L366.5,295 L342.47,295 L346.28,225.26 L334.47,295 L295.5,295 A0,0 0 0 0 295.5,295 " fill="#FBFB77" filter="url(#fdsgyq7j08na0)" style="stroke:#A80036;stroke-width:1.0;"/><path d="M366.5,295 L366.5,305 L376.5,305 L366.5,295 " fill="#FBFB77" style="stroke:#A80036;stroke-width:1.0;"/><text fill="#000000" font-family="sans-serif" font-size="13" lengthAdjust="spacing" textLength="60" x="301.5" y="313.897">filesystem</text><text fill="#000000" font-family="sans-serif" font-size="13" lengthAdjust="spacing" textLength="47" x="301.5" y="331.603">mounts</text><!--MD5=[f4f8bbf31a39bb74f1abf9bd274ace29]
class net--><rect codeLine="15" fill="#FEFECE" filter="url(#fdsgyq7j08na0)" height="32" id="net" style="stroke:#A80036;stroke-width:1.5;" width="50" x="422" y="193"/><ellipse cx="437" cy="209" fill="#ADD8E6" rx="11" ry="11" style="stroke:#A80036;stroke-width:1.0;"/><path d="M433.0313,215.5 L433.0313,203.3594 L435.5,203.3594 L435.5,213.3281 L440.5156,213.3281 L440.5156,215.5 L433.0313,215.5 Z " fill="#000000"/><text fill="#000000" font-family="sans-serif" font-size="12" lengthAdjust="spacing" textLength="18" x="451" y="213.656">net</text><path d="M411.5,303.5 L411.5,331.206 A0,0 0 0 0 411.5,331.206 L482.5,331.206 A0,0 0 0 0 482.5,331.206 L482.5,313.5 L472.5,303.5 L451,303.5 L447,225.26 L443,303.5 L411.5,303.5 A0,0 0 0 0 411.5,303.5 " fill="#FBFB77" filter="url(#fdsgyq7j08na0)" style="stroke:#A80036;stroke-width:1.0;"/><path d="M472.5,303.5 L472.5,313.5 L482.5,313.5 L472.5,303.5 " fill="#FBFB77" style="stroke:#A80036;stroke-width:1.0;"/><text fill="#000000" font-family="sans-serif" font-size="13" lengthAdjust="spacing" textLength="50" x="417.5" y="322.397">network</text><!--MD5=[9368e1bc7be4ef34ee2f03a580df7fcb]
class uts--><rect codeLine="18" fill="#FEFECE" filter="url(#fdsgyq7j08na0)" height="32" id="uts" style="stroke:#A80036;stroke-width:1.5;" width="49" x="527.5" y="193"/><ellipse cx="542.5" cy="209" fill="#ADD8E6" rx="11" ry="11" style="stroke:#A80036;stroke-width:1.0;"/><path d="M538.5313,215.5 L538.5313,203.3594 L541,203.3594 L541,213.3281 L546.0156,213.3281 L546.0156,215.5 L538.5313,215.5 Z " fill="#000000"/><text fill="#000000" font-family="sans-serif" font-size="12" lengthAdjust="spacing" textLength="17" x="556.5" y="213.656">uts</text><path d="M518,295 L518,340.412 A0,0 0 0 0 518,340.412 L626,340.412 A0,0 0 0 0 626,340.412 L626,305 L616,295 L571.89,295 L554.87,225.26 L563.89,295 L518,295 A0,0 0 0 0 518,295 " fill="#FBFB77" filter="url(#fdsgyq7j08na0)" style="stroke:#A80036;stroke-width:1.0;"/><path d="M616,295 L616,305 L626,305 L616,295 " fill="#FBFB77" style="stroke:#A80036;stroke-width:1.0;"/><text fill="#000000" font-family="sans-serif" font-size="13" lengthAdjust="spacing" textLength="87" x="524" y="313.897">hostname and</text><text fill="#000000" font-family="sans-serif" font-size="13" lengthAdjust="spacing" textLength="83" x="524" y="331.603">domain name</text><!--MD5=[f978a454520df1adccd48569ed1ea24b]
class time--><rect codeLine="21" fill="#FEFECE" filter="url(#fdsgyq7j08na0)" height="32" id="time" style="stroke:#A80036;stroke-width:1.5;" width="57" x="662.5" y="193"/><ellipse cx="677.5" cy="209" fill="#ADD8E6" rx="11" ry="11" style="stroke:#A80036;stroke-width:1.0;"/><path d="M673.5313,215.5 L673.5313,203.3594 L676,203.3594 L676,213.3281 L681.0156,213.3281 L681.0156,215.5 L673.5313,215.5 Z " fill="#000000"/><text fill="#000000" font-family="sans-serif" font-size="12" lengthAdjust="spacing" textLength="25" x="691.5" y="213.656">time</text><path d="M661,295 L661,340.412 A0,0 0 0 0 661,340.412 L781,340.412 A0,0 0 0 0 781,340.412 L781,305 L771,295 L718.84,295 L695.3,225.26 L710.84,295 L661,295 A0,0 0 0 0 661,295 " fill="#FBFB77" filter="url(#fdsgyq7j08na0)" style="stroke:#A80036;stroke-width:1.0;"/><path d="M771,295 L771,305 L781,305 L771,295 " fill="#FBFB77" style="stroke:#A80036;stroke-width:1.0;"/><text fill="#000000" font-family="sans-serif" font-size="13" lengthAdjust="spacing" textLength="76" x="667" y="313.897">monotonic +</text><text fill="#000000" font-family="sans-serif" font-size="13" lengthAdjust="spacing" textLength="99" x="667" y="331.603">boot-time clocks</text><!--MD5=[48d0cdcefb51246172cb6217527436f1]
class hns--><rect codeLine="27" fill="#FEFECE" filter="url(#fdsgyq7j08na0)" height="32" id="hns" style="stroke:#A80036;stroke-width:1.5;" width="170" x="642" y="100"/><ellipse cx="657" cy="116" fill="#ADD8E6" rx="11" ry="11" style="stroke:#A80036;stroke-width:1.0;"/><path d="M653.0313,122.5 L653.0313,110.3594 L655.5,110.3594 L655.5,120.3281 L660.5156,120.3281 L660.5156,122.5 L653.0313,122.5 Z " fill="#000000"/><text fill="#000000" font-family="sans-serif" font-size="12" lengthAdjust="spacing" textLength="138" x="671" y="120.656">Hierarchical Namespace</text><!--MD5=[93bc3409eaf7096c350201938b3ab6b2]
class pid--><rect codeLine="30" fill="#FEFECE" filter="url(#fdsgyq7j08na0)" height="32" id="pid" style="stroke:#A80036;stroke-width:1.5;" width="49" x="925.5" y="193"/><ellipse cx="940.5" cy="209" fill="#ADD8E6" rx="11" ry="11" style="stroke:#A80036;stroke-width:1.0;"/><path d="M936.5313,215.5 L936.5313,203.3594 L939,203.3594 L939,213.3281 L944.0156,213.3281 L944.0156,215.5 L936.5313,215.5 Z " fill="#000000"/><text fill="#000000" font-family="sans-serif" font-size="12" lengthAdjust="spacing" textLength="17" x="954.5" y="213.656">pid</text><path d="M931,303.5 L931,331.206 A0,0 0 0 0 931,331.206 L979,331.206 A0,0 0 0 0 979,331.206 L979,313.5 L969,303.5 L958.38,303.5 L950.72,225.26 L950.38,303.5 L931,303.5 A0,0 0 0 0 931,303.5 " fill="#FBFB77" filter="url(#fdsgyq7j08na0)" style="stroke:#A80036;stroke-width:1.0;"/><path d="M969,303.5 L969,313.5 L979,313.5 L969,303.5 " fill="#FBFB77" style="stroke:#A80036;stroke-width:1.0;"/><text fill="#000000" font-family="sans-serif" font-size="13" lengthAdjust="spacing" textLength="27" x="937" y="322.397">PIDs</text><!--MD5=[e59cf999063292dce8d6ea34dd10a338]
class user--><rect codeLine="35" fill="#FEFECE" filter="url(#fdsgyq7j08na0)" height="32" id="user" style="stroke:#A80036;stroke-width:1.5;" width="57" x="827.5" y="193"/><ellipse cx="842.5" cy="209" fill="#ADD8E6" rx="11" ry="11" style="stroke:#A80036;stroke-width:1.0;"/><path d="M838.5313,215.5 L838.5313,203.3594 L841,203.3594 L841,213.3281 L846.0156,213.3281 L846.0156,215.5 L838.5313,215.5 Z " fill="#000000"/><text fill="#000000" font-family="sans-serif" font-size="12" lengthAdjust="spacing" textLength="25" x="856.5" y="213.656">user</text><path d="M816.5,295 L816.5,340.412 A0,0 0 0 0 816.5,340.412 L895.5,340.412 A0,0 0 0 0 895.5,340.412 L895.5,305 L885.5,295 L860,295 L856,225.26 L852,295 L816.5,295 A0,0 0 0 0 816.5,295 " fill="#FBFB77" filter="url(#fdsgyq7j08na0)" style="stroke:#A80036;stroke-width:1.0;"/><path d="M885.5,295 L885.5,305 L895.5,305 L885.5,295 " fill="#FBFB77" style="stroke:#A80036;stroke-width:1.0;"/><text fill="#000000" font-family="sans-serif" font-size="13" lengthAdjust="spacing" textLength="58" x="822.5" y="313.897">uids/gids,</text><text fill="#000000" font-family="sans-serif" font-size="13" lengthAdjust="spacing" textLength="43" x="822.5" y="331.603">caps, …</text><!--MD5=[0b7b960d0ccf48f98e3411c5b0e5e489]
reverse link ns to cgroup--><path codeLine="8" d="M433.25,48.13 C404,62.79 366.16,82.08 333,100 C273.82,131.98 205.56,171.7 169.46,192.94 " fill="none" id="ns-backto-cgroup" style="stroke:#A80036;stroke-width:1.0;"/><polygon fill="none" points="430.51,41.68,451.53,39.01,436.76,54.2,430.51,41.68" style="stroke:#A80036;stroke-width:1.0;"/><!--MD5=[f239e7b09ed443c07f35b2d3b3aa224f]
reverse link ns to ipc--><path codeLine="11" d="M445.94,51.3 C393.96,90.67 299.71,162.03 258.82,192.99 " fill="none" id="ns-backto-ipc" style="stroke:#A80036;stroke-width:1.0;"/><polygon fill="none" points="441.94,45.55,462.11,39.06,450.4,56.71,441.94,45.55" style="stroke:#A80036;stroke-width:1.0;"/><!--MD5=[f965cd18ff2b21ab042491a4424094ce]
reverse link ns to mnt--><path codeLine="14" d="M459.23,55.26 C430.08,95.29 380.74,163.04 358.93,192.99 " fill="none" id="ns-backto-mnt" style="stroke:#A80036;stroke-width:1.0;"/><polygon fill="none" points="453.6,51.1,471.03,39.06,464.92,59.35,453.6,51.1" style="stroke:#A80036;stroke-width:1.0;"/><!--MD5=[36dfcdcec94e0bf3af826209f14f99f9]
reverse link ns to net--><path codeLine="17" d="M475.37,58.85 C467.69,99.22 455.39,163.92 449.85,192.99 " fill="none" id="ns-backto-net" style="stroke:#A80036;stroke-width:1.0;"/><polygon fill="none" points="468.52,57.4,479.14,39.06,482.28,60.01,468.52,57.4" style="stroke:#A80036;stroke-width:1.0;"/><!--MD5=[d4449ce4792f80a198f55b2303f9149a]
reverse link ns to uts--><path codeLine="20" d="M494.94,58.01 C510.27,98.32 535.15,163.71 546.29,192.99 " fill="none" id="ns-backto-uts" style="stroke:#A80036;stroke-width:1.0;"/><polygon fill="none" points="488.3,60.24,487.73,39.06,501.38,55.26,488.3,60.24" style="stroke:#A80036;stroke-width:1.0;"/><!--MD5=[d85686f88ec0ecbb1388eb474a62935d]
reverse link ns to time--><path codeLine="23" d="M514.19,52.34 C559.13,91.91 639.09,162.3 673.95,192.99 " fill="none" id="ns-backto-time" style="stroke:#A80036;stroke-width:1.0;"/><polygon fill="none" points="509.49,57.53,499.1,39.06,518.74,47.02,509.49,57.53" style="stroke:#A80036;stroke-width:1.0;"/><!--MD5=[e1d29efad65f2dd48efd45343aab13eb]
link cgroup to ipc--><!--MD5=[679739f8844feede2464ea0dccd9a220]
reverse link ns to hns--><path codeLine="28" d="M548.02,45.42 C569.49,52.63 593.35,60.9 615,69 C640.99,78.72 669.95,90.65 691.92,99.92 " fill="none" id="ns-backto-hns" style="stroke:#A80036;stroke-width:1.0;"/><polygon fill="none" points="545.5,51.96,528.73,39.01,549.91,38.67,545.5,51.96" style="stroke:#A80036;stroke-width:1.0;"/><!--MD5=[330d1e4e4ba8fcd81616c04f476a7610]
reverse link hns to pid--><path codeLine="32" d="M782.56,139.67 C828.31,158.34 891,183.92 925.23,197.89 " fill="none" id="hns-backto-pid" style="stroke:#A80036;stroke-width:1.0;"/><polygon fill="none" points="779.7,146.06,763.82,132.03,784.99,133.1,779.7,146.06" style="stroke:#A80036;stroke-width:1.0;"/><!--MD5=[594392eb015d54fe7f533c8f5679e1e0]
link hns to hns--><path codeLine="33" d="M817.25,107.77 C834.66,108.74 847,111.48 847,116 C847,120.52 834.66,123.26 817.25,124.23 " fill="none" id="hns-hns" style="stroke:#A80036;stroke-width:1.0;"/><polygon fill="#A80036" points="812.21,124.45,821.3833,128.0348,817.2048,124.2217,821.0179,120.0432,812.21,124.45" style="stroke:#A80036;stroke-width:1.0;"/><polygon fill="#A80036" points="812.21,107.55,821.0179,111.9568,817.2048,107.7783,821.3833,103.9652,812.21,107.55" style="stroke:#A80036;stroke-width:1.0;"/><text fill="#000000" font-family="sans-serif" font-size="13" lengthAdjust="spacing" textLength="93" x="853" y="121.397">parent/children</text><!--MD5=[5e7722236203ac83ff8fab4dc6e98e2f]
reverse link hns to user--><path codeLine="37" d="M764.77,143.64 C787.54,159.7 815.7,179.57 834.67,192.95 " fill="none" id="hns-backto-user" style="stroke:#A80036;stroke-width:1.0;"/><polygon fill="none" points="760.61,149.28,748.3,132.03,768.68,137.84,760.61,149.28" style="stroke:#A80036;stroke-width:1.0;"/><!--MD5=[b6f985f4d558927779c60d2c80042387]
reverse link ns to pid--><path codeLine="38" d="M583.83,25.59 C707.83,29.93 906.55,45.46 953,100 C975.13,125.99 964.28,169.61 956.16,192.66 " fill="none" id="ns-backto-pid" style="stroke:#A80036;stroke-width:1.0;"/><polygon fill="#A80036" points="578.71,25.41,587.5677,29.716,583.7071,25.5813,587.8418,21.7207,578.71,25.41" style="stroke:#A80036;stroke-width:1.0;"/><text fill="#000000" font-family="sans-serif" font-size="13" lengthAdjust="spacing" textLength="32" x="966" y="121.397">owns</text><!--MD5=[5975c011994b0d496164b11f97d9f70d]
link user to pid--><!--MD5=[25fcabac2986f7e4a3555eddf9a61bde]
@startuml linux-namespaces
hide empty fields
hide empty methods

class "Flat Linux Kernel Namespace" as ns <<(L,LightBlue)>>

class cgroup <<(L,LightBlue)>>
note bottom: control group
ns <|- - - cgroup
class ipc <<(L,LightBlue)>>
note bottom: SYSV\ninter-process\ncommunication
ns <|- - - ipc
class mnt <<(L,LightBlue)>>
note bottom: filesystem\nmounts
ns <|- - - mnt
class net <<(L,LightBlue)>>
note bottom: network
ns <|- - - net
class uts <<(L,LightBlue)>>
note bottom: hostname and\ndomain name
ns <|- - - uts
class time <<(L,LightBlue)>>
note bottom: monotonic +\nboot-time clocks
ns <|- - - time

cgroup -[hidden] ipc

class "Hierarchical Namespace" as hns <<(L,LightBlue)>>
ns <|- - hns

class pid <<(L,LightBlue)>>
note bottom: PIDs
hns <|- - pid
hns <- -> hns : parent/children

class user <<(L,LightBlue)>>
note bottom: uids/gids,\ncaps, …
hns <|- - user
ns <- - pid : owns

user -[hidden] pid

@enduml

PlantUML version 1.2021.7(Sun May 23 14:40:07 CEST 2021)
(GPL source distribution)
Java Runtime: OpenJDK Runtime Environment
JVM: OpenJDK 64-Bit Server VM
Default Encoding: UTF-8
Language: en
Country: null
--></g></svg>