<?xml version="1.0" encoding="UTF-8" standalone="no"?><svg xmlns="http://www.w3.org/2000/svg" xmlns:xlink="http://www.w3.org/1999/xlink" contentStyleType="text/css" height="356px" preserveAspectRatio="none" style="width:1029px;height:356px;background:#FFFFFF;" version="1.1" viewBox="0 0 1029 356" width="1029px" zoomAndPan="magnify"><defs/><g><!--MD5=[3e6979ab6e7ec1bc9ddc94e51817476e]
class ns--><g id="elem_ns"><rect codeLine="4" fill="#F1F1F1" height="32" id="ns" rx="2.5" ry="2.5" style="stroke:#181818;stroke-width:0.5;" width="227" x="368.5" y="7"/><ellipse cx="383.5" cy="23" fill="#ADD8E6" rx="11" ry="11" style="stroke:#181818;stroke-width:1.0;"/><path d="M379.5313,29.5 L379.5313,17.3594 L382,17.3594 L382,27.3281 L387.0156,27.3281 L387.0156,29.5 L379.5313,29.5 Z " fill="#000000"/><text fill="#000000" font-family="sans-serif" font-size="14" lengthAdjust="spacing" textLength="195" x="397.5" y="28.432">Flat Linux Kernel Namespace</text></g><!--MD5=[9dec782459f05054385b710490417628]
class cgroup--><g id="elem_cgroup"><rect codeLine="6" fill="#F1F1F1" height="32" id="cgroup" rx="2.5" ry="2.5" style="stroke:#181818;stroke-width:0.5;" width="80" x="84" y="193"/><ellipse cx="99" cy="209" fill="#ADD8E6" rx="11" ry="11" style="stroke:#181818;stroke-width:1.0;"/><path d="M95.0313,215.5 L95.0313,203.3594 L97.5,203.3594 L97.5,213.3281 L102.5156,213.3281 L102.5156,215.5 L95.0313,215.5 Z " fill="#000000"/><text fill="#000000" font-family="sans-serif" font-size="14" lengthAdjust="spacing" textLength="48" x="113" y="214.432">cgroup</text></g><g id="elem_GMN4"><path d="M6,303.5 L6,331.206 A0,0 0 0 0 6,331.206 L110,331.206 A0,0 0 0 0 110,331.206 L110,313.5 L100,303.5 L70.19,303.5 L114.54,225.26 L62.19,303.5 L6,303.5 A0,0 0 0 0 6,303.5 " fill="#FEFFDD" style="stroke:#181818;stroke-width:0.5;"/><path d="M100,303.5 L100,313.5 L110,313.5 L100,303.5 " fill="#FEFFDD" style="stroke:#181818;stroke-width:0.5;"/><text fill="#000000" font-family="sans-serif" font-size="13" lengthAdjust="spacing" textLength="83" x="12" y="322.397">control group</text></g><!--MD5=[62ccc922cf6556cdfd610c23f9a4f364]
class ipc--><g id="elem_ipc"><rect codeLine="9" fill="#F1F1F1" height="32" id="ipc" rx="2.5" ry="2.5" style="stroke:#181818;stroke-width:0.5;" width="52" x="199" y="193"/><ellipse cx="214" cy="209" fill="#ADD8E6" rx="11" ry="11" style="stroke:#181818;stroke-width:1.0;"/><path d="M210.0313,215.5 L210.0313,203.3594 L212.5,203.3594 L212.5,213.3281 L217.5156,213.3281 L217.5156,215.5 L210.0313,215.5 Z " fill="#000000"/><text fill="#000000" font-family="sans-serif" font-size="14" lengthAdjust="spacing" textLength="20" x="228" y="214.432">ipc</text></g><g id="elem_GMN9"><path d="M145.5,286 L145.5,349.118 A0,0 0 0 0 145.5,349.118 L260.5,349.118 A0,0 0 0 0 260.5,349.118 L260.5,296 L250.5,286 L213.32,286 L221.85,225.26 L205.32,286 L145.5,286 A0,0 0 0 0 145.5,286 " fill="#FEFFDD" style="stroke:#181818;stroke-width:0.5;"/><path d="M250.5,286 L250.5,296 L260.5,296 L250.5,286 " fill="#FEFFDD" style="stroke:#181818;stroke-width:0.5;"/><text fill="#000000" font-family="sans-serif" font-size="13" lengthAdjust="spacing" textLength="29" x="151.5" y="304.897">SYSV</text><text fill="#000000" font-family="sans-serif" font-size="13" lengthAdjust="spacing" textLength="78" x="151.5" y="322.603">inter-process</text><text fill="#000000" font-family="sans-serif" font-size="13" lengthAdjust="spacing" textLength="94" x="151.5" y="340.309">communication</text></g><!--MD5=[d53a380bd36c0943f85d99ca6eb1116a]
class mnt--><g id="elem_mnt"><rect codeLine="12" fill="#F1F1F1" height="32" id="mnt" rx="2.5" ry="2.5" style="stroke:#181818;stroke-width:0.5;" width="59" x="316.5" y="193"/><ellipse cx="331.5" cy="209" fill="#ADD8E6" rx="11" ry="11" style="stroke:#181818;stroke-width:1.0;"/><path d="M327.5313,215.5 L327.5313,203.3594 L330,203.3594 L330,213.3281 L335.0156,213.3281 L335.0156,215.5 L327.5313,215.5 Z " fill="#000000"/><text fill="#000000" font-family="sans-serif" font-size="14" lengthAdjust="spacing" textLength="27" x="345.5" y="214.432">mnt</text></g><g id="elem_GMN14"><path d="M295.5,295 L295.5,340.412 A0,0 0 0 0 295.5,340.412 L376.5,340.412 A0,0 0 0 0 376.5,340.412 L376.5,305 L366.5,295 L342.05,295 L344.57,225.26 L334.05,295 L295.5,295 A0,0 0 0 0 295.5,295 " fill="#FEFFDD" style="stroke:#181818;stroke-width:0.5;"/><path d="M366.5,295 L366.5,305 L376.5,305 L366.5,295 " fill="#FEFFDD" style="stroke:#181818;stroke-width:0.5;"/><text fill="#000000" font-family="sans-serif" font-size="13" lengthAdjust="spacing" textLength="60" x="301.5" y="313.897">filesystem</text><text fill="#000000" font-family="sans-serif" font-size="13" lengthAdjust="spacing" textLength="47" x="301.5" y="331.603">mounts</text></g><!--MD5=[f4f8bbf31a39bb74f1abf9bd274ace29]
class net--><g id="elem_net"><rect codeLine="15" fill="#F1F1F1" height="32" id="net" rx="2.5" ry="2.5" style="stroke:#181818;stroke-width:0.5;" width="54" x="420" y="193"/><ellipse cx="435" cy="209" fill="#ADD8E6" rx="11" ry="11" style="stroke:#181818;stroke-width:1.0;"/><path d="M431.0313,215.5 L431.0313,203.3594 L433.5,203.3594 L433.5,213.3281 L438.5156,213.3281 L438.5156,215.5 L431.0313,215.5 Z " fill="#000000"/><text fill="#000000" font-family="sans-serif" font-size="14" lengthAdjust="spacing" textLength="22" x="449" y="214.432">net</text></g><g id="elem_GMN19"><path d="M411.5,303.5 L411.5,331.206 A0,0 0 0 0 411.5,331.206 L482.5,331.206 A0,0 0 0 0 482.5,331.206 L482.5,313.5 L472.5,303.5 L451,303.5 L447,225.26 L443,303.5 L411.5,303.5 A0,0 0 0 0 411.5,303.5 " fill="#FEFFDD" style="stroke:#181818;stroke-width:0.5;"/><path d="M472.5,303.5 L472.5,313.5 L482.5,313.5 L472.5,303.5 " fill="#FEFFDD" style="stroke:#181818;stroke-width:0.5;"/><text fill="#000000" font-family="sans-serif" font-size="13" lengthAdjust="spacing" textLength="50" x="417.5" y="322.397">network</text></g><!--MD5=[9368e1bc7be4ef34ee2f03a580df7fcb]
class uts--><g id="elem_uts"><rect codeLine="18" fill="#F1F1F1" height="32" id="uts" rx="2.5" ry="2.5" style="stroke:#181818;stroke-width:0.5;" width="53" x="527.5" y="193"/><ellipse cx="542.5" cy="209" fill="#ADD8E6" rx="11" ry="11" style="stroke:#181818;stroke-width:1.0;"/><path d="M538.5313,215.5 L538.5313,203.3594 L541,203.3594 L541,213.3281 L546.0156,213.3281 L546.0156,215.5 L538.5313,215.5 Z " fill="#000000"/><text fill="#000000" font-family="sans-serif" font-size="14" lengthAdjust="spacing" textLength="21" x="556.5" y="214.432">uts</text></g><g id="elem_GMN24"><path d="M518,295 L518,340.412 A0,0 0 0 0 518,340.412 L626,340.412 A0,0 0 0 0 626,340.412 L626,305 L616,295 L572.3,295 L556.58,225.26 L564.3,295 L518,295 A0,0 0 0 0 518,295 " fill="#FEFFDD" style="stroke:#181818;stroke-width:0.5;"/><path d="M616,295 L616,305 L626,305 L616,295 " fill="#FEFFDD" style="stroke:#181818;stroke-width:0.5;"/><text fill="#000000" font-family="sans-serif" font-size="13" lengthAdjust="spacing" textLength="87" x="524" y="313.897">hostname and</text><text fill="#000000" font-family="sans-serif" font-size="13" lengthAdjust="spacing" textLength="83" x="524" y="331.603">domain name</text></g><!--MD5=[f978a454520df1adccd48569ed1ea24b]
class time--><g id="elem_time"><rect codeLine="21" fill="#F1F1F1" height="32" id="time" rx="2.5" ry="2.5" style="stroke:#181818;stroke-width:0.5;" width="62" x="662" y="193"/><ellipse cx="677" cy="209" fill="#ADD8E6" rx="11" ry="11" style="stroke:#181818;stroke-width:1.0;"/><path d="M673.0313,215.5 L673.0313,203.3594 L675.5,203.3594 L675.5,213.3281 L680.5156,213.3281 L680.5156,215.5 L673.0313,215.5 Z " fill="#000000"/><text fill="#000000" font-family="sans-serif" font-size="14" lengthAdjust="spacing" textLength="30" x="691" y="214.432">time</text></g><g id="elem_GMN29"><path d="M661,295 L661,340.412 A0,0 0 0 0 661,340.412 L781,340.412 A0,0 0 0 0 781,340.412 L781,305 L771,295 L719.25,295 L697.01,225.26 L711.25,295 L661,295 A0,0 0 0 0 661,295 " fill="#FEFFDD" style="stroke:#181818;stroke-width:0.5;"/><path d="M771,295 L771,305 L781,305 L771,295 " fill="#FEFFDD" style="stroke:#181818;stroke-width:0.5;"/><text fill="#000000" font-family="sans-serif" font-size="13" lengthAdjust="spacing" textLength="76" x="667" y="313.897">monotonic +</text><text fill="#000000" font-family="sans-serif" font-size="13" lengthAdjust="spacing" textLength="99" x="667" y="331.603">boot-time clocks</text></g><!--MD5=[48d0cdcefb51246172cb6217527436f1]
class hns--><g id="elem_hns"><rect codeLine="27" fill="#F1F1F1" height="32" id="hns" rx="2.5" ry="2.5" style="stroke:#181818;stroke-width:0.5;" width="196" x="642" y="100"/><ellipse cx="657" cy="116" fill="#ADD8E6" rx="11" ry="11" style="stroke:#181818;stroke-width:1.0;"/><path d="M653.0313,122.5 L653.0313,110.3594 L655.5,110.3594 L655.5,120.3281 L660.5156,120.3281 L660.5156,122.5 L653.0313,122.5 Z " fill="#000000"/><text fill="#000000" font-family="sans-serif" font-size="14" lengthAdjust="spacing" textLength="164" x="671" y="121.432">Hierarchical Namespace</text></g><!--MD5=[93bc3409eaf7096c350201938b3ab6b2]
class pid--><g id="elem_pid"><rect codeLine="30" fill="#F1F1F1" height="32" id="pid" rx="2.5" ry="2.5" style="stroke:#181818;stroke-width:0.5;" width="54" x="925" y="193"/><ellipse cx="940" cy="209" fill="#ADD8E6" rx="11" ry="11" style="stroke:#181818;stroke-width:1.0;"/><path d="M936.0313,215.5 L936.0313,203.3594 L938.5,203.3594 L938.5,213.3281 L943.5156,213.3281 L943.5156,215.5 L936.0313,215.5 Z " fill="#000000"/><text fill="#000000" font-family="sans-serif" font-size="14" lengthAdjust="spacing" textLength="22" x="954" y="214.432">pid</text></g><g id="elem_GMN37"><path d="M931,303.5 L931,331.206 A0,0 0 0 0 931,331.206 L979,331.206 A0,0 0 0 0 979,331.206 L979,313.5 L969,303.5 L958.63,303.5 L952.43,225.26 L950.63,303.5 L931,303.5 A0,0 0 0 0 931,303.5 " fill="#FEFFDD" style="stroke:#181818;stroke-width:0.5;"/><path d="M969,303.5 L969,313.5 L979,313.5 L969,303.5 " fill="#FEFFDD" style="stroke:#181818;stroke-width:0.5;"/><text fill="#000000" font-family="sans-serif" font-size="13" lengthAdjust="spacing" textLength="27" x="937" y="322.397">PIDs</text></g><!--MD5=[e59cf999063292dce8d6ea34dd10a338]
class user--><g id="elem_user"><rect codeLine="35" fill="#F1F1F1" height="32" id="user" rx="2.5" ry="2.5" style="stroke:#181818;stroke-width:0.5;" width="62" x="825" y="193"/><ellipse cx="840" cy="209" fill="#ADD8E6" rx="11" ry="11" style="stroke:#181818;stroke-width:1.0;"/><path d="M836.0313,215.5 L836.0313,203.3594 L838.5,203.3594 L838.5,213.3281 L843.5156,213.3281 L843.5156,215.5 L836.0313,215.5 Z " fill="#000000"/><text fill="#000000" font-family="sans-serif" font-size="14" lengthAdjust="spacing" textLength="30" x="854" y="214.432">user</text></g><g id="elem_GMN43"><path d="M816.5,295 L816.5,340.412 A0,0 0 0 0 816.5,340.412 L895.5,340.412 A0,0 0 0 0 895.5,340.412 L895.5,305 L885.5,295 L860,295 L856,225.26 L852,295 L816.5,295 A0,0 0 0 0 816.5,295 " fill="#FEFFDD" style="stroke:#181818;stroke-width:0.5;"/><path d="M885.5,295 L885.5,305 L895.5,305 L885.5,295 " fill="#FEFFDD" style="stroke:#181818;stroke-width:0.5;"/><text fill="#000000" font-family="sans-serif" font-size="13" lengthAdjust="spacing" textLength="58" x="822.5" y="313.897">uids/gids,</text><text fill="#000000" font-family="sans-serif" font-size="13" lengthAdjust="spacing" textLength="43" x="822.5" y="331.603">caps, …</text></g><!--MD5=[0b7b960d0ccf48f98e3411c5b0e5e489]
reverse link ns to cgroup--><g id="link_ns_cgroup"><path codeLine="8" d="M431.57,47.75 C400.65,62.47 360.35,81.96 325,100 C262.19,132.06 189.55,171.75 151.12,192.96 " fill="none" id="ns-backto-cgroup" style="stroke:#181818;stroke-width:1.0;"/><polygon fill="none" points="428.86,41.28,449.93,39.04,434.86,53.93,428.86,41.28" style="stroke:#181818;stroke-width:1.0;"/></g><!--MD5=[f239e7b09ed443c07f35b2d3b3aa224f]
reverse link ns to ipc--><g id="link_ns_ipc"><path codeLine="11" d="M444.58,50.79 C389.76,90.04 289.4,161.89 245.96,192.99 " fill="none" id="ns-backto-ipc" style="stroke:#181818;stroke-width:1.0;"/><polygon fill="none" points="440.63,45.01,460.97,39.06,448.78,56.39,440.63,45.01" style="stroke:#181818;stroke-width:1.0;"/></g><!--MD5=[f965cd18ff2b21ab042491a4424094ce]
reverse link ns to mnt--><g id="link_ns_mnt"><path codeLine="14" d="M458.89,55.26 C429.31,95.29 379.23,163.04 357.09,192.99 " fill="none" id="ns-backto-mnt" style="stroke:#181818;stroke-width:1.0;"/><polygon fill="none" points="453.35,50.98,470.87,39.06,464.61,59.3,453.35,50.98" style="stroke:#181818;stroke-width:1.0;"/></g><!--MD5=[36dfcdcec94e0bf3af826209f14f99f9]
reverse link ns to net--><g id="link_ns_net"><path codeLine="17" d="M475.37,58.85 C467.69,99.22 455.39,163.92 449.85,192.99 " fill="none" id="ns-backto-net" style="stroke:#181818;stroke-width:1.0;"/><polygon fill="none" points="468.52,57.4,479.14,39.06,482.28,60.01,468.52,57.4" style="stroke:#181818;stroke-width:1.0;"/></g><!--MD5=[d4449ce4792f80a198f55b2303f9149a]
reverse link ns to uts--><g id="link_ns_uts"><path codeLine="20" d="M495.2,57.73 C510.96,98.02 536.64,163.65 548.13,192.99 " fill="none" id="ns-backto-uts" style="stroke:#181818;stroke-width:1.0;"/><polygon fill="none" points="488.66,60.23,487.89,39.06,501.7,55.13,488.66,60.23" style="stroke:#181818;stroke-width:1.0;"/></g><!--MD5=[d85686f88ec0ecbb1388eb474a62935d]
reverse link ns to time--><g id="link_ns_time"><path codeLine="23" d="M514.5,52.34 C559.87,91.91 640.59,162.3 675.79,192.99 " fill="none" id="ns-backto-time" style="stroke:#181818;stroke-width:1.0;"/><polygon fill="none" points="509.74,57.48,499.27,39.06,518.94,46.93,509.74,57.48" style="stroke:#181818;stroke-width:1.0;"/></g><!--MD5=[e1d29efad65f2dd48efd45343aab13eb]
link cgroup to ipc--><!--MD5=[679739f8844feede2464ea0dccd9a220]
reverse link ns to hns--><g id="link_ns_hns"><path codeLine="28" d="M546.48,45.44 C568.28,52.79 592.74,61.14 615,69 C643.46,79.05 675.38,90.81 699.85,99.92 " fill="none" id="ns-backto-hns" style="stroke:#181818;stroke-width:1.0;"/><polygon fill="none" points="544.08,52.01,527.35,39.01,548.54,38.74,544.08,52.01" style="stroke:#181818;stroke-width:1.0;"/></g><!--MD5=[330d1e4e4ba8fcd81616c04f476a7610]
reverse link hns to pid--><g id="link_hns_pid"><path codeLine="32" d="M793.62,140.02 C835.41,157.95 891.7,182.12 924.7,196.28 " fill="none" id="hns-backto-pid" style="stroke:#181818;stroke-width:1.0;"/><polygon fill="none" points="790.62,146.35,775.01,132.03,796.15,133.48,790.62,146.35" style="stroke:#181818;stroke-width:1.0;"/></g><!--MD5=[594392eb015d54fe7f533c8f5679e1e0]
link hns to hns--><g id="link_hns_hns"><path codeLine="33" d="M843.13,107.95 C860.77,109.04 873,111.73 873,116 C873,120.27 860.77,122.96 843.13,124.05 " fill="none" id="hns-hns" style="stroke:#181818;stroke-width:1.0;"/><polygon fill="#181818" points="838.02,124.32,847.2136,127.8525,843.0134,124.0632,846.8027,119.863,838.02,124.32" style="stroke:#181818;stroke-width:1.0;"/><polygon fill="#181818" points="838.02,107.68,846.8027,112.137,843.0134,107.9368,847.2136,104.1475,838.02,107.68" style="stroke:#181818;stroke-width:1.0;"/><text fill="#000000" font-family="sans-serif" font-size="13" lengthAdjust="spacing" textLength="93" x="879" y="121.397">parent/children</text></g><!--MD5=[5e7722236203ac83ff8fab4dc6e98e2f]
reverse link hns to user--><g id="link_hns_user"><path codeLine="37" d="M775.18,144.6 C795.43,160.49 820.1,179.84 836.82,192.95 " fill="none" id="hns-backto-user" style="stroke:#181818;stroke-width:1.0;"/><polygon fill="none" points="770.57,149.88,759.16,132.03,779.21,138.86,770.57,149.88" style="stroke:#181818;stroke-width:1.0;"/></g><!--MD5=[b6f985f4d558927779c60d2c80042387]
reverse link ns to pid--><g id="link_ns_pid"><path codeLine="38" d="M600.67,25.04 C731.91,29.01 931.21,44.34 979,100 C1001.92,126.69 978.6,170.01 963.21,192.83 " fill="none" id="ns-backto-pid" style="stroke:#181818;stroke-width:1.0;"/><polygon fill="#181818" points="595.64,24.89,604.5099,29.1707,600.6375,25.0471,604.7612,21.1747,595.64,24.89" style="stroke:#181818;stroke-width:1.0;"/><text fill="#000000" font-family="sans-serif" font-size="13" lengthAdjust="spacing" textLength="32" x="989" y="121.397">owns</text></g><!--MD5=[5975c011994b0d496164b11f97d9f70d]
link user to pid--><!--MD5=[bfdcec44f68794670a7b0eb12eba65c4]
@startuml linux-namespaces
hide empty fields
hide empty methods

class "Flat Linux Kernel Namespace" as ns <<(L,LightBlue)>>

class cgroup <<(L,LightBlue)>>
note bottom: control group
ns <|- - - cgroup
class ipc <<(L,LightBlue)>>
note bottom: SYSV\ninter-process\ncommunication
ns <|- - - ipc
class mnt <<(L,LightBlue)>>
note bottom: filesystem\nmounts
ns <|- - - mnt
class net <<(L,LightBlue)>>
note bottom: network
ns <|- - - net
class uts <<(L,LightBlue)>>
note bottom: hostname and\ndomain name
ns <|- - - uts
class time <<(L,LightBlue)>>
note bottom: monotonic +\nboot-time clocks
ns <|- - - time

cgroup -[hidden] ipc

class "Hierarchical Namespace" as hns <<(L,LightBlue)>>
ns <|- - hns

class pid <<(L,LightBlue)>>
note bottom: PIDs
hns <|- - pid
hns <- -> hns : parent/children

class user <<(L,LightBlue)>>
note bottom: uids/gids,\ncaps, …
hns <|- - user
ns <- - pid : owns

user -[hidden] pid

@enduml

PlantUML version 1.2022.7(Mon Aug 22 19:01:30 CEST 2022)
(GPL source distribution)
Java Runtime: OpenJDK Runtime Environment
JVM: OpenJDK 64-Bit Server VM
Default Encoding: UTF-8
Language: en
Country: US
--></g></svg>