<?xml version="1.0" encoding="UTF-8" standalone="no"?><svg xmlns="http://www.w3.org/2000/svg" xmlns:xlink="http://www.w3.org/1999/xlink" contentScriptType="application/ecmascript" contentStyleType="text/css" height="363px" preserveAspectRatio="none" style="width:674px;height:363px;background:#FFFFFF;" version="1.1" viewBox="0 0 674 363" width="674px" zoomAndPan="magnify"><defs><filter height="300%" id="fo7blc46e3zvt" width="300%" x="-1" y="-1"><feGaussianBlur result="blurOut" stdDeviation="2.0"/><feColorMatrix in="blurOut" result="blurOut2" type="matrix" values="0 0 0 0 0 0 0 0 0 0 0 0 0 0 0 0 0 0 .4 0"/><feOffset dx="4.0" dy="4.0" in="blurOut2" result="blurOut3"/><feBlend in="SourceGraphic" in2="blurOut3" mode="normal"/></filter></defs><g><!--MD5=[63e60b4e525f7b729b77c5a3e1b351bb]
cluster lxkns.model--><polygon fill="#FFFFFF" filter="url(#fo7blc46e3zvt)" points="16,6.602,107,6.602,114,31.6699,657,31.6699,657,356.602,16,356.602,16,6.602" style="stroke:#000000;stroke-width:1.5;"/><line style="stroke:#000000;stroke-width:1.5;" x1="16" x2="114" y1="31.6699" y2="31.6699"/><text fill="#000000" font-family="sans-serif" font-size="14" font-weight="bold" lengthAdjust="spacing" textLength="85" x="20" y="23.5679">lxkns.model</text><!--MD5=[7870f61a2b09887c08d38df1315a7195]
class Namespace--><rect codeLine="7" fill="#FEFECE" filter="url(#fo7blc46e3zvt)" height="69.9638" id="Namespace" style="stroke:#A80036;stroke-width:1.5;" width="129" x="222.5" y="270.602"/><ellipse cx="253.25" cy="286.602" fill="#B4A7E5" rx="11" ry="11" style="stroke:#A80036;stroke-width:1.0;"/><path d="M249.2813,293.102 L249.2813,291.3989 L251.6406,291.1332 L251.6406,282.9301 L249.2813,282.6645 L249.2813,280.9614 L256.4219,280.9614 L256.4219,282.6645 L254,282.9301 L254,291.1332 L256.4219,291.3989 L256.4219,293.102 L249.2813,293.102 Z " fill="#000000"/><text fill="#000000" font-family="sans-serif" font-size="12" font-style="italic" lengthAdjust="spacing" textLength="62" x="270.75" y="291.258">Namespace</text><line style="stroke:#A80036;stroke-width:1.5;" x1="223.5" x2="350.5" y1="302.602" y2="302.602"/><path d="M235.38,310.6139 C235.2,310.6239 235.02,310.6439 234.85,310.7039 C234.58,310.8039 234.32,310.9539 234.1,311.1739 A0.5,0.5 0 1 0 234.79,311.8639 C234.9,311.7539 235.03,311.6939 235.17,311.6439 C235.52,311.5239 235.95,311.5739 236.23,311.8639 C236.62,312.2539 236.62,312.9039 236.23,313.3039 L234.73,314.8039 C234.29,315.2439 233.93,315.2839 233.67,315.2739 C233.41,315.2639 233.26,315.1439 233.26,315.1439 A0.5,0.5 0 1 0 232.76,316.0239 C233.1,316.2439 233.1,316.2439 233.6,316.2739 C234.1,316.3039 234.8,316.1139 235.41,315.4939 L236.91,313.9939 C237.69,313.2139 237.69,311.9539 236.91,311.1839 C236.63,310.9039 236.3,310.7339 235.94,310.6539 C235.76,310.6139 235.56,310.6139 235.38,310.6239 M233.38,312.9339 C232.88,312.9139 232.19,313.0839 231.6,313.6839 L230.1,315.1839 C229.32,315.9639 229.32,317.2239 230.1,317.9939 C230.66,318.5539 231.46,318.7139 232.16,318.4639 C232.43,318.3639 232.69,318.2139 232.91,317.9939 A0.5,0.5 0 1 0 232.22,317.3039 C232.11,317.4139 231.98,317.4739 231.84,317.5239 C231.49,317.6439 231.06,317.5939 230.78,317.3039 C230.39,316.9139 230.39,316.2639 230.78,315.8639 L232.28,314.3639 C232.68,313.9639 233.03,313.9139 233.31,313.9239 C233.59,313.9339 233.78,314.0139 233.78,314.0139 A0.5,0.5 0 1 0 234.22,313.1339 C233.88,312.9339 233.88,312.9339 233.38,312.9139 " fill="#000000" style="stroke:;stroke-width:0.0;stroke-dasharray:;"/><text fill="#000000" font-family="sans-serif" font-size="11" font-style="italic" lengthAdjust="spacing" textLength="93" x="241.5" y="318.3609">Leaders() []*Process</text><path d="M235.38,325.5958 C235.2,325.6058 235.02,325.6258 234.85,325.6858 C234.58,325.7858 234.32,325.9358 234.1,326.1558 A0.5,0.5 0 1 0 234.79,326.8458 C234.9,326.7358 235.03,326.6758 235.17,326.6258 C235.52,326.5058 235.95,326.5558 236.23,326.8458 C236.62,327.2358 236.62,327.8858 236.23,328.2858 L234.73,329.7858 C234.29,330.2258 233.93,330.2658 233.67,330.2558 C233.41,330.2458 233.26,330.1258 233.26,330.1258 A0.5,0.5 0 1 0 232.76,331.0058 C233.1,331.2258 233.1,331.2258 233.6,331.2558 C234.1,331.2858 234.8,331.0958 235.41,330.4758 L236.91,328.9758 C237.69,328.1958 237.69,326.9358 236.91,326.1658 C236.63,325.8858 236.3,325.7158 235.94,325.6358 C235.76,325.5958 235.56,325.5958 235.38,325.6058 M233.38,327.9158 C232.88,327.8958 232.19,328.0658 231.6,328.6658 L230.1,330.1658 C229.32,330.9458 229.32,332.2058 230.1,332.9758 C230.66,333.5358 231.46,333.6958 232.16,333.4458 C232.43,333.3458 232.69,333.1958 232.91,332.9758 A0.5,0.5 0 1 0 232.22,332.2858 C232.11,332.3958 231.98,332.4558 231.84,332.5058 C231.49,332.6258 231.06,332.5758 230.78,332.2858 C230.39,331.8958 230.39,331.2458 230.78,330.8458 L232.28,329.3458 C232.68,328.9458 233.03,328.8958 233.31,328.9058 C233.59,328.9158 233.78,328.9958 233.78,328.9958 A0.5,0.5 0 1 0 234.22,328.1158 C233.88,327.9158 233.88,327.9158 233.38,327.8958 " fill="#000000" style="stroke:;stroke-width:0.0;stroke-dasharray:;"/><text fill="#000000" font-family="sans-serif" font-size="11" font-style="italic" lengthAdjust="spacing" textLength="104" x="241.5" y="333.3428">Ealdorman() *Process</text><!--MD5=[bb370c11d182b7ebaea7e6fa83404e81]
class Process--><rect codeLine="18" fill="#FEFECE" filter="url(#fo7blc46e3zvt)" height="84.9457" id="Process" style="stroke:#A80036;stroke-width:1.5;" width="165" x="204.5" y="44.602"/><ellipse cx="260.75" cy="60.602" fill="#ADD1B2" rx="11" ry="11" style="stroke:#A80036;stroke-width:1.0;"/><path d="M260.2188,67.5239 Q258.4688,67.5239 257.3281,66.7895 Q256.2031,66.0395 255.6406,64.6957 Q255.0938,63.3364 255.0938,61.5395 Q255.0938,59.5082 255.75,58.0551 Q256.4063,56.602 257.6875,55.8207 Q258.9688,55.0395 260.8438,55.0395 Q261.7344,55.0395 262.4063,55.227 Q263.0781,55.3989 263.7656,55.7426 L262.9531,57.7582 Q262.3281,57.4457 261.7813,57.3207 Q261.25,57.1957 260.7656,57.1957 Q259.5938,57.1957 258.8906,57.727 Q258.1875,58.2582 257.8906,59.2114 Q257.5938,60.1645 257.5938,61.4301 Q257.5938,63.4457 258.3125,64.4145 Q259.0313,65.3676 260.625,65.3676 Q261.2188,65.3676 261.8438,65.2114 Q262.4688,65.0551 263.2969,64.6801 L263.2969,66.8989 Q262.5625,67.2114 261.7656,67.3676 Q260.9844,67.5239 260.2188,67.5239 Z " fill="#000000"/><text fill="#000000" font-family="sans-serif" font-size="12" lengthAdjust="spacing" textLength="44" x="281.25" y="65.258">Process</text><line style="stroke:#A80036;stroke-width:1.5;" x1="205.5" x2="368.5" y1="76.602" y2="76.602"/><path d="M217.38,84.6139 C217.2,84.6239 217.02,84.6439 216.85,84.7039 C216.58,84.8039 216.32,84.9539 216.1,85.1739 A0.5,0.5 0 1 0 216.79,85.8639 C216.9,85.7539 217.03,85.6939 217.17,85.6439 C217.52,85.5239 217.95,85.5739 218.23,85.8639 C218.62,86.2539 218.62,86.9039 218.23,87.3039 L216.73,88.8039 C216.29,89.2439 215.93,89.2839 215.67,89.2739 C215.41,89.2639 215.26,89.1439 215.26,89.1439 A0.5,0.5 0 1 0 214.76,90.0239 C215.1,90.2439 215.1,90.2439 215.6,90.2739 C216.1,90.3039 216.8,90.1139 217.41,89.4939 L218.91,87.9939 C219.69,87.2139 219.69,85.9539 218.91,85.1839 C218.63,84.9039 218.3,84.7339 217.94,84.6539 C217.76,84.6139 217.56,84.6139 217.38,84.6239 M215.38,86.9339 C214.88,86.9139 214.19,87.0839 213.6,87.6839 L212.1,89.1839 C211.32,89.9639 211.32,91.2239 212.1,91.9939 C212.66,92.5539 213.46,92.7139 214.16,92.4639 C214.43,92.3639 214.69,92.2139 214.91,91.9939 A0.5,0.5 0 1 0 214.22,91.3039 C214.11,91.4139 213.98,91.4739 213.84,91.5239 C213.49,91.6439 213.06,91.5939 212.78,91.3039 C212.39,90.9139 212.39,90.2639 212.78,89.8639 L214.28,88.3639 C214.68,87.9639 215.03,87.9139 215.31,87.9239 C215.59,87.9339 215.78,88.0139 215.78,88.0139 A0.5,0.5 0 1 0 216.22,87.1339 C215.88,86.9339 215.88,86.9339 215.38,86.9139 " fill="#000000" style="stroke:;stroke-width:0.0;stroke-dasharray:;"/><text fill="#000000" font-family="sans-serif" font-size="11" font-style="italic" lengthAdjust="spacing" textLength="76" x="223.5" y="92.3609">Parent *Process</text><path d="M217.38,99.5958 C217.2,99.6058 217.02,99.6258 216.85,99.6858 C216.58,99.7858 216.32,99.9358 216.1,100.1558 A0.5,0.5 0 1 0 216.79,100.8458 C216.9,100.7358 217.03,100.6758 217.17,100.6258 C217.52,100.5058 217.95,100.5558 218.23,100.8458 C218.62,101.2358 218.62,101.8858 218.23,102.2858 L216.73,103.7858 C216.29,104.2258 215.93,104.2658 215.67,104.2558 C215.41,104.2458 215.26,104.1258 215.26,104.1258 A0.5,0.5 0 1 0 214.76,105.0058 C215.1,105.2258 215.1,105.2258 215.6,105.2558 C216.1,105.2858 216.8,105.0958 217.41,104.4758 L218.91,102.9758 C219.69,102.1958 219.69,100.9358 218.91,100.1658 C218.63,99.8858 218.3,99.7158 217.94,99.6358 C217.76,99.5958 217.56,99.5958 217.38,99.6058 M215.38,101.9158 C214.88,101.8958 214.19,102.0658 213.6,102.6658 L212.1,104.1658 C211.32,104.9458 211.32,106.2058 212.1,106.9758 C212.66,107.5358 213.46,107.6958 214.16,107.4458 C214.43,107.3458 214.69,107.1958 214.91,106.9758 A0.5,0.5 0 1 0 214.22,106.2858 C214.11,106.3958 213.98,106.4558 213.84,106.5058 C213.49,106.6258 213.06,106.5758 212.78,106.2858 C212.39,105.8958 212.39,105.2458 212.78,104.8458 L214.28,103.3458 C214.68,102.9458 215.03,102.8958 215.31,102.9058 C215.59,102.9158 215.78,102.9958 215.78,102.9958 A0.5,0.5 0 1 0 216.22,102.1158 C215.88,101.9158 215.88,101.9158 215.38,101.8958 " fill="#000000" style="stroke:;stroke-width:0.0;stroke-dasharray:;"/><text fill="#000000" font-family="sans-serif" font-size="11" font-style="italic" lengthAdjust="spacing" textLength="140" x="223.5" y="107.3428">Namespaces NamespacesSet</text><path d="M217.38,114.5776 C217.2,114.5876 217.02,114.6076 216.85,114.6676 C216.58,114.7676 216.32,114.9176 216.1,115.1376 A0.5,0.5 0 1 0 216.79,115.8276 C216.9,115.7176 217.03,115.6576 217.17,115.6076 C217.52,115.4876 217.95,115.5376 218.23,115.8276 C218.62,116.2176 218.62,116.8676 218.23,117.2676 L216.73,118.7676 C216.29,119.2076 215.93,119.2476 215.67,119.2376 C215.41,119.2276 215.26,119.1076 215.26,119.1076 A0.5,0.5 0 1 0 214.76,119.9876 C215.1,120.2076 215.1,120.2076 215.6,120.2376 C216.1,120.2676 216.8,120.0776 217.41,119.4576 L218.91,117.9576 C219.69,117.1776 219.69,115.9176 218.91,115.1476 C218.63,114.8676 218.3,114.6976 217.94,114.6176 C217.76,114.5776 217.56,114.5776 217.38,114.5876 M215.38,116.8976 C214.88,116.8776 214.19,117.0476 213.6,117.6476 L212.1,119.1476 C211.32,119.9276 211.32,121.1876 212.1,121.9576 C212.66,122.5176 213.46,122.6776 214.16,122.4276 C214.43,122.3276 214.69,122.1776 214.91,121.9576 A0.5,0.5 0 1 0 214.22,121.2676 C214.11,121.3776 213.98,121.4376 213.84,121.4876 C213.49,121.6076 213.06,121.5576 212.78,121.2676 C212.39,120.8776 212.39,120.2276 212.78,119.8276 L214.28,118.3276 C214.68,117.9276 215.03,117.8776 215.31,117.8876 C215.59,117.8976 215.78,117.9776 215.78,117.9776 A0.5,0.5 0 1 0 216.22,117.0976 C215.88,116.8976 215.88,116.8976 215.38,116.8776 " fill="#000000" style="stroke:;stroke-width:0.0;stroke-dasharray:;"/><text fill="#000000" font-family="sans-serif" font-size="11" font-style="italic" lengthAdjust="spacing" textLength="52" x="223.5" y="122.3247">*Container</text><!--MD5=[c5776a4122e69cd3155d971a089f6b18]
class ProcessTable--><rect codeLine="15" fill="#FEFECE" filter="url(#fo7blc46e3zvt)" height="32" id="ProcessTable" style="stroke:#A80036;stroke-width:1.5;" width="107" x="31.5" y="71.102"/><ellipse cx="46.5" cy="87.102" fill="#ADD1B2" rx="11" ry="11" style="stroke:#A80036;stroke-width:1.0;"/><path d="M45.9688,94.0239 Q44.2188,94.0239 43.0781,93.2895 Q41.9531,92.5395 41.3906,91.1957 Q40.8438,89.8364 40.8438,88.0395 Q40.8438,86.0082 41.5,84.5551 Q42.1563,83.102 43.4375,82.3207 Q44.7188,81.5395 46.5938,81.5395 Q47.4844,81.5395 48.1563,81.727 Q48.8281,81.8989 49.5156,82.2426 L48.7031,84.2582 Q48.0781,83.9457 47.5313,83.8207 Q47,83.6957 46.5156,83.6957 Q45.3438,83.6957 44.6406,84.227 Q43.9375,84.7582 43.6406,85.7114 Q43.3438,86.6645 43.3438,87.9301 Q43.3438,89.9457 44.0625,90.9145 Q44.7813,91.8676 46.375,91.8676 Q46.9688,91.8676 47.5938,91.7114 Q48.2188,91.5551 49.0469,91.1801 L49.0469,93.3989 Q48.3125,93.7114 47.5156,93.8676 Q46.7344,94.0239 45.9688,94.0239 Z " fill="#000000"/><text fill="#000000" font-family="sans-serif" font-size="12" lengthAdjust="spacing" textLength="75" x="60.5" y="91.758">ProcessTable</text><!--MD5=[e9a58730c562b34349daa605d1ed6662]
class Container--><rect codeLine="27" fill="#FEFECE" filter="url(#fo7blc46e3zvt)" height="69.9638" id="Container" style="stroke:#A80036;stroke-width:1.5;" width="106" x="535" y="52.102"/><ellipse cx="558.55" cy="68.102" fill="#ADD1B2" rx="11" ry="11" style="stroke:#A80036;stroke-width:1.0;"/><path d="M558.0188,75.0239 Q556.2688,75.0239 555.1281,74.2895 Q554.0031,73.5395 553.4406,72.1957 Q552.8938,70.8364 552.8938,69.0395 Q552.8938,67.0082 553.55,65.5551 Q554.2063,64.102 555.4875,63.3207 Q556.7688,62.5395 558.6438,62.5395 Q559.5344,62.5395 560.2063,62.727 Q560.8781,62.8989 561.5656,63.2426 L560.7531,65.2582 Q560.1281,64.9457 559.5813,64.8207 Q559.05,64.6957 558.5656,64.6957 Q557.3938,64.6957 556.6906,65.227 Q555.9875,65.7582 555.6906,66.7114 Q555.3938,67.6645 555.3938,68.9301 Q555.3938,70.9457 556.1125,71.9145 Q556.8313,72.8676 558.425,72.8676 Q559.0188,72.8676 559.6438,72.7114 Q560.2688,72.5551 561.0969,72.1801 L561.0969,74.3989 Q560.3625,74.7114 559.5656,74.8676 Q558.7844,75.0239 558.0188,75.0239 Z " fill="#000000"/><text fill="#000000" font-family="sans-serif" font-size="12" lengthAdjust="spacing" textLength="55" x="574.45" y="72.758">Container</text><line style="stroke:#A80036;stroke-width:1.5;" x1="536" x2="640" y1="84.102" y2="84.102"/><text fill="#000000" font-family="sans-serif" font-size="11" lengthAdjust="spacing" textLength="36" x="541" y="99.8609">PID int</text><path d="M547.88,107.0958 C547.7,107.1058 547.52,107.1258 547.35,107.1858 C547.08,107.2858 546.82,107.4358 546.6,107.6558 A0.5,0.5 0 1 0 547.29,108.3458 C547.4,108.2358 547.53,108.1758 547.67,108.1258 C548.02,108.0058 548.45,108.0558 548.73,108.3458 C549.12,108.7358 549.12,109.3858 548.73,109.7858 L547.23,111.2858 C546.79,111.7258 546.43,111.7658 546.17,111.7558 C545.91,111.7458 545.76,111.6258 545.76,111.6258 A0.5,0.5 0 1 0 545.26,112.5058 C545.6,112.7258 545.6,112.7258 546.1,112.7558 C546.6,112.7858 547.3,112.5958 547.91,111.9758 L549.41,110.4758 C550.19,109.6958 550.19,108.4358 549.41,107.6658 C549.13,107.3858 548.8,107.2158 548.44,107.1358 C548.26,107.0958 548.06,107.0958 547.88,107.1058 M545.88,109.4158 C545.38,109.3958 544.69,109.5658 544.1,110.1658 L542.6,111.6658 C541.82,112.4458 541.82,113.7058 542.6,114.4758 C543.16,115.0358 543.96,115.1958 544.66,114.9458 C544.93,114.8458 545.19,114.6958 545.41,114.4758 A0.5,0.5 0 1 0 544.72,113.7858 C544.61,113.8958 544.48,113.9558 544.34,114.0058 C543.99,114.1258 543.56,114.0758 543.28,113.7858 C542.89,113.3958 542.89,112.7458 543.28,112.3458 L544.78,110.8458 C545.18,110.4458 545.53,110.3958 545.81,110.4058 C546.09,110.4158 546.28,110.4958 546.28,110.4958 A0.5,0.5 0 1 0 546.72,109.6158 C546.38,109.4158 546.38,109.4158 545.88,109.3958 " fill="#000000" style="stroke:;stroke-width:0.0;stroke-dasharray:;"/><text fill="#000000" font-family="sans-serif" font-size="11" font-style="italic" lengthAdjust="spacing" textLength="81" x="554" y="114.8428">Process *Process</text><!--MD5=[b37fe80ac9d6428539713e04ef0594d1]
link Namespace to Process--><path codeLine="12" d="M287,270.462 C287,234.012 287,176.012 287,135.232 " fill="none" id="Namespace-to-Process" style="stroke:#A80036;stroke-width:1.0;"/><polygon fill="#A80036" points="287,129.842,283,138.842,287,134.842,291,138.842,287,129.842" style="stroke:#A80036;stroke-width:1.0;"/><text fill="#000000" font-family="sans-serif" font-size="13" lengthAdjust="spacing" textLength="65" x="288" y="205.499">Ealdorman</text><text fill="#000000" font-family="sans-serif" font-size="13" lengthAdjust="spacing" textLength="17" x="268.7516" y="151.3207">0,1</text><!--MD5=[b37fe80ac9d6428539713e04ef0594d1]
link Namespace to Process--><path codeLine="13" d="M330.57,270.212 C352.08,248.812 371.57,219.872 362,190.602 C355.37,170.312 343.03,150.712 330.25,134.182 " fill="none" id="Namespace-to-Process-1" style="stroke:#A80036;stroke-width:1.0;"/><polygon fill="#A80036" points="326.99,130.042,329.425,139.5851,330.0873,133.9671,335.7052,134.6294,326.99,130.042" style="stroke:#A80036;stroke-width:1.0;"/><text fill="#000000" font-family="sans-serif" font-size="13" lengthAdjust="spacing" textLength="47" x="365" y="205.499">Leaders</text><text fill="#000000" font-family="sans-serif" font-size="13" lengthAdjust="spacing" textLength="7" x="325.3495" y="151.5501">*</text><!--MD5=[d440d10a61acdb5e4fbde3430f7b5e8c]
link Process to Namespace--><path codeLine="24" d="M240.33,130.082 C224.7,147.132 209.18,168.122 201,190.602 C190.66,219.012 209.69,246.222 232.45,266.932 " fill="none" id="Process-to-Namespace" style="stroke:#A80036;stroke-width:1.0;"/><polygon fill="#A80036" points="236.43,270.462,232.3438,261.5008,232.6867,267.1473,227.0402,267.4902,236.43,270.462" style="stroke:#A80036;stroke-width:1.0;"/><text fill="#000000" font-family="sans-serif" font-size="13" lengthAdjust="spacing" textLength="76" x="202" y="205.499">Namespaces</text><text fill="#000000" font-family="sans-serif" font-size="13" lengthAdjust="spacing" textLength="7" x="218.785" y="258.8404">7</text><!--MD5=[3a52021bb5a0eb618cb24e6078215f07]
link ProcessTable to Process--><path codeLine="16" d="M138.6,87.102 C157.14,87.102 178.42,87.102 198.98,87.102 " fill="none" id="ProcessTable-to-Process" style="stroke:#A80036;stroke-width:1.0;"/><polygon fill="#A80036" points="204.19,87.102,195.19,83.102,199.19,87.102,195.19,91.102,204.19,87.102" style="stroke:#A80036;stroke-width:1.0;"/><text fill="#000000" font-family="sans-serif" font-size="13" lengthAdjust="spacing" textLength="29" x="157" y="79.999">[PID]</text><!--MD5=[8156e968208737e8c454aecc4c900edc]
link Process to Process--><path codeLine="25" d="M369.63,73.822 C389.64,74.832 404.5,79.262 404.5,87.102 C404.5,94.272 392.08,98.582 374.67,100.042 " fill="none" id="Process-to-Process" style="stroke:#A80036;stroke-width:1.0;"/><polygon fill="#A80036" points="369.63,100.382,378.8736,103.7815,374.6192,100.0532,378.3475,95.7988,369.63,100.382" style="stroke:#A80036;stroke-width:1.0;"/><text fill="#000000" font-family="sans-serif" font-size="13" lengthAdjust="spacing" textLength="40" x="410.5" y="92.499">Parent</text><text fill="#000000" font-family="sans-serif" font-size="13" lengthAdjust="spacing" textLength="7" x="377.5701" y="68.7462">*</text><!--MD5=[fafdc68d2a31bebd9f9f80d6e842944b]
link Process to Container--><path codeLine="32" d="M369.65,87.102 C420.42,87.102 484.23,87.102 529.74,87.102 " fill="none" id="Process-to-Container" style="stroke:#A80036;stroke-width:1.0;"/><polygon fill="#A80036" points="534.91,87.102,525.91,83.102,529.91,87.102,525.91,91.102,534.91,87.102" style="stroke:#A80036;stroke-width:1.0;"/><text fill="#000000" font-family="sans-serif" font-size="13" lengthAdjust="spacing" textLength="59" x="422.75" y="79.999">Container</text><text fill="#000000" font-family="sans-serif" font-size="13" lengthAdjust="spacing" textLength="17" x="510.0188" y="82.9575">0,1</text><!--MD5=[b5382eb40fea0b25cbaef2383d79e11f]
reverse link Process to Container--><path codeLine="33" d="M374.92,105.152 C406.8,109.622 443.13,112.332 476.25,109.102 C495.54,107.222 516.43,103.552 534.88,99.752 " fill="none" id="Process-backto-Container" style="stroke:#A80036;stroke-width:1.0;"/><polygon fill="#A80036" points="369.84,104.412,378.1775,109.6547,374.7889,105.1251,379.3185,101.7364,369.84,104.412" style="stroke:#A80036;stroke-width:1.0;"/><text fill="#000000" font-family="sans-serif" font-size="13" lengthAdjust="spacing" textLength="46" x="429.25" y="104.999">Process</text><!--MD5=[050cb49b1611ddb6b3b97828d40a57d1]
@startuml lxkns-processes
hide empty fields
hide empty methods
!define L <size:12><&link-intact></size><i>

package "lxkns.model" {

interface Namespace {
  L Leaders() []*Process
  L Ealdorman() *Process
}

Namespace - - -> "0,1" Process : Ealdorman
Namespace - - -> "*" Process : Leaders

class ProcessTable
ProcessTable -> Process : "[PID]"

class Process {
  L Parent *Process
  L Namespaces NamespacesSet
  L *Container
}

Process - -> "7" Namespace : Namespaces
Process "*" - -> Process : Parent

class Container {
  PID int
  L Process *Process
}

Process -> "0,1" Container : Container
Process <- Container : "Process"

}

@enduml

@startuml lxkns-processes
hide empty fields
hide empty methods

package "lxkns.model" {

interface Namespace {
  <size:12><&link-intact></size><i> Leaders() []*Process
  <size:12><&link-intact></size><i> Ealdorman() *Process
}

Namespace - - -> "0,1" Process : Ealdorman
Namespace - - -> "*" Process : Leaders

class ProcessTable
ProcessTable -> Process : "[PID]"

class Process {
  <size:12><&link-intact></size><i> Parent *Process
  <size:12><&link-intact></size><i> Namespaces NamespacesSet
  <size:12><&link-intact></size><i> *Container
}

Process - -> "7" Namespace : Namespaces
Process "*" - -> Process : Parent

class Container {
  PID int
  <size:12><&link-intact></size><i> Process *Process
}

Process -> "0,1" Container : Container
Process <- Container : "Process"

}

@enduml

PlantUML version 1.2021.7(Sun May 23 14:40:07 CEST 2021)
(GPL source distribution)
Java Runtime: OpenJDK Runtime Environment
JVM: OpenJDK 64-Bit Server VM
Default Encoding: UTF-8
Language: en
Country: null
--></g></svg>