<?xml version="1.0" encoding="UTF-8" standalone="no"?><svg xmlns="http://www.w3.org/2000/svg" xmlns:xlink="http://www.w3.org/1999/xlink" contentStyleType="text/css" height="455px" preserveAspectRatio="none" style="width:578px;height:455px;background:#FFFFFF;" version="1.1" viewBox="0 0 578 455" width="578px" zoomAndPan="magnify"><defs/><g><!--MD5=[63e60b4e525f7b729b77c5a3e1b351bb]
cluster lxkns.model--><g id="cluster_lxkns.model"><path d="M8.5,6.602 L94.5,6.602 A3.75,3.75 0 0 1 97,9.102 L104,31.6699 L568.5,31.6699 A2.5,2.5 0 0 1 571,34.1699 L571,446.102 A2.5,2.5 0 0 1 568.5,448.602 L8.5,448.602 A2.5,2.5 0 0 1 6,446.102 L6,9.102 A2.5,2.5 0 0 1 8.5,6.602 " fill="none" style="stroke:#000000;stroke-width:1.5;"/><line style="stroke:#000000;stroke-width:1.5;" x1="6" x2="104" y1="31.6699" y2="31.6699"/><text fill="#000000" font-family="sans-serif" font-size="14" font-weight="bold" lengthAdjust="spacing" textLength="85" x="10" y="23.5679">lxkns.model</text></g><!--MD5=[152b53ade32beeea0ebc8eec93c7e8b9]
class Hierarchy--><g id="elem_Hierarchy"><rect codeLine="7" fill="#F1F1F1" height="78.1358" id="Hierarchy" rx="2.5" ry="2.5" style="stroke:#181818;stroke-width:0.5;" width="161" x="22.5" y="44.602"/><ellipse cx="67.75" cy="60.602" fill="#B4A7E5" rx="11" ry="11" style="stroke:#181818;stroke-width:1.0;"/><path d="M63.7813,67.102 L63.7813,65.3989 L66.1406,65.1332 L66.1406,56.9301 L63.7813,56.6645 L63.7813,54.9614 L70.9219,54.9614 L70.9219,56.6645 L68.5,56.9301 L68.5,65.1332 L70.9219,65.3989 L70.9219,67.102 L63.7813,67.102 Z " fill="#000000"/><text fill="#000000" font-family="sans-serif" font-size="14" font-style="italic" lengthAdjust="spacing" textLength="62" x="88.25" y="66.034">Hierarchy</text><line style="stroke:#181818;stroke-width:0.5;" x1="23.5" x2="182.5" y1="76.602" y2="76.602"/><path d="M35.38,88.6999 C35.2,88.7099 35.02,88.7299 34.85,88.7899 C34.58,88.8899 34.32,89.0399 34.1,89.2599 A0.5,0.5 0 1 0 34.79,89.9499 C34.9,89.8399 35.03,89.7799 35.17,89.7299 C35.52,89.6099 35.95,89.6599 36.23,89.9499 C36.62,90.3399 36.62,90.9899 36.23,91.3899 L34.73,92.8899 C34.29,93.3299 33.93,93.3699 33.67,93.3599 C33.41,93.3499 33.26,93.2299 33.26,93.2299 A0.5,0.5 0 1 0 32.76,94.1099 C33.1,94.3299 33.1,94.3299 33.6,94.3599 C34.1,94.3899 34.8,94.1999 35.41,93.5799 L36.91,92.0799 C37.69,91.2999 37.69,90.0399 36.91,89.2699 C36.63,88.9899 36.3,88.8199 35.94,88.7399 C35.76,88.6999 35.56,88.6999 35.38,88.7099 M33.38,91.0099 C32.88,90.9899 32.19,91.1599 31.6,91.7599 L30.1,93.2599 C29.32,94.0399 29.32,95.2999 30.1,96.0699 C30.66,96.6299 31.46,96.7899 32.16,96.5399 C32.43,96.4399 32.69,96.2899 32.91,96.0699 A0.5,0.5 0 1 0 32.22,95.3799 C32.11,95.4899 31.98,95.5499 31.84,95.5999 C31.49,95.7199 31.06,95.6699 30.78,95.3799 C30.39,94.9899 30.39,94.3399 30.78,93.9399 L32.28,92.4399 C32.68,92.0399 33.03,91.9899 33.31,91.9999 C33.59,92.0099 33.78,92.0899 33.78,92.0899 A0.5,0.5 0 1 0 34.22,91.2099 C33.88,91.0099 33.88,91.0099 33.38,90.9899 " fill="#000000" style="stroke:;stroke-width:0.0;stroke-dasharray:;"/><text fill="#000000" font-family="sans-serif" font-size="14" font-style="italic" lengthAdjust="spacing" textLength="116" x="42.5" y="95.5679">Parent() Hierarchy</text><path d="M35.38,107.7678 C35.2,107.7778 35.02,107.7978 34.85,107.8578 C34.58,107.9578 34.32,108.1078 34.1,108.3278 A0.5,0.5 0 1 0 34.79,109.0178 C34.9,108.9078 35.03,108.8478 35.17,108.7978 C35.52,108.6778 35.95,108.7278 36.23,109.0178 C36.62,109.4078 36.62,110.0578 36.23,110.4578 L34.73,111.9578 C34.29,112.3978 33.93,112.4378 33.67,112.4278 C33.41,112.4178 33.26,112.2978 33.26,112.2978 A0.5,0.5 0 1 0 32.76,113.1778 C33.1,113.3978 33.1,113.3978 33.6,113.4278 C34.1,113.4578 34.8,113.2678 35.41,112.6478 L36.91,111.1478 C37.69,110.3678 37.69,109.1078 36.91,108.3378 C36.63,108.0578 36.3,107.8878 35.94,107.8078 C35.76,107.7678 35.56,107.7678 35.38,107.7778 M33.38,110.0778 C32.88,110.0578 32.19,110.2278 31.6,110.8278 L30.1,112.3278 C29.32,113.1078 29.32,114.3678 30.1,115.1378 C30.66,115.6978 31.46,115.8578 32.16,115.6078 C32.43,115.5078 32.69,115.3578 32.91,115.1378 A0.5,0.5 0 1 0 32.22,114.4478 C32.11,114.5578 31.98,114.6178 31.84,114.6678 C31.49,114.7878 31.06,114.7378 30.78,114.4478 C30.39,114.0578 30.39,113.4078 30.78,113.0078 L32.28,111.5078 C32.68,111.1078 33.03,111.0578 33.31,111.0678 C33.59,111.0778 33.78,111.1578 33.78,111.1578 A0.5,0.5 0 1 0 34.22,110.2778 C33.88,110.0778 33.88,110.0778 33.38,110.0578 " fill="#000000" style="stroke:;stroke-width:0.0;stroke-dasharray:;"/><text fill="#000000" font-family="sans-serif" font-size="14" font-style="italic" lengthAdjust="spacing" textLength="135" x="42.5" y="114.6358">Children() []Hierarchy</text></g><!--MD5=[b34ad0795e0eeccd752a3970dd825c77]
class Ownership--><g id="elem_Ownership"><rect codeLine="12" fill="#F1F1F1" height="78.1358" id="Ownership" rx="2.5" ry="2.5" style="stroke:#181818;stroke-width:0.5;" width="186" x="369" y="44.602"/><ellipse cx="424.25" cy="60.602" fill="#B4A7E5" rx="11" ry="11" style="stroke:#181818;stroke-width:1.0;"/><path d="M420.2813,67.102 L420.2813,65.3989 L422.6406,65.1332 L422.6406,56.9301 L420.2813,56.6645 L420.2813,54.9614 L427.4219,54.9614 L427.4219,56.6645 L425,56.9301 L425,65.1332 L427.4219,65.3989 L427.4219,67.102 L420.2813,67.102 Z " fill="#000000"/><text fill="#000000" font-family="sans-serif" font-size="14" font-style="italic" lengthAdjust="spacing" textLength="67" x="444.75" y="66.034">Ownership</text><line style="stroke:#181818;stroke-width:0.5;" x1="370" x2="554" y1="76.602" y2="76.602"/><text fill="#000000" font-family="sans-serif" font-size="14" lengthAdjust="spacing" textLength="55" x="375" y="95.5679">UID() int</text><path d="M381.88,107.7678 C381.7,107.7778 381.52,107.7978 381.35,107.8578 C381.08,107.9578 380.82,108.1078 380.6,108.3278 A0.5,0.5 0 1 0 381.29,109.0178 C381.4,108.9078 381.53,108.8478 381.67,108.7978 C382.02,108.6778 382.45,108.7278 382.73,109.0178 C383.12,109.4078 383.12,110.0578 382.73,110.4578 L381.23,111.9578 C380.79,112.3978 380.43,112.4378 380.17,112.4278 C379.91,112.4178 379.76,112.2978 379.76,112.2978 A0.5,0.5 0 1 0 379.26,113.1778 C379.6,113.3978 379.6,113.3978 380.1,113.4278 C380.6,113.4578 381.3,113.2678 381.91,112.6478 L383.41,111.1478 C384.19,110.3678 384.19,109.1078 383.41,108.3378 C383.13,108.0578 382.8,107.8878 382.44,107.8078 C382.26,107.7678 382.06,107.7678 381.88,107.7778 M379.88,110.0778 C379.38,110.0578 378.69,110.2278 378.1,110.8278 L376.6,112.3278 C375.82,113.1078 375.82,114.3678 376.6,115.1378 C377.16,115.6978 377.96,115.8578 378.66,115.6078 C378.93,115.5078 379.19,115.3578 379.41,115.1378 A0.5,0.5 0 1 0 378.72,114.4478 C378.61,114.5578 378.48,114.6178 378.34,114.6678 C377.99,114.7878 377.56,114.7378 377.28,114.4478 C376.89,114.0578 376.89,113.4078 377.28,113.0078 L378.78,111.5078 C379.18,111.1078 379.53,111.0578 379.81,111.0678 C380.09,111.0778 380.28,111.1578 380.28,111.1578 A0.5,0.5 0 1 0 380.72,110.2778 C380.38,110.0778 380.38,110.0778 379.88,110.0578 " fill="#000000" style="stroke:;stroke-width:0.0;stroke-dasharray:;"/><text fill="#000000" font-family="sans-serif" font-size="14" font-style="italic" lengthAdjust="spacing" textLength="160" x="389" y="114.6358">Ownings() AllNamespaces</text></g><!--MD5=[7870f61a2b09887c08d38df1315a7195]
class Namespace--><g id="elem_Namespace"><rect codeLine="24" fill="#F1F1F1" height="230.6792" id="Namespace" rx="2.5" ry="2.5" style="stroke:#181818;stroke-width:0.5;" width="221" x="82.5" y="201.602"/><ellipse cx="152.75" cy="217.602" fill="#B4A7E5" rx="11" ry="11" style="stroke:#181818;stroke-width:1.0;"/><path d="M148.7813,224.102 L148.7813,222.3989 L151.1406,222.1332 L151.1406,213.9301 L148.7813,213.6645 L148.7813,211.9614 L155.9219,211.9614 L155.9219,213.6645 L153.5,213.9301 L153.5,222.1332 L155.9219,222.3989 L155.9219,224.102 L148.7813,224.102 Z " fill="#000000"/><text fill="#000000" font-family="sans-serif" font-size="14" font-style="italic" lengthAdjust="spacing" textLength="72" x="173.25" y="223.034">Namespace</text><line style="stroke:#181818;stroke-width:0.5;" x1="83.5" x2="302.5" y1="233.602" y2="233.602"/><text fill="#000000" font-family="sans-serif" font-size="14" lengthAdjust="spacing" textLength="175" x="88.5" y="252.5679">ID() species.NamespaceID</text><text fill="#000000" font-family="sans-serif" font-size="14" lengthAdjust="spacing" textLength="209" x="88.5" y="271.6358">Type() species.NamespaceType</text><path d="M95.38,283.8357 C95.2,283.8457 95.02,283.8657 94.85,283.9257 C94.58,284.0257 94.32,284.1757 94.1,284.3957 A0.5,0.5 0 1 0 94.79,285.0857 C94.9,284.9757 95.03,284.9157 95.17,284.8657 C95.52,284.7457 95.95,284.7957 96.23,285.0857 C96.62,285.4757 96.62,286.1257 96.23,286.5257 L94.73,288.0257 C94.29,288.4657 93.93,288.5057 93.67,288.4957 C93.41,288.4857 93.26,288.3657 93.26,288.3657 A0.5,0.5 0 1 0 92.76,289.2457 C93.1,289.4657 93.1,289.4657 93.6,289.4957 C94.1,289.5257 94.8,289.3357 95.41,288.7157 L96.91,287.2157 C97.69,286.4357 97.69,285.1757 96.91,284.4057 C96.63,284.1257 96.3,283.9557 95.94,283.8757 C95.76,283.8357 95.56,283.8357 95.38,283.8457 M93.38,286.1457 C92.88,286.1257 92.19,286.2957 91.6,286.8957 L90.1,288.3957 C89.32,289.1757 89.32,290.4357 90.1,291.2057 C90.66,291.7657 91.46,291.9257 92.16,291.6757 C92.43,291.5757 92.69,291.4257 92.91,291.2057 A0.5,0.5 0 1 0 92.22,290.5157 C92.11,290.6257 91.98,290.6857 91.84,290.7357 C91.49,290.8557 91.06,290.8057 90.78,290.5157 C90.39,290.1257 90.39,289.4757 90.78,289.0757 L92.28,287.5757 C92.68,287.1757 93.03,287.1257 93.31,287.1357 C93.59,287.1457 93.78,287.2257 93.78,287.2257 A0.5,0.5 0 1 0 94.22,286.3457 C93.88,286.1457 93.88,286.1457 93.38,286.1257 " fill="#000000" style="stroke:;stroke-width:0.0;stroke-dasharray:;"/><text fill="#000000" font-family="sans-serif" font-size="14" font-style="italic" lengthAdjust="spacing" textLength="115" x="102.5" y="290.7038">Owner() Hierarchy</text><text fill="#000000" font-family="sans-serif" font-size="14" lengthAdjust="spacing" textLength="74" x="88.5" y="309.7717">Ref() string</text><path d="M95.38,321.9716 C95.2,321.9816 95.02,322.0016 94.85,322.0616 C94.58,322.1616 94.32,322.3116 94.1,322.5316 A0.5,0.5 0 1 0 94.79,323.2216 C94.9,323.1116 95.03,323.0516 95.17,323.0016 C95.52,322.8816 95.95,322.9316 96.23,323.2216 C96.62,323.6116 96.62,324.2616 96.23,324.6616 L94.73,326.1616 C94.29,326.6016 93.93,326.6416 93.67,326.6316 C93.41,326.6216 93.26,326.5016 93.26,326.5016 A0.5,0.5 0 1 0 92.76,327.3816 C93.1,327.6016 93.1,327.6016 93.6,327.6316 C94.1,327.6616 94.8,327.4716 95.41,326.8516 L96.91,325.3516 C97.69,324.5716 97.69,323.3116 96.91,322.5416 C96.63,322.2616 96.3,322.0916 95.94,322.0116 C95.76,321.9716 95.56,321.9716 95.38,321.9816 M93.38,324.2816 C92.88,324.2616 92.19,324.4316 91.6,325.0316 L90.1,326.5316 C89.32,327.3116 89.32,328.5716 90.1,329.3416 C90.66,329.9016 91.46,330.0616 92.16,329.8116 C92.43,329.7116 92.69,329.5616 92.91,329.3416 A0.5,0.5 0 1 0 92.22,328.6516 C92.11,328.7616 91.98,328.8216 91.84,328.8716 C91.49,328.9916 91.06,328.9416 90.78,328.6516 C90.39,328.2616 90.39,327.6116 90.78,327.2116 L92.28,325.7116 C92.68,325.3116 93.03,325.2616 93.31,325.2716 C93.59,325.2816 93.78,325.3616 93.78,325.3616 A0.5,0.5 0 1 0 94.22,324.4816 C93.88,324.2816 93.88,324.2816 93.38,324.2616 " fill="#000000" style="stroke:;stroke-width:0.0;stroke-dasharray:;"/><text fill="#000000" font-family="sans-serif" font-size="14" font-style="italic" lengthAdjust="spacing" textLength="124" x="102.5" y="328.8396">Leaders() []*Process</text><text fill="#000000" font-family="sans-serif" font-size="14" lengthAdjust="spacing" textLength="153" x="88.5" y="347.9075">LeaderPIDs() []PIDType</text><path d="M95.38,360.1074 C95.2,360.1174 95.02,360.1374 94.85,360.1974 C94.58,360.2974 94.32,360.4474 94.1,360.6674 A0.5,0.5 0 1 0 94.79,361.3574 C94.9,361.2474 95.03,361.1874 95.17,361.1374 C95.52,361.0174 95.95,361.0674 96.23,361.3574 C96.62,361.7474 96.62,362.3974 96.23,362.7974 L94.73,364.2974 C94.29,364.7374 93.93,364.7774 93.67,364.7674 C93.41,364.7574 93.26,364.6374 93.26,364.6374 A0.5,0.5 0 1 0 92.76,365.5174 C93.1,365.7374 93.1,365.7374 93.6,365.7674 C94.1,365.7974 94.8,365.6074 95.41,364.9874 L96.91,363.4874 C97.69,362.7074 97.69,361.4474 96.91,360.6774 C96.63,360.3974 96.3,360.2274 95.94,360.1474 C95.76,360.1074 95.56,360.1074 95.38,360.1174 M93.38,362.4174 C92.88,362.3974 92.19,362.5674 91.6,363.1674 L90.1,364.6674 C89.32,365.4474 89.32,366.7074 90.1,367.4774 C90.66,368.0374 91.46,368.1974 92.16,367.9474 C92.43,367.8474 92.69,367.6974 92.91,367.4774 A0.5,0.5 0 1 0 92.22,366.7874 C92.11,366.8974 91.98,366.9574 91.84,367.0074 C91.49,367.1274 91.06,367.0774 90.78,366.7874 C90.39,366.3974 90.39,365.7474 90.78,365.3474 L92.28,363.8474 C92.68,363.4474 93.03,363.3974 93.31,363.4074 C93.59,363.4174 93.78,363.4974 93.78,363.4974 A0.5,0.5 0 1 0 94.22,362.6174 C93.88,362.4174 93.88,362.4174 93.38,362.3974 " fill="#000000" style="stroke:;stroke-width:0.0;stroke-dasharray:;"/><text fill="#000000" font-family="sans-serif" font-size="14" font-style="italic" lengthAdjust="spacing" textLength="136" x="102.5" y="366.9754">Ealdorman() *Process</text><path d="M95.38,379.1753 C95.2,379.1853 95.02,379.2053 94.85,379.2653 C94.58,379.3653 94.32,379.5153 94.1,379.7353 A0.5,0.5 0 1 0 94.79,380.4253 C94.9,380.3153 95.03,380.2553 95.17,380.2053 C95.52,380.0853 95.95,380.1353 96.23,380.4253 C96.62,380.8153 96.62,381.4653 96.23,381.8653 L94.73,383.3653 C94.29,383.8053 93.93,383.8453 93.67,383.8353 C93.41,383.8253 93.26,383.7053 93.26,383.7053 A0.5,0.5 0 1 0 92.76,384.5853 C93.1,384.8053 93.1,384.8053 93.6,384.8353 C94.1,384.8653 94.8,384.6753 95.41,384.0553 L96.91,382.5553 C97.69,381.7753 97.69,380.5153 96.91,379.7453 C96.63,379.4653 96.3,379.2953 95.94,379.2153 C95.76,379.1753 95.56,379.1753 95.38,379.1853 M93.38,381.4853 C92.88,381.4653 92.19,381.6353 91.6,382.2353 L90.1,383.7353 C89.32,384.5153 89.32,385.7753 90.1,386.5453 C90.66,387.1053 91.46,387.2653 92.16,387.0153 C92.43,386.9153 92.69,386.7653 92.91,386.5453 A0.5,0.5 0 1 0 92.22,385.8553 C92.11,385.9653 91.98,386.0253 91.84,386.0753 C91.49,386.1953 91.06,386.1453 90.78,385.8553 C90.39,385.4653 90.39,384.8153 90.78,384.4153 L92.28,382.9153 C92.68,382.5153 93.03,382.4653 93.31,382.4753 C93.59,382.4853 93.78,382.5653 93.78,382.5653 A0.5,0.5 0 1 0 94.22,381.6853 C93.88,381.4853 93.88,381.4853 93.38,381.4653 " fill="#000000" style="stroke:;stroke-width:0.0;stroke-dasharray:;"/><text fill="#000000" font-family="sans-serif" font-size="14" font-style="italic" lengthAdjust="spacing" textLength="142" x="102.5" y="386.0433">LooseThreads() []*Task</text><text fill="#000000" font-family="sans-serif" font-size="14" lengthAdjust="spacing" textLength="192" x="88.5" y="405.1113">LooseThreadsIDs() []PIDType</text><text fill="#000000" font-family="sans-serif" font-size="14" lengthAdjust="spacing" textLength="93" x="88.5" y="424.1792">String() string</text></g><!--MD5=[0c9347c80f3b671ad8130a1c2b411d97]
class NamespaceStringer--><g id="elem_NamespaceStringer"><rect codeLine="39" fill="#F1F1F1" height="59.0679" id="NamespaceStringer" rx="2.5" ry="2.5" style="stroke:#181818;stroke-width:0.5;" width="155" x="338.5" y="287.602"/><ellipse cx="353.5" cy="303.602" fill="#B4A7E5" rx="11" ry="11" style="stroke:#181818;stroke-width:1.0;"/><path d="M349.5313,310.102 L349.5313,308.3989 L351.8906,308.1332 L351.8906,299.9301 L349.5313,299.6645 L349.5313,297.9614 L356.6719,297.9614 L356.6719,299.6645 L354.25,299.9301 L354.25,308.1332 L356.6719,308.3989 L356.6719,310.102 L349.5313,310.102 Z " fill="#000000"/><text fill="#000000" font-family="sans-serif" font-size="14" font-style="italic" lengthAdjust="spacing" textLength="123" x="367.5" y="309.034">NamespaceStringer</text><line style="stroke:#181818;stroke-width:0.5;" x1="339.5" x2="492.5" y1="319.602" y2="319.602"/><text fill="#000000" font-family="sans-serif" font-size="14" lengthAdjust="spacing" textLength="140" x="344.5" y="338.5679">TypeIDString() string</text></g><!--MD5=[ef7b5da8081327a4bba1ed511bae0173]
reverse link Hierarchy to Hierarchy--><g id="link_Hierarchy_Hierarchy"><path codeLine="17" d="M188.71,76.572 C206.08,77.342 218.5,79.682 218.5,83.602 C218.5,87.882 203.63,90.292 183.69,90.812 " fill="none" id="Hierarchy-backto-Hierarchy" style="stroke:#181818;stroke-width:1.0;"/><polygon fill="#181818" points="183.69,76.392,192.5477,80.698,188.6871,76.5633,192.8218,72.7027,183.69,76.392" style="stroke:#181818;stroke-width:1.0;"/><text fill="#000000" font-family="sans-serif" font-size="13" lengthAdjust="spacing" textLength="40" x="224.5" y="88.999">Parent</text><text fill="#000000" font-family="sans-serif" font-size="13" lengthAdjust="spacing" textLength="7" x="191.4513" y="87.6164">*</text></g><!--MD5=[ef7b5da8081327a4bba1ed511bae0173]
reverse link Hierarchy to Hierarchy--><g id="link_Hierarchy_Hierarchy"><path codeLine="18" d="M188.93,69.312 C231.55,67.602 270.5,72.362 270.5,83.602 C270.5,95.292 228.31,99.972 183.72,97.642 " fill="none" id="Hierarchy-backto-Hierarchy-1" style="stroke:#181818;stroke-width:1.0;"/><polygon fill="#181818" points="183.72,69.562,192.8937,73.1456,188.7148,69.333,192.5274,65.154,183.72,69.562" style="stroke:#181818;stroke-width:1.0;"/><text fill="#000000" font-family="sans-serif" font-size="13" lengthAdjust="spacing" textLength="50" x="276.5" y="88.999">Children</text><text fill="#000000" font-family="sans-serif" font-size="13" lengthAdjust="spacing" textLength="7" x="191.484" y="113.6432">*</text></g><!--MD5=[684d85846f74643a54c8c02c3e8c61a1]
link Hierarchy to Ownership--><!--MD5=[1db9d608c13ef0006685134693c6c218]
link Ownership to Namespace--><g id="link_Ownership_Namespace"><path codeLine="22" d="M415.28,122.642 C387.65,145.322 352.09,174.812 321,201.602 C316.59,205.402 312.1,209.292 307.59,213.232 " fill="none" id="Ownership-to-Namespace" style="stroke:#181818;stroke-width:1.0;"/><polygon fill="#181818" points="303.78,216.552,313.1935,213.656,307.55,213.2676,307.9384,207.6241,303.78,216.552" style="stroke:#181818;stroke-width:1.0;"/><text fill="#000000" font-family="sans-serif" font-size="13" lengthAdjust="spacing" textLength="53" x="379" y="167.499">Ownings</text><text fill="#000000" font-family="sans-serif" font-size="13" lengthAdjust="spacing" textLength="7" x="311.4582" y="206.1567">*</text></g><!--MD5=[7e1713658cc299d7419fe60b5e33bfa4]
reverse link Hierarchy to Namespace--><g id="link_Hierarchy_Namespace"><path codeLine="37" d="M119.68,127.522 C127.88,148.612 138.2,175.132 148.47,201.572 " fill="none" id="Hierarchy-backto-Namespace" style="stroke:#181818;stroke-width:1.0;"/><polygon fill="#181818" points="117.86,122.832,117.3998,132.6701,119.675,127.4909,124.8541,129.7661,117.86,122.832" style="stroke:#181818;stroke-width:1.0;"/><text fill="#000000" font-family="sans-serif" font-size="13" lengthAdjust="spacing" textLength="40" x="136" y="167.499">Owner</text></g><!--MD5=[eb5fe5d861fa3e819a85e017ee52de0b]
reverse link Namespace to NamespaceStringer--><g id="link_Namespace_NamespaceStringer"><path codeLine="42" d="M323.68,317.102 C328.55,317.102 333.43,317.102 338.31,317.102 " fill="none" id="Namespace-backto-NamespaceStringer" style="stroke:#181818;stroke-width:1.0;"/><polygon fill="none" points="323.63,324.102,303.63,317.102,323.63,310.102,323.63,324.102" style="stroke:#181818;stroke-width:1.0;"/></g><!--MD5=[b1eb368859b4d412d1fb0b7e28b18f67]
@startuml lxkns-namespaces
hide empty fields
hide empty methods
!define L <size:12><&link-intact></size><i>

package "lxkns.model" {

interface Hierarchy {
  L Parent() Hierarchy
  L Children() []Hierarchy
}

interface Ownership {
  UID() int
  L Ownings() AllNamespaces
}

Hierarchy "*" -up-> Hierarchy : Parent
Hierarchy <-down- "*" Hierarchy : Children

Hierarchy -[hidden] Ownership

Ownership - -> "*" Namespace : "Ownings"

interface Namespace {
  ID() species.NamespaceID
  Type() species.NamespaceType
  L Owner() Hierarchy
  Ref() string
  L Leaders() []*Process
  LeaderPIDs() []PIDType
  L Ealdorman() *Process
  L LooseThreads() []*Task
  LooseThreadsIDs() []PIDType
  String() string
}

Hierarchy <- - Namespace : "Owner"

interface NamespaceStringer {
  TypeIDString() string
}
Namespace <|- NamespaceStringer

@enduml

@startuml lxkns-namespaces
hide empty fields
hide empty methods

package "lxkns.model" {

interface Hierarchy {
  <size:12><&link-intact></size><i> Parent() Hierarchy
  <size:12><&link-intact></size><i> Children() []Hierarchy
}

interface Ownership {
  UID() int
  <size:12><&link-intact></size><i> Ownings() AllNamespaces
}

Hierarchy "*" -up-> Hierarchy : Parent
Hierarchy <-down- "*" Hierarchy : Children

Hierarchy -[hidden] Ownership

Ownership - -> "*" Namespace : "Ownings"

interface Namespace {
  ID() species.NamespaceID
  Type() species.NamespaceType
  <size:12><&link-intact></size><i> Owner() Hierarchy
  Ref() string
  <size:12><&link-intact></size><i> Leaders() []*Process
  LeaderPIDs() []PIDType
  <size:12><&link-intact></size><i> Ealdorman() *Process
  <size:12><&link-intact></size><i> LooseThreads() []*Task
  LooseThreadsIDs() []PIDType
  String() string
}

Hierarchy <- - Namespace : "Owner"

interface NamespaceStringer {
  TypeIDString() string
}
Namespace <|- NamespaceStringer

@enduml

PlantUML version 1.2022.7(Mon Aug 22 19:01:30 CEST 2022)
(GPL source distribution)
Java Runtime: OpenJDK Runtime Environment
JVM: OpenJDK 64-Bit Server VM
Default Encoding: UTF-8
Language: en
Country: US
--></g></svg>