<?xml version="1.0" encoding="UTF-8" standalone="no"?><svg xmlns="http://www.w3.org/2000/svg" xmlns:xlink="http://www.w3.org/1999/xlink" contentStyleType="text/css" height="513px" preserveAspectRatio="none" style="width:741px;height:513px;background:#FFFFFF;" version="1.1" viewBox="0 0 741 513" width="741px" zoomAndPan="magnify"><defs/><g><!--MD5=[63e60b4e525f7b729b77c5a3e1b351bb]
cluster lxkns.model--><g id="cluster_lxkns.model"><path d="M8.5,6.602 L94.5,6.602 A3.75,3.75 0 0 1 97,9.102 L104,31.6699 L731.5,31.6699 A2.5,2.5 0 0 1 734,34.1699 L734,504.102 A2.5,2.5 0 0 1 731.5,506.602 L8.5,506.602 A2.5,2.5 0 0 1 6,504.102 L6,9.102 A2.5,2.5 0 0 1 8.5,6.602 " fill="none" style="stroke:#000000;stroke-width:1.5;"/><line style="stroke:#000000;stroke-width:1.5;" x1="6" x2="104" y1="31.6699" y2="31.6699"/><text fill="#000000" font-family="sans-serif" font-size="14" font-weight="bold" lengthAdjust="spacing" textLength="85" x="10" y="23.5679">lxkns.model</text></g><!--MD5=[7870f61a2b09887c08d38df1315a7195]
class Namespace--><g id="elem_Namespace"><rect codeLine="8" fill="#F1F1F1" height="97.2038" id="Namespace" rx="2.5" ry="2.5" style="stroke:#181818;stroke-width:0.5;" width="168" x="376" y="44.602"/><ellipse cx="419.8" cy="60.602" fill="#B4A7E5" rx="11" ry="11" style="stroke:#181818;stroke-width:1.0;"/><path d="M415.8313,67.102 L415.8313,65.3989 L418.1906,65.1332 L418.1906,56.9301 L415.8313,56.6645 L415.8313,54.9614 L422.9719,54.9614 L422.9719,56.6645 L420.55,56.9301 L420.55,65.1332 L422.9719,65.3989 L422.9719,67.102 L415.8313,67.102 Z " fill="#000000"/><text fill="#000000" font-family="sans-serif" font-size="14" font-style="italic" lengthAdjust="spacing" textLength="72" x="440.2" y="66.034">Namespace</text><line style="stroke:#181818;stroke-width:0.5;" x1="377" x2="543" y1="76.602" y2="76.602"/><path d="M388.88,88.6999 C388.7,88.7099 388.52,88.7299 388.35,88.7899 C388.08,88.8899 387.82,89.0399 387.6,89.2599 A0.5,0.5 0 1 0 388.29,89.9499 C388.4,89.8399 388.53,89.7799 388.67,89.7299 C389.02,89.6099 389.45,89.6599 389.73,89.9499 C390.12,90.3399 390.12,90.9899 389.73,91.3899 L388.23,92.8899 C387.79,93.3299 387.43,93.3699 387.17,93.3599 C386.91,93.3499 386.76,93.2299 386.76,93.2299 A0.5,0.5 0 1 0 386.26,94.1099 C386.6,94.3299 386.6,94.3299 387.1,94.3599 C387.6,94.3899 388.3,94.1999 388.91,93.5799 L390.41,92.0799 C391.19,91.2999 391.19,90.0399 390.41,89.2699 C390.13,88.9899 389.8,88.8199 389.44,88.7399 C389.26,88.6999 389.06,88.6999 388.88,88.7099 M386.88,91.0099 C386.38,90.9899 385.69,91.1599 385.1,91.7599 L383.6,93.2599 C382.82,94.0399 382.82,95.2999 383.6,96.0699 C384.16,96.6299 384.96,96.7899 385.66,96.5399 C385.93,96.4399 386.19,96.2899 386.41,96.0699 A0.5,0.5 0 1 0 385.72,95.3799 C385.61,95.4899 385.48,95.5499 385.34,95.5999 C384.99,95.7199 384.56,95.6699 384.28,95.3799 C383.89,94.9899 383.89,94.3399 384.28,93.9399 L385.78,92.4399 C386.18,92.0399 386.53,91.9899 386.81,91.9999 C387.09,92.0099 387.28,92.0899 387.28,92.0899 A0.5,0.5 0 1 0 387.72,91.2099 C387.38,91.0099 387.38,91.0099 386.88,90.9899 " fill="#000000" style="stroke:;stroke-width:0.0;stroke-dasharray:;"/><text fill="#000000" font-family="sans-serif" font-size="14" font-style="italic" lengthAdjust="spacing" textLength="124" x="396" y="95.5679">Leaders() []*Process</text><path d="M388.88,107.7678 C388.7,107.7778 388.52,107.7978 388.35,107.8578 C388.08,107.9578 387.82,108.1078 387.6,108.3278 A0.5,0.5 0 1 0 388.29,109.0178 C388.4,108.9078 388.53,108.8478 388.67,108.7978 C389.02,108.6778 389.45,108.7278 389.73,109.0178 C390.12,109.4078 390.12,110.0578 389.73,110.4578 L388.23,111.9578 C387.79,112.3978 387.43,112.4378 387.17,112.4278 C386.91,112.4178 386.76,112.2978 386.76,112.2978 A0.5,0.5 0 1 0 386.26,113.1778 C386.6,113.3978 386.6,113.3978 387.1,113.4278 C387.6,113.4578 388.3,113.2678 388.91,112.6478 L390.41,111.1478 C391.19,110.3678 391.19,109.1078 390.41,108.3378 C390.13,108.0578 389.8,107.8878 389.44,107.8078 C389.26,107.7678 389.06,107.7678 388.88,107.7778 M386.88,110.0778 C386.38,110.0578 385.69,110.2278 385.1,110.8278 L383.6,112.3278 C382.82,113.1078 382.82,114.3678 383.6,115.1378 C384.16,115.6978 384.96,115.8578 385.66,115.6078 C385.93,115.5078 386.19,115.3578 386.41,115.1378 A0.5,0.5 0 1 0 385.72,114.4478 C385.61,114.5578 385.48,114.6178 385.34,114.6678 C384.99,114.7878 384.56,114.7378 384.28,114.4478 C383.89,114.0578 383.89,113.4078 384.28,113.0078 L385.78,111.5078 C386.18,111.1078 386.53,111.0578 386.81,111.0678 C387.09,111.0778 387.28,111.1578 387.28,111.1578 A0.5,0.5 0 1 0 387.72,110.2778 C387.38,110.0778 387.38,110.0778 386.88,110.0578 " fill="#000000" style="stroke:;stroke-width:0.0;stroke-dasharray:;"/><text fill="#000000" font-family="sans-serif" font-size="14" font-style="italic" lengthAdjust="spacing" textLength="136" x="396" y="114.6358">Ealdorman() *Process</text><path d="M388.88,126.8357 C388.7,126.8457 388.52,126.8657 388.35,126.9257 C388.08,127.0257 387.82,127.1757 387.6,127.3957 A0.5,0.5 0 1 0 388.29,128.0857 C388.4,127.9757 388.53,127.9157 388.67,127.8657 C389.02,127.7457 389.45,127.7957 389.73,128.0857 C390.12,128.4757 390.12,129.1257 389.73,129.5257 L388.23,131.0257 C387.79,131.4657 387.43,131.5057 387.17,131.4957 C386.91,131.4857 386.76,131.3657 386.76,131.3657 A0.5,0.5 0 1 0 386.26,132.2457 C386.6,132.4657 386.6,132.4657 387.1,132.4957 C387.6,132.5257 388.3,132.3357 388.91,131.7157 L390.41,130.2157 C391.19,129.4357 391.19,128.1757 390.41,127.4057 C390.13,127.1257 389.8,126.9557 389.44,126.8757 C389.26,126.8357 389.06,126.8357 388.88,126.8457 M386.88,129.1457 C386.38,129.1257 385.69,129.2957 385.1,129.8957 L383.6,131.3957 C382.82,132.1757 382.82,133.4357 383.6,134.2057 C384.16,134.7657 384.96,134.9257 385.66,134.6757 C385.93,134.5757 386.19,134.4257 386.41,134.2057 A0.5,0.5 0 1 0 385.72,133.5157 C385.61,133.6257 385.48,133.6857 385.34,133.7357 C384.99,133.8557 384.56,133.8057 384.28,133.5157 C383.89,133.1257 383.89,132.4757 384.28,132.0757 L385.78,130.5757 C386.18,130.1757 386.53,130.1257 386.81,130.1357 C387.09,130.1457 387.28,130.2257 387.28,130.2257 A0.5,0.5 0 1 0 387.72,129.3457 C387.38,129.1457 387.38,129.1457 386.88,129.1257 " fill="#000000" style="stroke:;stroke-width:0.0;stroke-dasharray:;"/><text fill="#000000" font-family="sans-serif" font-size="14" font-style="italic" lengthAdjust="spacing" textLength="142" x="396" y="133.7038">LooseThreads() []*Task</text></g><!--MD5=[bb370c11d182b7ebaea7e6fa83404e81]
class Process--><g id="elem_Process"><rect codeLine="34" fill="#F1F1F1" height="97.2038" id="Process" rx="2.5" ry="2.5" style="stroke:#181818;stroke-width:0.5;" width="127" x="258.5" y="282.602"/><ellipse cx="293.3" cy="298.602" fill="#ADD1B2" rx="11" ry="11" style="stroke:#181818;stroke-width:1.0;"/><path d="M292.7688,305.5239 Q291.0188,305.5239 289.8781,304.7895 Q288.7531,304.0395 288.1906,302.6957 Q287.6438,301.3364 287.6438,299.5395 Q287.6438,297.5082 288.3,296.0551 Q288.9563,294.602 290.2375,293.8207 Q291.5188,293.0395 293.3938,293.0395 Q294.2844,293.0395 294.9563,293.227 Q295.6281,293.3989 296.3156,293.7426 L295.5031,295.7582 Q294.8781,295.4457 294.3313,295.3207 Q293.8,295.1957 293.3156,295.1957 Q292.1438,295.1957 291.4406,295.727 Q290.7375,296.2582 290.4406,297.2114 Q290.1438,298.1645 290.1438,299.4301 Q290.1438,301.4457 290.8625,302.4145 Q291.5813,303.3676 293.175,303.3676 Q293.7688,303.3676 294.3938,303.2114 Q295.0188,303.0551 295.8469,302.6801 L295.8469,304.8989 Q295.1125,305.2114 294.3156,305.3676 Q293.5344,305.5239 292.7688,305.5239 Z " fill="#000000"/><text fill="#000000" font-family="sans-serif" font-size="14" lengthAdjust="spacing" textLength="51" x="311.7" y="304.034">Process</text><line style="stroke:#181818;stroke-width:0.5;" x1="259.5" x2="384.5" y1="314.602" y2="314.602"/><path d="M271.38,326.6999 C271.2,326.7099 271.02,326.7299 270.85,326.7899 C270.58,326.8899 270.32,327.0399 270.1,327.2599 A0.5,0.5 0 1 0 270.79,327.9499 C270.9,327.8399 271.03,327.7799 271.17,327.7299 C271.52,327.6099 271.95,327.6599 272.23,327.9499 C272.62,328.3399 272.62,328.9899 272.23,329.3899 L270.73,330.8899 C270.29,331.3299 269.93,331.3699 269.67,331.3599 C269.41,331.3499 269.26,331.2299 269.26,331.2299 A0.5,0.5 0 1 0 268.76,332.1099 C269.1,332.3299 269.1,332.3299 269.6,332.3599 C270.1,332.3899 270.8,332.1999 271.41,331.5799 L272.91,330.0799 C273.69,329.2999 273.69,328.0399 272.91,327.2699 C272.63,326.9899 272.3,326.8199 271.94,326.7399 C271.76,326.6999 271.56,326.6999 271.38,326.7099 M269.38,329.0099 C268.88,328.9899 268.19,329.1599 267.6,329.7599 L266.1,331.2599 C265.32,332.0399 265.32,333.2999 266.1,334.0699 C266.66,334.6299 267.46,334.7899 268.16,334.5399 C268.43,334.4399 268.69,334.2899 268.91,334.0699 A0.5,0.5 0 1 0 268.22,333.3799 C268.11,333.4899 267.98,333.5499 267.84,333.5999 C267.49,333.7199 267.06,333.6699 266.78,333.3799 C266.39,332.9899 266.39,332.3399 266.78,331.9399 L268.28,330.4399 C268.68,330.0399 269.03,329.9899 269.31,329.9999 C269.59,330.0099 269.78,330.0899 269.78,330.0899 A0.5,0.5 0 1 0 270.22,329.2099 C269.88,329.0099 269.88,329.0099 269.38,328.9899 " fill="#000000" style="stroke:;stroke-width:0.0;stroke-dasharray:;"/><text fill="#000000" font-family="sans-serif" font-size="14" font-style="italic" lengthAdjust="spacing" textLength="101" x="278.5" y="333.5679">Parent *Process</text><path d="M271.38,345.7678 C271.2,345.7778 271.02,345.7978 270.85,345.8578 C270.58,345.9578 270.32,346.1078 270.1,346.3278 A0.5,0.5 0 1 0 270.79,347.0178 C270.9,346.9078 271.03,346.8478 271.17,346.7978 C271.52,346.6778 271.95,346.7278 272.23,347.0178 C272.62,347.4078 272.62,348.0578 272.23,348.4578 L270.73,349.9578 C270.29,350.3978 269.93,350.4378 269.67,350.4278 C269.41,350.4178 269.26,350.2978 269.26,350.2978 A0.5,0.5 0 1 0 268.76,351.1778 C269.1,351.3978 269.1,351.3978 269.6,351.4278 C270.1,351.4578 270.8,351.2678 271.41,350.6478 L272.91,349.1478 C273.69,348.3678 273.69,347.1078 272.91,346.3378 C272.63,346.0578 272.3,345.8878 271.94,345.8078 C271.76,345.7678 271.56,345.7678 271.38,345.7778 M269.38,348.0778 C268.88,348.0578 268.19,348.2278 267.6,348.8278 L266.1,350.3278 C265.32,351.1078 265.32,352.3678 266.1,353.1378 C266.66,353.6978 267.46,353.8578 268.16,353.6078 C268.43,353.5078 268.69,353.3578 268.91,353.1378 A0.5,0.5 0 1 0 268.22,352.4478 C268.11,352.5578 267.98,352.6178 267.84,352.6678 C267.49,352.7878 267.06,352.7378 266.78,352.4478 C266.39,352.0578 266.39,351.4078 266.78,351.0078 L268.28,349.5078 C268.68,349.1078 269.03,349.0578 269.31,349.0678 C269.59,349.0778 269.78,349.1578 269.78,349.1578 A0.5,0.5 0 1 0 270.22,348.2778 C269.88,348.0778 269.88,348.0778 269.38,348.0578 " fill="#000000" style="stroke:;stroke-width:0.0;stroke-dasharray:;"/><text fill="#000000" font-family="sans-serif" font-size="14" font-style="italic" lengthAdjust="spacing" textLength="82" x="278.5" y="352.6358">Tasks []*Task</text><path d="M271.38,364.8357 C271.2,364.8457 271.02,364.8657 270.85,364.9257 C270.58,365.0257 270.32,365.1757 270.1,365.3957 A0.5,0.5 0 1 0 270.79,366.0857 C270.9,365.9757 271.03,365.9157 271.17,365.8657 C271.52,365.7457 271.95,365.7957 272.23,366.0857 C272.62,366.4757 272.62,367.1257 272.23,367.5257 L270.73,369.0257 C270.29,369.4657 269.93,369.5057 269.67,369.4957 C269.41,369.4857 269.26,369.3657 269.26,369.3657 A0.5,0.5 0 1 0 268.76,370.2457 C269.1,370.4657 269.1,370.4657 269.6,370.4957 C270.1,370.5257 270.8,370.3357 271.41,369.7157 L272.91,368.2157 C273.69,367.4357 273.69,366.1757 272.91,365.4057 C272.63,365.1257 272.3,364.9557 271.94,364.8757 C271.76,364.8357 271.56,364.8357 271.38,364.8457 M269.38,367.1457 C268.88,367.1257 268.19,367.2957 267.6,367.8957 L266.1,369.3957 C265.32,370.1757 265.32,371.4357 266.1,372.2057 C266.66,372.7657 267.46,372.9257 268.16,372.6757 C268.43,372.5757 268.69,372.4257 268.91,372.2057 A0.5,0.5 0 1 0 268.22,371.5157 C268.11,371.6257 267.98,371.6857 267.84,371.7357 C267.49,371.8557 267.06,371.8057 266.78,371.5157 C266.39,371.1257 266.39,370.4757 266.78,370.0757 L268.28,368.5757 C268.68,368.1757 269.03,368.1257 269.31,368.1357 C269.59,368.1457 269.78,368.2257 269.78,368.2257 A0.5,0.5 0 1 0 270.22,367.3457 C269.88,367.1457 269.88,367.1457 269.38,367.1257 " fill="#000000" style="stroke:;stroke-width:0.0;stroke-dasharray:;"/><text fill="#000000" font-family="sans-serif" font-size="14" font-style="italic" lengthAdjust="spacing" textLength="70" x="278.5" y="371.7038">*Container</text></g><!--MD5=[b34797a66dc35cbf1d65f7e3ca75530e]
class Task--><g id="elem_Task"><rect codeLine="30" fill="#F1F1F1" height="59.0679" id="Task" rx="2.5" ry="2.5" style="stroke:#181818;stroke-width:0.5;" width="132" x="52" y="301.602"/><ellipse cx="98.75" cy="317.602" fill="#ADD1B2" rx="11" ry="11" style="stroke:#181818;stroke-width:1.0;"/><path d="M98.2188,324.5239 Q96.4688,324.5239 95.3281,323.7895 Q94.2031,323.0395 93.6406,321.6957 Q93.0938,320.3364 93.0938,318.5395 Q93.0938,316.5082 93.75,315.0551 Q94.4063,313.602 95.6875,312.8207 Q96.9688,312.0395 98.8438,312.0395 Q99.7344,312.0395 100.4063,312.227 Q101.0781,312.3989 101.7656,312.7426 L100.9531,314.7582 Q100.3281,314.4457 99.7813,314.3207 Q99.25,314.1957 98.7656,314.1957 Q97.5938,314.1957 96.8906,314.727 Q96.1875,315.2582 95.8906,316.2114 Q95.5938,317.1645 95.5938,318.4301 Q95.5938,320.4457 96.3125,321.4145 Q97.0313,322.3676 98.625,322.3676 Q99.2188,322.3676 99.8438,322.2114 Q100.4688,322.0551 101.2969,321.6801 L101.2969,323.8989 Q100.5625,324.2114 99.7656,324.3676 Q98.9844,324.5239 98.2188,324.5239 Z " fill="#000000"/><text fill="#000000" font-family="sans-serif" font-size="14" lengthAdjust="spacing" textLength="30" x="119.25" y="323.034">Task</text><line style="stroke:#181818;stroke-width:0.5;" x1="53" x2="183" y1="333.602" y2="333.602"/><path d="M64.88,345.6999 C64.7,345.7099 64.52,345.7299 64.35,345.7899 C64.08,345.8899 63.82,346.0399 63.6,346.2599 A0.5,0.5 0 1 0 64.29,346.9499 C64.4,346.8399 64.53,346.7799 64.67,346.7299 C65.02,346.6099 65.45,346.6599 65.73,346.9499 C66.12,347.3399 66.12,347.9899 65.73,348.3899 L64.23,349.8899 C63.79,350.3299 63.43,350.3699 63.17,350.3599 C62.91,350.3499 62.76,350.2299 62.76,350.2299 A0.5,0.5 0 1 0 62.26,351.1099 C62.6,351.3299 62.6,351.3299 63.1,351.3599 C63.6,351.3899 64.3,351.1999 64.91,350.5799 L66.41,349.0799 C67.19,348.2999 67.19,347.0399 66.41,346.2699 C66.13,345.9899 65.8,345.8199 65.44,345.7399 C65.26,345.6999 65.06,345.6999 64.88,345.7099 M62.88,348.0099 C62.38,347.9899 61.69,348.1599 61.1,348.7599 L59.6,350.2599 C58.82,351.0399 58.82,352.2999 59.6,353.0699 C60.16,353.6299 60.96,353.7899 61.66,353.5399 C61.93,353.4399 62.19,353.2899 62.41,353.0699 A0.5,0.5 0 1 0 61.72,352.3799 C61.61,352.4899 61.48,352.5499 61.34,352.5999 C60.99,352.7199 60.56,352.6699 60.28,352.3799 C59.89,351.9899 59.89,351.3399 60.28,350.9399 L61.78,349.4399 C62.18,349.0399 62.53,348.9899 62.81,348.9999 C63.09,349.0099 63.28,349.0899 63.28,349.0899 A0.5,0.5 0 1 0 63.72,348.2099 C63.38,348.0099 63.38,348.0099 62.88,347.9899 " fill="#000000" style="stroke:;stroke-width:0.0;stroke-dasharray:;"/><text fill="#000000" font-family="sans-serif" font-size="14" font-style="italic" lengthAdjust="spacing" textLength="106" x="72" y="352.5679">Process *Process</text></g><!--MD5=[c5776a4122e69cd3155d971a089f6b18]
class ProcessTable--><g id="elem_ProcessTable"><rect codeLine="18" fill="#F1F1F1" height="32" id="ProcessTable" rx="2.5" ry="2.5" style="stroke:#181818;stroke-width:0.5;" width="120" x="262" y="458.602"/><ellipse cx="277" cy="474.602" fill="#ADD1B2" rx="11" ry="11" style="stroke:#181818;stroke-width:1.0;"/><path d="M276.4688,481.5239 Q274.7188,481.5239 273.5781,480.7895 Q272.4531,480.0395 271.8906,478.6957 Q271.3438,477.3364 271.3438,475.5395 Q271.3438,473.5082 272,472.0551 Q272.6563,470.602 273.9375,469.8207 Q275.2188,469.0395 277.0938,469.0395 Q277.9844,469.0395 278.6563,469.227 Q279.3281,469.3989 280.0156,469.7426 L279.2031,471.7582 Q278.5781,471.4457 278.0313,471.3207 Q277.5,471.1957 277.0156,471.1957 Q275.8438,471.1957 275.1406,471.727 Q274.4375,472.2582 274.1406,473.2114 Q273.8438,474.1645 273.8438,475.4301 Q273.8438,477.4457 274.5625,478.4145 Q275.2813,479.3676 276.875,479.3676 Q277.4688,479.3676 278.0938,479.2114 Q278.7188,479.0551 279.5469,478.6801 L279.5469,480.8989 Q278.8125,481.2114 278.0156,481.3676 Q277.2344,481.5239 276.4688,481.5239 Z " fill="#000000"/><text fill="#000000" font-family="sans-serif" font-size="14" lengthAdjust="spacing" textLength="88" x="291" y="480.034">ProcessTable</text></g><!--MD5=[67bf091ad622ad6871e09661fd7241fd]
class ProTaskCommon--><g id="elem_ProTaskCommon"><rect codeLine="21" fill="#F1F1F1" height="72.4799" id="ProTaskCommon" rx="2.5" ry="2.5" style="stroke:#181818;stroke-width:0.5;" width="205" x="21.5" y="57.102"/><ellipse cx="63.95" cy="79.808" fill="#ADD1B2" rx="11" ry="11" style="stroke:#181818;stroke-width:1.0;"/><path d="M63.4188,86.7299 Q61.6688,86.7299 60.5281,85.9955 Q59.4031,85.2455 58.8406,83.9017 Q58.2938,82.5424 58.2938,80.7455 Q58.2938,78.7142 58.95,77.2611 Q59.6063,75.808 60.8875,75.0267 Q62.1688,74.2455 64.0438,74.2455 Q64.9344,74.2455 65.6063,74.433 Q66.2781,74.6049 66.9656,74.9486 L66.1531,76.9642 Q65.5281,76.6517 64.9813,76.5267 Q64.45,76.4017 63.9656,76.4017 Q62.7938,76.4017 62.0906,76.933 Q61.3875,77.4642 61.0906,78.4174 Q60.7938,79.3705 60.7938,80.6361 Q60.7938,82.6517 61.5125,83.6205 Q62.2313,84.5736 63.825,84.5736 Q64.4188,84.5736 65.0438,84.4174 Q65.6688,84.2611 66.4969,83.8861 L66.4969,86.1049 Q65.7625,86.4174 64.9656,86.5736 Q64.1844,86.7299 63.4188,86.7299 Z " fill="#000000"/><text fill="#000000" font-family="sans-serif" font-size="12" font-style="italic" lengthAdjust="spacing" textLength="56" x="112.05" y="74.9301">«abstract»</text><text fill="#000000" font-family="sans-serif" font-size="14" lengthAdjust="spacing" textLength="112" x="84.05" y="93.412">ProTaskCommon</text><line style="stroke:#181818;stroke-width:0.5;" x1="22.5" x2="225.5" y1="102.514" y2="102.514"/><path d="M34.38,114.6119 C34.2,114.6219 34.02,114.6419 33.85,114.7019 C33.58,114.8019 33.32,114.9519 33.1,115.1719 A0.5,0.5 0 1 0 33.79,115.8619 C33.9,115.7519 34.03,115.6919 34.17,115.6419 C34.52,115.5219 34.95,115.5719 35.23,115.8619 C35.62,116.2519 35.62,116.9019 35.23,117.3019 L33.73,118.8019 C33.29,119.2419 32.93,119.2819 32.67,119.2719 C32.41,119.2619 32.26,119.1419 32.26,119.1419 A0.5,0.5 0 1 0 31.76,120.0219 C32.1,120.2419 32.1,120.2419 32.6,120.2719 C33.1,120.3019 33.8,120.1119 34.41,119.4919 L35.91,117.9919 C36.69,117.2119 36.69,115.9519 35.91,115.1819 C35.63,114.9019 35.3,114.7319 34.94,114.6519 C34.76,114.6119 34.56,114.6119 34.38,114.6219 M32.38,116.9219 C31.88,116.9019 31.19,117.0719 30.6,117.6719 L29.1,119.1719 C28.32,119.9519 28.32,121.2119 29.1,121.9819 C29.66,122.5419 30.46,122.7019 31.16,122.4519 C31.43,122.3519 31.69,122.2019 31.91,121.9819 A0.5,0.5 0 1 0 31.22,121.2919 C31.11,121.4019 30.98,121.4619 30.84,121.5119 C30.49,121.6319 30.06,121.5819 29.78,121.2919 C29.39,120.9019 29.39,120.2519 29.78,119.8519 L31.28,118.3519 C31.68,117.9519 32.03,117.9019 32.31,117.9119 C32.59,117.9219 32.78,118.0019 32.78,118.0019 A0.5,0.5 0 1 0 33.22,117.1219 C32.88,116.9219 32.88,116.9219 32.38,116.9019 " fill="#000000" style="stroke:;stroke-width:0.0;stroke-dasharray:;"/><text fill="#000000" font-family="sans-serif" font-size="14" font-style="italic" lengthAdjust="spacing" textLength="179" x="41.5" y="121.4799">Namespaces NamespacesSet</text></g><!--MD5=[e9a58730c562b34349daa605d1ed6662]
class Container--><g id="elem_Container"><rect codeLine="43" fill="#F1F1F1" height="78.1358" id="Container" rx="2.5" ry="2.5" style="stroke:#181818;stroke-width:0.5;" width="132" x="586" y="292.102"/><ellipse cx="616.3" cy="308.102" fill="#ADD1B2" rx="11" ry="11" style="stroke:#181818;stroke-width:1.0;"/><path d="M615.7688,315.0239 Q614.0188,315.0239 612.8781,314.2895 Q611.7531,313.5395 611.1906,312.1957 Q610.6438,310.8364 610.6438,309.0395 Q610.6438,307.0082 611.3,305.5551 Q611.9563,304.102 613.2375,303.3207 Q614.5188,302.5395 616.3938,302.5395 Q617.2844,302.5395 617.9563,302.727 Q618.6281,302.8989 619.3156,303.2426 L618.5031,305.2582 Q617.8781,304.9457 617.3313,304.8207 Q616.8,304.6957 616.3156,304.6957 Q615.1438,304.6957 614.4406,305.227 Q613.7375,305.7582 613.4406,306.7114 Q613.1438,307.6645 613.1438,308.9301 Q613.1438,310.9457 613.8625,311.9145 Q614.5813,312.8676 616.175,312.8676 Q616.7688,312.8676 617.3938,312.7114 Q618.0188,312.5551 618.8469,312.1801 L618.8469,314.3989 Q618.1125,314.7114 617.3156,314.8676 Q616.5344,315.0239 615.7688,315.0239 Z " fill="#000000"/><text fill="#000000" font-family="sans-serif" font-size="14" lengthAdjust="spacing" textLength="66" x="633.7" y="313.534">Container</text><line style="stroke:#181818;stroke-width:0.5;" x1="587" x2="717" y1="324.102" y2="324.102"/><text fill="#000000" font-family="sans-serif" font-size="14" lengthAdjust="spacing" textLength="45" x="592" y="343.0679">PID int</text><path d="M598.88,355.2678 C598.7,355.2778 598.52,355.2978 598.35,355.3578 C598.08,355.4578 597.82,355.6078 597.6,355.8278 A0.5,0.5 0 1 0 598.29,356.5178 C598.4,356.4078 598.53,356.3478 598.67,356.2978 C599.02,356.1778 599.45,356.2278 599.73,356.5178 C600.12,356.9078 600.12,357.5578 599.73,357.9578 L598.23,359.4578 C597.79,359.8978 597.43,359.9378 597.17,359.9278 C596.91,359.9178 596.76,359.7978 596.76,359.7978 A0.5,0.5 0 1 0 596.26,360.6778 C596.6,360.8978 596.6,360.8978 597.1,360.9278 C597.6,360.9578 598.3,360.7678 598.91,360.1478 L600.41,358.6478 C601.19,357.8678 601.19,356.6078 600.41,355.8378 C600.13,355.5578 599.8,355.3878 599.44,355.3078 C599.26,355.2678 599.06,355.2678 598.88,355.2778 M596.88,357.5778 C596.38,357.5578 595.69,357.7278 595.1,358.3278 L593.6,359.8278 C592.82,360.6078 592.82,361.8678 593.6,362.6378 C594.16,363.1978 594.96,363.3578 595.66,363.1078 C595.93,363.0078 596.19,362.8578 596.41,362.6378 A0.5,0.5 0 1 0 595.72,361.9478 C595.61,362.0578 595.48,362.1178 595.34,362.1678 C594.99,362.2878 594.56,362.2378 594.28,361.9478 C593.89,361.5578 593.89,360.9078 594.28,360.5078 L595.78,359.0078 C596.18,358.6078 596.53,358.5578 596.81,358.5678 C597.09,358.5778 597.28,358.6578 597.28,358.6578 A0.5,0.5 0 1 0 597.72,357.7778 C597.38,357.5778 597.38,357.5778 596.88,357.5578 " fill="#000000" style="stroke:;stroke-width:0.0;stroke-dasharray:;"/><text fill="#000000" font-family="sans-serif" font-size="14" font-style="italic" lengthAdjust="spacing" textLength="106" x="606" y="362.1358">Process *Process</text></g><!--MD5=[b37fe80ac9d6428539713e04ef0594d1]
link Namespace to Process--><g id="link_Namespace_Process"><path codeLine="14" d="M509.61,141.742 C528.47,165.742 542.34,195.272 528,221.602 C500.34,272.392 439.24,300.302 390.73,315.042 " fill="none" id="Namespace-to-Process" style="stroke:#181818;stroke-width:1.0;"/><polygon fill="#181818" points="385.78,316.512,395.5471,317.7785,390.5723,315.0857,393.2651,310.1109,385.78,316.512" style="stroke:#181818;stroke-width:1.0;"/><text fill="#000000" font-family="sans-serif" font-size="13" lengthAdjust="spacing" textLength="65" x="534" y="217.499">Ealdorman</text><text fill="#000000" font-family="sans-serif" font-size="13" lengthAdjust="spacing" textLength="17" x="393.6856" y="310.911">0,1</text></g><!--MD5=[b37fe80ac9d6428539713e04ef0594d1]
link Namespace to Process--><g id="link_Namespace_Process"><path codeLine="15" d="M432.07,141.862 C408.97,181.362 376.22,237.382 352.45,278.032 " fill="none" id="Namespace-to-Process-1" style="stroke:#181818;stroke-width:1.0;"/><polygon fill="#181818" points="349.88,282.412,357.8818,276.6699,352.4082,278.0983,350.9799,272.6247,349.88,282.412" style="stroke:#181818;stroke-width:1.0;"/><text fill="#000000" font-family="sans-serif" font-size="13" lengthAdjust="spacing" textLength="47" x="397" y="217.499">Leaders</text><text fill="#000000" font-family="sans-serif" font-size="13" lengthAdjust="spacing" textLength="7" x="346.4608" y="270.9461">*</text></g><!--MD5=[05e507077be932f0dab89aeeae325c6f]
link Namespace to Task--><g id="link_Namespace_Task"><path codeLine="16" d="M377.69,141.622 C347.15,159.942 312.53,181.532 282,202.602 C237.51,233.312 188.89,271.772 156.23,298.382 " fill="none" id="Namespace-to-Task" style="stroke:#181818;stroke-width:1.0;"/><polygon fill="#181818" points="152.33,301.562,161.827,298.9529,156.1979,298.3935,156.7574,292.7643,152.33,301.562" style="stroke:#181818;stroke-width:1.0;"/><text fill="#000000" font-family="sans-serif" font-size="13" lengthAdjust="spacing" textLength="84" x="283" y="217.499">LooseThreads</text><text fill="#000000" font-family="sans-serif" font-size="13" lengthAdjust="spacing" textLength="7" x="152.4594" y="289.736">*</text></g><!--MD5=[c6c52385571ea092a2073bb4807a59c9]
reverse link Process to ProcessTable--><g id="link_Process_ProcessTable"><path codeLine="19" d="M322,384.822 C322,411.102 322,440.952 322,458.482 " fill="none" id="Process-backto-ProcessTable" style="stroke:#181818;stroke-width:1.0;"/><polygon fill="#181818" points="322,379.612,318,388.612,322,384.612,326,388.612,322,379.612" style="stroke:#181818;stroke-width:1.0;"/><text fill="#000000" font-family="sans-serif" font-size="13" lengthAdjust="spacing" textLength="29" x="323" y="424.499">[PID]</text></g><!--MD5=[83905adb29770c8e464a993134a336f0]
link ProTaskCommon to Task--><g id="link_ProTaskCommon_Task"><path codeLine="25" d="M97.13,129.252 C89.01,141.912 81.15,156.752 77,171.602 C67.31,206.272 68.33,217.662 77,252.602 C80.16,265.322 85.83,278.252 91.96,289.812 " fill="none" id="ProTaskCommon-to-Task" style="stroke:#181818;stroke-width:1.0;"/><polygon fill="none" points="98.44,301.292,98.9783,294.101,92.5475,290.8384,92.0092,298.0293,98.44,301.292" style="stroke:#181818;stroke-width:1.0;"/></g><!--MD5=[f2b8a980aed9b167604374ac28f9d3be]
link ProTaskCommon to Process--><g id="link_ProTaskCommon_Process"><path codeLine="26" d="M123.54,129.182 C124.8,156.552 130.28,194.372 149,221.602 C162,240.522 206.13,268.072 246.56,290.672 " fill="none" id="ProTaskCommon-to-Process" style="stroke:#181818;stroke-width:1.0;"/><polygon fill="none" points="258.12,297.062,254.8039,290.6586,247.6177,291.2567,250.9337,297.6601,258.12,297.062" style="stroke:#181818;stroke-width:1.0;"/></g><!--MD5=[e0f788d7a36585d26a288e4e7fba074b]
link ProTaskCommon to Namespace--><g id="link_ProTaskCommon_Namespace"><path codeLine="27" d="M226.64,93.102 C272.63,93.102 326.37,93.102 370.67,93.102 " fill="none" id="ProTaskCommon-to-Namespace" style="stroke:#181818;stroke-width:1.0;"/><polygon fill="#181818" points="375.75,93.102,366.75,89.102,370.75,93.102,366.75,97.102,375.75,93.102" style="stroke:#181818;stroke-width:1.0;"/><text fill="#000000" font-family="sans-serif" font-size="13" lengthAdjust="spacing" textLength="76" x="263.25" y="85.999">Namespaces</text><text fill="#000000" font-family="sans-serif" font-size="13" lengthAdjust="spacing" textLength="7" x="360.9348" y="89.2643">8</text></g><!--MD5=[8156e968208737e8c454aecc4c900edc]
link Process to Process--><g id="link_Process_Process"><path codeLine="40" d="M385.53,317.252 C421.81,314.492 455.5,319.102 455.5,331.102 C455.5,342.532 424.9,347.262 390.61,345.292 " fill="none" id="Process-to-Process" style="stroke:#181818;stroke-width:1.0;"/><polygon fill="#181818" points="385.53,344.952,394.2475,349.5352,390.5192,345.2808,394.7736,341.5525,385.53,344.952" style="stroke:#181818;stroke-width:1.0;"/><text fill="#000000" font-family="sans-serif" font-size="13" lengthAdjust="spacing" textLength="40" x="461.5" y="336.499">Parent</text><text fill="#000000" font-family="sans-serif" font-size="13" lengthAdjust="spacing" textLength="7" x="393.6993" y="330.5276">*</text></g><!--MD5=[5479e59a0255ed380d120e740ae96d9d]
reverse link Task to Process--><g id="link_Task_Process"><path codeLine="41" d="M189.28,331.102 C211.7,331.102 236.31,331.102 258.18,331.102 " fill="none" id="Task-backto-Process" style="stroke:#181818;stroke-width:1.0;"/><polygon fill="#181818" points="184.23,331.102,193.23,335.102,189.23,331.102,193.23,327.102,184.23,331.102" style="stroke:#181818;stroke-width:1.0;"/><text fill="#000000" font-family="sans-serif" font-size="13" lengthAdjust="spacing" textLength="3" x="219.75" y="323.999"> </text><text fill="#000000" font-family="sans-serif" font-size="13" lengthAdjust="spacing" textLength="33" x="192.1152" y="327.2192">Tasks</text><text fill="#000000" font-family="sans-serif" font-size="13" lengthAdjust="spacing" textLength="17" x="233.722" y="327.1483">1,*</text></g><!--MD5=[fafdc68d2a31bebd9f9f80d6e842944b]
link Process to Container--><g id="link_Process_Container"><path codeLine="48" d="M385.63,331.102 C441.44,331.102 522.52,331.102 580.55,331.102 " fill="none" id="Process-to-Container" style="stroke:#181818;stroke-width:1.0;"/><polygon fill="#181818" points="585.74,331.102,576.74,327.102,580.74,331.102,576.74,335.102,585.74,331.102" style="stroke:#181818;stroke-width:1.0;"/><text fill="#000000" font-family="sans-serif" font-size="13" lengthAdjust="spacing" textLength="59" x="456.25" y="323.999">Container</text><text fill="#000000" font-family="sans-serif" font-size="13" lengthAdjust="spacing" textLength="17" x="561.0304" y="327.1518">0,1</text></g><!--MD5=[b5382eb40fea0b25cbaef2383d79e11f]
reverse link Process to Container--><g id="link_Process_Container"><path codeLine="49" d="M390.82,344.122 C413.34,347.792 438.53,351.282 461.75,353.102 C503.02,356.332 549.15,351.212 585.64,345.112 " fill="none" id="Process-backto-Container" style="stroke:#181818;stroke-width:1.0;"/><polygon fill="#181818" points="385.76,343.282,393.9901,348.6917,390.6935,344.0947,395.2905,340.7981,385.76,343.282" style="stroke:#181818;stroke-width:1.0;"/><text fill="#000000" font-family="sans-serif" font-size="13" lengthAdjust="spacing" textLength="46" x="462.75" y="348.999">Process</text></g><!--MD5=[9ab72ec75810d944c604195d8a67655c]
@startuml lxkns-processes
skinparam nodesep 70
hide empty fields
hide empty methods
!define L <size:12><&link-intact></size><i>

package "lxkns.model" {

interface Namespace {
  L Leaders() []*Process
  L Ealdorman() *Process
  L LooseThreads() []*Task
}

Namespace - - -> "0,1" Process : Ealdorman
Namespace - - -> "*" Process : Leaders
Namespace - - -> "*" Task: LooseThreads

class ProcessTable
Process <- - ProcessTable : "[PID]"

class ProTaskCommon <<abstract>> {
  L Namespaces NamespacesSet
}

ProTaskCommon - -o Task
ProTaskCommon - -o Process
ProTaskCommon -> "8" Namespace : Namespaces


class Task {
  L Process *Process
}

class Process {
  L Parent *Process
  L Tasks []*Task
  L *Container
}

Process "*" - -> Process : Parent
Task <- Process : "Tasks" "1,*"

class Container {
  PID int
  L Process *Process
}

Process -> "0,1" Container : Container
Process <- Container : "Process"

}

@enduml

@startuml lxkns-processes
skinparam nodesep 70
hide empty fields
hide empty methods

package "lxkns.model" {

interface Namespace {
  <size:12><&link-intact></size><i> Leaders() []*Process
  <size:12><&link-intact></size><i> Ealdorman() *Process
  <size:12><&link-intact></size><i> LooseThreads() []*Task
}

Namespace - - -> "0,1" Process : Ealdorman
Namespace - - -> "*" Process : Leaders
Namespace - - -> "*" Task: LooseThreads

class ProcessTable
Process <- - ProcessTable : "[PID]"

class ProTaskCommon <<abstract>> {
  <size:12><&link-intact></size><i> Namespaces NamespacesSet
}

ProTaskCommon - -o Task
ProTaskCommon - -o Process
ProTaskCommon -> "8" Namespace : Namespaces


class Task {
  <size:12><&link-intact></size><i> Process *Process
}

class Process {
  <size:12><&link-intact></size><i> Parent *Process
  <size:12><&link-intact></size><i> Tasks []*Task
  <size:12><&link-intact></size><i> *Container
}

Process "*" - -> Process : Parent
Task <- Process : "Tasks" "1,*"

class Container {
  PID int
  <size:12><&link-intact></size><i> Process *Process
}

Process -> "0,1" Container : Container
Process <- Container : "Process"

}

@enduml

PlantUML version 1.2022.7(Mon Aug 22 19:01:30 CEST 2022)
(GPL source distribution)
Java Runtime: OpenJDK Runtime Environment
JVM: OpenJDK 64-Bit Server VM
Default Encoding: UTF-8
Language: en
Country: US
--></g></svg>