<?xml version="1.0" encoding="UTF-8" standalone="no"?><svg xmlns="http://www.w3.org/2000/svg" xmlns:xlink="http://www.w3.org/1999/xlink" contentStyleType="text/css" height="512px" preserveAspectRatio="none" style="width:655px;height:512px;background:#FFFFFF;" version="1.1" viewBox="0 0 655 512" width="655px" zoomAndPan="magnify"><defs/><g><!--MD5=[63e60b4e525f7b729b77c5a3e1b351bb]
cluster lxkns.model--><g id="cluster_lxkns.model"><path d="M8.5,6.602 L94.5,6.602 A3.75,3.75 0 0 1 97,9.102 L104,31.6699 L645.5,31.6699 A2.5,2.5 0 0 1 648,34.1699 L648,503.102 A2.5,2.5 0 0 1 645.5,505.602 L8.5,505.602 A2.5,2.5 0 0 1 6,503.102 L6,9.102 A2.5,2.5 0 0 1 8.5,6.602 " fill="none" style="stroke:#000000;stroke-width:1.5;"/><line style="stroke:#000000;stroke-width:1.5;" x1="6" x2="104" y1="31.6699" y2="31.6699"/><text fill="#000000" font-family="sans-serif" font-size="14" font-weight="bold" lengthAdjust="spacing" textLength="85" x="10" y="23.5679">lxkns.model</text></g><!--MD5=[bb370c11d182b7ebaea7e6fa83404e81]
class Process--><g id="elem_Process"><rect codeLine="7" fill="#F1F1F1" height="59.0679" id="Process" rx="2.5" ry="2.5" style="stroke:#181818;stroke-width:0.5;" width="96" x="22" y="344.602"/><ellipse cx="42.85" cy="360.602" fill="#ADD1B2" rx="11" ry="11" style="stroke:#181818;stroke-width:1.0;"/><path d="M42.3188,367.5239 Q40.5688,367.5239 39.4281,366.7895 Q38.3031,366.0395 37.7406,364.6957 Q37.1938,363.3364 37.1938,361.5395 Q37.1938,359.5082 37.85,358.0551 Q38.5063,356.602 39.7875,355.8207 Q41.0688,355.0395 42.9438,355.0395 Q43.8344,355.0395 44.5063,355.227 Q45.1781,355.3989 45.8656,355.7426 L45.0531,357.7582 Q44.4281,357.4457 43.8813,357.3207 Q43.35,357.1957 42.8656,357.1957 Q41.6938,357.1957 40.9906,357.727 Q40.2875,358.2582 39.9906,359.2114 Q39.6938,360.1645 39.6938,361.4301 Q39.6938,363.4457 40.4125,364.4145 Q41.1313,365.3676 42.725,365.3676 Q43.3188,365.3676 43.9438,365.2114 Q44.5688,365.0551 45.3969,364.6801 L45.3969,366.8989 Q44.6625,367.2114 43.8656,367.3676 Q43.0844,367.5239 42.3188,367.5239 Z " fill="#000000"/><text fill="#000000" font-family="sans-serif" font-size="14" lengthAdjust="spacing" textLength="51" x="58.15" y="366.034">Process</text><line style="stroke:#181818;stroke-width:0.5;" x1="23" x2="117" y1="376.602" y2="376.602"/><path d="M34.88,388.6999 C34.7,388.7099 34.52,388.7299 34.35,388.7899 C34.08,388.8899 33.82,389.0399 33.6,389.2599 A0.5,0.5 0 1 0 34.29,389.9499 C34.4,389.8399 34.53,389.7799 34.67,389.7299 C35.02,389.6099 35.45,389.6599 35.73,389.9499 C36.12,390.3399 36.12,390.9899 35.73,391.3899 L34.23,392.8899 C33.79,393.3299 33.43,393.3699 33.17,393.3599 C32.91,393.3499 32.76,393.2299 32.76,393.2299 A0.5,0.5 0 1 0 32.26,394.1099 C32.6,394.3299 32.6,394.3299 33.1,394.3599 C33.6,394.3899 34.3,394.1999 34.91,393.5799 L36.41,392.0799 C37.19,391.2999 37.19,390.0399 36.41,389.2699 C36.13,388.9899 35.8,388.8199 35.44,388.7399 C35.26,388.6999 35.06,388.6999 34.88,388.7099 M32.88,391.0099 C32.38,390.9899 31.69,391.1599 31.1,391.7599 L29.6,393.2599 C28.82,394.0399 28.82,395.2999 29.6,396.0699 C30.16,396.6299 30.96,396.7899 31.66,396.5399 C31.93,396.4399 32.19,396.2899 32.41,396.0699 A0.5,0.5 0 1 0 31.72,395.3799 C31.61,395.4899 31.48,395.5499 31.34,395.5999 C30.99,395.7199 30.56,395.6699 30.28,395.3799 C29.89,394.9899 29.89,394.3399 30.28,393.9399 L31.78,392.4399 C32.18,392.0399 32.53,391.9899 32.81,391.9999 C33.09,392.0099 33.28,392.0899 33.28,392.0899 A0.5,0.5 0 1 0 33.72,391.2099 C33.38,391.0099 33.38,391.0099 32.88,390.9899 " fill="#000000" style="stroke:;stroke-width:0.0;stroke-dasharray:;"/><text fill="#000000" font-family="sans-serif" font-size="14" font-style="italic" lengthAdjust="spacing" textLength="70" x="42" y="395.5679">*Container</text></g><!--MD5=[e9a58730c562b34349daa605d1ed6662]
class Container--><g id="elem_Container"><rect codeLine="11" fill="#F1F1F1" height="230.6792" id="Container" rx="2.5" ry="2.5" style="stroke:#181818;stroke-width:0.5;" width="184" x="226" y="258.602"/><ellipse cx="280.75" cy="274.602" fill="#ADD1B2" rx="11" ry="11" style="stroke:#181818;stroke-width:1.0;"/><path d="M280.2188,281.5239 Q278.4688,281.5239 277.3281,280.7895 Q276.2031,280.0395 275.6406,278.6957 Q275.0938,277.3364 275.0938,275.5395 Q275.0938,273.5082 275.75,272.0551 Q276.4063,270.602 277.6875,269.8207 Q278.9688,269.0395 280.8438,269.0395 Q281.7344,269.0395 282.4063,269.227 Q283.0781,269.3989 283.7656,269.7426 L282.9531,271.7582 Q282.3281,271.4457 281.7813,271.3207 Q281.25,271.1957 280.7656,271.1957 Q279.5938,271.1957 278.8906,271.727 Q278.1875,272.2582 277.8906,273.2114 Q277.5938,274.1645 277.5938,275.4301 Q277.5938,277.4457 278.3125,278.4145 Q279.0313,279.3676 280.625,279.3676 Q281.2188,279.3676 281.8438,279.2114 Q282.4688,279.0551 283.2969,278.6801 L283.2969,280.8989 Q282.5625,281.2114 281.7656,281.3676 Q280.9844,281.5239 280.2188,281.5239 Z " fill="#000000"/><text fill="#000000" font-family="sans-serif" font-size="14" lengthAdjust="spacing" textLength="66" x="301.25" y="280.034">Container</text><line style="stroke:#181818;stroke-width:0.5;" x1="227" x2="409" y1="290.602" y2="290.602"/><text fill="#000000" font-family="sans-serif" font-size="14" lengthAdjust="spacing" textLength="59" x="232" y="309.5679">ID string</text><text fill="#000000" font-family="sans-serif" font-size="14" lengthAdjust="spacing" textLength="84" x="232" y="328.6358">Name string</text><text fill="#000000" font-family="sans-serif" font-size="14" lengthAdjust="spacing" textLength="45" x="232" y="347.7038">PID int</text><text fill="#000000" font-family="sans-serif" font-size="14" lengthAdjust="spacing" textLength="76" x="232" y="366.7717">Type string</text><text fill="#000000" font-family="sans-serif" font-size="14" lengthAdjust="spacing" textLength="84" x="232" y="385.8396">Flavor string</text><text fill="#000000" font-family="sans-serif" font-size="14" lengthAdjust="spacing" textLength="82" x="232" y="404.9075">Paused bool</text><text fill="#000000" font-family="sans-serif" font-size="14" lengthAdjust="spacing" textLength="167" x="232" y="423.9754">Labels map[string]string</text><path d="M238.88,436.1753 C238.7,436.1853 238.52,436.2053 238.35,436.2653 C238.08,436.3653 237.82,436.5153 237.6,436.7353 A0.5,0.5 0 1 0 238.29,437.4253 C238.4,437.3153 238.53,437.2553 238.67,437.2053 C239.02,437.0853 239.45,437.1353 239.73,437.4253 C240.12,437.8153 240.12,438.4653 239.73,438.8653 L238.23,440.3653 C237.79,440.8053 237.43,440.8453 237.17,440.8353 C236.91,440.8253 236.76,440.7053 236.76,440.7053 A0.5,0.5 0 1 0 236.26,441.5853 C236.6,441.8053 236.6,441.8053 237.1,441.8353 C237.6,441.8653 238.3,441.6753 238.91,441.0553 L240.41,439.5553 C241.19,438.7753 241.19,437.5153 240.41,436.7453 C240.13,436.4653 239.8,436.2953 239.44,436.2153 C239.26,436.1753 239.06,436.1753 238.88,436.1853 M236.88,438.4853 C236.38,438.4653 235.69,438.6353 235.1,439.2353 L233.6,440.7353 C232.82,441.5153 232.82,442.7753 233.6,443.5453 C234.16,444.1053 234.96,444.2653 235.66,444.0153 C235.93,443.9153 236.19,443.7653 236.41,443.5453 A0.5,0.5 0 1 0 235.72,442.8553 C235.61,442.9653 235.48,443.0253 235.34,443.0753 C234.99,443.1953 234.56,443.1453 234.28,442.8553 C233.89,442.4653 233.89,441.8153 234.28,441.4153 L235.78,439.9153 C236.18,439.5153 236.53,439.4653 236.81,439.4753 C237.09,439.4853 237.28,439.5653 237.28,439.5653 A0.5,0.5 0 1 0 237.72,438.6853 C237.38,438.4853 237.38,438.4853 236.88,438.4653 " fill="#000000" style="stroke:;stroke-width:0.0;stroke-dasharray:;"/><text fill="#000000" font-family="sans-serif" font-size="14" font-style="italic" lengthAdjust="spacing" textLength="104" x="246" y="443.0433">Groups []*Group</text><path d="M238.88,455.2432 C238.7,455.2532 238.52,455.2732 238.35,455.3332 C238.08,455.4332 237.82,455.5832 237.6,455.8032 A0.5,0.5 0 1 0 238.29,456.4932 C238.4,456.3832 238.53,456.3232 238.67,456.2732 C239.02,456.1532 239.45,456.2032 239.73,456.4932 C240.12,456.8832 240.12,457.5332 239.73,457.9332 L238.23,459.4332 C237.79,459.8732 237.43,459.9132 237.17,459.9032 C236.91,459.8932 236.76,459.7732 236.76,459.7732 A0.5,0.5 0 1 0 236.26,460.6532 C236.6,460.8732 236.6,460.8732 237.1,460.9032 C237.6,460.9332 238.3,460.7432 238.91,460.1232 L240.41,458.6232 C241.19,457.8432 241.19,456.5832 240.41,455.8132 C240.13,455.5332 239.8,455.3632 239.44,455.2832 C239.26,455.2432 239.06,455.2432 238.88,455.2532 M236.88,457.5532 C236.38,457.5332 235.69,457.7032 235.1,458.3032 L233.6,459.8032 C232.82,460.5832 232.82,461.8432 233.6,462.6132 C234.16,463.1732 234.96,463.3332 235.66,463.0832 C235.93,462.9832 236.19,462.8332 236.41,462.6132 A0.5,0.5 0 1 0 235.72,461.9232 C235.61,462.0332 235.48,462.0932 235.34,462.1432 C234.99,462.2632 234.56,462.2132 234.28,461.9232 C233.89,461.5332 233.89,460.8832 234.28,460.4832 L235.78,458.9832 C236.18,458.5832 236.53,458.5332 236.81,458.5432 C237.09,458.5532 237.28,458.6332 237.28,458.6332 A0.5,0.5 0 1 0 237.72,457.7532 C237.38,457.5532 237.38,457.5532 236.88,457.5332 " fill="#000000" style="stroke:;stroke-width:0.0;stroke-dasharray:;"/><text fill="#000000" font-family="sans-serif" font-size="14" font-style="italic" lengthAdjust="spacing" textLength="158" x="246" y="462.1113">Engine *ContainerEngine</text><path d="M238.88,474.3112 C238.7,474.3212 238.52,474.3412 238.35,474.4012 C238.08,474.5012 237.82,474.6512 237.6,474.8712 A0.5,0.5 0 1 0 238.29,475.5612 C238.4,475.4512 238.53,475.3912 238.67,475.3412 C239.02,475.2212 239.45,475.2712 239.73,475.5612 C240.12,475.9512 240.12,476.6012 239.73,477.0012 L238.23,478.5012 C237.79,478.9412 237.43,478.9812 237.17,478.9712 C236.91,478.9612 236.76,478.8412 236.76,478.8412 A0.5,0.5 0 1 0 236.26,479.7212 C236.6,479.9412 236.6,479.9412 237.1,479.9712 C237.6,480.0012 238.3,479.8112 238.91,479.1912 L240.41,477.6912 C241.19,476.9112 241.19,475.6512 240.41,474.8812 C240.13,474.6012 239.8,474.4312 239.44,474.3512 C239.26,474.3112 239.06,474.3112 238.88,474.3212 M236.88,476.6212 C236.38,476.6012 235.69,476.7712 235.1,477.3712 L233.6,478.8712 C232.82,479.6512 232.82,480.9112 233.6,481.6812 C234.16,482.2412 234.96,482.4012 235.66,482.1512 C235.93,482.0512 236.19,481.9012 236.41,481.6812 A0.5,0.5 0 1 0 235.72,480.9912 C235.61,481.1012 235.48,481.1612 235.34,481.2112 C234.99,481.3312 234.56,481.2812 234.28,480.9912 C233.89,480.6012 233.89,479.9512 234.28,479.5512 L235.78,478.0512 C236.18,477.6512 236.53,477.6012 236.81,477.6112 C237.09,477.6212 237.28,477.7012 237.28,477.7012 A0.5,0.5 0 1 0 237.72,476.8212 C237.38,476.6212 237.38,476.6212 236.88,476.6012 " fill="#000000" style="stroke:;stroke-width:0.0;stroke-dasharray:;"/><text fill="#000000" font-family="sans-serif" font-size="14" font-style="italic" lengthAdjust="spacing" textLength="106" x="246" y="481.1792">Process *Process</text></g><!--MD5=[41314a0efc36828092cff9ebad2fcafd]
class Group--><g id="elem_Group"><rect codeLine="27" fill="#F1F1F1" height="135.3396" id="Group" rx="2.5" ry="2.5" style="stroke:#181818;stroke-width:0.5;" width="179" x="452.5" y="306.602"/><ellipse cx="516.75" cy="322.602" fill="#ADD1B2" rx="11" ry="11" style="stroke:#181818;stroke-width:1.0;"/><path d="M516.2188,329.5239 Q514.4688,329.5239 513.3281,328.7895 Q512.2031,328.0395 511.6406,326.6957 Q511.0938,325.3364 511.0938,323.5395 Q511.0938,321.5082 511.75,320.0551 Q512.4063,318.602 513.6875,317.8207 Q514.9688,317.0395 516.8438,317.0395 Q517.7344,317.0395 518.4063,317.227 Q519.0781,317.3989 519.7656,317.7426 L518.9531,319.7582 Q518.3281,319.4457 517.7813,319.3207 Q517.25,319.1957 516.7656,319.1957 Q515.5938,319.1957 514.8906,319.727 Q514.1875,320.2582 513.8906,321.2114 Q513.5938,322.1645 513.5938,323.4301 Q513.5938,325.4457 514.3125,326.4145 Q515.0313,327.3676 516.625,327.3676 Q517.2188,327.3676 517.8438,327.2114 Q518.4688,327.0551 519.2969,326.6801 L519.2969,328.8989 Q518.5625,329.2114 517.7656,329.3676 Q516.9844,329.5239 516.2188,329.5239 Z " fill="#000000"/><text fill="#000000" font-family="sans-serif" font-size="14" lengthAdjust="spacing" textLength="42" x="537.25" y="328.034">Group</text><line style="stroke:#181818;stroke-width:0.5;" x1="453.5" x2="630.5" y1="338.602" y2="338.602"/><text fill="#000000" font-family="sans-serif" font-size="14" lengthAdjust="spacing" textLength="84" x="458.5" y="357.5679">Name string</text><text fill="#000000" font-family="sans-serif" font-size="14" lengthAdjust="spacing" textLength="76" x="458.5" y="376.6358">Type string</text><text fill="#000000" font-family="sans-serif" font-size="14" lengthAdjust="spacing" textLength="84" x="458.5" y="395.7038">Flavor string</text><text fill="#000000" font-family="sans-serif" font-size="14" lengthAdjust="spacing" textLength="167" x="458.5" y="414.7717">Labels map[string]string</text><path d="M465.38,426.9716 C465.2,426.9816 465.02,427.0016 464.85,427.0616 C464.58,427.1616 464.32,427.3116 464.1,427.5316 A0.5,0.5 0 1 0 464.79,428.2216 C464.9,428.1116 465.03,428.0516 465.17,428.0016 C465.52,427.8816 465.95,427.9316 466.23,428.2216 C466.62,428.6116 466.62,429.2616 466.23,429.6616 L464.73,431.1616 C464.29,431.6016 463.93,431.6416 463.67,431.6316 C463.41,431.6216 463.26,431.5016 463.26,431.5016 A0.5,0.5 0 1 0 462.76,432.3816 C463.1,432.6016 463.1,432.6016 463.6,432.6316 C464.1,432.6616 464.8,432.4716 465.41,431.8516 L466.91,430.3516 C467.69,429.5716 467.69,428.3116 466.91,427.5416 C466.63,427.2616 466.3,427.0916 465.94,427.0116 C465.76,426.9716 465.56,426.9716 465.38,426.9816 M463.38,429.2816 C462.88,429.2616 462.19,429.4316 461.6,430.0316 L460.1,431.5316 C459.32,432.3116 459.32,433.5716 460.1,434.3416 C460.66,434.9016 461.46,435.0616 462.16,434.8116 C462.43,434.7116 462.69,434.5616 462.91,434.3416 A0.5,0.5 0 1 0 462.22,433.6516 C462.11,433.7616 461.98,433.8216 461.84,433.8716 C461.49,433.9916 461.06,433.9416 460.78,433.6516 C460.39,433.2616 460.39,432.6116 460.78,432.2116 L462.28,430.7116 C462.68,430.3116 463.03,430.2616 463.31,430.2716 C463.59,430.2816 463.78,430.3616 463.78,430.3616 A0.5,0.5 0 1 0 464.22,429.4816 C463.88,429.2816 463.88,429.2816 463.38,429.2616 " fill="#000000" style="stroke:;stroke-width:0.0;stroke-dasharray:;"/><text fill="#000000" font-family="sans-serif" font-size="14" font-style="italic" lengthAdjust="spacing" textLength="150" x="472.5" y="433.8396">Containers []*Container</text></g><!--MD5=[e127c15f58f060a6c28a2c8ea701a177]
class ContainerEngine--><g id="elem_ContainerEngine"><rect codeLine="35" fill="#F1F1F1" height="135.3396" id="ContainerEngine" rx="2.5" ry="2.5" style="stroke:#181818;stroke-width:0.5;" width="176" x="230" y="44.602"/><ellipse cx="258.95" cy="60.602" fill="#ADD1B2" rx="11" ry="11" style="stroke:#181818;stroke-width:1.0;"/><path d="M258.4188,67.5239 Q256.6688,67.5239 255.5281,66.7895 Q254.4031,66.0395 253.8406,64.6957 Q253.2938,63.3364 253.2938,61.5395 Q253.2938,59.5082 253.95,58.0551 Q254.6063,56.602 255.8875,55.8207 Q257.1688,55.0395 259.0438,55.0395 Q259.9344,55.0395 260.6063,55.227 Q261.2781,55.3989 261.9656,55.7426 L261.1531,57.7582 Q260.5281,57.4457 259.9813,57.3207 Q259.45,57.1957 258.9656,57.1957 Q257.7938,57.1957 257.0906,57.727 Q256.3875,58.2582 256.0906,59.2114 Q255.7938,60.1645 255.7938,61.4301 Q255.7938,63.4457 256.5125,64.4145 Q257.2313,65.3676 258.825,65.3676 Q259.4188,65.3676 260.0438,65.2114 Q260.6688,65.0551 261.4969,64.6801 L261.4969,66.8989 Q260.7625,67.2114 259.9656,67.3676 Q259.1844,67.5239 258.4188,67.5239 Z " fill="#000000"/><text fill="#000000" font-family="sans-serif" font-size="14" lengthAdjust="spacing" textLength="113" x="276.05" y="66.034">ContainerEngine</text><line style="stroke:#181818;stroke-width:0.5;" x1="231" x2="405" y1="76.602" y2="76.602"/><text fill="#000000" font-family="sans-serif" font-size="14" lengthAdjust="spacing" textLength="59" x="236" y="95.5679">ID string</text><text fill="#000000" font-family="sans-serif" font-size="14" lengthAdjust="spacing" textLength="76" x="236" y="114.6358">Type string</text><text fill="#000000" font-family="sans-serif" font-size="14" lengthAdjust="spacing" textLength="66" x="236" y="133.7038">API string</text><text fill="#000000" font-family="sans-serif" font-size="14" lengthAdjust="spacing" textLength="45" x="236" y="152.7717">PID int</text><path d="M242.88,164.9716 C242.7,164.9816 242.52,165.0016 242.35,165.0616 C242.08,165.1616 241.82,165.3116 241.6,165.5316 A0.5,0.5 0 1 0 242.29,166.2216 C242.4,166.1116 242.53,166.0516 242.67,166.0016 C243.02,165.8816 243.45,165.9316 243.73,166.2216 C244.12,166.6116 244.12,167.2616 243.73,167.6616 L242.23,169.1616 C241.79,169.6016 241.43,169.6416 241.17,169.6316 C240.91,169.6216 240.76,169.5016 240.76,169.5016 A0.5,0.5 0 1 0 240.26,170.3816 C240.6,170.6016 240.6,170.6016 241.1,170.6316 C241.6,170.6616 242.3,170.4716 242.91,169.8516 L244.41,168.3516 C245.19,167.5716 245.19,166.3116 244.41,165.5416 C244.13,165.2616 243.8,165.0916 243.44,165.0116 C243.26,164.9716 243.06,164.9716 242.88,164.9816 M240.88,167.2816 C240.38,167.2616 239.69,167.4316 239.1,168.0316 L237.6,169.5316 C236.82,170.3116 236.82,171.5716 237.6,172.3416 C238.16,172.9016 238.96,173.0616 239.66,172.8116 C239.93,172.7116 240.19,172.5616 240.41,172.3416 A0.5,0.5 0 1 0 239.72,171.6516 C239.61,171.7616 239.48,171.8216 239.34,171.8716 C238.99,171.9916 238.56,171.9416 238.28,171.6516 C237.89,171.2616 237.89,170.6116 238.28,170.2116 L239.78,168.7116 C240.18,168.3116 240.53,168.2616 240.81,168.2716 C241.09,168.2816 241.28,168.3616 241.28,168.3616 A0.5,0.5 0 1 0 241.72,167.4816 C241.38,167.2816 241.38,167.2816 240.88,167.2616 " fill="#000000" style="stroke:;stroke-width:0.0;stroke-dasharray:;"/><text fill="#000000" font-family="sans-serif" font-size="14" font-style="italic" lengthAdjust="spacing" textLength="150" x="250" y="171.8396">Containers []*Container</text></g><!--MD5=[b5382eb40fea0b25cbaef2383d79e11f]
reverse link Process to Container--><g id="link_Process_Container"><path codeLine="24" d="M123.21,374.102 C153.1,374.102 191.24,374.102 225.84,374.102 " fill="none" id="Process-backto-Container" style="stroke:#181818;stroke-width:1.0;"/><polygon fill="#181818" points="118.11,374.102,127.11,378.102,123.11,374.102,127.11,370.102,118.11,374.102" style="stroke:#181818;stroke-width:1.0;"/><text fill="#000000" font-family="sans-serif" font-size="13" lengthAdjust="spacing" textLength="59" x="136.5" y="366.999">Container</text><text fill="#000000" font-family="sans-serif" font-size="13" lengthAdjust="spacing" textLength="17" x="201.1332" y="370.3875">0,1</text></g><!--MD5=[b5382eb40fea0b25cbaef2383d79e11f]
reverse link Process to Container--><g id="link_Process_Container"><path codeLine="25" d="M123.31,391.222 C131.5,393.242 139.92,394.982 148,396.102 C173.2,399.592 200.54,398.292 225.76,395.022 " fill="none" id="Process-backto-Container-1" style="stroke:#181818;stroke-width:1.0;"/><polygon fill="#181818" points="118.24,389.932,125.9801,396.0222,123.0865,391.1615,127.9473,388.2679,118.24,389.932" style="stroke:#181818;stroke-width:1.0;"/><text fill="#000000" font-family="sans-serif" font-size="13" lengthAdjust="spacing" textLength="46" x="149" y="391.999">Process</text></g><!--MD5=[4876b824079cfc565f27bcf9dacb20f0]
link ContainerEngine to Container--><g id="link_ContainerEngine_Container"><path codeLine="43" d="M318,179.722 C318,203.722 318,231.532 318,258.452 " fill="none" id="ContainerEngine-Container" style="stroke:#181818;stroke-width:1.0;"/><text fill="#000000" font-family="sans-serif" font-size="13" lengthAdjust="spacing" textLength="6" x="319" y="224.499">  </text><text fill="#000000" font-family="sans-serif" font-size="13" lengthAdjust="spacing" textLength="7" x="310.6172" y="201.9647">1</text><text fill="#000000" font-family="sans-serif" font-size="13" lengthAdjust="spacing" textLength="20" x="297.2969" y="246.6558">1..*</text></g><!--MD5=[8832a870e9d37de3287b9d2157fbb3b9]
link Container to Group--><g id="link_Container_Group"><path codeLine="44" d="M410.08,374.102 C424.08,374.102 438.5,374.102 452.45,374.102 " fill="none" id="Container-Group" style="stroke:#181818;stroke-width:1.0;"/><text fill="#000000" font-family="sans-serif" font-size="13" lengthAdjust="spacing" textLength="6" x="428.25" y="366.999">  </text><text fill="#000000" font-family="sans-serif" font-size="13" lengthAdjust="spacing" textLength="7" x="417.9952" y="370.3376">*</text><text fill="#000000" font-family="sans-serif" font-size="13" lengthAdjust="spacing" textLength="7" x="437.4535" y="370.2843">*</text></g><!--MD5=[a94812646ada2cb7e9a1a26264985299]
@startuml lxkns-containers
hide empty fields
hide empty methods
!define L <size:12><&link-intact></size><i>

package "lxkns.model" {

class Process {
  L *Container
}

class Container {
  ID string
  Name string
  PID int
  Type string
  Flavor string
  Paused bool
  Labels map[string]string
  L Groups []*Group
  L Engine *ContainerEngine
  L Process *Process
}

Process <- "0,1" Container : "Container    "
Process <- Container : "Process"

class Group {
    Name string
    Type string
    Flavor string
    Labels map[string]string
    L Containers []*Container
}

class ContainerEngine {
    ID string
    Type string
    API string
    PID int
    L Containers []*Container
}

ContainerEngine "1" - - "1..*" Container : "  "
Container "*" - "*" Group : "  "

}

@enduml

@startuml lxkns-containers
hide empty fields
hide empty methods

package "lxkns.model" {

class Process {
  <size:12><&link-intact></size><i> *Container
}

class Container {
  ID string
  Name string
  PID int
  Type string
  Flavor string
  Paused bool
  Labels map[string]string
  <size:12><&link-intact></size><i> Groups []*Group
  <size:12><&link-intact></size><i> Engine *ContainerEngine
  <size:12><&link-intact></size><i> Process *Process
}

Process <- "0,1" Container : "Container    "
Process <- Container : "Process"

class Group {
    Name string
    Type string
    Flavor string
    Labels map[string]string
    <size:12><&link-intact></size><i> Containers []*Container
}

class ContainerEngine {
    ID string
    Type string
    API string
    PID int
    <size:12><&link-intact></size><i> Containers []*Container
}

ContainerEngine "1" - - "1..*" Container : "  "
Container "*" - "*" Group : "  "

}

@enduml

PlantUML version 1.2022.7(Mon Aug 22 19:01:30 CEST 2022)
(GPL source distribution)
Java Runtime: OpenJDK Runtime Environment
JVM: OpenJDK 64-Bit Server VM
Default Encoding: UTF-8
Language: en
Country: US
--></g></svg>