<?xml version="1.0" encoding="UTF-8" standalone="no"?><svg xmlns="http://www.w3.org/2000/svg" xmlns:xlink="http://www.w3.org/1999/xlink" contentStyleType="text/css" height="513px" preserveAspectRatio="none" style="width:641px;height:513px;background:#FFFFFF;" version="1.1" viewBox="0 0 641 513" width="641px" zoomAndPan="magnify"><defs/><g><!--MD5=[63e60b4e525f7b729b77c5a3e1b351bb]
cluster lxkns.model--><g id="cluster_lxkns.model"><path d="M8.5,6.602 L94.5,6.602 A3.75,3.75 0 0 1 97,9.102 L104,31.6699 L631.5,31.6699 A2.5,2.5 0 0 1 634,34.1699 L634,504.102 A2.5,2.5 0 0 1 631.5,506.602 L8.5,506.602 A2.5,2.5 0 0 1 6,504.102 L6,9.102 A2.5,2.5 0 0 1 8.5,6.602 " fill="none" style="stroke:#000000;stroke-width:1.5;"/><line style="stroke:#000000;stroke-width:1.5;" x1="6" x2="104" y1="31.6699" y2="31.6699"/><text fill="#000000" font-family="sans-serif" font-size="14" font-weight="bold" lengthAdjust="spacing" textLength="85" x="10" y="23.5679">lxkns.model</text></g><!--MD5=[7870f61a2b09887c08d38df1315a7195]
class Namespace--><g id="elem_Namespace"><rect codeLine="7" fill="#F1F1F1" height="97.2038" id="Namespace" rx="2.5" ry="2.5" style="stroke:#181818;stroke-width:0.5;" width="168" x="339" y="44.602"/><ellipse cx="382.8" cy="60.602" fill="#B4A7E5" rx="11" ry="11" style="stroke:#181818;stroke-width:1.0;"/><path d="M378.8313,67.102 L378.8313,65.3989 L381.1906,65.1332 L381.1906,56.9301 L378.8313,56.6645 L378.8313,54.9614 L385.9719,54.9614 L385.9719,56.6645 L383.55,56.9301 L383.55,65.1332 L385.9719,65.3989 L385.9719,67.102 L378.8313,67.102 Z " fill="#000000"/><text fill="#000000" font-family="sans-serif" font-size="14" font-style="italic" lengthAdjust="spacing" textLength="72" x="403.2" y="66.034">Namespace</text><line style="stroke:#181818;stroke-width:0.5;" x1="340" x2="506" y1="76.602" y2="76.602"/><path d="M351.88,88.6999 C351.7,88.7099 351.52,88.7299 351.35,88.7899 C351.08,88.8899 350.82,89.0399 350.6,89.2599 A0.5,0.5 0 1 0 351.29,89.9499 C351.4,89.8399 351.53,89.7799 351.67,89.7299 C352.02,89.6099 352.45,89.6599 352.73,89.9499 C353.12,90.3399 353.12,90.9899 352.73,91.3899 L351.23,92.8899 C350.79,93.3299 350.43,93.3699 350.17,93.3599 C349.91,93.3499 349.76,93.2299 349.76,93.2299 A0.5,0.5 0 1 0 349.26,94.1099 C349.6,94.3299 349.6,94.3299 350.1,94.3599 C350.6,94.3899 351.3,94.1999 351.91,93.5799 L353.41,92.0799 C354.19,91.2999 354.19,90.0399 353.41,89.2699 C353.13,88.9899 352.8,88.8199 352.44,88.7399 C352.26,88.6999 352.06,88.6999 351.88,88.7099 M349.88,91.0099 C349.38,90.9899 348.69,91.1599 348.1,91.7599 L346.6,93.2599 C345.82,94.0399 345.82,95.2999 346.6,96.0699 C347.16,96.6299 347.96,96.7899 348.66,96.5399 C348.93,96.4399 349.19,96.2899 349.41,96.0699 A0.5,0.5 0 1 0 348.72,95.3799 C348.61,95.4899 348.48,95.5499 348.34,95.5999 C347.99,95.7199 347.56,95.6699 347.28,95.3799 C346.89,94.9899 346.89,94.3399 347.28,93.9399 L348.78,92.4399 C349.18,92.0399 349.53,91.9899 349.81,91.9999 C350.09,92.0099 350.28,92.0899 350.28,92.0899 A0.5,0.5 0 1 0 350.72,91.2099 C350.38,91.0099 350.38,91.0099 349.88,90.9899 " fill="#000000" style="stroke:;stroke-width:0.0;stroke-dasharray:;"/><text fill="#000000" font-family="sans-serif" font-size="14" font-style="italic" lengthAdjust="spacing" textLength="124" x="359" y="95.5679">Leaders() []*Process</text><path d="M351.88,107.7678 C351.7,107.7778 351.52,107.7978 351.35,107.8578 C351.08,107.9578 350.82,108.1078 350.6,108.3278 A0.5,0.5 0 1 0 351.29,109.0178 C351.4,108.9078 351.53,108.8478 351.67,108.7978 C352.02,108.6778 352.45,108.7278 352.73,109.0178 C353.12,109.4078 353.12,110.0578 352.73,110.4578 L351.23,111.9578 C350.79,112.3978 350.43,112.4378 350.17,112.4278 C349.91,112.4178 349.76,112.2978 349.76,112.2978 A0.5,0.5 0 1 0 349.26,113.1778 C349.6,113.3978 349.6,113.3978 350.1,113.4278 C350.6,113.4578 351.3,113.2678 351.91,112.6478 L353.41,111.1478 C354.19,110.3678 354.19,109.1078 353.41,108.3378 C353.13,108.0578 352.8,107.8878 352.44,107.8078 C352.26,107.7678 352.06,107.7678 351.88,107.7778 M349.88,110.0778 C349.38,110.0578 348.69,110.2278 348.1,110.8278 L346.6,112.3278 C345.82,113.1078 345.82,114.3678 346.6,115.1378 C347.16,115.6978 347.96,115.8578 348.66,115.6078 C348.93,115.5078 349.19,115.3578 349.41,115.1378 A0.5,0.5 0 1 0 348.72,114.4478 C348.61,114.5578 348.48,114.6178 348.34,114.6678 C347.99,114.7878 347.56,114.7378 347.28,114.4478 C346.89,114.0578 346.89,113.4078 347.28,113.0078 L348.78,111.5078 C349.18,111.1078 349.53,111.0578 349.81,111.0678 C350.09,111.0778 350.28,111.1578 350.28,111.1578 A0.5,0.5 0 1 0 350.72,110.2778 C350.38,110.0778 350.38,110.0778 349.88,110.0578 " fill="#000000" style="stroke:;stroke-width:0.0;stroke-dasharray:;"/><text fill="#000000" font-family="sans-serif" font-size="14" font-style="italic" lengthAdjust="spacing" textLength="136" x="359" y="114.6358">Ealdorman() *Process</text><path d="M351.88,126.8357 C351.7,126.8457 351.52,126.8657 351.35,126.9257 C351.08,127.0257 350.82,127.1757 350.6,127.3957 A0.5,0.5 0 1 0 351.29,128.0857 C351.4,127.9757 351.53,127.9157 351.67,127.8657 C352.02,127.7457 352.45,127.7957 352.73,128.0857 C353.12,128.4757 353.12,129.1257 352.73,129.5257 L351.23,131.0257 C350.79,131.4657 350.43,131.5057 350.17,131.4957 C349.91,131.4857 349.76,131.3657 349.76,131.3657 A0.5,0.5 0 1 0 349.26,132.2457 C349.6,132.4657 349.6,132.4657 350.1,132.4957 C350.6,132.5257 351.3,132.3357 351.91,131.7157 L353.41,130.2157 C354.19,129.4357 354.19,128.1757 353.41,127.4057 C353.13,127.1257 352.8,126.9557 352.44,126.8757 C352.26,126.8357 352.06,126.8357 351.88,126.8457 M349.88,129.1457 C349.38,129.1257 348.69,129.2957 348.1,129.8957 L346.6,131.3957 C345.82,132.1757 345.82,133.4357 346.6,134.2057 C347.16,134.7657 347.96,134.9257 348.66,134.6757 C348.93,134.5757 349.19,134.4257 349.41,134.2057 A0.5,0.5 0 1 0 348.72,133.5157 C348.61,133.6257 348.48,133.6857 348.34,133.7357 C347.99,133.8557 347.56,133.8057 347.28,133.5157 C346.89,133.1257 346.89,132.4757 347.28,132.0757 L348.78,130.5757 C349.18,130.1757 349.53,130.1257 349.81,130.1357 C350.09,130.1457 350.28,130.2257 350.28,130.2257 A0.5,0.5 0 1 0 350.72,129.3457 C350.38,129.1457 350.38,129.1457 349.88,129.1257 " fill="#000000" style="stroke:;stroke-width:0.0;stroke-dasharray:;"/><text fill="#000000" font-family="sans-serif" font-size="14" font-style="italic" lengthAdjust="spacing" textLength="142" x="359" y="133.7038">LooseThreads() []*Task</text></g><!--MD5=[bb370c11d182b7ebaea7e6fa83404e81]
class Process--><g id="elem_Process"><rect codeLine="33" fill="#F1F1F1" height="97.2038" id="Process" rx="2.5" ry="2.5" style="stroke:#181818;stroke-width:0.5;" width="127" x="193.5" y="282.602"/><ellipse cx="228.3" cy="298.602" fill="#ADD1B2" rx="11" ry="11" style="stroke:#181818;stroke-width:1.0;"/><path d="M227.7688,305.5239 Q226.0188,305.5239 224.8781,304.7895 Q223.7531,304.0395 223.1906,302.6957 Q222.6438,301.3364 222.6438,299.5395 Q222.6438,297.5082 223.3,296.0551 Q223.9563,294.602 225.2375,293.8207 Q226.5188,293.0395 228.3938,293.0395 Q229.2844,293.0395 229.9563,293.227 Q230.6281,293.3989 231.3156,293.7426 L230.5031,295.7582 Q229.8781,295.4457 229.3313,295.3207 Q228.8,295.1957 228.3156,295.1957 Q227.1438,295.1957 226.4406,295.727 Q225.7375,296.2582 225.4406,297.2114 Q225.1438,298.1645 225.1438,299.4301 Q225.1438,301.4457 225.8625,302.4145 Q226.5813,303.3676 228.175,303.3676 Q228.7688,303.3676 229.3938,303.2114 Q230.0188,303.0551 230.8469,302.6801 L230.8469,304.8989 Q230.1125,305.2114 229.3156,305.3676 Q228.5344,305.5239 227.7688,305.5239 Z " fill="#000000"/><text fill="#000000" font-family="sans-serif" font-size="14" lengthAdjust="spacing" textLength="51" x="246.7" y="304.034">Process</text><line style="stroke:#181818;stroke-width:0.5;" x1="194.5" x2="319.5" y1="314.602" y2="314.602"/><path d="M206.38,326.6999 C206.2,326.7099 206.02,326.7299 205.85,326.7899 C205.58,326.8899 205.32,327.0399 205.1,327.2599 A0.5,0.5 0 1 0 205.79,327.9499 C205.9,327.8399 206.03,327.7799 206.17,327.7299 C206.52,327.6099 206.95,327.6599 207.23,327.9499 C207.62,328.3399 207.62,328.9899 207.23,329.3899 L205.73,330.8899 C205.29,331.3299 204.93,331.3699 204.67,331.3599 C204.41,331.3499 204.26,331.2299 204.26,331.2299 A0.5,0.5 0 1 0 203.76,332.1099 C204.1,332.3299 204.1,332.3299 204.6,332.3599 C205.1,332.3899 205.8,332.1999 206.41,331.5799 L207.91,330.0799 C208.69,329.2999 208.69,328.0399 207.91,327.2699 C207.63,326.9899 207.3,326.8199 206.94,326.7399 C206.76,326.6999 206.56,326.6999 206.38,326.7099 M204.38,329.0099 C203.88,328.9899 203.19,329.1599 202.6,329.7599 L201.1,331.2599 C200.32,332.0399 200.32,333.2999 201.1,334.0699 C201.66,334.6299 202.46,334.7899 203.16,334.5399 C203.43,334.4399 203.69,334.2899 203.91,334.0699 A0.5,0.5 0 1 0 203.22,333.3799 C203.11,333.4899 202.98,333.5499 202.84,333.5999 C202.49,333.7199 202.06,333.6699 201.78,333.3799 C201.39,332.9899 201.39,332.3399 201.78,331.9399 L203.28,330.4399 C203.68,330.0399 204.03,329.9899 204.31,329.9999 C204.59,330.0099 204.78,330.0899 204.78,330.0899 A0.5,0.5 0 1 0 205.22,329.2099 C204.88,329.0099 204.88,329.0099 204.38,328.9899 " fill="#000000" style="stroke:;stroke-width:0.0;stroke-dasharray:;"/><text fill="#000000" font-family="sans-serif" font-size="14" font-style="italic" lengthAdjust="spacing" textLength="101" x="213.5" y="333.5679">Parent *Process</text><path d="M206.38,345.7678 C206.2,345.7778 206.02,345.7978 205.85,345.8578 C205.58,345.9578 205.32,346.1078 205.1,346.3278 A0.5,0.5 0 1 0 205.79,347.0178 C205.9,346.9078 206.03,346.8478 206.17,346.7978 C206.52,346.6778 206.95,346.7278 207.23,347.0178 C207.62,347.4078 207.62,348.0578 207.23,348.4578 L205.73,349.9578 C205.29,350.3978 204.93,350.4378 204.67,350.4278 C204.41,350.4178 204.26,350.2978 204.26,350.2978 A0.5,0.5 0 1 0 203.76,351.1778 C204.1,351.3978 204.1,351.3978 204.6,351.4278 C205.1,351.4578 205.8,351.2678 206.41,350.6478 L207.91,349.1478 C208.69,348.3678 208.69,347.1078 207.91,346.3378 C207.63,346.0578 207.3,345.8878 206.94,345.8078 C206.76,345.7678 206.56,345.7678 206.38,345.7778 M204.38,348.0778 C203.88,348.0578 203.19,348.2278 202.6,348.8278 L201.1,350.3278 C200.32,351.1078 200.32,352.3678 201.1,353.1378 C201.66,353.6978 202.46,353.8578 203.16,353.6078 C203.43,353.5078 203.69,353.3578 203.91,353.1378 A0.5,0.5 0 1 0 203.22,352.4478 C203.11,352.5578 202.98,352.6178 202.84,352.6678 C202.49,352.7878 202.06,352.7378 201.78,352.4478 C201.39,352.0578 201.39,351.4078 201.78,351.0078 L203.28,349.5078 C203.68,349.1078 204.03,349.0578 204.31,349.0678 C204.59,349.0778 204.78,349.1578 204.78,349.1578 A0.5,0.5 0 1 0 205.22,348.2778 C204.88,348.0778 204.88,348.0778 204.38,348.0578 " fill="#000000" style="stroke:;stroke-width:0.0;stroke-dasharray:;"/><text fill="#000000" font-family="sans-serif" font-size="14" font-style="italic" lengthAdjust="spacing" textLength="82" x="213.5" y="352.6358">Tasks []*Task</text><path d="M206.38,364.8357 C206.2,364.8457 206.02,364.8657 205.85,364.9257 C205.58,365.0257 205.32,365.1757 205.1,365.3957 A0.5,0.5 0 1 0 205.79,366.0857 C205.9,365.9757 206.03,365.9157 206.17,365.8657 C206.52,365.7457 206.95,365.7957 207.23,366.0857 C207.62,366.4757 207.62,367.1257 207.23,367.5257 L205.73,369.0257 C205.29,369.4657 204.93,369.5057 204.67,369.4957 C204.41,369.4857 204.26,369.3657 204.26,369.3657 A0.5,0.5 0 1 0 203.76,370.2457 C204.1,370.4657 204.1,370.4657 204.6,370.4957 C205.1,370.5257 205.8,370.3357 206.41,369.7157 L207.91,368.2157 C208.69,367.4357 208.69,366.1757 207.91,365.4057 C207.63,365.1257 207.3,364.9557 206.94,364.8757 C206.76,364.8357 206.56,364.8357 206.38,364.8457 M204.38,367.1457 C203.88,367.1257 203.19,367.2957 202.6,367.8957 L201.1,369.3957 C200.32,370.1757 200.32,371.4357 201.1,372.2057 C201.66,372.7657 202.46,372.9257 203.16,372.6757 C203.43,372.5757 203.69,372.4257 203.91,372.2057 A0.5,0.5 0 1 0 203.22,371.5157 C203.11,371.6257 202.98,371.6857 202.84,371.7357 C202.49,371.8557 202.06,371.8057 201.78,371.5157 C201.39,371.1257 201.39,370.4757 201.78,370.0757 L203.28,368.5757 C203.68,368.1757 204.03,368.1257 204.31,368.1357 C204.59,368.1457 204.78,368.2257 204.78,368.2257 A0.5,0.5 0 1 0 205.22,367.3457 C204.88,367.1457 204.88,367.1457 204.38,367.1257 " fill="#000000" style="stroke:;stroke-width:0.0;stroke-dasharray:;"/><text fill="#000000" font-family="sans-serif" font-size="14" font-style="italic" lengthAdjust="spacing" textLength="70" x="213.5" y="371.7038">*Container</text></g><!--MD5=[b34797a66dc35cbf1d65f7e3ca75530e]
class Task--><g id="elem_Task"><rect codeLine="29" fill="#F1F1F1" height="59.0679" id="Task" rx="2.5" ry="2.5" style="stroke:#181818;stroke-width:0.5;" width="132" x="22" y="301.602"/><ellipse cx="68.75" cy="317.602" fill="#ADD1B2" rx="11" ry="11" style="stroke:#181818;stroke-width:1.0;"/><path d="M68.2188,324.5239 Q66.4688,324.5239 65.3281,323.7895 Q64.2031,323.0395 63.6406,321.6957 Q63.0938,320.3364 63.0938,318.5395 Q63.0938,316.5082 63.75,315.0551 Q64.4063,313.602 65.6875,312.8207 Q66.9688,312.0395 68.8438,312.0395 Q69.7344,312.0395 70.4063,312.227 Q71.0781,312.3989 71.7656,312.7426 L70.9531,314.7582 Q70.3281,314.4457 69.7813,314.3207 Q69.25,314.1957 68.7656,314.1957 Q67.5938,314.1957 66.8906,314.727 Q66.1875,315.2582 65.8906,316.2114 Q65.5938,317.1645 65.5938,318.4301 Q65.5938,320.4457 66.3125,321.4145 Q67.0313,322.3676 68.625,322.3676 Q69.2188,322.3676 69.8438,322.2114 Q70.4688,322.0551 71.2969,321.6801 L71.2969,323.8989 Q70.5625,324.2114 69.7656,324.3676 Q68.9844,324.5239 68.2188,324.5239 Z " fill="#000000"/><text fill="#000000" font-family="sans-serif" font-size="14" lengthAdjust="spacing" textLength="30" x="89.25" y="323.034">Task</text><line style="stroke:#181818;stroke-width:0.5;" x1="23" x2="153" y1="333.602" y2="333.602"/><path d="M34.88,345.6999 C34.7,345.7099 34.52,345.7299 34.35,345.7899 C34.08,345.8899 33.82,346.0399 33.6,346.2599 A0.5,0.5 0 1 0 34.29,346.9499 C34.4,346.8399 34.53,346.7799 34.67,346.7299 C35.02,346.6099 35.45,346.6599 35.73,346.9499 C36.12,347.3399 36.12,347.9899 35.73,348.3899 L34.23,349.8899 C33.79,350.3299 33.43,350.3699 33.17,350.3599 C32.91,350.3499 32.76,350.2299 32.76,350.2299 A0.5,0.5 0 1 0 32.26,351.1099 C32.6,351.3299 32.6,351.3299 33.1,351.3599 C33.6,351.3899 34.3,351.1999 34.91,350.5799 L36.41,349.0799 C37.19,348.2999 37.19,347.0399 36.41,346.2699 C36.13,345.9899 35.8,345.8199 35.44,345.7399 C35.26,345.6999 35.06,345.6999 34.88,345.7099 M32.88,348.0099 C32.38,347.9899 31.69,348.1599 31.1,348.7599 L29.6,350.2599 C28.82,351.0399 28.82,352.2999 29.6,353.0699 C30.16,353.6299 30.96,353.7899 31.66,353.5399 C31.93,353.4399 32.19,353.2899 32.41,353.0699 A0.5,0.5 0 1 0 31.72,352.3799 C31.61,352.4899 31.48,352.5499 31.34,352.5999 C30.99,352.7199 30.56,352.6699 30.28,352.3799 C29.89,351.9899 29.89,351.3399 30.28,350.9399 L31.78,349.4399 C32.18,349.0399 32.53,348.9899 32.81,348.9999 C33.09,349.0099 33.28,349.0899 33.28,349.0899 A0.5,0.5 0 1 0 33.72,348.2099 C33.38,348.0099 33.38,348.0099 32.88,347.9899 " fill="#000000" style="stroke:;stroke-width:0.0;stroke-dasharray:;"/><text fill="#000000" font-family="sans-serif" font-size="14" font-style="italic" lengthAdjust="spacing" textLength="106" x="42" y="352.5679">Process *Process</text></g><!--MD5=[c5776a4122e69cd3155d971a089f6b18]
class ProcessTable--><g id="elem_ProcessTable"><rect codeLine="17" fill="#F1F1F1" height="32" id="ProcessTable" rx="2.5" ry="2.5" style="stroke:#181818;stroke-width:0.5;" width="120" x="197" y="458.602"/><ellipse cx="212" cy="474.602" fill="#ADD1B2" rx="11" ry="11" style="stroke:#181818;stroke-width:1.0;"/><path d="M211.4688,481.5239 Q209.7188,481.5239 208.5781,480.7895 Q207.4531,480.0395 206.8906,478.6957 Q206.3438,477.3364 206.3438,475.5395 Q206.3438,473.5082 207,472.0551 Q207.6563,470.602 208.9375,469.8207 Q210.2188,469.0395 212.0938,469.0395 Q212.9844,469.0395 213.6563,469.227 Q214.3281,469.3989 215.0156,469.7426 L214.2031,471.7582 Q213.5781,471.4457 213.0313,471.3207 Q212.5,471.1957 212.0156,471.1957 Q210.8438,471.1957 210.1406,471.727 Q209.4375,472.2582 209.1406,473.2114 Q208.8438,474.1645 208.8438,475.4301 Q208.8438,477.4457 209.5625,478.4145 Q210.2813,479.3676 211.875,479.3676 Q212.4688,479.3676 213.0938,479.2114 Q213.7188,479.0551 214.5469,478.6801 L214.5469,480.8989 Q213.8125,481.2114 213.0156,481.3676 Q212.2344,481.5239 211.4688,481.5239 Z " fill="#000000"/><text fill="#000000" font-family="sans-serif" font-size="14" lengthAdjust="spacing" textLength="88" x="226" y="480.034">ProcessTable</text></g><!--MD5=[67bf091ad622ad6871e09661fd7241fd]
class ProTaskCommon--><g id="elem_ProTaskCommon"><rect codeLine="20" fill="#F1F1F1" height="59.0679" id="ProTaskCommon" rx="2.5" ry="2.5" style="stroke:#181818;stroke-width:0.5;" width="205" x="21.5" y="63.602"/><ellipse cx="63.95" cy="79.602" fill="#ADD1B2" rx="11" ry="11" style="stroke:#181818;stroke-width:1.0;"/><path d="M63.4188,86.5239 Q61.6688,86.5239 60.5281,85.7895 Q59.4031,85.0395 58.8406,83.6957 Q58.2938,82.3364 58.2938,80.5395 Q58.2938,78.5082 58.95,77.0551 Q59.6063,75.602 60.8875,74.8207 Q62.1688,74.0395 64.0438,74.0395 Q64.9344,74.0395 65.6063,74.227 Q66.2781,74.3989 66.9656,74.7426 L66.1531,76.7582 Q65.5281,76.4457 64.9813,76.3207 Q64.45,76.1957 63.9656,76.1957 Q62.7938,76.1957 62.0906,76.727 Q61.3875,77.2582 61.0906,78.2114 Q60.7938,79.1645 60.7938,80.4301 Q60.7938,82.4457 61.5125,83.4145 Q62.2313,84.3676 63.825,84.3676 Q64.4188,84.3676 65.0438,84.2114 Q65.6688,84.0551 66.4969,83.6801 L66.4969,85.8989 Q65.7625,86.2114 64.9656,86.3676 Q64.1844,86.5239 63.4188,86.5239 Z " fill="#000000"/><text fill="#000000" font-family="sans-serif" font-size="14" lengthAdjust="spacing" textLength="112" x="84.05" y="85.034">ProTaskCommon</text><line style="stroke:#181818;stroke-width:0.5;" x1="22.5" x2="225.5" y1="95.602" y2="95.602"/><path d="M34.38,107.6999 C34.2,107.7099 34.02,107.7299 33.85,107.7899 C33.58,107.8899 33.32,108.0399 33.1,108.2599 A0.5,0.5 0 1 0 33.79,108.9499 C33.9,108.8399 34.03,108.7799 34.17,108.7299 C34.52,108.6099 34.95,108.6599 35.23,108.9499 C35.62,109.3399 35.62,109.9899 35.23,110.3899 L33.73,111.8899 C33.29,112.3299 32.93,112.3699 32.67,112.3599 C32.41,112.3499 32.26,112.2299 32.26,112.2299 A0.5,0.5 0 1 0 31.76,113.1099 C32.1,113.3299 32.1,113.3299 32.6,113.3599 C33.1,113.3899 33.8,113.1999 34.41,112.5799 L35.91,111.0799 C36.69,110.2999 36.69,109.0399 35.91,108.2699 C35.63,107.9899 35.3,107.8199 34.94,107.7399 C34.76,107.6999 34.56,107.6999 34.38,107.7099 M32.38,110.0099 C31.88,109.9899 31.19,110.1599 30.6,110.7599 L29.1,112.2599 C28.32,113.0399 28.32,114.2999 29.1,115.0699 C29.66,115.6299 30.46,115.7899 31.16,115.5399 C31.43,115.4399 31.69,115.2899 31.91,115.0699 A0.5,0.5 0 1 0 31.22,114.3799 C31.11,114.4899 30.98,114.5499 30.84,114.5999 C30.49,114.7199 30.06,114.6699 29.78,114.3799 C29.39,113.9899 29.39,113.3399 29.78,112.9399 L31.28,111.4399 C31.68,111.0399 32.03,110.9899 32.31,110.9999 C32.59,111.0099 32.78,111.0899 32.78,111.0899 A0.5,0.5 0 1 0 33.22,110.2099 C32.88,110.0099 32.88,110.0099 32.38,109.9899 " fill="#000000" style="stroke:;stroke-width:0.0;stroke-dasharray:;"/><text fill="#000000" font-family="sans-serif" font-size="14" font-style="italic" lengthAdjust="spacing" textLength="179" x="41.5" y="114.5679">Namespaces NamespacesSet</text></g><!--MD5=[e9a58730c562b34349daa605d1ed6662]
class Container--><g id="elem_Container"><rect codeLine="42" fill="#F1F1F1" height="78.1358" id="Container" rx="2.5" ry="2.5" style="stroke:#181818;stroke-width:0.5;" width="132" x="486" y="292.102"/><ellipse cx="516.3" cy="308.102" fill="#ADD1B2" rx="11" ry="11" style="stroke:#181818;stroke-width:1.0;"/><path d="M515.7688,315.0239 Q514.0188,315.0239 512.8781,314.2895 Q511.7531,313.5395 511.1906,312.1957 Q510.6437,310.8364 510.6437,309.0395 Q510.6437,307.0082 511.3,305.5551 Q511.9562,304.102 513.2375,303.3207 Q514.5188,302.5395 516.3938,302.5395 Q517.2844,302.5395 517.9563,302.727 Q518.6281,302.8989 519.3156,303.2426 L518.5031,305.2582 Q517.8781,304.9457 517.3313,304.8207 Q516.8,304.6957 516.3156,304.6957 Q515.1438,304.6957 514.4406,305.227 Q513.7375,305.7582 513.4406,306.7114 Q513.1438,307.6645 513.1438,308.9301 Q513.1438,310.9457 513.8625,311.9145 Q514.5813,312.8676 516.175,312.8676 Q516.7688,312.8676 517.3938,312.7114 Q518.0188,312.5551 518.8469,312.1801 L518.8469,314.3989 Q518.1125,314.7114 517.3156,314.8676 Q516.5344,315.0239 515.7688,315.0239 Z " fill="#000000"/><text fill="#000000" font-family="sans-serif" font-size="14" lengthAdjust="spacing" textLength="66" x="533.7" y="313.534">Container</text><line style="stroke:#181818;stroke-width:0.5;" x1="487" x2="617" y1="324.102" y2="324.102"/><text fill="#000000" font-family="sans-serif" font-size="14" lengthAdjust="spacing" textLength="45" x="492" y="343.0679">PID int</text><path d="M498.88,355.2678 C498.7,355.2778 498.52,355.2978 498.35,355.3578 C498.08,355.4578 497.82,355.6078 497.6,355.8278 A0.5,0.5 0 1 0 498.29,356.5178 C498.4,356.4078 498.53,356.3478 498.67,356.2978 C499.02,356.1778 499.45,356.2278 499.73,356.5178 C500.12,356.9078 500.12,357.5578 499.73,357.9578 L498.23,359.4578 C497.79,359.8978 497.43,359.9378 497.17,359.9278 C496.91,359.9178 496.76,359.7978 496.76,359.7978 A0.5,0.5 0 1 0 496.26,360.6778 C496.6,360.8978 496.6,360.8978 497.1,360.9278 C497.6,360.9578 498.3,360.7678 498.91,360.1478 L500.41,358.6478 C501.19,357.8678 501.19,356.6078 500.41,355.8378 C500.13,355.5578 499.8,355.3878 499.44,355.3078 C499.26,355.2678 499.06,355.2678 498.88,355.2778 M496.88,357.5778 C496.38,357.5578 495.69,357.7278 495.1,358.3278 L493.6,359.8278 C492.82,360.6078 492.82,361.8678 493.6,362.6378 C494.16,363.1978 494.96,363.3578 495.66,363.1078 C495.93,363.0078 496.19,362.8578 496.41,362.6378 A0.5,0.5 0 1 0 495.72,361.9478 C495.61,362.0578 495.48,362.1178 495.34,362.1678 C494.99,362.2878 494.56,362.2378 494.28,361.9478 C493.89,361.5578 493.89,360.9078 494.28,360.5078 L495.78,359.0078 C496.18,358.6078 496.53,358.5578 496.81,358.5678 C497.09,358.5778 497.28,358.6578 497.28,358.6578 A0.5,0.5 0 1 0 497.72,357.7778 C497.38,357.5778 497.38,357.5778 496.88,357.5578 " fill="#000000" style="stroke:;stroke-width:0.0;stroke-dasharray:;"/><text fill="#000000" font-family="sans-serif" font-size="14" font-style="italic" lengthAdjust="spacing" textLength="106" x="506" y="362.1358">Process *Process</text></g><!--MD5=[b37fe80ac9d6428539713e04ef0594d1]
link Namespace to Process--><g id="link_Namespace_Process"><path codeLine="13" d="M426.34,141.842 C425.99,167.132 422.03,197.792 408,221.602 C388.79,254.212 355.51,279.702 325.07,297.762 " fill="none" id="Namespace-to-Process" style="stroke:#181818;stroke-width:1.0;"/><polygon fill="#181818" points="320.6,300.372,330.3899,299.2963,324.9199,297.8544,326.3618,292.3844,320.6,300.372" style="stroke:#181818;stroke-width:1.0;"/><text fill="#000000" font-family="sans-serif" font-size="13" lengthAdjust="spacing" textLength="65" x="417" y="217.499">Ealdorman</text><text fill="#000000" font-family="sans-serif" font-size="13" lengthAdjust="spacing" textLength="17" x="328.4859" y="293.0057">0,1</text></g><!--MD5=[b37fe80ac9d6428539713e04ef0594d1]
link Namespace to Process--><g id="link_Namespace_Process"><path codeLine="14" d="M389.41,141.862 C361.62,181.362 322.22,237.382 293.62,278.032 " fill="none" id="Namespace-to-Process-1" style="stroke:#181818;stroke-width:1.0;"/><polygon fill="#181818" points="290.54,282.412,298.9876,277.3486,293.415,278.3212,292.4424,272.7486,290.54,282.412" style="stroke:#181818;stroke-width:1.0;"/><text fill="#000000" font-family="sans-serif" font-size="13" lengthAdjust="spacing" textLength="47" x="347" y="217.499">Leaders</text><text fill="#000000" font-family="sans-serif" font-size="13" lengthAdjust="spacing" textLength="7" x="287.9521" y="270.9461">*</text></g><!--MD5=[05e507077be932f0dab89aeeae325c6f]
link Namespace to Task--><g id="link_Namespace_Task"><path codeLine="15" d="M338.7,139.832 C306.72,158.192 270.46,180.282 239,202.602 C197.09,232.332 152.53,270.922 122.77,297.822 " fill="none" id="Namespace-to-Task" style="stroke:#181818;stroke-width:1.0;"/><polygon fill="#181818" points="118.85,301.372,128.2031,298.2867,122.5529,298.0122,122.8274,292.362,118.85,301.372" style="stroke:#181818;stroke-width:1.0;"/><text fill="#000000" font-family="sans-serif" font-size="13" lengthAdjust="spacing" textLength="84" x="240" y="217.499">LooseThreads</text><text fill="#000000" font-family="sans-serif" font-size="13" lengthAdjust="spacing" textLength="7" x="117.8328" y="289.976">*</text></g><!--MD5=[c6c52385571ea092a2073bb4807a59c9]
reverse link Process to ProcessTable--><g id="link_Process_ProcessTable"><path codeLine="18" d="M257,384.822 C257,411.102 257,440.952 257,458.482 " fill="none" id="Process-backto-ProcessTable" style="stroke:#181818;stroke-width:1.0;"/><polygon fill="#181818" points="257,379.612,253,388.612,257,384.612,261,388.612,257,379.612" style="stroke:#181818;stroke-width:1.0;"/><text fill="#000000" font-family="sans-serif" font-size="13" lengthAdjust="spacing" textLength="29" x="258" y="424.499">[PID]</text></g><!--MD5=[83905adb29770c8e464a993134a336f0]
link ProTaskCommon to Task--><g id="link_ProTaskCommon_Task"><path codeLine="24" d="M119.59,123.042 C113.27,164.462 101.61,240.902 94.36,288.422 " fill="none" id="ProTaskCommon-to-Task" style="stroke:#181818;stroke-width:1.0;"/><polygon fill="none" points="92.39,301.292,97.2483,295.9631,94.1978,289.4289,89.3396,294.7579,92.39,301.292" style="stroke:#181818;stroke-width:1.0;"/></g><!--MD5=[f2b8a980aed9b167604374ac28f9d3be]
link ProTaskCommon to Process--><g id="link_ProTaskCommon_Process"><path codeLine="25" d="M125.8,122.752 C128.5,149.662 135.23,190.352 152,221.602 C161.96,240.152 176,257.752 190.59,273.152 " fill="none" id="ProTaskCommon-to-Process" style="stroke:#181818;stroke-width:1.0;"/><polygon fill="none" points="199.72,282.452,198.3773,275.367,191.3209,273.8814,192.6636,280.9664,199.72,282.452" style="stroke:#181818;stroke-width:1.0;"/></g><!--MD5=[e0f788d7a36585d26a288e4e7fba074b]
link ProTaskCommon to Namespace--><g id="link_ProTaskCommon_Namespace"><path codeLine="26" d="M226.9,93.102 C261.53,93.102 299.88,93.102 333.4,93.102 " fill="none" id="ProTaskCommon-to-Namespace" style="stroke:#181818;stroke-width:1.0;"/><polygon fill="#181818" points="338.74,93.102,329.74,89.102,333.74,93.102,329.74,97.102,338.74,93.102" style="stroke:#181818;stroke-width:1.0;"/><text fill="#000000" font-family="sans-serif" font-size="13" lengthAdjust="spacing" textLength="76" x="244.75" y="85.999">Namespaces</text><text fill="#000000" font-family="sans-serif" font-size="13" lengthAdjust="spacing" textLength="7" x="323.9239" y="89.2643">8</text></g><!--MD5=[8156e968208737e8c454aecc4c900edc]
link Process to Process--><g id="link_Process_Process"><path codeLine="39" d="M320.95,316.502 C340.34,316.862 355.5,321.732 355.5,331.102 C355.5,339.592 343.05,344.382 326.28,345.482 " fill="none" id="Process-to-Process" style="stroke:#181818;stroke-width:1.0;"/><polygon fill="#181818" points="320.95,345.702,330.1135,349.3118,325.9454,345.4873,329.7699,341.3192,320.95,345.702" style="stroke:#181818;stroke-width:1.0;"/><text fill="#000000" font-family="sans-serif" font-size="13" lengthAdjust="spacing" textLength="40" x="361.5" y="336.499">Parent</text><text fill="#000000" font-family="sans-serif" font-size="13" lengthAdjust="spacing" textLength="7" x="328.3273" y="329.7593">*</text></g><!--MD5=[5479e59a0255ed380d120e740ae96d9d]
reverse link Task to Process--><g id="link_Task_Process"><path codeLine="40" d="M159.46,331.102 C170.72,331.102 182.3,331.102 193.37,331.102 " fill="none" id="Task-backto-Process" style="stroke:#181818;stroke-width:1.0;"/><polygon fill="#181818" points="154.31,331.102,163.31,335.102,159.31,331.102,163.31,327.102,154.31,331.102" style="stroke:#181818;stroke-width:1.0;"/><text fill="#000000" font-family="sans-serif" font-size="13" lengthAdjust="spacing" textLength="3" x="172.25" y="323.999"> </text><text fill="#000000" font-family="sans-serif" font-size="13" lengthAdjust="spacing" textLength="33" x="161.9317" y="346.217">Tasks</text><text fill="#000000" font-family="sans-serif" font-size="13" lengthAdjust="spacing" textLength="17" x="168.4808" y="327.0968">1,*</text></g><!--MD5=[fafdc68d2a31bebd9f9f80d6e842944b]
link Process to Container--><g id="link_Process_Container"><path codeLine="47" d="M320.65,331.102 C367.71,331.102 431.84,331.102 480.64,331.102 " fill="none" id="Process-to-Container" style="stroke:#181818;stroke-width:1.0;"/><polygon fill="#181818" points="485.91,331.102,476.91,327.102,480.91,331.102,476.91,335.102,485.91,331.102" style="stroke:#181818;stroke-width:1.0;"/><text fill="#000000" font-family="sans-serif" font-size="13" lengthAdjust="spacing" textLength="59" x="373.75" y="323.999">Container</text><text fill="#000000" font-family="sans-serif" font-size="13" lengthAdjust="spacing" textLength="17" x="461.2179" y="327.1518">0,1</text></g><!--MD5=[b5382eb40fea0b25cbaef2383d79e11f]
reverse link Process to Container--><g id="link_Process_Container"><path codeLine="48" d="M326.11,345.752 C343.38,348.802 361.93,351.552 379.25,353.102 C414.48,356.252 453.59,351.922 485.68,346.302 " fill="none" id="Process-backto-Container" style="stroke:#181818;stroke-width:1.0;"/><polygon fill="#181818" points="320.79,344.792,328.9406,350.3208,325.7112,345.6764,330.3556,342.4469,320.79,344.792" style="stroke:#181818;stroke-width:1.0;"/><text fill="#000000" font-family="sans-serif" font-size="13" lengthAdjust="spacing" textLength="46" x="380.25" y="348.999">Process</text></g><!--MD5=[a47a2f6db95daaab434416cd74ed36e9]
@startuml lxkns-processes
hide empty fields
hide empty methods
!define L <size:12><&link-intact></size><i>

package "lxkns.model" {

interface Namespace {
  L Leaders() []*Process
  L Ealdorman() *Process
  L LooseThreads() []*Task
}

Namespace - - -> "0,1" Process : Ealdorman
Namespace - - -> "*" Process : Leaders
Namespace - - -> "*" Task: LooseThreads

class ProcessTable
Process <- - ProcessTable : "[PID]"

class ProTaskCommon {
  L Namespaces NamespacesSet
}

ProTaskCommon - -o Task
ProTaskCommon - -o Process
ProTaskCommon -> "8" Namespace : Namespaces


class Task {
  L Process *Process
}

class Process {
  L Parent *Process
  L Tasks []*Task
  L *Container
}

Process "*" - -> Process : Parent
Task <- Process : "Tasks" "1,*"

class Container {
  PID int
  L Process *Process
}

Process -> "0,1" Container : Container
Process <- Container : "Process"

}

@enduml

@startuml lxkns-processes
hide empty fields
hide empty methods

package "lxkns.model" {

interface Namespace {
  <size:12><&link-intact></size><i> Leaders() []*Process
  <size:12><&link-intact></size><i> Ealdorman() *Process
  <size:12><&link-intact></size><i> LooseThreads() []*Task
}

Namespace - - -> "0,1" Process : Ealdorman
Namespace - - -> "*" Process : Leaders
Namespace - - -> "*" Task: LooseThreads

class ProcessTable
Process <- - ProcessTable : "[PID]"

class ProTaskCommon {
  <size:12><&link-intact></size><i> Namespaces NamespacesSet
}

ProTaskCommon - -o Task
ProTaskCommon - -o Process
ProTaskCommon -> "8" Namespace : Namespaces


class Task {
  <size:12><&link-intact></size><i> Process *Process
}

class Process {
  <size:12><&link-intact></size><i> Parent *Process
  <size:12><&link-intact></size><i> Tasks []*Task
  <size:12><&link-intact></size><i> *Container
}

Process "*" - -> Process : Parent
Task <- Process : "Tasks" "1,*"

class Container {
  PID int
  <size:12><&link-intact></size><i> Process *Process
}

Process -> "0,1" Container : Container
Process <- Container : "Process"

}

@enduml

PlantUML version 1.2022.7(Mon Aug 22 19:01:30 CEST 2022)
(GPL source distribution)
Java Runtime: OpenJDK Runtime Environment
JVM: OpenJDK 64-Bit Server VM
Default Encoding: UTF-8
Language: en
Country: US
--></g></svg>