<?xml version="1.0" encoding="UTF-8" standalone="no"?><svg xmlns="http://www.w3.org/2000/svg" xmlns:xlink="http://www.w3.org/1999/xlink" contentScriptType="application/ecmascript" contentStyleType="text/css" height="451px" preserveAspectRatio="none" style="width:578px;height:451px;background:#FFFFFF;" version="1.1" viewBox="0 0 578 451" width="578px" zoomAndPan="magnify"><defs><filter height="300%" id="f1oitp9sm17v62" width="300%" x="-1" y="-1"><feGaussianBlur result="blurOut" stdDeviation="2.0"/><feColorMatrix in="blurOut" result="blurOut2" type="matrix" values="0 0 0 0 0 0 0 0 0 0 0 0 0 0 0 0 0 0 .4 0"/><feOffset dx="4.0" dy="4.0" in="blurOut2" result="blurOut3"/><feBlend in="SourceGraphic" in2="blurOut3" mode="normal"/></filter></defs><g><!--MD5=[63e60b4e525f7b729b77c5a3e1b351bb]
cluster lxkns.model--><polygon fill="#FFFFFF" filter="url(#f1oitp9sm17v62)" points="16,6.602,107,6.602,114,31.6699,561,31.6699,561,444.602,16,444.602,16,6.602" style="stroke:#000000;stroke-width:1.5;"/><line style="stroke:#000000;stroke-width:1.5;" x1="16" x2="114" y1="31.6699" y2="31.6699"/><text fill="#000000" font-family="sans-serif" font-size="14" font-weight="bold" lengthAdjust="spacing" textLength="85" x="20" y="23.5679">lxkns.model</text><!--MD5=[bb370c11d182b7ebaea7e6fa83404e81]
class Process--><rect codeLine="7" fill="#FEFECE" filter="url(#f1oitp9sm17v62)" height="54.9819" id="Process" style="stroke:#A80036;stroke-width:1.5;" width="77" x="32.5" y="306.102"/><ellipse cx="47.95" cy="322.102" fill="#ADD1B2" rx="11" ry="11" style="stroke:#A80036;stroke-width:1.0;"/><path d="M47.4188,329.0239 Q45.6688,329.0239 44.5281,328.2895 Q43.4031,327.5395 42.8406,326.1957 Q42.2938,324.8364 42.2938,323.0395 Q42.2938,321.0082 42.95,319.5551 Q43.6063,318.102 44.8875,317.3207 Q46.1688,316.5395 48.0438,316.5395 Q48.9344,316.5395 49.6063,316.727 Q50.2781,316.8989 50.9656,317.2426 L50.1531,319.2582 Q49.5281,318.9457 48.9813,318.8207 Q48.45,318.6957 47.9656,318.6957 Q46.7938,318.6957 46.0906,319.227 Q45.3875,319.7582 45.0906,320.7114 Q44.7938,321.6645 44.7938,322.9301 Q44.7938,324.9457 45.5125,325.9145 Q46.2313,326.8676 47.825,326.8676 Q48.4188,326.8676 49.0438,326.7114 Q49.6688,326.5551 50.4969,326.1801 L50.4969,328.3989 Q49.7625,328.7114 48.9656,328.8676 Q48.1844,329.0239 47.4188,329.0239 Z " fill="#000000"/><text fill="#000000" font-family="sans-serif" font-size="12" lengthAdjust="spacing" textLength="44" x="62.05" y="326.758">Process</text><line style="stroke:#A80036;stroke-width:1.5;" x1="33.5" x2="108.5" y1="338.102" y2="338.102"/><path d="M45.38,346.1139 C45.2,346.1239 45.02,346.1439 44.85,346.2039 C44.58,346.3039 44.32,346.4539 44.1,346.6739 A0.5,0.5 0 1 0 44.79,347.3639 C44.9,347.2539 45.03,347.1939 45.17,347.1439 C45.52,347.0239 45.95,347.0739 46.23,347.3639 C46.62,347.7539 46.62,348.4039 46.23,348.8039 L44.73,350.3039 C44.29,350.7439 43.93,350.7839 43.67,350.7739 C43.41,350.7639 43.26,350.6439 43.26,350.6439 A0.5,0.5 0 1 0 42.76,351.5239 C43.1,351.7439 43.1,351.7439 43.6,351.7739 C44.1,351.8039 44.8,351.6139 45.41,350.9939 L46.91,349.4939 C47.69,348.7139 47.69,347.4539 46.91,346.6839 C46.63,346.4039 46.3,346.2339 45.94,346.1539 C45.76,346.1139 45.56,346.1139 45.38,346.1239 M43.38,348.4339 C42.88,348.4139 42.19,348.5839 41.6,349.1839 L40.1,350.6839 C39.32,351.4639 39.32,352.7239 40.1,353.4939 C40.66,354.0539 41.46,354.2139 42.16,353.9639 C42.43,353.8639 42.69,353.7139 42.91,353.4939 A0.5,0.5 0 1 0 42.22,352.8039 C42.11,352.9139 41.98,352.9739 41.84,353.0239 C41.49,353.1439 41.06,353.0939 40.78,352.8039 C40.39,352.4139 40.39,351.7639 40.78,351.3639 L42.28,349.8639 C42.68,349.4639 43.03,349.4139 43.31,349.4239 C43.59,349.4339 43.78,349.5139 43.78,349.5139 A0.5,0.5 0 1 0 44.22,348.6339 C43.88,348.4339 43.88,348.4339 43.38,348.4139 " fill="#000000" style="stroke:;stroke-width:0.0;stroke-dasharray:;"/><text fill="#000000" font-family="sans-serif" font-size="11" font-style="italic" lengthAdjust="spacing" textLength="52" x="51.5" y="353.8609">*Container</text><!--MD5=[e9a58730c562b34349daa605d1ed6662]
class Container--><rect codeLine="11" fill="#FEFECE" filter="url(#f1oitp9sm17v62)" height="189.8189" id="Container" style="stroke:#A80036;stroke-width:1.5;" width="144" x="217" y="238.602"/><ellipse cx="257.65" cy="254.602" fill="#ADD1B2" rx="11" ry="11" style="stroke:#A80036;stroke-width:1.0;"/><path d="M257.1188,261.5239 Q255.3687,261.5239 254.2281,260.7895 Q253.1031,260.0395 252.5406,258.6957 Q251.9937,257.3364 251.9937,255.5395 Q251.9937,253.5082 252.65,252.0551 Q253.3062,250.602 254.5875,249.8207 Q255.8687,249.0395 257.7438,249.0395 Q258.6344,249.0395 259.3063,249.227 Q259.9781,249.3989 260.6656,249.7426 L259.8531,251.7582 Q259.2281,251.4457 258.6813,251.3207 Q258.15,251.1957 257.6656,251.1957 Q256.4938,251.1957 255.7906,251.727 Q255.0875,252.2582 254.7906,253.2114 Q254.4937,254.1645 254.4937,255.4301 Q254.4937,257.4457 255.2125,258.4145 Q255.9312,259.3676 257.525,259.3676 Q258.1188,259.3676 258.7438,259.2114 Q259.3688,259.0551 260.1969,258.6801 L260.1969,260.8989 Q259.4625,261.2114 258.6656,261.3676 Q257.8844,261.5239 257.1188,261.5239 Z " fill="#000000"/><text fill="#000000" font-family="sans-serif" font-size="12" lengthAdjust="spacing" textLength="55" x="277.35" y="259.258">Container</text><line style="stroke:#A80036;stroke-width:1.5;" x1="218" x2="360" y1="270.602" y2="270.602"/><text fill="#000000" font-family="sans-serif" font-size="11" lengthAdjust="spacing" textLength="46" x="223" y="286.3609">ID string</text><text fill="#000000" font-family="sans-serif" font-size="11" lengthAdjust="spacing" textLength="64" x="223" y="301.3428">Name string</text><text fill="#000000" font-family="sans-serif" font-size="11" lengthAdjust="spacing" textLength="36" x="223" y="316.3247">PID int</text><text fill="#000000" font-family="sans-serif" font-size="11" lengthAdjust="spacing" textLength="59" x="223" y="331.3066">Type string</text><text fill="#000000" font-family="sans-serif" font-size="11" lengthAdjust="spacing" textLength="67" x="223" y="346.2884">Flavor string</text><text fill="#000000" font-family="sans-serif" font-size="11" lengthAdjust="spacing" textLength="65" x="223" y="361.2703">Paused bool</text><text fill="#000000" font-family="sans-serif" font-size="11" lengthAdjust="spacing" textLength="129" x="223" y="376.2522">Labels map[string]string</text><path d="M229.88,383.4871 C229.7,383.4971 229.52,383.5171 229.35,383.5771 C229.08,383.6771 228.82,383.8271 228.6,384.0471 A0.5,0.5 0 1 0 229.29,384.7371 C229.4,384.6271 229.53,384.5671 229.67,384.5171 C230.02,384.3971 230.45,384.4471 230.73,384.7371 C231.12,385.1271 231.12,385.7771 230.73,386.1771 L229.23,387.6771 C228.79,388.1171 228.43,388.1571 228.17,388.1471 C227.91,388.1371 227.76,388.0171 227.76,388.0171 A0.5,0.5 0 1 0 227.26,388.8971 C227.6,389.1171 227.6,389.1171 228.1,389.1471 C228.6,389.1771 229.3,388.9871 229.91,388.3671 L231.41,386.8671 C232.19,386.0871 232.19,384.8271 231.41,384.0571 C231.13,383.7771 230.8,383.6071 230.44,383.5271 C230.26,383.4871 230.06,383.4871 229.88,383.4971 M227.88,385.8071 C227.38,385.7871 226.69,385.9571 226.1,386.5571 L224.6,388.0571 C223.82,388.8371 223.82,390.0971 224.6,390.8671 C225.16,391.4271 225.96,391.5871 226.66,391.3371 C226.93,391.2371 227.19,391.0871 227.41,390.8671 A0.5,0.5 0 1 0 226.72,390.1771 C226.61,390.2871 226.48,390.3471 226.34,390.3971 C225.99,390.5171 225.56,390.4671 225.28,390.1771 C224.89,389.7871 224.89,389.1371 225.28,388.7371 L226.78,387.2371 C227.18,386.8371 227.53,386.7871 227.81,386.7971 C228.09,386.8071 228.28,386.8871 228.28,386.8871 A0.5,0.5 0 1 0 228.72,386.0071 C228.38,385.8071 228.38,385.8071 227.88,385.7871 " fill="#000000" style="stroke:;stroke-width:0.0;stroke-dasharray:;"/><text fill="#000000" font-family="sans-serif" font-size="11" font-style="italic" lengthAdjust="spacing" textLength="78" x="236" y="391.2341">Groups []*Group</text><path d="M229.88,398.469 C229.7,398.479 229.52,398.499 229.35,398.559 C229.08,398.659 228.82,398.809 228.6,399.029 A0.5,0.5 0 1 0 229.29,399.719 C229.4,399.609 229.53,399.549 229.67,399.499 C230.02,399.379 230.45,399.429 230.73,399.719 C231.12,400.109 231.12,400.759 230.73,401.159 L229.23,402.659 C228.79,403.099 228.43,403.139 228.17,403.129 C227.91,403.119 227.76,402.999 227.76,402.999 A0.5,0.5 0 1 0 227.26,403.879 C227.6,404.099 227.6,404.099 228.1,404.129 C228.6,404.159 229.3,403.969 229.91,403.349 L231.41,401.849 C232.19,401.069 232.19,399.809 231.41,399.039 C231.13,398.759 230.8,398.589 230.44,398.509 C230.26,398.469 230.06,398.469 229.88,398.479 M227.88,400.789 C227.38,400.769 226.69,400.939 226.1,401.539 L224.6,403.039 C223.82,403.819 223.82,405.079 224.6,405.849 C225.16,406.409 225.96,406.569 226.66,406.319 C226.93,406.219 227.19,406.069 227.41,405.849 A0.5,0.5 0 1 0 226.72,405.159 C226.61,405.269 226.48,405.329 226.34,405.379 C225.99,405.499 225.56,405.449 225.28,405.159 C224.89,404.769 224.89,404.119 225.28,403.719 L226.78,402.219 C227.18,401.819 227.53,401.769 227.81,401.779 C228.09,401.789 228.28,401.869 228.28,401.869 A0.5,0.5 0 1 0 228.72,400.989 C228.38,400.789 228.38,400.789 227.88,400.769 " fill="#000000" style="stroke:;stroke-width:0.0;stroke-dasharray:;"/><text fill="#000000" font-family="sans-serif" font-size="11" font-style="italic" lengthAdjust="spacing" textLength="119" x="236" y="406.216">Engine *ContainerEngine</text><path d="M229.88,413.4509 C229.7,413.4609 229.52,413.4809 229.35,413.5409 C229.08,413.6409 228.82,413.7909 228.6,414.0109 A0.5,0.5 0 1 0 229.29,414.7009 C229.4,414.5909 229.53,414.5309 229.67,414.4809 C230.02,414.3609 230.45,414.4109 230.73,414.7009 C231.12,415.0909 231.12,415.7409 230.73,416.1409 L229.23,417.6409 C228.79,418.0809 228.43,418.1209 228.17,418.1109 C227.91,418.1009 227.76,417.9809 227.76,417.9809 A0.5,0.5 0 1 0 227.26,418.8609 C227.6,419.0809 227.6,419.0809 228.1,419.1109 C228.6,419.1409 229.3,418.9509 229.91,418.3309 L231.41,416.8309 C232.19,416.0509 232.19,414.7909 231.41,414.0209 C231.13,413.7409 230.8,413.5709 230.44,413.4909 C230.26,413.4509 230.06,413.4509 229.88,413.4609 M227.88,415.7709 C227.38,415.7509 226.69,415.9209 226.1,416.5209 L224.6,418.0209 C223.82,418.8009 223.82,420.0609 224.6,420.8309 C225.16,421.3909 225.96,421.5509 226.66,421.3009 C226.93,421.2009 227.19,421.0509 227.41,420.8309 A0.5,0.5 0 1 0 226.72,420.1409 C226.61,420.2509 226.48,420.3109 226.34,420.3609 C225.99,420.4809 225.56,420.4309 225.28,420.1409 C224.89,419.7509 224.89,419.1009 225.28,418.7009 L226.78,417.2009 C227.18,416.8009 227.53,416.7509 227.81,416.7609 C228.09,416.7709 228.28,416.8509 228.28,416.8509 A0.5,0.5 0 1 0 228.72,415.9709 C228.38,415.7709 228.38,415.7709 227.88,415.7509 " fill="#000000" style="stroke:;stroke-width:0.0;stroke-dasharray:;"/><text fill="#000000" font-family="sans-serif" font-size="11" font-style="italic" lengthAdjust="spacing" textLength="81" x="236" y="421.1979">Process *Process</text><!--MD5=[41314a0efc36828092cff9ebad2fcafd]
class Group--><rect codeLine="27" fill="#FEFECE" filter="url(#f1oitp9sm17v62)" height="114.9094" id="Group" style="stroke:#A80036;stroke-width:1.5;" width="141" x="403.5" y="276.102"/><ellipse cx="452.25" cy="292.102" fill="#ADD1B2" rx="11" ry="11" style="stroke:#A80036;stroke-width:1.0;"/><path d="M451.7188,299.0239 Q449.9688,299.0239 448.8281,298.2895 Q447.7031,297.5395 447.1406,296.1957 Q446.5938,294.8364 446.5938,293.0395 Q446.5938,291.0082 447.25,289.5551 Q447.9063,288.102 449.1875,287.3207 Q450.4688,286.5395 452.3438,286.5395 Q453.2344,286.5395 453.9063,286.727 Q454.5781,286.8989 455.2656,287.2426 L454.4531,289.2582 Q453.8281,288.9457 453.2813,288.8207 Q452.75,288.6957 452.2656,288.6957 Q451.0938,288.6957 450.3906,289.227 Q449.6875,289.7582 449.3906,290.7114 Q449.0938,291.6645 449.0938,292.9301 Q449.0938,294.9457 449.8125,295.9145 Q450.5313,296.8676 452.125,296.8676 Q452.7188,296.8676 453.3438,296.7114 Q453.9688,296.5551 454.7969,296.1801 L454.7969,298.3989 Q454.0625,298.7114 453.2656,298.8676 Q452.4844,299.0239 451.7188,299.0239 Z " fill="#000000"/><text fill="#000000" font-family="sans-serif" font-size="12" lengthAdjust="spacing" textLength="35" x="472.75" y="296.758">Group</text><line style="stroke:#A80036;stroke-width:1.5;" x1="404.5" x2="543.5" y1="308.102" y2="308.102"/><text fill="#000000" font-family="sans-serif" font-size="11" lengthAdjust="spacing" textLength="64" x="409.5" y="323.8609">Name string</text><text fill="#000000" font-family="sans-serif" font-size="11" lengthAdjust="spacing" textLength="59" x="409.5" y="338.8428">Type string</text><text fill="#000000" font-family="sans-serif" font-size="11" lengthAdjust="spacing" textLength="67" x="409.5" y="353.8247">Flavor string</text><text fill="#000000" font-family="sans-serif" font-size="11" lengthAdjust="spacing" textLength="129" x="409.5" y="368.8066">Labels map[string]string</text><path d="M416.38,376.0414 C416.2,376.0514 416.02,376.0714 415.85,376.1314 C415.58,376.2314 415.32,376.3814 415.1,376.6014 A0.5,0.5 0 1 0 415.79,377.2914 C415.9,377.1814 416.03,377.1214 416.17,377.0714 C416.52,376.9514 416.95,377.0014 417.23,377.2914 C417.62,377.6814 417.62,378.3314 417.23,378.7314 L415.73,380.2314 C415.29,380.6714 414.93,380.7114 414.67,380.7014 C414.41,380.6914 414.26,380.5714 414.26,380.5714 A0.5,0.5 0 1 0 413.76,381.4514 C414.1,381.6714 414.1,381.6714 414.6,381.7014 C415.1,381.7314 415.8,381.5414 416.41,380.9214 L417.91,379.4214 C418.69,378.6414 418.69,377.3814 417.91,376.6114 C417.63,376.3314 417.3,376.1614 416.94,376.0814 C416.76,376.0414 416.56,376.0414 416.38,376.0514 M414.38,378.3614 C413.88,378.3414 413.19,378.5114 412.6,379.1114 L411.1,380.6114 C410.32,381.3914 410.32,382.6514 411.1,383.4214 C411.66,383.9814 412.46,384.1414 413.16,383.8914 C413.43,383.7914 413.69,383.6414 413.91,383.4214 A0.5,0.5 0 1 0 413.22,382.7314 C413.11,382.8414 412.98,382.9014 412.84,382.9514 C412.49,383.0714 412.06,383.0214 411.78,382.7314 C411.39,382.3414 411.39,381.6914 411.78,381.2914 L413.28,379.7914 C413.68,379.3914 414.03,379.3414 414.31,379.3514 C414.59,379.3614 414.78,379.4414 414.78,379.4414 A0.5,0.5 0 1 0 415.22,378.5614 C414.88,378.3614 414.88,378.3614 414.38,378.3414 " fill="#000000" style="stroke:;stroke-width:0.0;stroke-dasharray:;"/><text fill="#000000" font-family="sans-serif" font-size="11" font-style="italic" lengthAdjust="spacing" textLength="112" x="422.5" y="383.7884">Containers []*Container</text><!--MD5=[e127c15f58f060a6c28a2c8ea701a177]
class ContainerEngine--><rect codeLine="35" fill="#FEFECE" filter="url(#f1oitp9sm17v62)" height="114.9094" id="ContainerEngine" style="stroke:#A80036;stroke-width:1.5;" width="137" x="220.5" y="44.602"/><ellipse cx="240.9" cy="60.602" fill="#ADD1B2" rx="11" ry="11" style="stroke:#A80036;stroke-width:1.0;"/><path d="M240.3688,67.5239 Q238.6188,67.5239 237.4781,66.7895 Q236.3531,66.0395 235.7906,64.6957 Q235.2438,63.3364 235.2438,61.5395 Q235.2438,59.5082 235.9,58.0551 Q236.5563,56.602 237.8375,55.8207 Q239.1188,55.0395 240.9938,55.0395 Q241.8844,55.0395 242.5563,55.227 Q243.2281,55.3989 243.9156,55.7426 L243.1031,57.7582 Q242.4781,57.4457 241.9313,57.3207 Q241.4,57.1957 240.9156,57.1957 Q239.7438,57.1957 239.0406,57.727 Q238.3375,58.2582 238.0406,59.2114 Q237.7438,60.1645 237.7438,61.4301 Q237.7438,63.4457 238.4625,64.4145 Q239.1813,65.3676 240.775,65.3676 Q241.3688,65.3676 241.9938,65.2114 Q242.6188,65.0551 243.4469,64.6801 L243.4469,66.8989 Q242.7125,67.2114 241.9156,67.3676 Q241.1344,67.5239 240.3688,67.5239 Z " fill="#000000"/><text fill="#000000" font-family="sans-serif" font-size="12" lengthAdjust="spacing" textLength="93" x="256.1" y="65.258">ContainerEngine</text><line style="stroke:#A80036;stroke-width:1.5;" x1="221.5" x2="356.5" y1="76.602" y2="76.602"/><text fill="#000000" font-family="sans-serif" font-size="11" lengthAdjust="spacing" textLength="46" x="226.5" y="92.3609">ID string</text><text fill="#000000" font-family="sans-serif" font-size="11" lengthAdjust="spacing" textLength="59" x="226.5" y="107.3428">Type string</text><text fill="#000000" font-family="sans-serif" font-size="11" lengthAdjust="spacing" textLength="52" x="226.5" y="122.3247">API string</text><text fill="#000000" font-family="sans-serif" font-size="11" lengthAdjust="spacing" textLength="36" x="226.5" y="137.3066">PID int</text><path d="M233.38,144.5414 C233.2,144.5514 233.02,144.5714 232.85,144.6314 C232.58,144.7314 232.32,144.8814 232.1,145.1014 A0.5,0.5 0 1 0 232.79,145.7914 C232.9,145.6814 233.03,145.6214 233.17,145.5714 C233.52,145.4514 233.95,145.5014 234.23,145.7914 C234.62,146.1814 234.62,146.8314 234.23,147.2314 L232.73,148.7314 C232.29,149.1714 231.93,149.2114 231.67,149.2014 C231.41,149.1914 231.26,149.0714 231.26,149.0714 A0.5,0.5 0 1 0 230.76,149.9514 C231.1,150.1714 231.1,150.1714 231.6,150.2014 C232.1,150.2314 232.8,150.0414 233.41,149.4214 L234.91,147.9214 C235.69,147.1414 235.69,145.8814 234.91,145.1114 C234.63,144.8314 234.3,144.6614 233.94,144.5814 C233.76,144.5414 233.56,144.5414 233.38,144.5514 M231.38,146.8614 C230.88,146.8414 230.19,147.0114 229.6,147.6114 L228.1,149.1114 C227.32,149.8914 227.32,151.1514 228.1,151.9214 C228.66,152.4814 229.46,152.6414 230.16,152.3914 C230.43,152.2914 230.69,152.1414 230.91,151.9214 A0.5,0.5 0 1 0 230.22,151.2314 C230.11,151.3414 229.98,151.4014 229.84,151.4514 C229.49,151.5714 229.06,151.5214 228.78,151.2314 C228.39,150.8414 228.39,150.1914 228.78,149.7914 L230.28,148.2914 C230.68,147.8914 231.03,147.8414 231.31,147.8514 C231.59,147.8614 231.78,147.9414 231.78,147.9414 A0.5,0.5 0 1 0 232.22,147.0614 C231.88,146.8614 231.88,146.8614 231.38,146.8414 " fill="#000000" style="stroke:;stroke-width:0.0;stroke-dasharray:;"/><text fill="#000000" font-family="sans-serif" font-size="11" font-style="italic" lengthAdjust="spacing" textLength="112" x="239.5" y="152.2884">Containers []*Container</text><!--MD5=[b5382eb40fea0b25cbaef2383d79e11f]
reverse link Process to Container--><path codeLine="24" d="M115.05,333.602 C144.19,333.602 183.1,333.602 216.72,333.602 " fill="none" id="Process-backto-Container" style="stroke:#A80036;stroke-width:1.0;"/><polygon fill="#A80036" points="109.72,333.602,118.72,337.602,114.72,333.602,118.72,329.602,109.72,333.602" style="stroke:#A80036;stroke-width:1.0;"/><text fill="#000000" font-family="sans-serif" font-size="13" lengthAdjust="spacing" textLength="59" x="127.75" y="326.499">Container</text><text fill="#000000" font-family="sans-serif" font-size="13" lengthAdjust="spacing" textLength="17" x="192.0207" y="329.7311">0,1</text><!--MD5=[b5382eb40fea0b25cbaef2383d79e11f]
reverse link Process to Container--><path codeLine="25" d="M114.78,349.922 C122.81,352.282 131.2,354.342 139.25,355.602 C164.56,359.582 192.31,357.342 216.98,353.032 " fill="none" id="Process-backto-Container-1" style="stroke:#A80036;stroke-width:1.0;"/><polygon fill="#A80036" points="109.83,348.422,117.2747,354.87,114.6132,349.8784,119.6049,347.2169,109.83,348.422" style="stroke:#A80036;stroke-width:1.0;"/><text fill="#000000" font-family="sans-serif" font-size="13" lengthAdjust="spacing" textLength="46" x="140.25" y="351.499">Process</text><!--MD5=[4876b824079cfc565f27bcf9dacb20f0]
link ContainerEngine to Container--><path codeLine="43" d="M289,159.832 C289,183.592 289,211.852 289,238.572 " fill="none" id="ContainerEngine-Container" style="stroke:#A80036;stroke-width:1.0;"/><text fill="#000000" font-family="sans-serif" font-size="13" lengthAdjust="spacing" textLength="0" x="296" y="204.499"/><text fill="#000000" font-family="sans-serif" font-size="13" lengthAdjust="spacing" textLength="7" x="281.5953" y="181.4329">1</text><text fill="#000000" font-family="sans-serif" font-size="13" lengthAdjust="spacing" textLength="20" x="268.1719" y="226.9322">1..*</text><!--MD5=[8832a870e9d37de3287b9d2157fbb3b9]
link Container to Group--><path codeLine="44" d="M361.06,333.602 C374.95,333.602 389.5,333.602 403.36,333.602 " fill="none" id="Container-Group" style="stroke:#A80036;stroke-width:1.0;"/><text fill="#000000" font-family="sans-serif" font-size="13" lengthAdjust="spacing" textLength="0" x="385.25" y="326.499"/><text fill="#000000" font-family="sans-serif" font-size="13" lengthAdjust="spacing" textLength="7" x="368.8521" y="329.6682">*</text><text fill="#000000" font-family="sans-serif" font-size="13" lengthAdjust="spacing" textLength="7" x="388.7143" y="329.6635">*</text><!--MD5=[3f0594cef50411270ca97ce5912aa87a]
@startuml lxkns-containers
hide empty fields
hide empty methods
!define L <size:12><&link-intact></size><i>

package "lxkns.model" {

class Process {
  L *Container
}

class Container {
  ID string
  Name string
  PID int
  Type string
  Flavor string
  Paused bool
  Labels map[string]string
  L Groups []*Group
  L Engine *ContainerEngine
  L Process *Process
}

Process <- "0,1" Container : "Container    "
Process <- Container : "Process"

class Group {
    Name string
    Type string
    Flavor string
    Labels map[string]string
    L Containers []*Container
}

class ContainerEngine {
    ID string
    Type string
    API string
    PID int
    L Containers []*Container
}

ContainerEngine "1" - - "1..*" Container : "  "
Container "*" - "*" Group : "  "

}

@enduml

@startuml lxkns-containers
hide empty fields
hide empty methods

package "lxkns.model" {

class Process {
  <size:12><&link-intact></size><i> *Container
}

class Container {
  ID string
  Name string
  PID int
  Type string
  Flavor string
  Paused bool
  Labels map[string]string
  <size:12><&link-intact></size><i> Groups []*Group
  <size:12><&link-intact></size><i> Engine *ContainerEngine
  <size:12><&link-intact></size><i> Process *Process
}

Process <- "0,1" Container : "Container    "
Process <- Container : "Process"

class Group {
    Name string
    Type string
    Flavor string
    Labels map[string]string
    <size:12><&link-intact></size><i> Containers []*Container
}

class ContainerEngine {
    ID string
    Type string
    API string
    PID int
    <size:12><&link-intact></size><i> Containers []*Container
}

ContainerEngine "1" - - "1..*" Container : "  "
Container "*" - "*" Group : "  "

}

@enduml

PlantUML version 1.2021.7(Sun May 23 14:40:07 CEST 2021)
(GPL source distribution)
Java Runtime: OpenJDK Runtime Environment
JVM: OpenJDK 64-Bit Server VM
Default Encoding: UTF-8
Language: en
Country: null
--></g></svg>