<?xml version="1.0" encoding="UTF-8" standalone="no"?><svg xmlns="http://www.w3.org/2000/svg" xmlns:xlink="http://www.w3.org/1999/xlink" contentStyleType="text/css" height="417px" preserveAspectRatio="none" style="width:674px;height:417px;background:#FFFFFF;" version="1.1" viewBox="0 0 674 417" width="674px" zoomAndPan="magnify"><defs/><g><!--MD5=[b218a1f8144c717cd4284a81240038db]
cluster lxkns--><g id="cluster_lxkns"><path d="M8.5,6.602 L46.5,6.602 A3.75,3.75 0 0 1 49,9.102 L56,31.6699 L664.5,31.6699 A2.5,2.5 0 0 1 667,34.1699 L667,408.102 A2.5,2.5 0 0 1 664.5,410.602 L8.5,410.602 A2.5,2.5 0 0 1 6,408.102 L6,9.102 A2.5,2.5 0 0 1 8.5,6.602 " fill="none" style="stroke:#000000;stroke-width:1.5;"/><line style="stroke:#000000;stroke-width:1.5;" x1="6" x2="56" y1="31.6699" y2="31.6699"/><text fill="#000000" font-family="sans-serif" font-size="14" font-weight="bold" lengthAdjust="spacing" textLength="37" x="10" y="23.5679">lxkns</text></g><!--MD5=[3a5a15330eb7efddcc345f62c26c3507]
class lxkns.Discover--><g id="elem_lxkns.Discover"><rect codeLine="6" fill="#F1F1F1" height="59.0679" id="lxkns.Discover" rx="2.5" ry="2.5" style="stroke:#181818;stroke-width:0.5;" width="317" x="173.5" y="44.602"/><ellipse cx="325.75" cy="60.602" fill="#D3D3D3" rx="11" ry="11" style="stroke:#181818;stroke-width:1.0;"/><path d="M322.1094,67.102 L322.1094,54.9614 L329.7656,54.9614 L329.7656,57.0864 L324.4844,57.0864 L324.4844,60.2582 L329.5,60.2582 L329.5,62.3832 L324.4844,62.3832 L324.4844,67.102 L322.1094,67.102 Z " fill="#000000"/><text fill="#000000" font-family="sans-serif" font-size="14" lengthAdjust="spacing" textLength="4" x="346.25" y="66.034"> </text><line style="stroke:#181818;stroke-width:0.5;" x1="174.5" x2="489.5" y1="76.602" y2="76.602"/><text fill="#000000" font-family="sans-serif" font-size="14" lengthAdjust="spacing" textLength="305" x="179.5" y="95.5679">Discover(opts DiscoverOpts) *DiscoveryResult</text></g><!--MD5=[a9367cd9f70b3301293738e4f5d25664]
class lxkns.DiscoverOpts--><g id="elem_lxkns.DiscoverOpts"><rect codeLine="13" fill="#F1F1F1" height="211.6113" id="lxkns.DiscoverOpts" rx="2.5" ry="2.5" style="stroke:#181818;stroke-width:0.5;" width="299" x="22.5" y="182.602"/><ellipse cx="123.25" cy="198.602" fill="#9ACD32" rx="11" ry="11" style="stroke:#181818;stroke-width:1.0;"/><path d="M122.9219,205.2739 Q122,205.2739 121.1094,205.102 Q120.2188,204.9145 119.4375,204.5395 L119.4375,202.2895 Q120.3906,202.7739 121.2656,203.0082 Q122.1563,203.227 123,203.227 Q123.875,203.227 124.4375,202.9301 Q125,202.6332 125,201.852 Q125,201.3051 124.7031,201.0082 Q124.4063,200.6957 123.8438,200.4145 Q123.2813,200.1332 122.5,199.727 Q121.7188,199.3051 121.0625,198.8207 Q120.4219,198.3207 120.0469,197.6489 Q119.6719,196.977 119.6719,196.0239 Q119.6719,194.3989 120.7656,193.602 Q121.875,192.7895 123.6563,192.7895 Q124.375,192.7895 125.3594,192.9614 Q126.3438,193.1176 127.2969,193.5707 L126.5156,195.4926 Q125.6719,195.1332 124.9844,194.9926 Q124.3125,194.8364 123.7969,194.8364 Q122.9531,194.8364 122.5625,195.1801 Q122.1875,195.5082 122.1875,196.1489 Q122.1875,196.6332 122.4219,196.9457 Q122.6719,197.2426 123.1406,197.4926 Q123.625,197.7426 124.3594,198.1176 Q125.3594,198.602 126.0625,199.0707 Q126.7656,199.5395 127.1406,200.1645 Q127.5156,200.7739 127.5156,201.7114 Q127.5156,202.8989 126.9375,203.6957 Q126.375,204.477 125.3281,204.8832 Q124.2969,205.2739 122.9219,205.2739 Z " fill="#000000"/><text fill="#000000" font-family="sans-serif" font-size="14" lengthAdjust="spacing" textLength="89" x="143.75" y="204.034">DiscoverOpts</text><line style="stroke:#181818;stroke-width:0.5;" x1="23.5" x2="320.5" y1="214.602" y2="214.602"/><text fill="#000000" font-family="sans-serif" font-size="14" lengthAdjust="spacing" textLength="287" x="28.5" y="233.5679">NamespaceTypes species.NamespaceType</text><text fill="#000000" font-family="sans-serif" font-size="14" lengthAdjust="spacing" textLength="101" x="28.5" y="252.6358">ScanProcs bool</text><text fill="#000000" font-family="sans-serif" font-size="14" lengthAdjust="spacing" textLength="88" x="28.5" y="271.7038">ScanFds bool</text><text fill="#000000" font-family="sans-serif" font-size="14" lengthAdjust="spacing" textLength="147" x="28.5" y="290.7717">ScanBindmounts bool</text><text fill="#000000" font-family="sans-serif" font-size="14" lengthAdjust="spacing" textLength="155" x="28.5" y="309.8396">DiscoverHierarchy bool</text><text fill="#000000" font-family="sans-serif" font-size="14" lengthAdjust="spacing" textLength="164" x="28.5" y="328.9075">DiscoverOwnership bool</text><text fill="#000000" font-family="sans-serif" font-size="14" lengthAdjust="spacing" textLength="174" x="28.5" y="347.9754">DiscoverFreezerState bool</text><text fill="#000000" font-family="sans-serif" font-size="14" lengthAdjust="spacing" textLength="141" x="28.5" y="367.0433">DiscoverMounts bool</text><text fill="#000000" font-family="sans-serif" font-size="14" lengthAdjust="spacing" textLength="279" x="28.5" y="386.1113">Containerizer containerizer.Containerizer</text></g><!--MD5=[b57205d3e73c55ee3965a0a195866d94]
class lxkns.DiscoveryResult--><g id="elem_lxkns.DiscoveryResult"><rect codeLine="25" fill="#F1F1F1" height="154.4075" id="lxkns.DiscoveryResult" rx="2.5" ry="2.5" style="stroke:#181818;stroke-width:0.5;" width="294" x="357" y="211.602"/><ellipse cx="446.75" cy="227.602" fill="#9ACD32" rx="11" ry="11" style="stroke:#181818;stroke-width:1.0;"/><path d="M446.4219,234.2739 Q445.5,234.2739 444.6094,234.102 Q443.7188,233.9145 442.9375,233.5395 L442.9375,231.2895 Q443.8906,231.7739 444.7656,232.0082 Q445.6563,232.227 446.5,232.227 Q447.375,232.227 447.9375,231.9301 Q448.5,231.6332 448.5,230.852 Q448.5,230.3051 448.2031,230.0082 Q447.9063,229.6957 447.3438,229.4145 Q446.7813,229.1332 446,228.727 Q445.2188,228.3051 444.5625,227.8207 Q443.9219,227.3207 443.5469,226.6489 Q443.1719,225.977 443.1719,225.0239 Q443.1719,223.3989 444.2656,222.602 Q445.375,221.7895 447.1563,221.7895 Q447.875,221.7895 448.8594,221.9614 Q449.8438,222.1176 450.7969,222.5707 L450.0156,224.4926 Q449.1719,224.1332 448.4844,223.9926 Q447.8125,223.8364 447.2969,223.8364 Q446.4531,223.8364 446.0625,224.1801 Q445.6875,224.5082 445.6875,225.1489 Q445.6875,225.6332 445.9219,225.9457 Q446.1719,226.2426 446.6406,226.4926 Q447.125,226.7426 447.8594,227.1176 Q448.8594,227.602 449.5625,228.0707 Q450.2656,228.5395 450.6406,229.1645 Q451.0156,229.7739 451.0156,230.7114 Q451.0156,231.8989 450.4375,232.6957 Q449.875,233.477 448.8281,233.8832 Q447.7969,234.2739 446.4219,234.2739 Z " fill="#000000"/><text fill="#000000" font-family="sans-serif" font-size="14" lengthAdjust="spacing" textLength="106" x="467.25" y="233.034">DiscoveryResult</text><line style="stroke:#181818;stroke-width:0.5;" x1="358" x2="650" y1="243.602" y2="243.602"/><text fill="#000000" font-family="sans-serif" font-size="14" lengthAdjust="spacing" textLength="146" x="363" y="262.5679">Options DiscoverOpts</text><text fill="#000000" font-family="sans-serif" font-size="14" lengthAdjust="spacing" textLength="239" x="363" y="281.6358">Namespaces model.AllNamespaces</text><text fill="#000000" font-family="sans-serif" font-size="14" lengthAdjust="spacing" textLength="282" x="363" y="300.7038">InitialNamespaces model.NamespacesSet</text><text fill="#000000" font-family="sans-serif" font-size="14" lengthAdjust="spacing" textLength="204" x="363" y="319.7717">Processes model.ProcessTable</text><text fill="#000000" font-family="sans-serif" font-size="14" lengthAdjust="spacing" textLength="247" x="363" y="338.8396">Mounts NamespacedMountPathMap</text><text fill="#000000" font-family="sans-serif" font-size="14" lengthAdjust="spacing" textLength="207" x="363" y="357.9075">Containers []*model.Container</text></g><!--MD5=[400c1bc9ff25948cfff8370b245bfe32]
reverse link lxkns.Discover to lxkns.DiscoverOpts--><g id="link_lxkns.Discover_lxkns.DiscoverOpts"><path codeLine="10" d="M307.26,107.952 C292.08,128.112 271.72,155.172 251.4,182.152 " fill="none" id="lxkns.Discover-backto-lxkns.DiscoverOpts" style="stroke:#181818;stroke-width:1.0;stroke-dasharray:7.0,7.0;"/><polygon fill="#181818" points="310.42,103.762,301.8009,108.5275,307.404,107.7499,308.1816,113.3531,310.42,103.762" style="stroke:#181818;stroke-width:1.0;"/><text fill="#000000" font-family="sans-serif" font-size="13" lengthAdjust="spacing" textLength="49" x="285" y="148.499">controls</text></g><!--MD5=[ba03fa83e550507b83669ad77386a16e]
link lxkns.Discover to lxkns.DiscoveryResult--><g id="link_lxkns.Discover_lxkns.DiscoveryResult"><path codeLine="11" d="M355.2,103.762 C376.7,130.322 409.71,171.112 439.18,207.522 " fill="none" id="lxkns.Discover-to-lxkns.DiscoveryResult" style="stroke:#181818;stroke-width:1.0;stroke-dasharray:7.0,7.0;"/><polygon fill="#181818" points="442.39,211.482,439.8191,201.9746,439.237,207.6014,433.6102,207.0193,442.39,211.482" style="stroke:#181818;stroke-width:1.0;"/><text fill="#000000" font-family="sans-serif" font-size="13" lengthAdjust="spacing" textLength="44" x="393" y="148.499">returns</text></g><!--MD5=[6d94a3954af7d3ea58c27b5e7cb4a19c]
@startuml namespaces-discovery
hide empty fields
hide empty methods

namespace lxkns {
  
  class Discover as " " <<(F,LightGray)>> {
    Discover(opts DiscoverOpts) *DiscoveryResult
  }
  
  Discover <.. DiscoverOpts : "controls"
  Discover ..> DiscoveryResult : "returns"
  
  class "DiscoverOpts" <<(S,YellowGreen)>> {
    NamespaceTypes species.NamespaceType
    ScanProcs bool
    ScanFds bool
    ScanBindmounts bool
    DiscoverHierarchy bool
    DiscoverOwnership bool
    DiscoverFreezerState bool
    DiscoverMounts bool
    Containerizer containerizer.Containerizer
  }
  
  class "DiscoveryResult" <<(S,YellowGreen)>> {
    Options DiscoverOpts
    Namespaces model.AllNamespaces
    InitialNamespaces model.NamespacesSet
    ' TODO: Root(s)
    Processes model.ProcessTable
    Mounts NamespacedMountPathMap
    Containers []*model.Container
  }
  
}

@enduml

@startuml namespaces-discovery
hide empty fields
hide empty methods

namespace lxkns {
  
  class Discover as " " <<(F,LightGray)>> {
    Discover(opts DiscoverOpts) *DiscoveryResult
  }
  
  Discover <.. DiscoverOpts : "controls"
  Discover ..> DiscoveryResult : "returns"
  
  class "DiscoverOpts" <<(S,YellowGreen)>> {
    NamespaceTypes species.NamespaceType
    ScanProcs bool
    ScanFds bool
    ScanBindmounts bool
    DiscoverHierarchy bool
    DiscoverOwnership bool
    DiscoverFreezerState bool
    DiscoverMounts bool
    Containerizer containerizer.Containerizer
  }
  
  class "DiscoveryResult" <<(S,YellowGreen)>> {
    Options DiscoverOpts
    Namespaces model.AllNamespaces
    InitialNamespaces model.NamespacesSet
    Processes model.ProcessTable
    Mounts NamespacedMountPathMap
    Containers []*model.Container
  }
  
}

@enduml

PlantUML version 1.2022.7(Mon Aug 22 19:01:30 CEST 2022)
(GPL source distribution)
Java Runtime: OpenJDK Runtime Environment
JVM: OpenJDK 64-Bit Server VM
Default Encoding: UTF-8
Language: en
Country: US
--></g></svg>