<?xml version="1.0" encoding="UTF-8" standalone="no"?><svg xmlns="http://www.w3.org/2000/svg" xmlns:xlink="http://www.w3.org/1999/xlink" contentStyleType="text/css" height="436px" preserveAspectRatio="none" style="width:674px;height:436px;background:#FFFFFF;" version="1.1" viewBox="0 0 674 436" width="674px" zoomAndPan="magnify"><defs/><g><!--MD5=[b218a1f8144c717cd4284a81240038db]
cluster lxkns--><g id="cluster_lxkns"><path d="M8.5,6.602 L46.5,6.602 A3.75,3.75 0 0 1 49,9.102 L56,31.6699 L664.5,31.6699 A2.5,2.5 0 0 1 667,34.1699 L667,427.102 A2.5,2.5 0 0 1 664.5,429.602 L8.5,429.602 A2.5,2.5 0 0 1 6,427.102 L6,9.102 A2.5,2.5 0 0 1 8.5,6.602 " fill="none" style="stroke:#000000;stroke-width:1.5;"/><line style="stroke:#000000;stroke-width:1.5;" x1="6" x2="56" y1="31.6699" y2="31.6699"/><text fill="#000000" font-family="sans-serif" font-size="14" font-weight="bold" lengthAdjust="spacing" textLength="37" x="10" y="23.5679">lxkns</text></g><!--MD5=[3a5a15330eb7efddcc345f62c26c3507]
class lxkns.Discover--><g id="elem_lxkns.Discover"><rect codeLine="6" fill="#F1F1F1" height="59.0679" id="lxkns.Discover" rx="2.5" ry="2.5" style="stroke:#181818;stroke-width:0.5;" width="317" x="173.5" y="44.602"/><ellipse cx="325.75" cy="60.602" fill="#D3D3D3" rx="11" ry="11" style="stroke:#181818;stroke-width:1.0;"/><path d="M322.1094,67.102 L322.1094,54.9614 L329.7656,54.9614 L329.7656,57.0864 L324.4844,57.0864 L324.4844,60.2582 L329.5,60.2582 L329.5,62.3832 L324.4844,62.3832 L324.4844,67.102 L322.1094,67.102 Z " fill="#000000"/><text fill="#000000" font-family="sans-serif" font-size="14" lengthAdjust="spacing" textLength="4" x="346.25" y="66.034"> </text><line style="stroke:#181818;stroke-width:0.5;" x1="174.5" x2="489.5" y1="76.602" y2="76.602"/><text fill="#000000" font-family="sans-serif" font-size="14" lengthAdjust="spacing" textLength="305" x="179.5" y="95.5679">Discover(opts DiscoverOpts) *DiscoveryResult</text></g><!--MD5=[a9367cd9f70b3301293738e4f5d25664]
class lxkns.DiscoverOpts--><g id="elem_lxkns.DiscoverOpts"><rect codeLine="13" fill="#F1F1F1" height="230.6792" id="lxkns.DiscoverOpts" rx="2.5" ry="2.5" style="stroke:#181818;stroke-width:0.5;" width="299" x="22.5" y="182.602"/><ellipse cx="123.25" cy="198.602" fill="#9ACD32" rx="11" ry="11" style="stroke:#181818;stroke-width:1.0;"/><path d="M122.9219,205.2739 Q122,205.2739 121.1094,205.102 Q120.2188,204.9145 119.4375,204.5395 L119.4375,202.2895 Q120.3906,202.7739 121.2656,203.0082 Q122.1563,203.227 123,203.227 Q123.875,203.227 124.4375,202.9301 Q125,202.6332 125,201.852 Q125,201.3051 124.7031,201.0082 Q124.4063,200.6957 123.8438,200.4145 Q123.2813,200.1332 122.5,199.727 Q121.7188,199.3051 121.0625,198.8207 Q120.4219,198.3207 120.0469,197.6489 Q119.6719,196.977 119.6719,196.0239 Q119.6719,194.3989 120.7656,193.602 Q121.875,192.7895 123.6563,192.7895 Q124.375,192.7895 125.3594,192.9614 Q126.3438,193.1176 127.2969,193.5707 L126.5156,195.4926 Q125.6719,195.1332 124.9844,194.9926 Q124.3125,194.8364 123.7969,194.8364 Q122.9531,194.8364 122.5625,195.1801 Q122.1875,195.5082 122.1875,196.1489 Q122.1875,196.6332 122.4219,196.9457 Q122.6719,197.2426 123.1406,197.4926 Q123.625,197.7426 124.3594,198.1176 Q125.3594,198.602 126.0625,199.0707 Q126.7656,199.5395 127.1406,200.1645 Q127.5156,200.7739 127.5156,201.7114 Q127.5156,202.8989 126.9375,203.6957 Q126.375,204.477 125.3281,204.8832 Q124.2969,205.2739 122.9219,205.2739 Z " fill="#000000"/><text fill="#000000" font-family="sans-serif" font-size="14" lengthAdjust="spacing" textLength="89" x="143.75" y="204.034">DiscoverOpts</text><line style="stroke:#181818;stroke-width:0.5;" x1="23.5" x2="320.5" y1="214.602" y2="214.602"/><text fill="#000000" font-family="sans-serif" font-size="14" lengthAdjust="spacing" textLength="287" x="28.5" y="233.5679">NamespaceTypes species.NamespaceType</text><text fill="#000000" font-family="sans-serif" font-size="14" lengthAdjust="spacing" textLength="101" x="28.5" y="252.6358">ScanProcs bool</text><text fill="#000000" font-family="sans-serif" font-size="14" lengthAdjust="spacing" textLength="102" x="28.5" y="271.7038">ScanTasks bool</text><text fill="#000000" font-family="sans-serif" font-size="14" lengthAdjust="spacing" textLength="88" x="28.5" y="290.7717">ScanFds bool</text><text fill="#000000" font-family="sans-serif" font-size="14" lengthAdjust="spacing" textLength="147" x="28.5" y="309.8396">ScanBindmounts bool</text><text fill="#000000" font-family="sans-serif" font-size="14" lengthAdjust="spacing" textLength="155" x="28.5" y="328.9075">DiscoverHierarchy bool</text><text fill="#000000" font-family="sans-serif" font-size="14" lengthAdjust="spacing" textLength="164" x="28.5" y="347.9754">DiscoverOwnership bool</text><text fill="#000000" font-family="sans-serif" font-size="14" lengthAdjust="spacing" textLength="174" x="28.5" y="367.0433">DiscoverFreezerState bool</text><text fill="#000000" font-family="sans-serif" font-size="14" lengthAdjust="spacing" textLength="141" x="28.5" y="386.1113">DiscoverMounts bool</text><text fill="#000000" font-family="sans-serif" font-size="14" lengthAdjust="spacing" textLength="279" x="28.5" y="405.1792">Containerizer containerizer.Containerizer</text></g><!--MD5=[b57205d3e73c55ee3965a0a195866d94]
class lxkns.DiscoveryResult--><g id="elem_lxkns.DiscoveryResult"><rect codeLine="26" fill="#F1F1F1" height="154.4075" id="lxkns.DiscoveryResult" rx="2.5" ry="2.5" style="stroke:#181818;stroke-width:0.5;" width="294" x="357" y="221.102"/><ellipse cx="446.75" cy="237.102" fill="#9ACD32" rx="11" ry="11" style="stroke:#181818;stroke-width:1.0;"/><path d="M446.4219,243.7739 Q445.5,243.7739 444.6094,243.602 Q443.7188,243.4145 442.9375,243.0395 L442.9375,240.7895 Q443.8906,241.2739 444.7656,241.5082 Q445.6563,241.727 446.5,241.727 Q447.375,241.727 447.9375,241.4301 Q448.5,241.1332 448.5,240.352 Q448.5,239.8051 448.2031,239.5082 Q447.9063,239.1957 447.3438,238.9145 Q446.7813,238.6332 446,238.227 Q445.2188,237.8051 444.5625,237.3207 Q443.9219,236.8207 443.5469,236.1489 Q443.1719,235.477 443.1719,234.5239 Q443.1719,232.8989 444.2656,232.102 Q445.375,231.2895 447.1563,231.2895 Q447.875,231.2895 448.8594,231.4614 Q449.8438,231.6176 450.7969,232.0707 L450.0156,233.9926 Q449.1719,233.6332 448.4844,233.4926 Q447.8125,233.3364 447.2969,233.3364 Q446.4531,233.3364 446.0625,233.6801 Q445.6875,234.0082 445.6875,234.6489 Q445.6875,235.1332 445.9219,235.4457 Q446.1719,235.7426 446.6406,235.9926 Q447.125,236.2426 447.8594,236.6176 Q448.8594,237.102 449.5625,237.5707 Q450.2656,238.0395 450.6406,238.6645 Q451.0156,239.2739 451.0156,240.2114 Q451.0156,241.3989 450.4375,242.1957 Q449.875,242.977 448.8281,243.3832 Q447.7969,243.7739 446.4219,243.7739 Z " fill="#000000"/><text fill="#000000" font-family="sans-serif" font-size="14" lengthAdjust="spacing" textLength="106" x="467.25" y="242.534">DiscoveryResult</text><line style="stroke:#181818;stroke-width:0.5;" x1="358" x2="650" y1="253.102" y2="253.102"/><text fill="#000000" font-family="sans-serif" font-size="14" lengthAdjust="spacing" textLength="146" x="363" y="272.0679">Options DiscoverOpts</text><text fill="#000000" font-family="sans-serif" font-size="14" lengthAdjust="spacing" textLength="239" x="363" y="291.1358">Namespaces model.AllNamespaces</text><text fill="#000000" font-family="sans-serif" font-size="14" lengthAdjust="spacing" textLength="282" x="363" y="310.2038">InitialNamespaces model.NamespacesSet</text><text fill="#000000" font-family="sans-serif" font-size="14" lengthAdjust="spacing" textLength="204" x="363" y="329.2717">Processes model.ProcessTable</text><text fill="#000000" font-family="sans-serif" font-size="14" lengthAdjust="spacing" textLength="247" x="363" y="348.3396">Mounts NamespacedMountPathMap</text><text fill="#000000" font-family="sans-serif" font-size="14" lengthAdjust="spacing" textLength="207" x="363" y="367.4075">Containers []*model.Container</text></g><!--MD5=[400c1bc9ff25948cfff8370b245bfe32]
reverse link lxkns.Discover to lxkns.DiscoverOpts--><g id="link_lxkns.Discover_lxkns.DiscoverOpts"><path codeLine="10" d="M308.4,107.852 C293.91,127.952 274.4,155.022 254.67,182.402 " fill="none" id="lxkns.Discover-backto-lxkns.DiscoverOpts" style="stroke:#181818;stroke-width:1.0;stroke-dasharray:7.0,7.0;"/><polygon fill="#181818" points="311.41,103.672,302.8991,108.6283,308.4836,107.7261,309.3858,113.3106,311.41,103.672" style="stroke:#181818;stroke-width:1.0;"/><text fill="#000000" font-family="sans-serif" font-size="13" lengthAdjust="spacing" textLength="49" x="290" y="148.499">controls</text></g><!--MD5=[ba03fa83e550507b83669ad77386a16e]
link lxkns.Discover to lxkns.DiscoveryResult--><g id="link_lxkns.Discover_lxkns.DiscoveryResult"><path codeLine="11" d="M354.13,103.672 C376.19,132.142 411.1,177.192 441.67,216.662 " fill="none" id="lxkns.Discover-to-lxkns.DiscoveryResult" style="stroke:#181818;stroke-width:1.0;stroke-dasharray:7.0,7.0;"/><polygon fill="#181818" points="445,220.952,442.6415,211.3897,441.9342,217.0022,436.3218,216.2949,445,220.952" style="stroke:#181818;stroke-width:1.0;"/><text fill="#000000" font-family="sans-serif" font-size="13" lengthAdjust="spacing" textLength="44" x="388" y="148.499">returns</text></g><!--MD5=[9fb3be9ce18abb2b85939bdc36beabf0]
@startuml namespaces-discovery
hide empty fields
hide empty methods

namespace lxkns {
  
  class Discover as " " <<(F,LightGray)>> {
    Discover(opts DiscoverOpts) *DiscoveryResult
  }
  
  Discover <.. DiscoverOpts : "controls"
  Discover ..> DiscoveryResult : "returns"
  
  class "DiscoverOpts" <<(S,YellowGreen)>> {
    NamespaceTypes species.NamespaceType
    ScanProcs bool
    ScanTasks bool
    ScanFds bool
    ScanBindmounts bool
    DiscoverHierarchy bool
    DiscoverOwnership bool
    DiscoverFreezerState bool
    DiscoverMounts bool
    Containerizer containerizer.Containerizer
  }
  
  class "DiscoveryResult" <<(S,YellowGreen)>> {
    Options DiscoverOpts
    Namespaces model.AllNamespaces
    InitialNamespaces model.NamespacesSet
    ' TODO: Root(s)
    Processes model.ProcessTable
    Mounts NamespacedMountPathMap
    Containers []*model.Container
  }
  
}

@enduml

@startuml namespaces-discovery
hide empty fields
hide empty methods

namespace lxkns {
  
  class Discover as " " <<(F,LightGray)>> {
    Discover(opts DiscoverOpts) *DiscoveryResult
  }
  
  Discover <.. DiscoverOpts : "controls"
  Discover ..> DiscoveryResult : "returns"
  
  class "DiscoverOpts" <<(S,YellowGreen)>> {
    NamespaceTypes species.NamespaceType
    ScanProcs bool
    ScanTasks bool
    ScanFds bool
    ScanBindmounts bool
    DiscoverHierarchy bool
    DiscoverOwnership bool
    DiscoverFreezerState bool
    DiscoverMounts bool
    Containerizer containerizer.Containerizer
  }
  
  class "DiscoveryResult" <<(S,YellowGreen)>> {
    Options DiscoverOpts
    Namespaces model.AllNamespaces
    InitialNamespaces model.NamespacesSet
    Processes model.ProcessTable
    Mounts NamespacedMountPathMap
    Containers []*model.Container
  }
  
}

@enduml

PlantUML version 1.2022.7(Mon Aug 22 19:01:30 CEST 2022)
(GPL source distribution)
Java Runtime: OpenJDK Runtime Environment
JVM: OpenJDK 64-Bit Server VM
Default Encoding: UTF-8
Language: en
Country: US
--></g></svg>