<?xml version="1.0" encoding="UTF-8" standalone="no"?><svg xmlns="http://www.w3.org/2000/svg" xmlns:xlink="http://www.w3.org/1999/xlink" contentScriptType="application/ecmascript" contentStyleType="text/css" height="376px" preserveAspectRatio="none" style="width:555px;height:376px;background:#FFFFFF;" version="1.1" viewBox="0 0 555 376" width="555px" zoomAndPan="magnify"><defs><filter height="300%" id="f1q7ecg4yqa6ng" width="300%" x="-1" y="-1"><feGaussianBlur result="blurOut" stdDeviation="2.0"/><feColorMatrix in="blurOut" result="blurOut2" type="matrix" values="0 0 0 0 0 0 0 0 0 0 0 0 0 0 0 0 0 0 .4 0"/><feOffset dx="4.0" dy="4.0" in="blurOut2" result="blurOut3"/><feBlend in="SourceGraphic" in2="blurOut3" mode="normal"/></filter></defs><g><!--MD5=[b218a1f8144c717cd4284a81240038db]
cluster lxkns--><polygon fill="#FFFFFF" filter="url(#f1q7ecg4yqa6ng)" points="16,6.602,59,6.602,66,31.6699,538,31.6699,538,369.602,16,369.602,16,6.602" style="stroke:#000000;stroke-width:1.5;"/><line style="stroke:#000000;stroke-width:1.5;" x1="16" x2="66" y1="31.6699" y2="31.6699"/><text fill="#000000" font-family="sans-serif" font-size="14" font-weight="bold" lengthAdjust="spacing" textLength="37" x="20" y="23.5679">lxkns</text><!--MD5=[3a5a15330eb7efddcc345f62c26c3507]
class lxkns.Discover--><rect codeLine="6" fill="#FEFECE" filter="url(#f1q7ecg4yqa6ng)" height="54.9819" id="lxkns.Discover" style="stroke:#A80036;stroke-width:1.5;" width="251" x="145.5" y="44.602"/><ellipse cx="265.25" cy="60.602" fill="#D3D3D3" rx="11" ry="11" style="stroke:#A80036;stroke-width:1.0;"/><path d="M261.6094,67.102 L261.6094,54.9614 L269.2656,54.9614 L269.2656,57.0864 L263.9844,57.0864 L263.9844,60.2582 L269,60.2582 L269,62.3832 L263.9844,62.3832 L263.9844,67.102 L261.6094,67.102 Z " fill="#000000"/><text fill="#000000" font-family="sans-serif" font-size="12" lengthAdjust="spacing" textLength="0" x="288.75" y="65.258"/><line style="stroke:#A80036;stroke-width:1.5;" x1="146.5" x2="395.5" y1="76.602" y2="76.602"/><text fill="#000000" font-family="sans-serif" font-size="11" lengthAdjust="spacing" textLength="239" x="151.5" y="92.3609">Discover(opts DiscoverOpts) *DiscoveryResult</text><!--MD5=[a9367cd9f70b3301293738e4f5d25664]
class lxkns.DiscoverOpts--><rect codeLine="13" fill="#FEFECE" filter="url(#f1q7ecg4yqa6ng)" height="174.837" id="lxkns.DiscoverOpts" style="stroke:#A80036;stroke-width:1.5;" width="229" x="32.5" y="178.602"/><ellipse cx="105.25" cy="194.602" fill="#9ACD32" rx="11" ry="11" style="stroke:#A80036;stroke-width:1.0;"/><path d="M104.9219,201.2739 Q104,201.2739 103.1094,201.102 Q102.2188,200.9145 101.4375,200.5395 L101.4375,198.2895 Q102.3906,198.7739 103.2656,199.0082 Q104.1563,199.227 105,199.227 Q105.875,199.227 106.4375,198.9301 Q107,198.6332 107,197.852 Q107,197.3051 106.7031,197.0082 Q106.4063,196.6957 105.8438,196.4145 Q105.2813,196.1332 104.5,195.727 Q103.7188,195.3051 103.0625,194.8207 Q102.4219,194.3207 102.0469,193.6489 Q101.6719,192.977 101.6719,192.0239 Q101.6719,190.3989 102.7656,189.602 Q103.875,188.7895 105.6563,188.7895 Q106.375,188.7895 107.3594,188.9614 Q108.3438,189.1176 109.2969,189.5707 L108.5156,191.4926 Q107.6719,191.1332 106.9844,190.9926 Q106.3125,190.8364 105.7969,190.8364 Q104.9531,190.8364 104.5625,191.1801 Q104.1875,191.5082 104.1875,192.1489 Q104.1875,192.6332 104.4219,192.9457 Q104.6719,193.2426 105.1406,193.4926 Q105.625,193.7426 106.3594,194.1176 Q107.3594,194.602 108.0625,195.0707 Q108.7656,195.5395 109.1406,196.1645 Q109.5156,196.7739 109.5156,197.7114 Q109.5156,198.8989 108.9375,199.6957 Q108.375,200.477 107.3281,200.8832 Q106.2969,201.2739 104.9219,201.2739 Z " fill="#000000"/><text fill="#000000" font-family="sans-serif" font-size="12" lengthAdjust="spacing" textLength="75" x="125.75" y="199.258">DiscoverOpts</text><line style="stroke:#A80036;stroke-width:1.5;" x1="33.5" x2="260.5" y1="210.602" y2="210.602"/><text fill="#000000" font-family="sans-serif" font-size="11" lengthAdjust="spacing" textLength="216" x="38.5" y="226.3609">NamespaceTypes species.NamespaceType</text><text fill="#000000" font-family="sans-serif" font-size="11" lengthAdjust="spacing" textLength="80" x="38.5" y="241.3428">ScanProcs bool</text><text fill="#000000" font-family="sans-serif" font-size="11" lengthAdjust="spacing" textLength="69" x="38.5" y="256.3247">ScanFds bool</text><text fill="#000000" font-family="sans-serif" font-size="11" lengthAdjust="spacing" textLength="115" x="38.5" y="271.3066">ScanBindmounts bool</text><text fill="#000000" font-family="sans-serif" font-size="11" lengthAdjust="spacing" textLength="123" x="38.5" y="286.2884">DiscoverHierarchy bool</text><text fill="#000000" font-family="sans-serif" font-size="11" lengthAdjust="spacing" textLength="130" x="38.5" y="301.2703">DiscoverOwnership bool</text><text fill="#000000" font-family="sans-serif" font-size="11" lengthAdjust="spacing" textLength="137" x="38.5" y="316.2522">DiscoverFreezerState bool</text><text fill="#000000" font-family="sans-serif" font-size="11" lengthAdjust="spacing" textLength="112" x="38.5" y="331.2341">DiscoverMounts bool</text><text fill="#000000" font-family="sans-serif" font-size="11" lengthAdjust="spacing" textLength="217" x="38.5" y="346.216">Containerizer containerizer.Containerizer</text><!--MD5=[b57205d3e73c55ee3965a0a195866d94]
class lxkns.DiscoveryResult--><rect codeLine="25" fill="#FEFECE" filter="url(#f1q7ecg4yqa6ng)" height="129.8913" id="lxkns.DiscoveryResult" style="stroke:#A80036;stroke-width:1.5;" width="225" x="296.5" y="201.102"/><ellipse cx="360.25" cy="217.102" fill="#9ACD32" rx="11" ry="11" style="stroke:#A80036;stroke-width:1.0;"/><path d="M359.9219,223.7739 Q359,223.7739 358.1094,223.602 Q357.2188,223.4145 356.4375,223.0395 L356.4375,220.7895 Q357.3906,221.2739 358.2656,221.5082 Q359.1563,221.727 360,221.727 Q360.875,221.727 361.4375,221.4301 Q362,221.1332 362,220.352 Q362,219.8051 361.7031,219.5082 Q361.4063,219.1957 360.8438,218.9145 Q360.2813,218.6332 359.5,218.227 Q358.7188,217.8051 358.0625,217.3207 Q357.4219,216.8207 357.0469,216.1489 Q356.6719,215.477 356.6719,214.5239 Q356.6719,212.8989 357.7656,212.102 Q358.875,211.2895 360.6563,211.2895 Q361.375,211.2895 362.3594,211.4614 Q363.3438,211.6176 364.2969,212.0707 L363.5156,213.9926 Q362.6719,213.6332 361.9844,213.4926 Q361.3125,213.3364 360.7969,213.3364 Q359.9531,213.3364 359.5625,213.6801 Q359.1875,214.0082 359.1875,214.6489 Q359.1875,215.1332 359.4219,215.4457 Q359.6719,215.7426 360.1406,215.9926 Q360.625,216.2426 361.3594,216.6176 Q362.3594,217.102 363.0625,217.5707 Q363.7656,218.0395 364.1406,218.6645 Q364.5156,219.2739 364.5156,220.2114 Q364.5156,221.3989 363.9375,222.1957 Q363.375,222.977 362.3281,223.3832 Q361.2969,223.7739 359.9219,223.7739 Z " fill="#000000"/><text fill="#000000" font-family="sans-serif" font-size="12" lengthAdjust="spacing" textLength="89" x="380.75" y="221.758">DiscoveryResult</text><line style="stroke:#A80036;stroke-width:1.5;" x1="297.5" x2="520.5" y1="233.102" y2="233.102"/><text fill="#000000" font-family="sans-serif" font-size="11" lengthAdjust="spacing" textLength="115" x="302.5" y="248.8609">Options DiscoverOpts</text><text fill="#000000" font-family="sans-serif" font-size="11" lengthAdjust="spacing" textLength="180" x="302.5" y="263.8428">Namespaces model.AllNamespaces</text><text fill="#000000" font-family="sans-serif" font-size="11" lengthAdjust="spacing" textLength="213" x="302.5" y="278.8247">InitialNamespaces model.NamespacesSet</text><text fill="#000000" font-family="sans-serif" font-size="11" lengthAdjust="spacing" textLength="158" x="302.5" y="293.8066">Processes model.ProcessTable</text><text fill="#000000" font-family="sans-serif" font-size="11" lengthAdjust="spacing" textLength="191" x="302.5" y="308.7884">Mounts NamespacedMountPathMap</text><text fill="#000000" font-family="sans-serif" font-size="11" lengthAdjust="spacing" textLength="162" x="302.5" y="323.7703">Containers []*model.Container</text><!--MD5=[400c1bc9ff25948cfff8370b245bfe32]
reverse link lxkns.Discover to lxkns.DiscoverOpts--><path codeLine="10" d="M251.04,104.002 C237.99,124.222 220.22,151.732 203.07,178.292 " fill="none" id="lxkns.Discover-backto-lxkns.DiscoverOpts" style="stroke:#A80036;stroke-width:1.0;stroke-dasharray:7.0,7.0;"/><polygon fill="#A80036" points="253.76,99.802,245.5155,105.1898,251.0461,104.0014,252.2345,109.532,253.76,99.802" style="stroke:#A80036;stroke-width:1.0;"/><text fill="#000000" font-family="sans-serif" font-size="13" lengthAdjust="spacing" textLength="49" x="235" y="144.499">controls</text><!--MD5=[ba03fa83e550507b83669ad77386a16e]
link lxkns.Discover to lxkns.DiscoveryResult--><path codeLine="11" d="M290.19,99.802 C308.19,124.852 335.89,163.382 360.01,196.942 " fill="none" id="lxkns.Discover-to-lxkns.DiscoveryResult" style="stroke:#A80036;stroke-width:1.0;stroke-dasharray:7.0,7.0;"/><polygon fill="#A80036" points="362.93,201.012,360.9442,191.3654,360.0198,196.9462,354.439,196.0218,362.93,201.012" style="stroke:#A80036;stroke-width:1.0;"/><text fill="#000000" font-family="sans-serif" font-size="13" lengthAdjust="spacing" textLength="44" x="324" y="144.499">returns</text><!--MD5=[1212e2ec1b05523751bc81796ea0058e]
@startuml namespaces-discovery
hide empty fields
hide empty methods

namespace lxkns {
  
  class Discover as " " <<(F,LightGray)>> {
    Discover(opts DiscoverOpts) *DiscoveryResult
  }
  
  Discover <.. DiscoverOpts : "controls"
  Discover ..> DiscoveryResult : "returns"
  
  class "DiscoverOpts" <<(S,YellowGreen)>> {
    NamespaceTypes species.NamespaceType
    ScanProcs bool
    ScanFds bool
    ScanBindmounts bool
    DiscoverHierarchy bool
    DiscoverOwnership bool
    DiscoverFreezerState bool
    DiscoverMounts bool
    Containerizer containerizer.Containerizer
  }
  
  class "DiscoveryResult" <<(S,YellowGreen)>> {
    Options DiscoverOpts
    Namespaces model.AllNamespaces
    InitialNamespaces model.NamespacesSet
    ' TODO: Root(s)
    Processes model.ProcessTable
    Mounts NamespacedMountPathMap
    Containers []*model.Container
  }
  
}

@enduml

@startuml namespaces-discovery
hide empty fields
hide empty methods

namespace lxkns {
  
  class Discover as " " <<(F,LightGray)>> {
    Discover(opts DiscoverOpts) *DiscoveryResult
  }
  
  Discover <.. DiscoverOpts : "controls"
  Discover ..> DiscoveryResult : "returns"
  
  class "DiscoverOpts" <<(S,YellowGreen)>> {
    NamespaceTypes species.NamespaceType
    ScanProcs bool
    ScanFds bool
    ScanBindmounts bool
    DiscoverHierarchy bool
    DiscoverOwnership bool
    DiscoverFreezerState bool
    DiscoverMounts bool
    Containerizer containerizer.Containerizer
  }
  
  class "DiscoveryResult" <<(S,YellowGreen)>> {
    Options DiscoverOpts
    Namespaces model.AllNamespaces
    InitialNamespaces model.NamespacesSet
    Processes model.ProcessTable
    Mounts NamespacedMountPathMap
    Containers []*model.Container
  }
  
}

@enduml

PlantUML version 1.2021.7(Sun May 23 14:40:07 CEST 2021)
(GPL source distribution)
Java Runtime: OpenJDK Runtime Environment
JVM: OpenJDK 64-Bit Server VM
Default Encoding: UTF-8
Language: en
Country: null
--></g></svg>