<?xml version="1.0" encoding="UTF-8" standalone="no"?><svg xmlns="http://www.w3.org/2000/svg" xmlns:xlink="http://www.w3.org/1999/xlink" contentStyleType="text/css" height="896px" preserveAspectRatio="none" style="width:729px;height:896px;background:#FFFFFF;" version="1.1" viewBox="0 0 729 896" width="729px" zoomAndPan="magnify"><defs/><g><!--MD5=[b218a1f8144c717cd4284a81240038db]
cluster lxkns--><g id="cluster_lxkns"><path d="M8.5,6.602 L46.5,6.602 A3.75,3.75 0 0 1 49,9.102 L56,31.6699 L486.5,31.6699 A2.5,2.5 0 0 1 489,34.1699 L489,531.102 A2.5,2.5 0 0 1 486.5,533.602 L8.5,533.602 A2.5,2.5 0 0 1 6,531.102 L6,9.102 A2.5,2.5 0 0 1 8.5,6.602 " fill="none" style="stroke:#000000;stroke-width:1.5;"/><line style="stroke:#000000;stroke-width:1.5;" x1="6" x2="56" y1="31.6699" y2="31.6699"/><text fill="#000000" font-family="sans-serif" font-size="14" font-weight="bold" lengthAdjust="spacing" textLength="37" x="10" y="23.5679">lxkns</text></g><!--MD5=[cc15d90970407766905619ec9f90e0d4]
class PIDMap--><g id="elem_PIDMap"><rect codeLine="7" fill="#F1F1F1" height="86.1358" id="PIDMap" rx="2.5" ry="2.5" style="stroke:#181818;stroke-width:0.5;" width="450" x="22" y="150.602"/><ellipse cx="216.25" cy="166.602" fill="#9ACD32" rx="11" ry="11" style="stroke:#181818;stroke-width:1.0;"/><path d="M215.9219,173.2739 Q215,173.2739 214.1094,173.102 Q213.2188,172.9145 212.4375,172.5395 L212.4375,170.2895 Q213.3906,170.7739 214.2656,171.0082 Q215.1563,171.227 216,171.227 Q216.875,171.227 217.4375,170.9301 Q218,170.6332 218,169.852 Q218,169.3051 217.7031,169.0082 Q217.4063,168.6957 216.8438,168.4145 Q216.2813,168.1332 215.5,167.727 Q214.7188,167.3051 214.0625,166.8207 Q213.4219,166.3207 213.0469,165.6489 Q212.6719,164.977 212.6719,164.0239 Q212.6719,162.3989 213.7656,161.602 Q214.875,160.7895 216.6563,160.7895 Q217.375,160.7895 218.3594,160.9614 Q219.3438,161.1176 220.2969,161.5707 L219.5156,163.4926 Q218.6719,163.1332 217.9844,162.9926 Q217.3125,162.8364 216.7969,162.8364 Q215.9531,162.8364 215.5625,163.1801 Q215.1875,163.5082 215.1875,164.1489 Q215.1875,164.6332 215.4219,164.9457 Q215.6719,165.2426 216.1406,165.4926 Q216.625,165.7426 217.3594,166.1176 Q218.3594,166.602 219.0625,167.0707 Q219.7656,167.5395 220.1406,168.1645 Q220.5156,168.7739 220.5156,169.7114 Q220.5156,170.8989 219.9375,171.6957 Q219.375,172.477 218.3281,172.8832 Q217.2969,173.2739 215.9219,173.2739 Z " fill="#000000"/><text fill="#000000" font-family="sans-serif" font-size="14" lengthAdjust="spacing" textLength="53" x="236.75" y="172.034">PIDMap</text><line style="stroke:#181818;stroke-width:0.5;" x1="23" x2="471" y1="182.602" y2="182.602"/><text fill="#000000" font-family="sans-serif" font-size="14" lengthAdjust="spacing" textLength="286" x="28" y="201.5679">m map[NamespacedPID]NamespacedPIDs</text><line style="stroke:#181818;stroke-width:0.5;" x1="23" x2="471" y1="209.6699" y2="209.6699"/><text fill="#000000" font-family="sans-serif" font-size="14" lengthAdjust="spacing" textLength="438" x="28" y="228.6358">Translate(pid PIDType, from Namespace, to Namespace) PIDType</text></g><g id="elem_GMN4"><path d="M80,44.602 L80,90.014 A0,0 0 0 0 80,90.014 L243,90.014 L247,150.542 L251,90.014 L414,90.014 A0,0 0 0 0 414,90.014 L414,54.602 L404,44.602 L80,44.602 A0,0 0 0 0 80,44.602 " fill="#FEFFDD" style="stroke:#181818;stroke-width:0.5;"/><path d="M404,44.602 L404,54.602 L414,54.602 L404,44.602 " fill="#FEFFDD" style="stroke:#181818;stroke-width:0.5;"/><text fill="#000000" font-family="sans-serif" font-size="13" lengthAdjust="spacing" textLength="252" x="86" y="63.499">also accepts TIDs (task IDs) in place of PIDs</text><text fill="#000000" font-family="sans-serif" font-size="13" lengthAdjust="spacing" textLength="313" x="86" y="81.205">when created using a process table containing tasks.</text></g><!--MD5=[d66c7a42ebb4e37cfff9147cc41e1faa]
class NamespacedPID--><g id="elem_NamespacedPID"><rect codeLine="29" fill="#F1F1F1" height="78.1358" id="NamespacedPID" rx="2.5" ry="2.5" style="stroke:#181818;stroke-width:0.5;" width="143" x="59.5" y="297.602"/><ellipse cx="74.5" cy="313.602" fill="#ADD1B2" rx="11" ry="11" style="stroke:#181818;stroke-width:1.0;"/><path d="M73.9688,320.5239 Q72.2188,320.5239 71.0781,319.7895 Q69.9531,319.0395 69.3906,317.6957 Q68.8438,316.3364 68.8438,314.5395 Q68.8438,312.5082 69.5,311.0551 Q70.1563,309.602 71.4375,308.8207 Q72.7188,308.0395 74.5938,308.0395 Q75.4844,308.0395 76.1563,308.227 Q76.8281,308.3989 77.5156,308.7426 L76.7031,310.7582 Q76.0781,310.4457 75.5313,310.3207 Q75,310.1957 74.5156,310.1957 Q73.3438,310.1957 72.6406,310.727 Q71.9375,311.2582 71.6406,312.2114 Q71.3438,313.1645 71.3438,314.4301 Q71.3438,316.4457 72.0625,317.4145 Q72.7813,318.3676 74.375,318.3676 Q74.9688,318.3676 75.5938,318.2114 Q76.2188,318.0551 77.0469,317.6801 L77.0469,319.8989 Q76.3125,320.2114 75.5156,320.3676 Q74.7344,320.5239 73.9688,320.5239 Z " fill="#000000"/><text fill="#000000" font-family="sans-serif" font-size="14" lengthAdjust="spacing" textLength="111" x="88.5" y="319.034">NamespacedPID</text><line style="stroke:#181818;stroke-width:0.5;" x1="60.5" x2="201.5" y1="329.602" y2="329.602"/><text fill="#000000" font-family="sans-serif" font-size="14" lengthAdjust="spacing" textLength="125" x="65.5" y="348.5679">PIDNS Namespace</text><text fill="#000000" font-family="sans-serif" font-size="14" lengthAdjust="spacing" textLength="82" x="65.5" y="367.6358">PID PIDType</text></g><!--MD5=[f84f9641263545785783ea31cd11d85f]
class NamespacedPIDs--><g id="elem_NamespacedPIDs"><rect codeLine="19" fill="#F1F1F1" height="59.0679" id="NamespacedPIDs" rx="2.5" ry="2.5" style="stroke:#181818;stroke-width:0.5;" width="150" x="303" y="447.602"/><ellipse cx="318" cy="463.602" fill="#F0E68C" rx="11" ry="11" style="stroke:#181818;stroke-width:1.0;"/><path d="M316.6094,470.852 L316.6094,460.8364 L313.2656,460.8364 L313.2656,458.7114 L322.4375,458.7114 L322.4375,460.8364 L319.0781,460.8364 L319.0781,470.852 L316.6094,470.852 Z " fill="#000000"/><text fill="#000000" font-family="sans-serif" font-size="14" lengthAdjust="spacing" textLength="118" x="332" y="469.034">NamespacedPIDs</text><line style="stroke:#181818;stroke-width:0.5;" x1="304" x2="452" y1="479.602" y2="479.602"/><text fill="#000000" font-family="sans-serif" font-size="14" lengthAdjust="spacing" textLength="121" x="309" y="498.5679">[]NamespacedPID</text></g><g id="elem_GMN11"><path d="M22,436.602 L22,517.426 A0,0 0 0 0 22,517.426 L268,517.426 A0,0 0 0 0 268,517.426 L268,481.102 L302.6,477.102 L268,473.102 L268,446.602 L258,436.602 L22,436.602 A0,0 0 0 0 22,436.602 " fill="#FEFFDD" style="stroke:#181818;stroke-width:0.5;"/><path d="M258,436.602 L258,446.602 L268,446.602 L258,436.602 " fill="#FEFFDD" style="stroke:#181818;stroke-width:0.5;"/><text fill="#000000" font-family="sans-serif" font-size="13" lengthAdjust="spacing" textLength="225" x="28" y="455.499">slice of &lt;PID/TID; namespace ID&gt; pairs</text><text fill="#000000" font-family="sans-serif" font-size="13" lengthAdjust="spacing" textLength="225" x="28" y="473.205">which refer to the same process (task)</text><text fill="#000000" font-family="sans-serif" font-size="13" lengthAdjust="spacing" textLength="213" x="28" y="490.911">in its own PID namespace, as well as</text><text fill="#000000" font-family="sans-serif" font-size="13" lengthAdjust="spacing" textLength="174" x="28" y="508.617">in all parent PID namespaces.</text></g><g id="elem_GMN14"><path d="M237.5,314.102 L237.5,332.602 L202.75,336.602 L237.5,340.602 L237.5,359.514 A0,0 0 0 0 237.5,359.514 L472.5,359.514 A0,0 0 0 0 472.5,359.514 L472.5,324.102 L462.5,314.102 L237.5,314.102 A0,0 0 0 0 237.5,314.102 " fill="#FEFFDD" style="stroke:#181818;stroke-width:0.5;"/><path d="M462.5,314.102 L462.5,324.102 L472.5,324.102 L462.5,314.102 " fill="#FEFFDD" style="stroke:#181818;stroke-width:0.5;"/><text fill="#000000" font-family="sans-serif" font-size="13" lengthAdjust="spacing" textLength="214" x="243.5" y="332.999">a PID (or TID) and the namespace ID</text><text fill="#000000" font-family="sans-serif" font-size="13" lengthAdjust="spacing" textLength="135" x="243.5" y="350.705">the PID (TID) is valid in.</text></g><g id="elem_pidmap"><rect fill="#F1F1F1" height="50.1358" style="stroke:#181818;stroke-width:0.5;" width="75" x="340.5" y="580.602"/><text fill="#000000" font-family="sans-serif" font-size="14" lengthAdjust="spacing" textLength="61" x="347.5" y="597.5679">: PIDMap</text><line style="stroke:#181818;stroke-width:0.5;" x1="341.5" x2="414.5" y1="603.6699" y2="603.6699"/><text fill="#000000" font-family="sans-serif" font-size="14" lengthAdjust="spacing" textLength="13" x="346.5" y="622.6358">m</text></g><g id="elem_pid1"><rect fill="#F1F1F1" height="50.1358" style="stroke:#181818;stroke-width:0.5;" width="153" x="133.5" y="709.602"/><text fill="#000000" font-family="sans-serif" font-size="14" lengthAdjust="spacing" textLength="126" x="147" y="726.5679">: NamespacedPIDs</text><line style="stroke:#181818;stroke-width:0.5;" x1="134.5" x2="285.5" y1="732.6699" y2="732.6699"/><text fill="#000000" font-family="sans-serif" font-size="14" lengthAdjust="spacing" textLength="141" x="139.5" y="751.6358">[1]: {PID: 1, PIDNS: 1}</text></g><g id="elem_pid4567"><rect fill="#F1F1F1" height="69.2038" style="stroke:#181818;stroke-width:0.5;" width="177" x="377.5" y="820.602"/><text fill="#000000" font-family="sans-serif" font-size="14" lengthAdjust="spacing" textLength="126" x="403" y="837.5679">: NamespacedPIDs</text><line style="stroke:#181818;stroke-width:0.5;" x1="378.5" x2="553.5" y1="843.6699" y2="843.6699"/><text fill="#000000" font-family="sans-serif" font-size="14" lengthAdjust="spacing" textLength="165" x="383.5" y="862.6358">[0]: {PID: 4567, PIDNS: 1}</text><text fill="#000000" font-family="sans-serif" font-size="14" lengthAdjust="spacing" textLength="141" x="383.5" y="881.7038">[1]: {PID: 1, PIDNS: 2}</text></g><!--MD5=[b38dced7b5093de65ab9cd269eb3f33d]
link PIDMap to NamespacedPID--><!--MD5=[9af7c789aee602872c1b4b19e3f8060e]
link PIDMap to NamespacedPIDs--><!--MD5=[94fff38d9e88b7ed0c3720470ae624b7]
link NamespacedPIDs to pidmap--><!--MD5=[370ea4afa690130cb984b7a74a299dbf]
link pidmap to pid1--><!--MD5=[370ea4afa690130cb984b7a74a299dbf]
link pidmap to pid1--><g id="link_pidmap_pid1"><path codeLine="46" d="M340.31,611.972 C308.55,618.382 263.95,632.052 236,660.602 C223.11,673.772 216.57,693.752 213.27,709.482 " fill="none" id="pidmap-pid1-1" style="stroke:#181818;stroke-width:1.0;"/><polygon fill="#000000" points="237.0337,673.4994,245.9983,670.3234,242.4194,665.6607,237.0337,673.4994" style="stroke:#000000;stroke-width:1.0;"/><text fill="#000000" font-family="sans-serif" font-size="13" lengthAdjust="spacing" textLength="101" x="250" y="675.499">{PID: 1, PIDNS: 1}</text></g><!--MD5=[9c8be156f64df545475ddf4371c14ef3]
link pidmap to pid4567--><!--MD5=[9c8be156f64df545475ddf4371c14ef3]
link pidmap to pid4567--><g id="link_pidmap_pid4567"><path codeLine="53" d="M401.08,630.842 C408.39,639.642 415.89,650.032 421,660.602 C446.38,713.072 457.86,780.592 462.73,820.432 " fill="none" id="pidmap-pid4567-1" style="stroke:#181818;stroke-width:1.0;"/><polygon fill="#000000" points="459.5462,739.7099,459.544,730.1994,453.9542,732.017,459.5462,739.7099" style="stroke:#000000;stroke-width:1.0;"/><text fill="#000000" font-family="sans-serif" font-size="13" lengthAdjust="spacing" textLength="122" x="467" y="739.999">{PID: 4567, PIDNS: 1}</text></g><!--MD5=[9c8be156f64df545475ddf4371c14ef3]
link pidmap to pid4567--><g id="link_pidmap_pid4567"><path codeLine="54" d="M415.61,611.822 C467.09,621.202 557.71,646.262 598,709.602 C624.71,751.602 577.62,792.852 532.45,820.462 " fill="none" id="pidmap-pid4567-2" style="stroke:#181818;stroke-width:1.0;"/><polygon fill="#000000" points="613.443,739.3175,611.5878,729.9897,606.4593,732.8616,613.443,739.3175" style="stroke:#000000;stroke-width:1.0;"/><text fill="#000000" font-family="sans-serif" font-size="13" lengthAdjust="spacing" textLength="101" x="620" y="739.999">{PID: 1, PIDNS: 2}</text></g><!--MD5=[094408dd16974605bd7ad391dc551226]
@startuml pid-map
hide empty fields
hide empty methods
!define L <size:12><&link-intact></size><i>

package "lxkns" {

class "PIDMap" <<(S,YellowGreen)>> {
  m map[NamespacedPID]NamespacedPIDs
  Translate(pid PIDType, from Namespace, to Namespace) PIDType
}
note top {
    also accepts TIDs (task IDs) in place of PIDs
    when created using a process table containing tasks.
}

PIDMap -[hidden]- NamespacedPID
PIDMap -[hidden]- - NamespacedPIDs

class NamespacedPIDs <<(T,Khaki)>> {
    []NamespacedPID
}
note left {
    slice of <PID/TID; namespace ID> pairs
    which refer to the same process (task)
    in its own PID namespace, as well as
    in all parent PID namespaces.
}

class NamespacedPID {
  PIDNS Namespace
  PID PIDType
}
note right: a PID (or TID) and the namespace ID\nthe PID (TID) is valid in.

}

object ": PIDMap" as pidmap {
  m
}
NamespacedPIDs -[hidden]- pidmap

object ": NamespacedPIDs" as pid1 {
  [1]: {PID: 1, PIDNS: 1}
}
pidmap -[hidden]- pid1
pidmap - - pid1 : "{PID: 1, PIDNS: 1} >"

object ": NamespacedPIDs" as pid4567 {
  [0]: {PID: 4567, PIDNS: 1}
  [1]: {PID: 1, PIDNS: 2}
}
pidmap -[hidden]- pid4567
pidmap - - - pid4567 : "{PID: 4567, PIDNS: 1} >"
pidmap - - - pid4567 : "{PID: 1, PIDNS: 2} >"

@enduml

@startuml pid-map
hide empty fields
hide empty methods

package "lxkns" {

class "PIDMap" <<(S,YellowGreen)>> {
  m map[NamespacedPID]NamespacedPIDs
  Translate(pid PIDType, from Namespace, to Namespace) PIDType
}
note top {
    also accepts TIDs (task IDs) in place of PIDs
    when created using a process table containing tasks.
}

PIDMap -[hidden]- NamespacedPID
PIDMap -[hidden]- - NamespacedPIDs

class NamespacedPIDs <<(T,Khaki)>> {
    []NamespacedPID
}
note left {
    slice of <PID/TID; namespace ID> pairs
    which refer to the same process (task)
    in its own PID namespace, as well as
    in all parent PID namespaces.
}

class NamespacedPID {
  PIDNS Namespace
  PID PIDType
}
note right: a PID (or TID) and the namespace ID\nthe PID (TID) is valid in.

}

object ": PIDMap" as pidmap {
  m
}
NamespacedPIDs -[hidden]- pidmap

object ": NamespacedPIDs" as pid1 {
  [1]: {PID: 1, PIDNS: 1}
}
pidmap -[hidden]- pid1
pidmap - - pid1 : "{PID: 1, PIDNS: 1} >"

object ": NamespacedPIDs" as pid4567 {
  [0]: {PID: 4567, PIDNS: 1}
  [1]: {PID: 1, PIDNS: 2}
}
pidmap -[hidden]- pid4567
pidmap - - - pid4567 : "{PID: 4567, PIDNS: 1} >"
pidmap - - - pid4567 : "{PID: 1, PIDNS: 2} >"

@enduml

PlantUML version 1.2022.7(Mon Aug 22 19:01:30 CEST 2022)
(GPL source distribution)
Java Runtime: OpenJDK Runtime Environment
JVM: OpenJDK 64-Bit Server VM
Default Encoding: UTF-8
Language: en
Country: US
--></g></svg>