<?xml version="1.0" encoding="UTF-8" standalone="no"?>
<svg
   xmlns:dc="http://purl.org/dc/elements/1.1/"
   xmlns:cc="http://creativecommons.org/ns#"
   xmlns:rdf="http://www.w3.org/1999/02/22-rdf-syntax-ns#"
   xmlns:svg="http://www.w3.org/2000/svg"
   xmlns="http://www.w3.org/2000/svg"
   xmlns:sodipodi="http://sodipodi.sourceforge.net/DTD/sodipodi-0.dtd"
   xmlns:inkscape="http://www.inkscape.org/namespaces/inkscape"
   version="1.1"
   width="24"
   height="24"
   viewBox="0 0 24 24"
   id="svg4"
   sodipodi:docname="Cgroup.svg"
   inkscape:version="0.92.5 (2060ec1f9f, 2020-04-08)">
  <metadata
     id="metadata10">
    <rdf:RDF>
      <cc:Work
         rdf:about="">
        <dc:format>image/svg+xml</dc:format>
        <dc:type
           rdf:resource="http://purl.org/dc/dcmitype/StillImage" />
        <dc:title></dc:title>
      </cc:Work>
    </rdf:RDF>
  </metadata>
  <defs
     id="defs8" />
  <sodipodi:namedview
     pagecolor="#ffffff"
     bordercolor="#666666"
     borderopacity="1"
     objecttolerance="10"
     gridtolerance="10"
     guidetolerance="10"
     inkscape:pageopacity="0"
     inkscape:pageshadow="2"
     inkscape:window-width="2144"
     inkscape:window-height="1145"
     id="namedview6"
     showgrid="true"
     inkscape:snap-bbox="true"
     inkscape:bbox-paths="true"
     inkscape:bbox-nodes="true"
     inkscape:snap-bbox-edge-midpoints="true"
     inkscape:snap-bbox-midpoints="true"
     inkscape:snap-center="true"
     inkscape:zoom="32"
     inkscape:cx="12.376172"
     inkscape:cy="10.48067"
     inkscape:window-x="141"
     inkscape:window-y="132"
     inkscape:window-maximized="0"
     inkscape:current-layer="svg4"
     inkscape:snap-nodes="true">
    <inkscape:grid
       type="xygrid"
       id="grid817" />
  </sodipodi:namedview>
  <path
     style="color:#000000;overflow:visible;opacity:1;vector-effect:none;fill:#000000;fill-opacity:1;stroke:none;stroke-width:1.99999988;stroke-linecap:butt;stroke-linejoin:miter;stroke-miterlimit:4;stroke-dasharray:none;stroke-dashoffset:0;stroke-opacity:1"
     d="M 3.171875 1.7578125 L 1.7578125 3.171875 L 3.0507812 4.4648438 L 4.7929688 6.2070312 L 3 8 L 4 8 L 8 8 L 8 5.171875 L 8 4 L 8 3 L 6.2070312 4.7929688 L 4.4648438 3.0507812 L 3.171875 1.7578125 z M 14 6 A 7.9999995 7.9999995 0 0 0 13 6.0742188 L 13 8.0859375 L 13 10 L 15 10 L 15 8.0898438 L 15 6.0722656 A 7.9999995 7.9999995 0 0 0 14 6 z M 9.1015625 7.6875 A 7.9999995 7.9999995 0 0 0 6 14 A 7.9999995 7.9999995 0 0 0 9.0976562 20.316406 L 9.7070312 19.707031 L 10.527344 18.886719 L 11.878906 17.535156 L 10.464844 16.121094 L 9.1171875 17.46875 A 6 6 0 0 1 8.09375 15 L 10 15 L 10 13 L 8.0898438 13 A 6 6 0 0 1 9.1132812 10.527344 L 12.070312 13.484375 A 2 2 0 0 0 12 14 A 2 2 0 0 0 14 16 A 2 2 0 0 0 16 14 A 2 2 0 0 0 14 12 A 2 2 0 0 0 13.482422 12.068359 L 12.814453 11.400391 L 10.529297 9.1152344 L 9.1015625 7.6875 z M 18.896484 7.6894531 L 17.472656 9.1132812 L 16.121094 10.464844 L 17.535156 11.878906 L 18.884766 10.529297 L 20.3125 9.1015625 A 7.9999995 7.9999995 0 0 0 18.896484 7.6894531 z M 18 13 L 18 15 L 19.90625 15 L 21.929688 15 A 7.9999995 7.9999995 0 0 0 22 14 A 7.9999995 7.9999995 0 0 0 21.925781 13 L 19.914062 13 L 18 13 z M 17.535156 16.121094 L 16.121094 17.535156 L 17.470703 18.884766 L 18.898438 20.3125 A 7.9999995 7.9999995 0 0 0 20.300781 18.886719 L 18.882812 17.46875 L 17.535156 16.121094 z "
     id="path819-3" />
</svg>
